<svg width="78" height="78" viewBox="0 0 78 78" fill="none" xmlns="http://www.w3.org/2000/svg">
<path d="M32.9062 27.7266C30.0483 27.7266 27.7266 30.0483 27.7266 32.9062V38.0859H38.0859V32.9062C38.0859 30.0483 35.7642 27.7266 32.9062 27.7266Z" fill="#3B6EFF"/>
<path d="M71.6016 39C71.6016 33.3206 68.8106 28.147 64.0941 25.027C64.222 24.4055 64.2891 23.7778 64.2891 23.1562C64.2891 17.9461 60.0539 13.7109 54.8438 13.7109C54.7219 13.7109 54.6061 13.7109 54.4903 13.717C54.0394 9.60375 50.5416 6.39844 46.3125 6.39844C43.1255 6.39844 40.365 8.22047 39 10.8713C37.635 8.22047 34.8745 6.39844 31.6875 6.39844C27.4584 6.39844 23.9606 9.60984 23.5097 13.717C23.3939 13.717 23.2781 13.7109 23.1562 13.7109C17.9461 13.7109 13.7109 17.9461 13.7109 23.1562C13.7109 23.7778 13.778 24.4055 13.9059 25.027C9.18937 28.147 6.39844 33.3206 6.39844 39C6.39844 44.6794 9.18937 49.853 13.9059 52.973C13.778 53.5945 13.7109 54.2222 13.7109 54.8438C13.7109 60.0539 17.9461 64.2891 23.1562 64.2891C23.2781 64.2891 23.3939 64.2891 23.5097 64.283C23.9606 68.3962 27.4584 71.6016 31.6875 71.6016C34.8745 71.6016 37.635 69.7795 39 67.1288C40.365 69.7795 43.1255 71.6016 46.3125 71.6016C50.5416 71.6016 54.0394 68.3902 54.4903 64.283C54.6061 64.283 54.7219 64.2891 54.8438 64.2891C60.0539 64.2891 64.2891 60.0539 64.2891 54.8438C64.2891 54.2222 64.222 53.5945 64.0941 52.973C68.8106 49.853 71.6016 44.6794 71.6016 39ZM39.9141 51.1875H38.0859V39.9141H27.7266V51.1875H25.8984V32.9062C25.8984 29.0428 29.0428 25.8984 32.9062 25.8984C36.7697 25.8984 39.9141 29.0428 39.9141 32.9062V51.1875ZM53.625 27.7266H49.6641V49.3594H53.625V51.1875H43.875V49.3594H47.8359V27.7266H43.875V25.8984H53.625V27.7266Z" fill="#3B6EFF"/>
</svg>
