<svg width="25" height="24" viewBox="0 0 25 24" fill="none" xmlns="http://www.w3.org/2000/svg">
<g clip-path="url(#clip0_28_4772)">
<path d="M12.442 9.27698C11.7147 9.27698 11.1238 9.84937 11.1238 10.554V11.831H13.7603V10.554C13.7603 9.84937 13.1694 9.27698 12.442 9.27698Z" fill="white"/>
<path d="M22.2901 12.0564C22.2901 10.6562 21.5798 9.38068 20.3794 8.61147C20.4119 8.45824 20.429 8.30349 20.429 8.15025C20.429 6.86575 19.3511 5.82162 18.0251 5.82162C17.9941 5.82162 17.9646 5.82162 17.9352 5.82312C17.8204 4.80903 16.9302 4.0188 15.8539 4.0188C15.0428 4.0188 14.3402 4.468 13.9928 5.12152C13.6454 4.468 12.9429 4.0188 12.1317 4.0188C11.0554 4.0188 10.1652 4.81054 10.0505 5.82312C10.021 5.82312 9.99152 5.82162 9.9605 5.82162C8.63449 5.82162 7.55662 6.86575 7.55662 8.15025C7.55662 8.30349 7.57368 8.45824 7.60625 8.61147C6.40586 9.38068 5.69556 10.6562 5.69556 12.0564C5.69556 13.4565 6.40586 14.732 7.60625 15.5012C7.57368 15.6545 7.55662 15.8092 7.55662 15.9625C7.55662 17.247 8.63449 18.2911 9.9605 18.2911C9.99152 18.2911 10.021 18.2911 10.0505 18.2896C10.1652 19.3037 11.0554 20.0939 12.1317 20.0939C12.9429 20.0939 13.6454 19.6447 13.9928 18.9912C14.3402 19.6447 15.0428 20.0939 15.8539 20.0939C16.9302 20.0939 17.8204 19.3022 17.9352 18.2896C17.9646 18.2896 17.9941 18.2911 18.0251 18.2911C19.3511 18.2911 20.429 17.247 20.429 15.9625C20.429 15.8092 20.4119 15.6545 20.3794 15.5012C21.5798 14.732 22.2901 13.4565 22.2901 12.0564ZM14.2254 15.0611H13.7602V12.2817H11.1237V15.0611H10.6584V10.554C10.6584 9.60152 11.4587 8.82631 12.4419 8.82631C13.4252 8.82631 14.2254 9.60152 14.2254 10.554V15.0611ZM17.7149 9.27701H16.7069V14.6103H17.7149V15.0611H15.2335V14.6103H16.2416V9.27701H15.2335V8.82631H17.7149V9.27701Z" fill="white"/>
<path d="M22.2579 0.689294L22.0254 0.0644524C22.0207 0.0520735 22.0123 0.0413809 22.0011 0.0338253C21.99 0.0262696 21.9767 0.0222168 21.9631 0.0222168C21.9495 0.0222168 21.9362 0.0262696 21.9251 0.0338253C21.914 0.0413809 21.9055 0.0520735 21.9008 0.0644524L21.6683 0.689294C21.5407 1.03186 21.3367 1.34297 21.0709 1.60049C20.8051 1.858 20.4839 2.05558 20.1303 2.17917L19.4853 2.40443C19.4725 2.40893 19.4614 2.41714 19.4536 2.42793C19.4458 2.43872 19.4417 2.45158 19.4417 2.46475C19.4417 2.47793 19.4458 2.49078 19.4536 2.50157C19.4614 2.51236 19.4725 2.52057 19.4853 2.52508L20.1303 2.75033C20.4839 2.87392 20.8051 3.0715 21.0709 3.32901C21.3367 3.58653 21.5407 3.89764 21.6683 4.24021L21.9008 4.86505C21.9055 4.87743 21.914 4.88812 21.9251 4.89568C21.9362 4.90323 21.9495 4.90729 21.9631 4.90729C21.9767 4.90729 21.99 4.90323 22.0011 4.89568C22.0123 4.88812 22.0207 4.87743 22.0254 4.86505L22.2579 4.24021C22.3855 3.89764 22.5895 3.58653 22.8553 3.32901C23.1211 3.0715 23.4423 2.87392 23.7959 2.75033L24.441 2.52508C24.4537 2.52057 24.4648 2.51236 24.4726 2.50157C24.4804 2.49078 24.4846 2.47793 24.4846 2.46475C24.4846 2.45158 24.4804 2.43872 24.4726 2.42793C24.4648 2.41714 24.4537 2.40893 24.441 2.40443L23.7959 2.17917C23.4423 2.05558 23.1211 1.858 22.8553 1.60049C22.5895 1.34297 22.3855 1.03186 22.2579 0.689294Z" fill="white"/>
<path d="M22.1935 18.3535L22.0117 17.8649C22.008 17.8553 22.0014 17.8469 21.9927 17.841C21.984 17.8351 21.9736 17.8319 21.963 17.8319C21.9523 17.8319 21.942 17.8351 21.9333 17.841C21.9246 17.8469 21.9179 17.8553 21.9143 17.8649L21.7325 18.3535C21.6327 18.6214 21.4732 18.8646 21.2654 19.066C21.0575 19.2673 20.8064 19.4218 20.5299 19.5184L20.0255 19.6946C20.0156 19.6981 20.0069 19.7045 20.0008 19.7129C19.9947 19.7214 19.9915 19.7314 19.9915 19.7417C19.9915 19.752 19.9947 19.7621 20.0008 19.7705C20.0069 19.779 20.0156 19.7854 20.0255 19.7889L20.5299 19.965C20.8064 20.0617 21.0575 20.2161 21.2654 20.4175C21.4732 20.6188 21.6327 20.8621 21.7325 21.13L21.9143 21.6185C21.9179 21.6282 21.9246 21.6366 21.9333 21.6425C21.942 21.6484 21.9523 21.6516 21.963 21.6516C21.9736 21.6516 21.984 21.6484 21.9927 21.6425C22.0014 21.6366 22.008 21.6282 22.0117 21.6185L22.1935 21.13C22.2932 20.8621 22.4527 20.6188 22.6606 20.4175C22.8684 20.2161 23.1196 20.0617 23.3961 19.965L23.9004 19.7889C23.9104 19.7854 23.919 19.779 23.9251 19.7705C23.9312 19.7621 23.9345 19.752 23.9345 19.7417C23.9345 19.7314 23.9312 19.7214 23.9251 19.7129C23.919 19.7045 23.9104 19.6981 23.9004 19.6946L23.3961 19.5184C23.1196 19.4218 22.8684 19.2673 22.6606 19.066C22.4527 18.8646 22.2932 18.6214 22.1935 18.3535Z" fill="white"/>
<path d="M4.75385 17.6231L4.40294 16.6802C4.39592 16.6615 4.38314 16.6454 4.36633 16.634C4.34951 16.6226 4.32949 16.6165 4.30896 16.6165C4.28844 16.6165 4.26842 16.6226 4.25161 16.634C4.23479 16.6454 4.22201 16.6615 4.21499 16.6802L3.86408 17.6231C3.67155 18.1401 3.36375 18.6096 2.96259 18.9982C2.56142 19.3868 2.07676 19.685 1.5431 19.8715L0.569702 20.2114C0.550417 20.2182 0.533761 20.2306 0.521991 20.2469C0.51022 20.2631 0.503906 20.2825 0.503906 20.3024C0.503906 20.3223 0.51022 20.3417 0.521991 20.358C0.533761 20.3743 0.550417 20.3867 0.569702 20.3935L1.5431 20.7334C2.07676 20.9199 2.56142 21.218 2.96259 21.6067C3.36375 21.9953 3.67155 22.4648 3.86408 22.9817L4.21499 23.9246C4.22201 23.9433 4.23479 23.9595 4.25161 23.9709C4.26842 23.9823 4.28844 23.9884 4.30896 23.9884C4.32949 23.9884 4.34951 23.9823 4.36633 23.9709C4.38314 23.9595 4.39592 23.9433 4.40294 23.9246L4.75385 22.9817C4.94638 22.4648 5.25418 21.9953 5.65534 21.6067C6.0565 21.218 6.54117 20.9199 7.07483 20.7334L8.04823 20.3935C8.06751 20.3867 8.08417 20.3743 8.09594 20.358C8.10771 20.3417 8.11402 20.3223 8.11402 20.3024C8.11402 20.2825 8.10771 20.2631 8.09594 20.2469C8.08417 20.2306 8.06751 20.2182 8.04823 20.2114L7.07483 19.8715C6.54117 19.685 6.0565 19.3868 5.65534 18.9982C5.25418 18.6096 4.94638 18.1401 4.75385 17.6231Z" fill="white"/>
</g>
<defs>
<clipPath id="clip0_28_4772">
<rect width="24" height="24" fill="white" transform="translate(0.5)"/>
</clipPath>
</defs>
</svg>
