<svg width="1920" height="922" viewBox="0 0 1920 922" fill="none" xmlns="http://www.w3.org/2000/svg">
<g opacity="0.7">
<g opacity="0.7">
<path opacity="0.11" d="M1467.41 708.826C1468.17 708.333 1468.39 707.317 1467.9 706.558C1467.4 705.797 1466.39 705.582 1465.63 706.075C1464.87 706.568 1464.65 707.584 1465.14 708.343C1465.64 709.102 1466.65 709.318 1467.41 708.826Z" fill="white"/>
<path d="M1476.78 713.49C1477.35 713.12 1477.52 712.358 1477.15 711.788C1476.78 711.219 1476.02 711.057 1475.45 711.427C1474.88 711.797 1474.71 712.557 1475.08 713.127C1475.45 713.696 1476.21 713.859 1476.78 713.49Z" fill="white"/>
<path d="M1490.11 684.331C1490.68 683.962 1490.84 683.201 1490.47 682.632C1490.1 682.061 1489.34 681.899 1488.77 682.269C1488.2 682.639 1488.04 683.401 1488.41 683.97C1488.78 684.539 1489.54 684.701 1490.11 684.331Z" fill="white"/>
<path d="M1430.77 720.876C1431.34 720.507 1431.51 719.745 1431.14 719.175C1430.77 718.606 1430 718.444 1429.43 718.814C1428.87 719.182 1428.7 719.944 1429.07 720.513C1429.44 721.083 1430.2 721.246 1430.77 720.876Z" fill="white"/>
<path opacity="0.11" d="M1407.45 759.464C1408.21 758.971 1408.42 757.955 1407.93 757.196C1407.44 756.437 1406.42 756.221 1405.66 756.713C1404.9 757.206 1404.69 758.222 1405.18 758.981C1405.67 759.742 1406.69 759.957 1407.45 759.464Z" fill="white"/>
<path d="M1384.57 752.813C1384.95 752.567 1385.06 752.059 1384.82 751.68C1384.57 751.3 1384.06 751.193 1383.68 751.438C1383.3 751.685 1383.19 752.192 1383.44 752.572C1383.69 752.951 1384.19 753.06 1384.57 752.813Z" fill="white"/>
<path d="M1482.74 736.98C1483.12 736.733 1483.23 736.226 1482.98 735.846C1482.74 735.467 1482.23 735.358 1481.85 735.605C1481.47 735.851 1481.36 736.359 1481.61 736.738C1481.85 737.118 1482.36 737.225 1482.74 736.98Z" fill="white"/>
<path d="M1632.62 639.717C1633 639.472 1633.11 638.964 1632.87 638.584C1632.62 638.205 1632.11 638.097 1631.73 638.343C1631.35 638.59 1631.24 639.096 1631.49 639.476C1631.74 639.855 1632.25 639.964 1632.62 639.717Z" fill="white"/>
<path d="M1683.46 553.96C1683.84 553.714 1683.95 553.206 1683.7 552.826C1683.46 552.447 1682.95 552.339 1682.57 552.585C1682.19 552.832 1682.08 553.339 1682.33 553.718C1682.58 554.098 1683.09 554.205 1683.46 553.96Z" fill="white"/>
<path d="M1742.85 586.747C1743.23 586.501 1743.34 585.993 1743.09 585.613C1742.85 585.234 1742.34 585.126 1741.96 585.372C1741.58 585.619 1741.47 586.126 1741.72 586.505C1741.96 586.885 1742.47 586.994 1742.85 586.747Z" fill="white"/>
<path d="M1242.65 868.362C1243.03 868.116 1243.14 867.608 1242.89 867.229C1242.64 866.849 1242.14 866.742 1241.76 866.987C1241.38 867.234 1241.27 867.741 1241.52 868.12C1241.76 868.5 1242.27 868.609 1242.65 868.362Z" fill="white"/>
<path opacity="0.11" d="M1208.25 837.927C1208.63 837.68 1208.74 837.172 1208.49 836.794C1208.25 836.414 1207.74 836.305 1207.36 836.552C1206.98 836.798 1206.87 837.306 1207.12 837.686C1207.37 838.065 1207.87 838.173 1208.25 837.927Z" fill="white"/>
<path opacity="0.11" d="M1188.95 872.925C1189.33 872.678 1189.44 872.171 1189.2 871.792C1188.95 871.412 1188.44 871.303 1188.06 871.55C1187.68 871.796 1187.58 872.304 1187.82 872.684C1188.07 873.063 1188.58 873.171 1188.95 872.925Z" fill="white"/>
<path opacity="0.11" d="M1238.41 899.453C1238.79 899.207 1238.9 898.699 1238.65 898.32C1238.4 897.942 1237.9 897.833 1237.52 898.08C1237.14 898.325 1237.03 898.833 1237.28 899.213C1237.52 899.592 1238.03 899.7 1238.41 899.453Z" fill="white"/>
<path opacity="0.11" d="M1384.18 765.767C1384.56 765.522 1384.67 765.014 1384.42 764.634C1384.17 764.256 1383.67 764.147 1383.29 764.394C1382.91 764.64 1382.8 765.148 1383.05 765.527C1383.29 765.907 1383.8 766.014 1384.18 765.767Z" fill="white"/>
<path opacity="0.11" d="M1497.44 762.622C1497.82 762.375 1497.93 761.869 1497.68 761.489C1497.44 761.11 1496.93 761.001 1496.55 761.248C1496.17 761.493 1496.06 762.001 1496.31 762.381C1496.55 762.76 1497.06 762.868 1497.44 762.622Z" fill="white"/>
<path opacity="0.11" d="M1624.97 670.085C1625.35 669.838 1625.46 669.331 1625.21 668.951C1624.96 668.572 1624.46 668.464 1624.08 668.71C1623.7 668.957 1623.59 669.463 1623.84 669.843C1624.08 670.223 1624.59 670.33 1624.97 670.085Z" fill="white"/>
<path opacity="0.3" d="M1263.13 830.65C1263.51 830.403 1263.61 829.896 1263.37 829.516C1263.12 829.137 1262.61 829.028 1262.23 829.275C1261.86 829.521 1261.75 830.029 1261.99 830.408C1262.24 830.788 1262.75 830.895 1263.13 830.65Z" fill="white"/>
<path d="M1397.16 690.909C1397.54 690.662 1397.64 690.155 1397.4 689.776C1397.15 689.396 1396.64 689.288 1396.26 689.534C1395.88 689.781 1395.78 690.288 1396.02 690.667C1396.27 691.047 1396.78 691.154 1397.16 690.909Z" fill="white"/>
<path d="M1502.14 620.827C1502.52 620.581 1502.63 620.073 1502.38 619.694C1502.14 619.314 1501.63 619.206 1501.25 619.452C1500.87 619.699 1500.76 620.206 1501.01 620.585C1501.25 620.965 1501.76 621.074 1502.14 620.827Z" fill="white"/>
<path d="M1391.45 784.498C1391.83 784.253 1391.94 783.745 1391.69 783.365C1391.45 782.986 1390.94 782.878 1390.56 783.125C1390.18 783.371 1390.07 783.879 1390.32 784.257C1390.57 784.637 1391.07 784.745 1391.45 784.498Z" fill="white"/>
<path opacity="0.3" d="M1343.33 815.731C1343.71 815.485 1343.82 814.977 1343.57 814.598C1343.32 814.218 1342.81 814.111 1342.44 814.356C1342.06 814.603 1341.95 815.11 1342.2 815.49C1342.44 815.869 1342.95 815.978 1343.33 815.731Z" fill="white"/>
<path opacity="0.11" d="M1259.3 809.686C1259.68 809.44 1259.79 808.932 1259.54 808.553C1259.3 808.173 1258.79 808.066 1258.41 808.311C1258.03 808.558 1257.92 809.065 1258.17 809.445C1258.41 809.824 1258.92 809.933 1259.3 809.686Z" fill="white"/>
<path opacity="0.3" d="M1420.25 699.378C1420.63 699.132 1420.73 698.624 1420.49 698.244C1420.24 697.865 1419.73 697.757 1419.35 698.003C1418.97 698.25 1418.87 698.756 1419.11 699.136C1419.36 699.516 1419.87 699.625 1420.25 699.378Z" fill="white"/>
<path opacity="0.3" d="M1411.62 789.975C1412 789.73 1412.11 789.222 1411.86 788.842C1411.62 788.462 1411.11 788.355 1410.73 788.601C1410.35 788.848 1410.24 789.354 1410.49 789.734C1410.74 790.113 1411.24 790.222 1411.62 789.975Z" fill="white"/>
<path opacity="0.3" d="M1332.89 850.836C1333.27 850.59 1333.38 850.082 1333.13 849.704C1332.89 849.324 1332.38 849.215 1332 849.462C1331.62 849.708 1331.51 850.216 1331.76 850.596C1332.01 850.975 1332.51 851.083 1332.89 850.836Z" fill="white"/>
<path opacity="0.3" d="M1283.07 817.713C1283.45 817.468 1283.56 816.96 1283.31 816.58C1283.06 816.201 1282.56 816.093 1282.18 816.339C1281.8 816.586 1281.69 817.092 1281.93 817.472C1282.18 817.852 1282.69 817.961 1283.07 817.713Z" fill="white"/>
<path opacity="0.3" d="M1709.35 538.143C1709.73 537.897 1709.84 537.39 1709.59 537.01C1709.34 536.63 1708.83 536.523 1708.46 536.768C1708.08 537.016 1707.97 537.522 1708.21 537.902C1708.46 538.281 1708.97 538.389 1709.35 538.143Z" fill="white"/>
<path opacity="0.11" d="M1580.37 581.783C1580.75 581.537 1580.85 581.029 1580.61 580.651C1580.36 580.272 1579.85 580.163 1579.47 580.41C1579.1 580.655 1578.99 581.163 1579.23 581.543C1579.48 581.923 1579.99 582.03 1580.37 581.783Z" fill="white"/>
<path opacity="0.11" d="M1709.97 579.749C1710.35 579.502 1710.46 578.994 1710.21 578.616C1709.96 578.236 1709.46 578.128 1709.08 578.375C1708.7 578.62 1708.59 579.128 1708.84 579.508C1709.08 579.887 1709.59 579.995 1709.97 579.749Z" fill="white"/>
<path opacity="0.3" d="M1540.05 698.816C1540.81 698.323 1541.02 697.307 1540.53 696.548C1540.04 695.789 1539.02 695.572 1538.26 696.065C1537.5 696.558 1537.29 697.574 1537.78 698.333C1538.27 699.093 1539.29 699.31 1540.05 698.816Z" fill="white"/>
<path opacity="0.11" d="M1567.23 651.87C1567.99 651.376 1568.2 650.361 1567.71 649.601C1567.22 648.841 1566.2 648.625 1565.44 649.118C1564.68 649.612 1564.47 650.626 1564.96 651.387C1565.45 652.146 1566.47 652.362 1567.23 651.87Z" fill="white"/>
<path d="M1551.27 628.028C1551.84 627.659 1552 626.897 1551.63 626.328C1551.26 625.758 1550.5 625.597 1549.93 625.965C1549.36 626.335 1549.2 627.097 1549.57 627.666C1549.94 628.236 1550.7 628.398 1551.27 628.028Z" fill="white"/>
<path d="M1550.68 731.001C1551.25 730.632 1551.42 729.87 1551.05 729.3C1550.68 728.731 1549.92 728.569 1549.35 728.939C1548.78 729.307 1548.61 730.069 1548.98 730.639C1549.35 731.208 1550.11 731.37 1550.68 731.001Z" fill="white"/>
<path d="M1787.85 596.625C1788.42 596.257 1788.58 595.495 1788.21 594.926C1787.84 594.356 1787.08 594.194 1786.51 594.563C1785.94 594.933 1785.78 595.694 1786.15 596.264C1786.52 596.833 1787.28 596.995 1787.85 596.625Z" fill="white"/>
<path d="M1334.08 874.494C1334.65 874.124 1334.81 873.362 1334.44 872.792C1334.07 872.223 1333.31 872.061 1332.74 872.431C1332.17 872.801 1332.01 873.561 1332.38 874.131C1332.75 874.702 1333.51 874.863 1334.08 874.494Z" fill="white"/>
<path d="M1232.39 918.019C1232.95 917.649 1233.12 916.888 1232.75 916.319C1232.38 915.749 1231.62 915.586 1231.05 915.956C1230.48 916.326 1230.31 917.088 1230.68 917.657C1231.05 918.226 1231.82 918.388 1232.39 918.019Z" fill="white"/>
<path d="M1202.85 898.105C1203.42 897.735 1203.58 896.973 1203.21 896.404C1202.84 895.834 1202.08 895.672 1201.51 896.042C1200.94 896.412 1200.78 897.173 1201.15 897.742C1201.52 898.313 1202.28 898.475 1202.85 898.105Z" fill="white"/>
<path d="M1527.2 663.195C1527.77 662.825 1527.93 662.063 1527.56 661.494C1527.19 660.924 1526.43 660.762 1525.86 661.132C1525.29 661.501 1525.13 662.263 1525.5 662.832C1525.87 663.401 1526.63 663.565 1527.2 663.195Z" fill="white"/>
<path d="M1440.59 791.699C1441.16 791.329 1441.32 790.567 1440.95 789.997C1440.58 789.428 1439.82 789.266 1439.25 789.636C1438.68 790.006 1438.52 790.766 1438.89 791.336C1439.26 791.905 1440.02 792.068 1440.59 791.699Z" fill="white"/>
<path d="M1633.02 708.831C1633.59 708.462 1633.75 707.7 1633.38 707.13C1633.01 706.561 1632.25 706.399 1631.68 706.769C1631.11 707.139 1630.95 707.899 1631.32 708.469C1631.69 709.039 1632.45 709.201 1633.02 708.831Z" fill="white"/>
<path d="M1784.86 543.849C1785.43 543.479 1785.6 542.719 1785.23 542.148C1784.86 541.578 1784.1 541.417 1783.52 541.786C1782.96 542.156 1782.79 542.917 1783.16 543.488C1783.53 544.057 1784.29 544.219 1784.86 543.849Z" fill="white"/>
<path d="M1776.83 495.328C1777.4 494.96 1777.56 494.198 1777.19 493.629C1776.82 493.059 1776.06 492.897 1775.49 493.266C1774.92 493.636 1774.76 494.398 1775.13 494.967C1775.5 495.536 1776.26 495.698 1776.83 495.328Z" fill="white"/>
<path opacity="0.3" d="M1608.44 591.907C1609.2 591.414 1609.42 590.398 1608.92 589.638C1608.43 588.878 1607.42 588.662 1606.66 589.155C1605.9 589.649 1605.68 590.663 1606.17 591.424C1606.67 592.183 1607.68 592.399 1608.44 591.907Z" fill="white"/>
<path d="M1576.76 543.095C1577.52 542.602 1577.73 541.586 1577.24 540.827C1576.75 540.068 1575.73 539.852 1574.97 540.344C1574.21 540.837 1574 541.853 1574.49 542.612C1574.98 543.373 1576 543.588 1576.76 543.095Z" fill="white"/>
<path d="M1653.66 584.056C1654.23 583.686 1654.39 582.924 1654.02 582.355C1653.65 581.785 1652.89 581.624 1652.32 581.993C1651.75 582.362 1651.59 583.124 1651.96 583.693C1652.33 584.263 1653.09 584.426 1653.66 584.056Z" fill="white"/>
<path opacity="0.3" d="M1669.61 535.604C1670.36 535.111 1670.58 534.095 1670.09 533.336C1669.59 532.575 1668.58 532.359 1667.82 532.853C1667.06 533.346 1666.84 534.362 1667.34 535.121C1667.83 535.88 1668.85 536.096 1669.61 535.604Z" fill="white"/>
<path opacity="0.3" d="M1769.35 540.245C1770.11 539.753 1770.32 538.737 1769.83 537.978C1769.33 537.218 1768.32 537.002 1767.56 537.495C1766.8 537.987 1766.58 539.003 1767.08 539.762C1767.57 540.523 1768.59 540.738 1769.35 540.245Z" fill="white"/>
<path opacity="0.3" d="M1689.8 593.82C1690.56 593.328 1690.77 592.312 1690.28 591.553C1689.79 590.792 1688.77 590.576 1688.01 591.07C1687.25 591.562 1687.04 592.578 1687.53 593.338C1688.02 594.097 1689.04 594.313 1689.8 593.82Z" fill="white"/>
<path opacity="0.3" d="M1302.76 861.6C1303.52 861.106 1303.73 860.092 1303.24 859.331C1302.75 858.572 1301.73 858.356 1300.97 858.848C1300.21 859.342 1300 860.357 1300.49 861.117C1300.98 861.877 1302 862.093 1302.76 861.6Z" fill="white"/>
<path opacity="0.3" d="M1222.52 859.929C1223.28 859.436 1223.5 858.422 1223.01 857.661C1222.51 856.902 1221.5 856.686 1220.74 857.178C1219.98 857.671 1219.76 858.687 1220.25 859.447C1220.75 860.207 1221.76 860.423 1222.52 859.929Z" fill="white"/>
<path opacity="0.11" d="M1727.77 537.913C1728.53 537.421 1728.75 536.405 1728.26 535.645C1727.76 534.886 1726.75 534.67 1725.99 535.163C1725.23 535.655 1725.01 536.671 1725.5 537.43C1726 538.191 1727.01 538.407 1727.77 537.913Z" fill="white"/>
<path opacity="0.3" d="M1305.67 772.756C1306.43 772.262 1306.65 771.248 1306.15 770.487C1305.66 769.728 1304.64 769.512 1303.88 770.004C1303.12 770.498 1302.91 771.513 1303.4 772.274C1303.89 773.033 1304.91 773.249 1305.67 772.756Z" fill="white"/>
<path opacity="0.11" d="M1278.18 771.051C1278.94 770.558 1279.16 769.542 1278.67 768.783C1278.17 768.023 1277.16 767.806 1276.4 768.3C1275.64 768.793 1275.42 769.809 1275.91 770.568C1276.41 771.327 1277.42 771.544 1278.18 771.051Z" fill="white"/>
<path opacity="0.3" d="M1301.24 818.619C1302 818.127 1302.22 817.111 1301.72 816.351C1301.23 815.591 1300.22 815.375 1299.46 815.869C1298.7 816.361 1298.48 817.377 1298.97 818.136C1299.47 818.896 1300.48 819.112 1301.24 818.619Z" fill="white"/>
<path d="M1343.76 790.048C1344.33 789.678 1344.49 788.918 1344.12 788.347C1343.75 787.778 1342.99 787.616 1342.42 787.986C1341.85 788.355 1341.69 789.116 1342.06 789.687C1342.43 790.256 1343.19 790.418 1343.76 790.048Z" fill="white"/>
<path opacity="0.11" d="M1568.92 344.586C1569.68 344.093 1569.9 343.078 1569.4 342.318C1568.91 341.558 1567.89 341.341 1567.13 341.835C1566.37 342.328 1566.16 343.344 1566.65 344.103C1567.14 344.862 1568.16 345.079 1568.92 344.586Z" fill="white"/>
<path d="M1578.29 349.251C1578.86 348.882 1579.02 348.12 1578.65 347.55C1578.28 346.981 1577.52 346.819 1576.95 347.189C1576.38 347.557 1576.22 348.319 1576.59 348.889C1576.96 349.458 1577.72 349.621 1578.29 349.251Z" fill="white"/>
<path d="M1591.61 320.091C1592.18 319.721 1592.35 318.961 1591.98 318.39C1591.61 317.821 1590.84 317.659 1590.27 318.029C1589.71 318.398 1589.54 319.16 1589.91 319.73C1590.28 320.299 1591.04 320.461 1591.61 320.091Z" fill="white"/>
<path d="M1532.28 356.638C1532.85 356.268 1533.01 355.506 1532.64 354.937C1532.27 354.368 1531.51 354.206 1530.94 354.575C1530.37 354.944 1530.21 355.706 1530.58 356.275C1530.95 356.845 1531.71 357.007 1532.28 356.638Z" fill="white"/>
<path opacity="0.11" d="M1508.95 395.222C1509.71 394.729 1509.93 393.713 1509.44 392.954C1508.94 392.195 1507.93 391.979 1507.17 392.471C1506.41 392.964 1506.19 393.98 1506.68 394.739C1507.18 395.5 1508.19 395.714 1508.95 395.222Z" fill="white"/>
<path d="M1486.08 388.575C1486.46 388.329 1486.57 387.821 1486.32 387.442C1486.07 387.062 1485.57 386.955 1485.19 387.2C1484.81 387.447 1484.7 387.954 1484.95 388.333C1485.19 388.713 1485.7 388.822 1486.08 388.575Z" fill="white"/>
<path d="M1584.25 372.738C1584.63 372.492 1584.74 371.984 1584.49 371.606C1584.24 371.227 1583.74 371.118 1583.36 371.365C1582.98 371.61 1582.87 372.118 1583.12 372.498C1583.36 372.878 1583.87 372.985 1584.25 372.738Z" fill="white"/>
<path d="M1734.13 275.479C1734.51 275.233 1734.62 274.725 1734.37 274.346C1734.12 273.966 1733.62 273.859 1733.24 274.104C1732.86 274.351 1732.75 274.858 1733 275.238C1733.24 275.617 1733.75 275.726 1734.13 275.479Z" fill="white"/>
<path d="M1784.97 189.721C1785.35 189.474 1785.46 188.968 1785.21 188.588C1784.96 188.208 1784.46 188.101 1784.08 188.347C1783.7 188.594 1783.59 189.1 1783.83 189.48C1784.08 189.859 1784.59 189.967 1784.97 189.721Z" fill="white"/>
<path d="M1844.36 222.51C1844.74 222.265 1844.84 221.757 1844.6 221.377C1844.35 220.998 1843.84 220.89 1843.47 221.136C1843.09 221.383 1842.98 221.889 1843.22 222.269C1843.47 222.648 1843.98 222.757 1844.36 222.51Z" fill="white"/>
<path d="M1344.16 504.122C1344.53 503.876 1344.64 503.368 1344.4 502.988C1344.15 502.609 1343.64 502.501 1343.26 502.747C1342.88 502.994 1342.78 503.501 1343.02 503.88C1343.27 504.26 1343.78 504.369 1344.16 504.122Z" fill="white"/>
<path opacity="0.11" d="M1309.76 473.687C1310.14 473.442 1310.25 472.934 1310 472.554C1309.75 472.176 1309.25 472.067 1308.87 472.314C1308.49 472.56 1308.38 473.068 1308.62 473.447C1308.87 473.827 1309.38 473.934 1309.76 473.687Z" fill="white"/>
<path opacity="0.11" d="M1290.46 508.683C1290.84 508.436 1290.95 507.929 1290.7 507.55C1290.46 507.17 1289.95 507.061 1289.57 507.308C1289.19 507.554 1289.08 508.062 1289.33 508.441C1289.57 508.821 1290.08 508.928 1290.46 508.683Z" fill="white"/>
<path opacity="0.11" d="M1339.92 535.213C1340.3 534.967 1340.4 534.459 1340.16 534.08C1339.91 533.7 1339.4 533.593 1339.02 533.84C1338.64 534.085 1338.54 534.593 1338.78 534.973C1339.03 535.351 1339.54 535.46 1339.92 535.213Z" fill="white"/>
<path opacity="0.11" d="M1485.69 401.527C1486.07 401.282 1486.17 400.774 1485.93 400.394C1485.68 400.016 1485.17 399.907 1484.79 400.154C1484.42 400.4 1484.31 400.908 1484.55 401.287C1484.8 401.665 1485.31 401.774 1485.69 401.527Z" fill="white"/>
<path opacity="0.11" d="M1598.95 398.381C1599.32 398.135 1599.43 397.627 1599.19 397.249C1598.94 396.869 1598.43 396.76 1598.05 397.007C1597.67 397.253 1597.57 397.761 1597.81 398.141C1598.06 398.52 1598.57 398.628 1598.95 398.381Z" fill="white"/>
<path opacity="0.11" d="M1726.48 305.844C1726.86 305.597 1726.96 305.091 1726.72 304.711C1726.47 304.332 1725.96 304.224 1725.58 304.47C1725.21 304.717 1725.1 305.223 1725.34 305.603C1725.59 305.982 1726.1 306.09 1726.48 305.844Z" fill="white"/>
<path opacity="0.3" d="M1364.63 466.411C1365.01 466.164 1365.12 465.658 1364.87 465.278C1364.63 464.899 1364.12 464.79 1363.74 465.037C1363.36 465.282 1363.25 465.79 1363.5 466.17C1363.75 466.55 1364.25 466.657 1364.63 466.411Z" fill="white"/>
<path d="M1498.66 326.669C1499.04 326.422 1499.15 325.915 1498.9 325.535C1498.66 325.156 1498.15 325.048 1497.77 325.294C1497.39 325.54 1497.28 326.047 1497.53 326.427C1497.77 326.807 1498.28 326.914 1498.66 326.669Z" fill="white"/>
<path d="M1603.64 256.586C1604.02 256.341 1604.13 255.833 1603.88 255.453C1603.64 255.074 1603.13 254.966 1602.75 255.212C1602.37 255.459 1602.26 255.965 1602.51 256.345C1602.76 256.725 1603.27 256.832 1603.64 256.586Z" fill="white"/>
<path d="M1492.96 420.258C1493.34 420.013 1493.45 419.505 1493.2 419.125C1492.95 418.746 1492.45 418.638 1492.07 418.884C1491.69 419.131 1491.58 419.637 1491.83 420.017C1492.07 420.396 1492.58 420.505 1492.96 420.258Z" fill="white"/>
<path opacity="0.3" d="M1444.83 451.491C1445.21 451.245 1445.32 450.737 1445.07 450.358C1444.83 449.978 1444.32 449.871 1443.94 450.116C1443.56 450.363 1443.45 450.87 1443.7 451.249C1443.95 451.629 1444.45 451.738 1444.83 451.491Z" fill="white"/>
<path opacity="0.11" d="M1360.8 445.448C1361.18 445.202 1361.29 444.694 1361.05 444.314C1360.8 443.935 1360.29 443.827 1359.91 444.073C1359.53 444.32 1359.42 444.827 1359.67 445.206C1359.92 445.586 1360.42 445.695 1360.8 445.448Z" fill="white"/>
<path opacity="0.3" d="M1521.75 335.137C1522.13 334.892 1522.24 334.384 1521.99 334.004C1521.75 333.624 1521.24 333.517 1520.86 333.763C1520.48 334.01 1520.37 334.516 1520.62 334.896C1520.87 335.275 1521.37 335.384 1521.75 335.137Z" fill="white"/>
<path opacity="0.3" d="M1513.13 425.735C1513.51 425.489 1513.62 424.981 1513.37 424.602C1513.12 424.222 1512.62 424.115 1512.24 424.36C1511.86 424.607 1511.75 425.114 1512 425.494C1512.24 425.873 1512.75 425.982 1513.13 425.735Z" fill="white"/>
<path opacity="0.3" d="M1434.4 486.596C1434.78 486.35 1434.89 485.842 1434.64 485.462C1434.4 485.084 1433.89 484.975 1433.51 485.222C1433.13 485.468 1433.02 485.976 1433.27 486.355C1433.51 486.735 1434.02 486.843 1434.4 486.596Z" fill="white"/>
<path opacity="0.3" d="M1384.57 453.473C1384.95 453.228 1385.06 452.72 1384.82 452.34C1384.57 451.96 1384.06 451.853 1383.68 452.099C1383.3 452.346 1383.19 452.852 1383.44 453.232C1383.69 453.611 1384.19 453.72 1384.57 453.473Z" fill="white"/>
<path opacity="0.3" d="M1810.85 173.903C1811.23 173.656 1811.34 173.149 1811.09 172.77C1810.85 172.39 1810.34 172.283 1809.96 172.528C1809.58 172.775 1809.47 173.282 1809.72 173.661C1809.97 174.041 1810.47 174.149 1810.85 173.903Z" fill="white"/>
<path opacity="0.11" d="M1681.87 217.545C1682.25 217.299 1682.36 216.791 1682.11 216.412C1681.87 216.033 1681.36 215.925 1680.98 216.172C1680.6 216.417 1680.49 216.925 1680.74 217.305C1680.98 217.683 1681.49 217.792 1681.87 217.545Z" fill="white"/>
<path opacity="0.11" d="M1811.47 215.508C1811.85 215.262 1811.96 214.754 1811.71 214.374C1811.47 213.996 1810.96 213.887 1810.58 214.134C1810.2 214.38 1810.09 214.888 1810.34 215.268C1810.59 215.647 1811.1 215.755 1811.47 215.508Z" fill="white"/>
<path opacity="0.3" d="M1641.55 334.577C1642.31 334.085 1642.53 333.069 1642.04 332.31C1641.54 331.55 1640.53 331.334 1639.77 331.827C1639.01 332.319 1638.79 333.335 1639.28 334.094C1639.78 334.855 1640.79 335.07 1641.55 334.577Z" fill="white"/>
<path opacity="0.11" d="M1668.73 287.628C1669.49 287.134 1669.71 286.119 1669.22 285.358C1668.72 284.599 1667.71 284.383 1666.95 284.876C1666.19 285.37 1665.97 286.384 1666.46 287.145C1666.96 287.904 1667.97 288.12 1668.73 287.628Z" fill="white"/>
<path d="M1652.78 263.786C1653.35 263.416 1653.51 262.656 1653.14 262.086C1652.77 261.517 1652.01 261.354 1651.44 261.723C1650.87 262.093 1650.71 262.855 1651.08 263.425C1651.45 263.994 1652.21 264.156 1652.78 263.786Z" fill="white"/>
<path d="M1652.19 366.76C1652.76 366.39 1652.92 365.628 1652.55 365.058C1652.18 364.489 1651.42 364.327 1650.85 364.696C1650.28 365.065 1650.12 365.827 1650.49 366.397C1650.86 366.966 1651.62 367.128 1652.19 366.76Z" fill="white"/>
<path d="M1889.36 232.386C1889.93 232.016 1890.09 231.255 1889.72 230.686C1889.35 230.117 1888.59 229.953 1888.02 230.323C1887.45 230.693 1887.29 231.455 1887.66 232.024C1888.03 232.594 1888.79 232.756 1889.36 232.386Z" fill="white"/>
<path d="M1435.58 510.253C1436.15 509.883 1436.31 509.122 1435.94 508.552C1435.57 507.983 1434.81 507.821 1434.24 508.191C1433.67 508.561 1433.51 509.321 1433.88 509.891C1434.25 510.461 1435.01 510.623 1435.58 510.253Z" fill="white"/>
<path d="M1333.89 553.778C1334.46 553.408 1334.62 552.648 1334.25 552.079C1333.88 551.509 1333.12 551.346 1332.55 551.716C1331.98 552.085 1331.82 552.847 1332.19 553.417C1332.56 553.986 1333.32 554.148 1333.89 553.778Z" fill="white"/>
<path d="M1304.36 533.865C1304.93 533.495 1305.09 532.733 1304.72 532.163C1304.35 531.594 1303.59 531.432 1303.02 531.802C1302.45 532.172 1302.29 532.932 1302.66 533.502C1303.03 534.073 1303.79 534.234 1304.36 533.865Z" fill="white"/>
<path d="M1628.7 298.955C1629.27 298.585 1629.44 297.823 1629.07 297.253C1628.7 296.684 1627.94 296.522 1627.36 296.892C1626.8 297.26 1626.63 298.022 1627 298.592C1627.37 299.161 1628.13 299.323 1628.7 298.955Z" fill="white"/>
<path d="M1542.09 427.458C1542.66 427.089 1542.82 426.327 1542.45 425.757C1542.08 425.188 1541.32 425.026 1540.75 425.396C1540.18 425.764 1540.02 426.526 1540.39 427.096C1540.76 427.665 1541.52 427.828 1542.09 427.458Z" fill="white"/>
<path d="M1734.53 344.591C1735.1 344.221 1735.26 343.459 1734.89 342.89C1734.52 342.321 1733.76 342.159 1733.19 342.529C1732.62 342.898 1732.46 343.659 1732.83 344.228C1733.2 344.798 1733.96 344.961 1734.53 344.591Z" fill="white"/>
<path d="M1886.37 179.609C1886.94 179.239 1887.1 178.478 1886.73 177.908C1886.36 177.338 1885.6 177.176 1885.03 177.546C1884.46 177.916 1884.3 178.677 1884.67 179.247C1885.04 179.817 1885.8 179.979 1886.37 179.609Z" fill="white"/>
<path d="M1878.34 131.089C1878.91 130.719 1879.07 129.958 1878.7 129.388C1878.33 128.819 1877.57 128.657 1877 129.026C1876.43 129.396 1876.27 130.157 1876.64 130.727C1877.01 131.297 1877.77 131.459 1878.34 131.089Z" fill="white"/>
<path opacity="0.3" d="M1709.95 227.667C1710.71 227.173 1710.92 226.158 1710.43 225.397C1709.94 224.638 1708.92 224.422 1708.16 224.915C1707.4 225.409 1707.19 226.423 1707.68 227.184C1708.17 227.943 1709.19 228.159 1709.95 227.667Z" fill="white"/>
<path d="M1678.26 178.855C1679.02 178.362 1679.24 177.346 1678.75 176.587C1678.25 175.828 1677.24 175.611 1676.48 176.104C1675.72 176.597 1675.5 177.613 1675.99 178.372C1676.49 179.132 1677.5 179.347 1678.26 178.855Z" fill="white"/>
<path d="M1755.17 219.816C1755.74 219.446 1755.9 218.684 1755.53 218.115C1755.16 217.545 1754.4 217.383 1753.83 217.753C1753.26 218.122 1753.1 218.884 1753.47 219.453C1753.84 220.022 1754.6 220.184 1755.17 219.816Z" fill="white"/>
<path opacity="0.3" d="M1771.11 171.362C1771.87 170.869 1772.09 169.853 1771.59 169.094C1771.1 168.333 1770.09 168.117 1769.33 168.611C1768.57 169.103 1768.35 170.119 1768.84 170.879C1769.34 171.638 1770.35 171.854 1771.11 171.362Z" fill="white"/>
<path opacity="0.3" d="M1870.85 176.005C1871.61 175.512 1871.83 174.496 1871.33 173.737C1870.84 172.978 1869.82 172.762 1869.06 173.254C1868.3 173.747 1868.09 174.763 1868.58 175.522C1869.07 176.283 1870.09 176.498 1870.85 176.005Z" fill="white"/>
<path opacity="0.3" d="M1791.3 229.58C1792.06 229.088 1792.28 228.072 1791.79 227.312C1791.29 226.552 1790.28 226.336 1789.52 226.83C1788.76 227.322 1788.54 228.337 1789.03 229.097C1789.53 229.857 1790.54 230.073 1791.3 229.58Z" fill="white"/>
<path opacity="0.3" d="M1404.26 497.362C1405.02 496.868 1405.24 495.853 1404.75 495.093C1404.25 494.334 1403.24 494.117 1402.48 494.61C1401.72 495.104 1401.5 496.118 1401.99 496.879C1402.49 497.638 1403.5 497.855 1404.26 497.362Z" fill="white"/>
<path opacity="0.3" d="M1324.03 495.689C1324.79 495.196 1325 494.181 1324.51 493.421C1324.02 492.662 1323 492.445 1322.24 492.938C1321.48 493.431 1321.27 494.447 1321.76 495.206C1322.25 495.966 1323.27 496.183 1324.03 495.689Z" fill="white"/>
<path opacity="0.11" d="M1829.28 173.673C1830.04 173.18 1830.25 172.164 1829.76 171.405C1829.27 170.646 1828.25 170.43 1827.49 170.922C1826.73 171.415 1826.52 172.431 1827.01 173.19C1827.5 173.951 1828.52 174.167 1829.28 173.673Z" fill="white"/>
<path opacity="0.3" d="M1407.17 408.516C1407.93 408.022 1408.15 407.008 1407.66 406.247C1407.16 405.488 1406.15 405.272 1405.39 405.764C1404.63 406.258 1404.41 407.273 1404.9 408.033C1405.4 408.793 1406.41 409.009 1407.17 408.516Z" fill="white"/>
<path opacity="0.11" d="M1379.69 406.811C1380.45 406.318 1380.67 405.302 1380.17 404.543C1379.68 403.782 1378.66 403.566 1377.9 404.06C1377.14 404.553 1376.93 405.569 1377.42 406.328C1377.91 407.087 1378.93 407.303 1379.69 406.811Z" fill="white"/>
<path opacity="0.3" d="M1402.75 454.379C1403.51 453.886 1403.72 452.87 1403.23 452.111C1402.74 451.351 1401.72 451.134 1400.96 451.628C1400.2 452.121 1399.99 453.137 1400.48 453.896C1400.97 454.655 1401.99 454.872 1402.75 454.379Z" fill="white"/>
<path d="M1445.26 425.808C1445.83 425.438 1446 424.677 1445.63 424.107C1445.26 423.537 1444.49 423.375 1443.93 423.745C1443.36 424.115 1443.19 424.876 1443.56 425.446C1443.93 426.016 1444.69 426.178 1445.26 425.808Z" fill="white"/>
<path d="M1917.5 261.688C1917.88 261.442 1917.98 260.934 1917.74 260.555C1917.49 260.175 1916.98 260.068 1916.6 260.313C1916.22 260.56 1916.12 261.067 1916.36 261.447C1916.61 261.826 1917.12 261.935 1917.5 261.688Z" fill="white"/>
<path d="M1775.57 377.239C1775.95 376.993 1776.06 376.485 1775.81 376.106C1775.56 375.726 1775.06 375.619 1774.68 375.864C1774.3 376.111 1774.19 376.618 1774.44 376.997C1774.68 377.377 1775.19 377.486 1775.57 377.239Z" fill="white"/>
<path opacity="0.11" d="M1741.17 346.803C1741.55 346.557 1741.66 346.049 1741.41 345.671C1741.17 345.291 1740.66 345.182 1740.28 345.429C1739.9 345.675 1739.79 346.183 1740.04 346.562C1740.29 346.942 1740.79 347.05 1741.17 346.803Z" fill="white"/>
<path opacity="0.11" d="M1721.87 381.8C1722.25 381.553 1722.36 381.046 1722.12 380.667C1721.87 380.287 1721.36 380.178 1720.98 380.425C1720.6 380.671 1720.5 381.179 1720.74 381.559C1720.99 381.938 1721.5 382.046 1721.87 381.8Z" fill="white"/>
<path opacity="0.11" d="M1771.33 408.328C1771.71 408.082 1771.82 407.574 1771.57 407.196C1771.32 406.817 1770.82 406.708 1770.44 406.955C1770.06 407.2 1769.95 407.708 1770.2 408.088C1770.44 408.467 1770.95 408.575 1771.33 408.328Z" fill="white"/>
<path opacity="0.11" d="M1917.1 274.64C1917.48 274.395 1917.59 273.887 1917.34 273.509C1917.1 273.129 1916.59 273.02 1916.21 273.267C1915.83 273.513 1915.72 274.021 1915.97 274.4C1916.21 274.78 1916.72 274.887 1917.1 274.64Z" fill="white"/>
<path opacity="0.3" d="M1796.05 339.525C1796.43 339.278 1796.53 338.771 1796.29 338.391C1796.04 338.012 1795.53 337.903 1795.15 338.15C1794.77 338.396 1794.67 338.904 1794.91 339.283C1795.16 339.663 1795.67 339.77 1796.05 339.525Z" fill="white"/>
<path opacity="0.3" d="M1876.25 324.606C1876.63 324.36 1876.74 323.852 1876.49 323.473C1876.24 323.093 1875.74 322.986 1875.36 323.231C1874.98 323.478 1874.87 323.985 1875.11 324.365C1875.36 324.744 1875.87 324.853 1876.25 324.606Z" fill="white"/>
<path opacity="0.11" d="M1792.22 318.563C1792.6 318.317 1792.71 317.809 1792.46 317.43C1792.21 317.05 1791.71 316.943 1791.33 317.188C1790.95 317.435 1790.84 317.942 1791.09 318.322C1791.33 318.701 1791.84 318.81 1792.22 318.563Z" fill="white"/>
<path opacity="0.3" d="M1865.81 359.712C1866.19 359.465 1866.3 358.959 1866.05 358.579C1865.81 358.199 1865.3 358.09 1864.92 358.337C1864.54 358.583 1864.43 359.091 1864.68 359.471C1864.93 359.85 1865.43 359.958 1865.81 359.712Z" fill="white"/>
<path opacity="0.3" d="M1815.99 326.59C1816.37 326.345 1816.48 325.837 1816.23 325.457C1815.98 325.078 1815.48 324.97 1815.1 325.216C1814.72 325.463 1814.61 325.969 1814.86 326.349C1815.1 326.729 1815.61 326.837 1815.99 326.59Z" fill="white"/>
<path d="M1867 383.371C1867.57 383.001 1867.73 382.239 1867.36 381.669C1866.99 381.1 1866.23 380.938 1865.66 381.308C1865.09 381.678 1864.93 382.438 1865.3 383.008C1865.67 383.578 1866.43 383.74 1867 383.371Z" fill="white"/>
<path d="M1765.31 426.894C1765.88 426.524 1766.04 425.763 1765.67 425.194C1765.3 424.624 1764.54 424.461 1763.97 424.831C1763.4 425.201 1763.23 425.963 1763.6 426.532C1763.97 427.101 1764.74 427.263 1765.31 426.894Z" fill="white"/>
<path d="M1735.77 406.98C1736.34 406.61 1736.5 405.848 1736.13 405.279C1735.76 404.709 1735 404.547 1734.43 404.917C1733.86 405.287 1733.7 406.048 1734.07 406.617C1734.44 407.188 1735.2 407.35 1735.77 406.98Z" fill="white"/>
<path opacity="0.3" d="M1835.68 370.477C1836.44 369.983 1836.65 368.969 1836.16 368.208C1835.67 367.449 1834.65 367.232 1833.89 367.725C1833.13 368.219 1832.92 369.234 1833.41 369.994C1833.9 370.754 1834.92 370.97 1835.68 370.477Z" fill="white"/>
<path opacity="0.3" d="M1755.44 368.806C1756.2 368.313 1756.42 367.299 1755.93 366.538C1755.43 365.779 1754.42 365.563 1753.66 366.055C1752.9 366.548 1752.68 367.564 1753.17 368.323C1753.67 369.084 1754.68 369.3 1755.44 368.806Z" fill="white"/>
<path opacity="0.3" d="M1838.59 281.631C1839.35 281.137 1839.56 280.123 1839.07 279.362C1838.58 278.603 1837.56 278.387 1836.8 278.879C1836.04 279.373 1835.83 280.388 1836.32 281.149C1836.81 281.908 1837.83 282.124 1838.59 281.631Z" fill="white"/>
<path opacity="0.11" d="M1811.1 279.926C1811.86 279.433 1812.08 278.417 1811.59 277.658C1811.09 276.898 1810.08 276.681 1809.32 277.175C1808.56 277.668 1808.34 278.684 1808.83 279.443C1809.33 280.202 1810.34 280.419 1811.1 279.926Z" fill="white"/>
<path opacity="0.3" d="M1834.16 327.494C1834.92 327.002 1835.14 325.986 1834.65 325.227C1834.15 324.466 1833.14 324.25 1832.38 324.744C1831.62 325.236 1831.4 326.252 1831.89 327.011C1832.39 327.771 1833.4 327.987 1834.16 327.494Z" fill="white"/>
<path d="M1876.68 298.923C1877.25 298.553 1877.41 297.793 1877.04 297.222C1876.67 296.653 1875.91 296.491 1875.34 296.861C1874.77 297.23 1874.61 297.992 1874.98 298.562C1875.35 299.131 1876.11 299.293 1876.68 298.923Z" fill="white"/>
</g>
</g>
<g opacity="0.5">
<g opacity="0.7">
<path d="M35.0586 555.676C35.4382 555.431 35.5457 554.923 35.2986 554.543C35.053 554.164 34.5451 554.056 34.1655 554.302C33.7873 554.549 33.6784 555.055 33.9254 555.435C34.1711 555.815 34.679 555.922 35.0586 555.676Z" fill="white"/>
<path d="M94.4463 588.463C94.8259 588.218 94.9347 587.71 94.6877 587.33C94.4421 586.951 93.9341 586.843 93.5545 587.089C93.1749 587.336 93.0674 587.842 93.3145 588.222C93.5601 588.602 94.0681 588.71 94.4463 588.463Z" fill="white"/>
<path opacity="0.3" d="M60.9408 539.86C61.3204 539.614 61.4292 539.106 61.1822 538.727C60.9366 538.347 60.4286 538.24 60.049 538.485C59.6694 538.732 59.5619 539.239 59.8076 539.618C60.0546 539.998 60.5626 540.106 60.9408 539.86Z" fill="white"/>
<path opacity="0.11" d="M61.5654 581.466C61.945 581.219 62.0539 580.711 61.8069 580.333C61.5612 579.953 61.0532 579.844 60.6736 580.091C60.294 580.337 60.1866 580.845 60.4336 581.225C60.6792 581.604 61.1872 581.712 61.5654 581.466Z" fill="white"/>
<path d="M139.449 598.342C140.018 597.974 140.18 597.212 139.81 596.642C139.44 596.073 138.68 595.911 138.109 596.279C137.539 596.649 137.377 597.411 137.747 597.981C138.117 598.55 138.879 598.712 139.449 598.342Z" fill="white"/>
<path d="M136.462 545.566C137.032 545.196 137.193 544.435 136.824 543.865C136.454 543.295 135.693 543.133 135.122 543.503C134.553 543.873 134.391 544.634 134.761 545.204C135.131 545.774 135.891 545.936 136.462 545.566Z" fill="white"/>
<path d="M128.426 497.045C128.996 496.677 129.158 495.915 128.788 495.345C128.419 494.776 127.657 494.614 127.087 494.983C126.518 495.352 126.356 496.114 126.726 496.684C127.096 497.253 127.856 497.415 128.426 497.045Z" fill="white"/>
<path d="M5.25716 585.773C5.82655 585.403 5.98844 584.641 5.61862 584.072C5.24879 583.502 4.48816 583.34 3.91737 583.71C3.34798 584.079 3.18609 584.841 3.55591 585.41C3.92574 585.979 4.68776 586.143 5.25716 585.773Z" fill="white"/>
<path opacity="0.3" d="M21.2014 537.32C21.9606 536.828 22.1769 535.812 21.6842 535.053C21.1902 534.292 20.1756 534.076 19.415 534.57C18.6558 535.062 18.4395 536.078 18.9321 536.838C19.4248 537.597 20.4408 537.813 21.2014 537.32Z" fill="white"/>
<path opacity="0.3" d="M120.942 541.962C121.701 541.469 121.917 540.454 121.423 539.694C120.93 538.935 119.916 538.719 119.155 539.211C118.396 539.704 118.18 540.72 118.672 541.479C119.165 542.24 120.181 542.455 120.942 541.962Z" fill="white"/>
<path opacity="0.3" d="M41.3947 595.537C42.1539 595.045 42.3702 594.029 41.8776 593.269C41.3835 592.509 40.3689 592.293 39.6083 592.787C38.8492 593.279 38.6329 594.295 39.1255 595.054C39.6181 595.814 40.6341 596.03 41.3947 595.537Z" fill="white"/>
<path opacity="0.11" d="M79.3693 539.63C80.1285 539.137 80.3448 538.121 79.8522 537.362C79.3581 536.603 78.3435 536.387 77.583 536.879C76.8238 537.372 76.6075 538.388 77.1001 539.147C77.5942 539.908 78.6087 540.124 79.3693 539.63Z" fill="white"/>
<path d="M85.7256 277.196C86.1052 276.95 86.214 276.442 85.967 276.063C85.7214 275.683 85.2134 275.576 84.8338 275.821C84.4542 276.068 84.3467 276.575 84.5938 276.954C84.8394 277.334 85.3474 277.443 85.7256 277.196Z" fill="white"/>
<path d="M136.566 191.438C136.945 191.191 137.054 190.684 136.807 190.305C136.562 189.925 136.054 189.818 135.674 190.063C135.294 190.31 135.187 190.817 135.433 191.197C135.68 191.576 136.186 191.684 136.566 191.438Z" fill="white"/>
<path d="M195.953 224.227C196.333 223.981 196.44 223.474 196.193 223.094C195.947 222.714 195.44 222.607 195.061 222.852C194.682 223.099 194.573 223.606 194.82 223.986C195.066 224.365 195.573 224.474 195.953 224.227Z" fill="white"/>
<path opacity="0.11" d="M78.0723 307.561C78.4519 307.314 78.5593 306.807 78.3123 306.428C78.0667 306.048 77.5587 305.941 77.1805 306.186C76.8009 306.433 76.692 306.94 76.939 307.32C77.1847 307.699 77.6927 307.807 78.0723 307.561Z" fill="white"/>
<path opacity="0.3" d="M162.449 175.62C162.827 175.373 162.936 174.866 162.689 174.486C162.444 174.107 161.936 173.999 161.556 174.245C161.178 174.492 161.069 174.999 161.316 175.378C161.562 175.758 162.07 175.865 162.449 175.62Z" fill="white"/>
<path opacity="0.11" d="M33.4681 219.262C33.8477 219.016 33.9566 218.508 33.7096 218.128C33.4639 217.75 32.9559 217.641 32.5763 217.888C32.1967 218.134 32.0893 218.642 32.3349 219.022C32.5819 219.4 33.0885 219.509 33.4681 219.262Z" fill="white"/>
<path opacity="0.11" d="M163.07 217.224C163.45 216.979 163.557 216.471 163.31 216.091C163.065 215.713 162.557 215.604 162.179 215.851C161.799 216.097 161.69 216.605 161.937 216.984C162.183 217.364 162.691 217.471 163.07 217.224Z" fill="white"/>
<path opacity="0.11" d="M20.3303 289.344C21.0895 288.85 21.3058 287.836 20.8131 287.075C20.3191 286.316 19.3045 286.1 18.5439 286.592C17.7847 287.086 17.5684 288.101 18.061 288.861C18.5537 289.621 19.5697 289.837 20.3303 289.344Z" fill="white"/>
<path d="M4.37434 265.503C4.94374 265.133 5.10559 264.373 4.73576 263.803C4.36593 263.234 3.60535 263.07 3.03456 263.44C2.46516 263.81 2.30327 264.572 2.6731 265.141C3.04293 265.711 3.80355 265.873 4.37434 265.503Z" fill="white"/>
<path d="M3.7831 368.476C4.35389 368.107 4.51574 367.345 4.14592 366.775C3.77609 366.206 3.01411 366.044 2.44472 366.412C1.87532 366.782 1.71343 367.544 2.08326 368.113C2.45309 368.683 3.2137 368.845 3.7831 368.476Z" fill="white"/>
<path d="M240.954 234.103C241.524 233.733 241.686 232.972 241.316 232.403C240.946 231.833 240.185 231.67 239.615 232.04C239.045 232.41 238.883 233.172 239.253 233.741C239.623 234.31 240.384 234.472 240.954 234.103Z" fill="white"/>
<path d="M86.1229 346.308C86.6937 345.938 86.8556 345.176 86.4858 344.607C86.1159 344.037 85.354 343.876 84.7846 344.245C84.2152 344.615 84.0533 345.376 84.4231 345.945C84.7929 346.515 85.5535 346.678 86.1229 346.308Z" fill="white"/>
<path d="M237.968 181.326C238.537 180.956 238.699 180.195 238.33 179.624C237.96 179.055 237.199 178.893 236.628 179.263C236.059 179.633 235.897 180.393 236.267 180.964C236.637 181.534 237.397 181.695 237.968 181.326Z" fill="white"/>
<path d="M229.933 132.806C230.502 132.436 230.664 131.675 230.294 131.105C229.925 130.536 229.164 130.374 228.593 130.743C228.024 131.113 227.862 131.874 228.232 132.444C228.602 133.013 229.362 133.176 229.933 132.806Z" fill="white"/>
<path opacity="0.3" d="M61.5398 229.383C62.3004 228.889 62.5167 227.875 62.0241 227.114C61.53 226.355 60.5155 226.139 59.7549 226.631C58.9957 227.125 58.7793 228.14 59.272 228.901C59.7646 229.66 60.7806 229.876 61.5398 229.383Z" fill="white"/>
<path d="M29.8576 180.571C30.6168 180.079 30.8331 179.063 30.3405 178.304C29.8465 177.544 28.8319 177.328 28.0713 177.821C27.3121 178.313 27.0957 179.329 27.5884 180.089C28.0824 180.849 29.097 181.064 29.8576 180.571Z" fill="white"/>
<path d="M106.763 221.533C107.332 221.163 107.494 220.401 107.124 219.831C106.755 219.262 105.993 219.1 105.423 219.47C104.854 219.838 104.692 220.6 105.062 221.17C105.432 221.739 106.192 221.901 106.763 221.533Z" fill="white"/>
<path opacity="0.3" d="M122.709 173.078C123.468 172.586 123.685 171.57 123.192 170.811C122.698 170.05 121.683 169.834 120.923 170.328C120.164 170.82 119.947 171.836 120.44 172.595C120.934 173.355 121.949 173.571 122.709 173.078Z" fill="white"/>
<path opacity="0.3" d="M222.447 177.722C223.207 177.229 223.423 176.213 222.93 175.454C222.436 174.695 221.422 174.479 220.661 174.971C219.902 175.464 219.686 176.48 220.178 177.239C220.672 178 221.687 178.215 222.447 177.722Z" fill="white"/>
<path opacity="0.3" d="M142.899 231.297C143.658 230.804 143.874 229.788 143.382 229.029C142.887 228.269 141.873 228.052 141.112 228.546C140.353 229.039 140.137 230.054 140.629 230.814C141.123 231.573 142.138 231.79 142.899 231.297Z" fill="white"/>
<path opacity="0.11" d="M180.873 175.39C181.632 174.897 181.849 173.881 181.356 173.122C180.862 172.363 179.847 172.147 179.087 172.639C178.328 173.132 178.111 174.148 178.604 174.907C179.098 175.668 180.113 175.884 180.873 175.39Z" fill="white"/>
<path opacity="0.11" d="M351.93 219.419C352.689 218.927 352.905 217.911 352.413 217.152C351.919 216.391 350.904 216.176 350.144 216.669C349.384 217.161 349.168 218.177 349.661 218.937C350.155 219.696 351.169 219.912 351.93 219.419Z" fill="white"/>
<path d="M361.302 224.083C361.871 223.714 362.033 222.952 361.664 222.382C361.294 221.813 360.533 221.651 359.962 222.021C359.393 222.391 359.231 223.151 359.601 223.721C359.971 224.29 360.731 224.453 361.302 224.083Z" fill="white"/>
<path d="M374.624 194.923C375.194 194.553 375.356 193.793 374.986 193.223C374.616 192.653 373.855 192.491 373.285 192.861C372.715 193.23 372.553 193.992 372.923 194.562C373.293 195.131 374.053 195.293 374.624 194.923Z" fill="white"/>
<path d="M315.29 231.47C315.86 231.1 316.022 230.338 315.652 229.769C315.282 229.2 314.521 229.038 313.951 229.407C313.381 229.777 313.219 230.538 313.589 231.107C313.959 231.677 314.72 231.84 315.29 231.47Z" fill="white"/>
<path opacity="0.11" d="M291.963 270.054C292.722 269.561 292.939 268.545 292.446 267.786C291.952 267.027 290.937 266.811 290.177 267.303C289.418 267.796 289.201 268.812 289.694 269.571C290.188 270.332 291.203 270.548 291.963 270.054Z" fill="white"/>
<path d="M269.09 263.405C269.47 263.159 269.577 262.651 269.33 262.272C269.084 261.892 268.576 261.785 268.197 262.03C267.819 262.277 267.71 262.784 267.957 263.163C268.202 263.543 268.71 263.652 269.09 263.405Z" fill="white"/>
<path d="M367.258 247.571C367.636 247.324 367.745 246.818 367.498 246.438C367.253 246.059 366.745 245.95 366.365 246.197C365.985 246.442 365.878 246.95 366.125 247.33C366.371 247.71 366.879 247.817 367.258 247.571Z" fill="white"/>
<path d="M517.141 150.311C517.519 150.065 517.628 149.557 517.381 149.178C517.135 148.798 516.627 148.691 516.248 148.936C515.868 149.183 515.761 149.69 516.008 150.07C516.253 150.449 516.761 150.558 517.141 150.311Z" fill="white"/>
<path d="M567.98 64.5534C568.359 64.307 568.468 63.7998 568.221 63.4202C567.975 63.0407 567.467 62.9327 567.088 63.179C566.708 63.4253 566.601 63.9326 566.848 64.3121C567.093 64.6917 567.601 64.7997 567.98 64.5534Z" fill="white"/>
<path d="M627.369 97.3385C627.749 97.0922 627.856 96.5849 627.609 96.2055C627.364 95.8259 626.856 95.7178 626.476 95.9642C626.098 96.2105 625.989 96.7179 626.236 97.0974C626.482 97.4768 626.99 97.5848 627.369 97.3385Z" fill="white"/>
<path d="M127.168 378.956C127.548 378.71 127.655 378.202 127.408 377.822C127.162 377.443 126.654 377.335 126.275 377.581C125.897 377.828 125.788 378.335 126.035 378.714C126.28 379.094 126.788 379.203 127.168 378.956Z" fill="white"/>
<path opacity="0.11" d="M92.7695 348.519C93.1491 348.274 93.2566 347.766 93.0096 347.387C92.7639 347.008 92.2559 346.899 91.8777 347.146C91.4981 347.392 91.3893 347.9 91.6363 348.279C91.8819 348.659 92.3899 348.766 92.7695 348.519Z" fill="white"/>
<path opacity="0.11" d="M73.47 383.517C73.8496 383.27 73.9584 382.763 73.7114 382.384C73.4658 382.004 72.9578 381.895 72.5782 382.142C72.1986 382.388 72.0911 382.896 72.3381 383.275C72.5838 383.655 73.0918 383.762 73.47 383.517Z" fill="white"/>
<path opacity="0.11" d="M122.926 410.045C123.304 409.799 123.413 409.291 123.166 408.913C122.921 408.533 122.413 408.424 122.033 408.671C121.653 408.917 121.546 409.425 121.793 409.805C122.039 410.184 122.547 410.292 122.926 410.045Z" fill="white"/>
<path opacity="0.11" d="M268.697 276.357C269.077 276.112 269.184 275.604 268.937 275.225C268.692 274.846 268.185 274.737 267.805 274.984C267.426 275.23 267.317 275.738 267.564 276.117C267.81 276.497 268.318 276.604 268.697 276.357Z" fill="white"/>
<path opacity="0.11" d="M381.946 273.214C382.324 272.967 382.433 272.46 382.186 272.081C381.94 271.701 381.432 271.592 381.053 271.839C380.673 272.085 380.565 272.593 380.813 272.973C381.058 273.352 381.566 273.46 381.946 273.214Z" fill="white"/>
<path opacity="0.11" d="M509.489 180.676C509.867 180.429 509.976 179.923 509.729 179.543C509.483 179.164 508.975 179.056 508.596 179.302C508.216 179.549 508.108 180.055 508.355 180.435C508.601 180.814 509.109 180.922 509.489 180.676Z" fill="white"/>
<path opacity="0.3" d="M147.642 341.241C148.022 340.994 148.13 340.488 147.883 340.108C147.638 339.729 147.13 339.62 146.75 339.867C146.371 340.112 146.263 340.62 146.509 341C146.756 341.38 147.262 341.487 147.642 341.241Z" fill="white"/>
<path d="M281.672 201.501C282.05 201.254 282.159 200.747 281.912 200.367C281.667 199.988 281.159 199.88 280.779 200.126C280.4 200.373 280.292 200.88 280.539 201.259C280.785 201.639 281.293 201.746 281.672 201.501Z" fill="white"/>
<path d="M386.657 131.421C387.035 131.174 387.144 130.667 386.897 130.287C386.651 129.908 386.143 129.8 385.763 130.046C385.384 130.292 385.276 130.8 385.523 131.179C385.769 131.559 386.277 131.667 386.657 131.421Z" fill="white"/>
<path d="M275.969 295.092C276.348 294.846 276.456 294.338 276.209 293.959C275.963 293.579 275.455 293.472 275.076 293.719C274.697 293.964 274.589 294.472 274.836 294.851C275.081 295.23 275.589 295.339 275.969 295.092Z" fill="white"/>
<path opacity="0.3" d="M227.843 326.323C228.223 326.077 228.332 325.569 228.085 325.19C227.839 324.81 227.331 324.703 226.951 324.948C226.572 325.195 226.464 325.702 226.71 326.081C226.957 326.461 227.464 326.57 227.843 326.323Z" fill="white"/>
<path opacity="0.11" d="M143.815 320.28C144.195 320.034 144.304 319.526 144.057 319.147C143.811 318.767 143.303 318.66 142.924 318.905C142.544 319.152 142.437 319.659 142.684 320.038C142.929 320.418 143.437 320.527 143.815 320.28Z" fill="white"/>
<path opacity="0.3" d="M304.763 209.969C305.143 209.724 305.251 209.216 305.004 208.836C304.759 208.456 304.251 208.349 303.871 208.595C303.492 208.842 303.384 209.348 303.63 209.728C303.877 210.107 304.383 210.216 304.763 209.969Z" fill="white"/>
<path opacity="0.3" d="M296.141 300.569C296.52 300.323 296.628 299.815 296.382 299.436C296.135 299.056 295.627 298.949 295.249 299.194C294.869 299.441 294.76 299.948 295.007 300.327C295.253 300.707 295.761 300.816 296.141 300.569Z" fill="white"/>
<path opacity="0.3" d="M217.408 361.429C217.787 361.182 217.896 360.675 217.649 360.296C217.403 359.916 216.895 359.807 216.516 360.054C216.136 360.3 216.029 360.808 216.274 361.187C216.521 361.567 217.028 361.675 217.408 361.429Z" fill="white"/>
<path opacity="0.3" d="M167.584 328.307C167.963 328.062 168.071 327.554 167.824 327.174C167.579 326.794 167.071 326.687 166.691 326.933C166.312 327.18 166.204 327.686 166.451 328.066C166.697 328.445 167.205 328.554 167.584 328.307Z" fill="white"/>
<path opacity="0.3" d="M593.864 48.7351C594.243 48.4888 594.351 47.9815 594.104 47.6019C593.858 47.2225 593.352 47.1145 592.972 47.3608C592.592 47.6071 592.484 48.1144 592.731 48.4938C592.976 48.8734 593.484 48.9814 593.864 48.7351Z" fill="white"/>
<path opacity="0.11" d="M464.882 92.3776C465.261 92.1313 465.37 91.624 465.123 91.2444C464.878 90.8649 464.37 90.7569 463.99 91.0032C463.61 91.2495 463.503 91.7568 463.75 92.1363C463.996 92.5159 464.504 92.6239 464.882 92.3776Z" fill="white"/>
<path opacity="0.11" d="M594.487 90.3405C594.865 90.0941 594.974 89.5869 594.727 89.2074C594.481 88.8278 593.973 88.7198 593.594 88.9661C593.214 89.2124 593.107 89.7197 593.354 90.0993C593.599 90.4788 594.107 90.5868 594.487 90.3405Z" fill="white"/>
<path opacity="0.3" d="M424.565 209.407C425.324 208.915 425.54 207.899 425.047 207.14C424.553 206.38 423.539 206.164 422.778 206.657C422.019 207.149 421.803 208.165 422.295 208.925C422.789 209.685 423.804 209.9 424.565 209.407Z" fill="white"/>
<path opacity="0.11" d="M451.744 162.462C452.504 161.968 452.72 160.953 452.227 160.192C451.733 159.433 450.719 159.217 449.958 159.709C449.199 160.204 448.982 161.218 449.475 161.979C449.969 162.738 450.984 162.954 451.744 162.462Z" fill="white"/>
<path d="M435.79 138.62C436.36 138.251 436.522 137.489 436.152 136.92C435.782 136.35 435.021 136.188 434.451 136.558C433.881 136.927 433.719 137.689 434.089 138.258C434.459 138.828 435.22 138.99 435.79 138.62Z" fill="white"/>
<path d="M435.2 241.593C435.77 241.223 435.932 240.461 435.562 239.892C435.192 239.322 434.43 239.161 433.861 239.53C433.291 239.899 433.129 240.661 433.499 241.23C433.869 241.8 434.63 241.961 435.2 241.593Z" fill="white"/>
<path d="M672.368 107.218C672.938 106.848 673.1 106.087 672.73 105.517C672.36 104.948 671.6 104.786 671.029 105.155C670.459 105.525 670.297 106.286 670.667 106.856C671.037 107.426 671.798 107.588 672.368 107.218Z" fill="white"/>
<path d="M218.593 385.087C219.162 384.717 219.324 383.955 218.955 383.386C218.585 382.817 217.824 382.655 217.253 383.025C216.684 383.395 216.522 384.155 216.892 384.724C217.262 385.295 218.022 385.457 218.593 385.087Z" fill="white"/>
<path d="M116.904 428.61C117.473 428.241 117.635 427.48 117.265 426.911C116.895 426.341 116.135 426.178 115.564 426.548C114.994 426.918 114.833 427.679 115.202 428.249C115.572 428.818 116.333 428.98 116.904 428.61Z" fill="white"/>
<path d="M87.3665 408.697C87.9359 408.327 88.0978 407.565 87.728 406.995C87.3581 406.426 86.5975 406.264 86.0267 406.634C85.4573 407.004 85.2955 407.764 85.6653 408.334C86.0351 408.905 86.7957 409.067 87.3665 408.697Z" fill="white"/>
<path d="M411.716 173.787C412.285 173.417 412.447 172.655 412.078 172.085C411.708 171.516 410.947 171.354 410.376 171.724C409.807 172.092 409.645 172.854 410.015 173.424C410.385 173.993 411.145 174.156 411.716 173.787Z" fill="white"/>
<path d="M325.103 302.292C325.672 301.923 325.834 301.161 325.464 300.591C325.094 300.022 324.334 299.86 323.763 300.23C323.194 300.6 323.032 301.36 323.402 301.93C323.771 302.499 324.532 302.662 325.103 302.292Z" fill="white"/>
<path d="M517.538 219.425C518.108 219.055 518.27 218.293 517.9 217.724C517.53 217.155 516.769 216.993 516.199 217.363C515.629 217.732 515.467 218.493 515.837 219.062C516.207 219.633 516.968 219.795 517.538 219.425Z" fill="white"/>
<path d="M669.383 54.4427C669.952 54.073 670.114 53.3116 669.744 52.742C669.376 52.1724 668.614 52.0103 668.045 52.3799C667.475 52.7496 667.313 53.511 667.682 54.0805C668.052 54.6502 668.814 54.8122 669.383 54.4427Z" fill="white"/>
<path d="M661.347 5.92115C661.916 5.5515 662.078 4.7901 661.708 4.2205C661.339 3.6509 660.578 3.48879 660.007 3.85845C659.438 4.22809 659.276 4.98949 659.646 5.55909C660.016 6.12869 660.776 6.2908 661.347 5.92115Z" fill="white"/>
<path opacity="0.3" d="M492.945 102.5C493.705 102.007 493.921 100.991 493.428 100.232C492.934 99.472 491.92 99.2558 491.159 99.7489C490.4 100.242 490.184 101.257 490.676 102.017C491.17 102.777 492.185 102.993 492.945 102.5Z" fill="white"/>
<path d="M461.274 53.6874C462.033 53.1943 462.249 52.1789 461.756 51.4191C461.262 50.6595 460.248 50.4434 459.487 50.9363C458.728 51.4293 458.512 52.4447 459.004 53.2045C459.498 53.9642 460.513 54.1804 461.274 53.6874Z" fill="white"/>
<path d="M538.177 94.6477C538.746 94.2781 538.908 93.5167 538.539 92.947C538.169 92.3775 537.408 92.2153 536.837 92.585C536.268 92.9547 536.106 93.716 536.476 94.2857C536.846 94.8552 537.606 95.0173 538.177 94.6477Z" fill="white"/>
<path opacity="0.3" d="M554.121 46.1953C554.88 45.7022 555.097 44.6867 554.604 43.9271C554.11 43.1673 553.096 42.9511 552.335 43.4442C551.576 43.9372 551.359 44.9527 551.852 45.7124C552.346 46.472 553.361 46.6882 554.121 46.1953Z" fill="white"/>
<path opacity="0.3" d="M653.862 50.8378C654.623 50.3447 654.838 49.3293 654.345 48.5695C653.852 47.8099 652.836 47.5938 652.077 48.0867C651.318 48.5797 651.102 49.5953 651.594 50.3549C652.087 51.1146 653.103 51.3308 653.862 50.8378Z" fill="white"/>
<path opacity="0.3" d="M574.315 104.412C575.074 103.919 575.29 102.904 574.797 102.144C574.303 101.384 573.289 101.168 572.528 101.661C571.769 102.154 571.553 103.169 572.045 103.929C572.539 104.689 573.554 104.905 574.315 104.412Z" fill="white"/>
<path opacity="0.3" d="M187.274 372.194C188.033 371.7 188.249 370.685 187.757 369.925C187.262 369.166 186.248 368.949 185.487 369.442C184.728 369.936 184.512 370.951 185.004 371.711C185.498 372.47 186.513 372.687 187.274 372.194Z" fill="white"/>
<path opacity="0.3" d="M107.039 370.523C107.798 370.03 108.015 369.015 107.522 368.255C107.028 367.496 106.014 367.279 105.253 367.772C104.494 368.265 104.277 369.281 104.77 370.04C105.264 370.8 106.279 371.017 107.039 370.523Z" fill="white"/>
<path opacity="0.11" d="M612.289 48.5057C613.048 48.0128 613.265 46.9972 612.772 46.2375C612.278 45.4779 611.263 45.2617 610.503 45.7546C609.744 46.2477 609.527 47.2632 610.02 48.0229C610.514 48.7826 611.529 48.9988 612.289 48.5057Z" fill="white"/>
<path opacity="0.3" d="M190.186 283.348C190.945 282.854 191.161 281.84 190.669 281.079C190.175 280.32 189.16 280.104 188.399 280.596C187.64 281.09 187.424 282.105 187.917 282.865C188.411 283.625 189.425 283.841 190.186 283.348Z" fill="white"/>
<path opacity="0.11" d="M162.699 281.643C163.459 281.15 163.675 280.134 163.182 279.375C162.688 278.614 161.674 278.398 160.913 278.892C160.154 279.385 159.938 280.401 160.43 281.16C160.924 281.919 161.939 282.135 162.699 281.643Z" fill="white"/>
<path opacity="0.3" d="M185.758 329.211C186.517 328.718 186.734 327.703 186.241 326.943C185.747 326.183 184.732 325.966 183.972 326.46C183.212 326.953 182.996 327.969 183.489 328.728C183.983 329.487 184.997 329.704 185.758 329.211Z" fill="white"/>
<path d="M228.275 300.64C228.844 300.27 229.006 299.51 228.636 298.939C228.266 298.369 227.506 298.208 226.935 298.577C226.366 298.947 226.204 299.709 226.573 300.279C226.943 300.848 227.704 301.01 228.275 300.64Z" fill="white"/>
</g>
</g>
</svg>
