<svg width="24" height="24" viewBox="0 0 24 24" fill="none" xmlns="http://www.w3.org/2000/svg">
<mask id="mask0_69_1225" style="mask-type:alpha" maskUnits="userSpaceOnUse" x="0" y="0" width="24" height="24">
<rect width="24" height="24" fill="#D9D9D9"/>
</mask>
<g mask="url(#mask0_69_1225)">
<path d="M12 18L16 14L14.6 12.6L13 14.2V10H11V14.2L9.4 12.6L8 14L12 18ZM5 8V19H19V8H5ZM5 21C4.45 21 3.97917 20.8042 3.5875 20.4125C3.19583 20.0208 3 19.55 3 19V6.525C3 6.29167 3.0375 6.06667 3.1125 5.85C3.1875 5.63333 3.3 5.43333 3.45 5.25L4.7 3.725C4.88333 3.49167 5.1125 3.3125 5.3875 3.1875C5.6625 3.0625 5.95 3 6.25 3H17.75C18.05 3 18.3375 3.0625 18.6125 3.1875C18.8875 3.3125 19.1167 3.49167 19.3 3.725L20.55 5.25C20.7 5.43333 20.8125 5.63333 20.8875 5.85C20.9625 6.06667 21 6.29167 21 6.525V19C21 19.55 20.8042 20.0208 20.4125 20.4125C20.0208 20.8042 19.55 21 19 21H5ZM5.4 6H18.6L17.75 5H6.25L5.4 6Z" fill="black" fill-opacity="0.55"/>
</g>
</svg>
