<svg width="18" height="18" viewBox="0 0 18 18" fill="none" xmlns="http://www.w3.org/2000/svg">
<path d="M8.92873 15.5269C9.03136 15.5264 9.13283 15.5051 9.22702 15.4644C9.32122 15.4236 9.40619 15.3642 9.47681 15.2898L13.8136 10.953C13.979 10.7803 14.0518 10.6025 14.0518 10.4174C14.0518 9.99514 13.7543 9.69146 13.3518 9.69146C13.1407 9.69146 12.9618 9.77674 12.8298 9.90986L11.3249 11.3939L9.57561 13.3086L9.66817 11.7777V3.77595C9.66817 3.33395 9.36449 3.03027 8.92873 3.03027C8.49921 3.03027 8.19553 3.33395 8.19553 3.77595V11.7777L8.28913 13.3086L6.53881 11.395L5.03394 9.90882C4.96593 9.83936 4.8847 9.78424 4.79502 9.74673C4.70535 9.70922 4.60906 9.69007 4.51186 9.69042C4.10938 9.69042 3.81194 9.99514 3.81194 10.4174C3.81194 10.6025 3.88474 10.7814 4.03658 10.9384L8.38689 15.2898C8.45655 15.3635 8.54032 15.4225 8.63322 15.4632C8.72612 15.504 8.8273 15.5256 8.92873 15.5269Z" fill="white" fill-opacity="0.4"/>
</svg>
