<svg width="90" height="90" viewBox="0 0 90 90" fill="none" xmlns="http://www.w3.org/2000/svg">
<path d="M74.8089 24.2024L86.8302 70.1501C87.08 71.0998 86.5117 72.0693 85.562 72.319L33.8429 85.8377C32.8933 86.0875 31.9206 85.52 31.6739 84.5694L31.0891 82.3331L19.6528 38.6357C19.4062 37.6852 19.9746 36.7158 20.9242 36.466L70.221 23.581L70.6061 23.4798L72.6433 22.9474C73.5865 22.6993 74.551 23.262 74.8089 24.2024Z" fill="#00D5FE"/>
<g opacity="0.25">
<path d="M74.8089 24.2024L86.8302 70.1501C87.08 71.0998 86.5117 72.0693 85.562 72.319L33.8429 85.8377C32.8933 86.0875 31.9206 85.52 31.6739 84.5694L31.0891 82.3331C31.9077 81.1478 32.8979 80.1232 34.0472 79.3325C40.9039 74.6256 78.7754 72.0005 78.0872 63.1375C77.4818 55.3588 69.5585 33.9543 69.8499 26.2153C69.8838 25.3269 70.0082 24.4442 70.2212 23.581L70.6063 23.4798L72.6434 22.9474C73.5865 22.6993 74.551 23.262 74.8089 24.2024Z" fill="#4217A6"/>
</g>
<path d="M76.9777 47.6622L75.8822 43.4711L70.5803 44.8569L71.9662 50.1588L76.1573 49.0634C76.3032 49.0252 76.4401 48.9588 76.5603 48.8677C76.6805 48.7767 76.7816 48.6628 76.8577 48.5327C76.9339 48.4026 76.9837 48.2588 77.0043 48.1094C77.0249 47.96 77.0159 47.8081 76.9777 47.6622Z" fill="#FF8EDE"/>
<path d="M35.9971 42.569L41.2991 41.1832L42.6849 46.4853L37.3828 47.871L35.9971 42.569Z" fill="#FF8EDE"/>
<path d="M57.2051 37.0255L62.5071 35.6398L63.8929 40.9418L58.5908 42.3276L57.2051 37.0255Z" fill="#FF8EDE"/>
<path d="M33.4666 54.5585L29.2754 55.6539C29.1296 55.6921 28.9926 55.7586 28.8725 55.8496C28.7523 55.9407 28.6512 56.0545 28.575 56.1846C28.4989 56.3147 28.4491 56.4585 28.4285 56.6079C28.4079 56.7573 28.4169 56.9092 28.4551 57.0551L29.5505 61.2462L34.8525 59.8604L33.4666 54.5585Z" fill="#FF8EDE"/>
<path d="M49.3728 50.4014L54.6749 49.0156L56.0606 54.3177L50.7585 55.7034L49.3728 50.4014Z" fill="#FF8EDE"/>
<path d="M41.5408 63.777L46.8428 62.3912L48.2286 67.6933L42.9265 69.079L41.5408 63.777Z" fill="#FF8EDE"/>
<path d="M62.7488 58.2333L68.0508 56.8475L69.4366 62.1496L64.1345 63.5353L62.7488 58.2333Z" fill="#FF8EDE"/>
<path d="M34.8192 76.8618C34.6733 76.8999 34.5363 76.9664 34.4162 77.0575C34.296 77.1485 34.1949 77.2623 34.1187 77.3924C34.0425 77.5226 33.9927 77.6664 33.9722 77.8158C33.9516 77.9652 33.9606 78.1171 33.9988 78.263L34.8041 81.3434C34.8422 81.4892 34.9087 81.6262 34.9997 81.7463C35.0908 81.8665 35.2046 81.9676 35.3347 82.0438C35.4648 82.1199 35.6087 82.1698 35.758 82.1903C35.9074 82.2109 36.0593 82.2019 36.2052 82.1637L40.3964 81.0683L39.0105 75.7664L34.8192 76.8618ZM82.5215 68.8701L81.4258 64.679L76.1239 66.0648L77.5098 71.3667L81.7009 70.2711C81.8468 70.233 81.9838 70.1665 82.1039 70.0755C82.2241 69.9845 82.3252 69.8707 82.4014 69.7406C82.4776 69.6105 82.5274 69.4666 82.548 69.3173C82.5686 69.1679 82.5596 69.016 82.5215 68.8701Z" fill="#FF8EDE"/>
<path d="M54.9165 71.6094L60.2186 70.2236L61.6043 75.5257L56.3022 76.9114L54.9165 71.6094Z" fill="#FF8EDE"/>
<path d="M30.6949 43.9546L26.5038 45.0503C26.3579 45.0884 26.2209 45.1549 26.1007 45.2459C25.9805 45.337 25.8795 45.4508 25.8033 45.5809C25.7271 45.711 25.6773 45.8549 25.6567 46.0043C25.6362 46.1536 25.6452 46.3056 25.6834 46.4514L26.4886 49.5318C26.5268 49.6777 26.5932 49.8146 26.6843 49.9348C26.7754 50.055 26.8892 50.1561 27.0193 50.2322C27.1494 50.3084 27.2932 50.3582 27.4426 50.3788C27.592 50.3994 27.7439 50.3904 27.8898 50.3522L32.0809 49.2566L30.6949 43.9546ZM74.4964 38.169L73.4008 33.9778C73.3627 33.832 73.2962 33.695 73.2051 33.5749C73.1141 33.4547 73.0002 33.3536 72.8701 33.2774C72.74 33.2013 72.5962 33.1515 72.4468 33.1309C72.2975 33.1103 72.1455 33.1193 71.9996 33.1575L67.8085 34.2531L69.1943 39.555L74.4964 38.169Z" fill="#3B6EFF"/>
<path d="M46.6011 39.7971L51.9031 38.4114L53.2889 43.7135L47.9868 45.0992L46.6011 39.7971Z" fill="#3B6EFF"/>
<path d="M30.9365 66.5484L32.032 70.7395C32.0701 70.8854 32.1366 71.0223 32.2277 71.1425C32.3187 71.2627 32.4325 71.3638 32.5627 71.4399C32.6928 71.5161 32.8366 71.5659 32.986 71.5865C33.1353 71.6071 33.2873 71.5981 33.4331 71.5599L37.6243 70.4643L36.2384 65.1624L30.9365 66.5484Z" fill="#3B6EFF"/>
<path d="M38.7688 53.1732L44.0709 51.7875L45.4566 57.0895L40.1545 58.4753L38.7688 53.1732Z" fill="#3B6EFF"/>
<path d="M59.9771 47.6293L65.2791 46.2435L66.6648 51.5456L61.3628 52.9313L59.9771 47.6293Z" fill="#3B6EFF"/>
<path d="M78.9446 55.1856C78.9065 55.0398 78.84 54.9028 78.749 54.7826C78.6579 54.6624 78.5441 54.5614 78.414 54.4852C78.2839 54.409 78.14 54.3592 77.9906 54.3386C77.8413 54.318 77.6893 54.3271 77.5434 54.3653L73.3523 55.4609L74.7382 60.7628L80.0401 59.377L78.9446 55.1856Z" fill="#3B6EFF"/>
<path d="M52.1445 61.0052L57.4466 59.6195L58.8323 64.9216L53.5303 66.3073L52.1445 61.0052Z" fill="#3B6EFF"/>
<path d="M44.313 74.3805L49.6151 72.9948L51.0008 78.2968L45.6987 79.6826L44.313 74.3805Z" fill="#3B6EFF"/>
<path d="M65.5205 68.8374L70.8226 67.4517L72.2083 72.7537L66.9062 74.1395L65.5205 68.8374Z" fill="#3B6EFF"/>
<path d="M24.3624 41.2916C24.9031 40.4479 26.2347 39.8367 27.5511 40.1432C28.6325 40.395 29.1525 41.4971 27.6364 42.5145C25.8633 43.7042 23.4125 42.7736 24.3624 41.2916ZM33.6623 38.8449C34.203 38.0012 35.5346 37.39 36.851 37.6965C37.9324 37.9483 38.4524 39.0502 36.9363 40.0677C35.1631 41.2575 32.7126 40.3269 33.6623 38.8449Z" fill="#FC09B2"/>
<path d="M41.2988 41.1832L46.6009 39.7975L47.9866 45.0996L42.6846 46.4853L41.2988 41.1832Z" fill="#3B6EFF"/>
<path d="M62.5071 35.6394L67.8091 34.2537L69.1949 39.5557L63.8928 40.9415L62.5071 35.6394Z" fill="#3B6EFF"/>
<path d="M29.5508 61.2471L34.8528 59.8613L36.2386 65.1634L30.9365 66.5491L29.5508 61.2471Z" fill="#3B6EFF"/>
<path d="M44.0708 51.7871L49.3729 50.4014L50.7586 55.7034L45.4565 57.0892L44.0708 51.7871Z" fill="#3B6EFF"/>
<path d="M65.2791 46.2428L70.5811 44.8571L71.9668 50.1591L66.6648 51.5449L65.2791 46.2428Z" fill="#3B6EFF"/>
<path d="M46.843 62.3906L52.1451 61.0049L53.5308 66.307L48.2287 67.6927L46.843 62.3906Z" fill="#3B6EFF"/>
<path d="M68.051 56.8468L73.3531 55.4611L74.7388 60.7631L69.4368 62.1489L68.051 56.8468Z" fill="#3B6EFF"/>
<path d="M49.6145 72.9952L54.9166 71.6095L56.3023 76.9116L51.0002 78.2973L49.6145 72.9952Z" fill="#3B6EFF"/>
<path d="M70.8225 67.4514L76.1246 66.0657L77.5103 71.3678L72.2082 72.7535L70.8225 67.4514Z" fill="#3B6EFF"/>
<path d="M62.6626 32.723C62.6734 32.851 62.732 32.9703 62.8268 33.0569C62.9217 33.1436 63.0457 33.1913 63.1742 33.1906C63.3016 33.1906 63.4239 33.1426 63.5185 33.0559L64.5453 32.1162L65.9012 32.4291C66.0041 32.4533 66.1119 32.4449 66.2097 32.4051C66.3076 32.3653 66.3906 32.296 66.4474 32.2069C66.4939 32.135 66.5215 32.0524 66.5277 31.967C66.5339 31.8816 66.5184 31.7959 66.4827 31.718L65.906 30.4512L66.6226 29.2583C66.7188 29.098 66.7214 28.905 66.6295 28.7424C66.585 28.6637 66.5204 28.5981 66.4423 28.5524C66.3642 28.5067 66.2754 28.4825 66.1849 28.4823C66.1733 28.4823 66.1375 28.4844 66.1259 28.4858L64.7435 28.6431L63.8298 27.5923C63.782 27.5371 63.7228 27.4928 63.6564 27.4624C63.5899 27.432 63.5177 27.4162 63.4447 27.4162C63.3263 27.4152 63.2113 27.4556 63.1195 27.5304C63.0277 27.6052 62.9649 27.7097 62.942 27.8259L62.6635 29.1898L61.3822 29.7337C61.2941 29.7708 61.2182 29.832 61.1633 29.9102C61.1083 29.9885 61.0765 30.0806 61.0715 30.1761C61.0658 30.2715 61.087 30.3666 61.1328 30.4506C61.1786 30.5345 61.2471 30.6038 61.3304 30.6507L62.5412 31.3366L62.6626 32.723Z" fill="#3B6EFF"/>
<path d="M69.1951 39.5557L74.4971 38.1699L75.8829 43.472L70.5808 44.8577L69.1951 39.5557Z" fill="white"/>
<path d="M30.6951 43.9551L35.9971 42.5693L37.3829 47.8714L32.0808 49.2571L30.6951 43.9551Z" fill="white"/>
<path d="M51.9031 38.4113L57.2051 37.0255L58.5909 42.3276L53.2888 43.7133L51.9031 38.4113Z" fill="white"/>
<path d="M33.4668 54.559L38.7689 53.1732L40.1546 58.4753L34.8525 59.861L33.4668 54.559Z" fill="white"/>
<path d="M54.6748 49.0153L59.9769 47.6295L61.3626 52.9316L56.0605 54.3173L54.6748 49.0153Z" fill="white"/>
<path d="M74.7385 60.7637L80.0406 59.3779L81.4263 64.68L76.1243 66.0657L74.7385 60.7637Z" fill="white"/>
<path d="M36.2388 65.163L41.5408 63.7772L42.9266 69.0793L37.6245 70.465L36.2388 65.163Z" fill="white"/>
<path d="M57.4465 59.6194L62.7486 58.2337L64.1343 63.5357L58.8323 64.9214L57.4465 59.6194Z" fill="white"/>
<path d="M39.0105 75.767L44.3126 74.3812L45.6983 79.6833L40.3962 81.069L39.0105 75.767Z" fill="white"/>
<path d="M60.2185 70.2234L65.5206 68.8377L66.9063 74.1397L61.6042 75.5255L60.2185 70.2234Z" fill="white"/>
<path d="M69.947 30.1019C69.956 30.2141 70.0071 30.3187 70.09 30.3948C70.173 30.4708 70.2816 30.5127 70.3942 30.512C70.5061 30.5119 70.6139 30.4698 70.6963 30.394L71.3729 29.7746L72.2669 29.9809C72.3569 30.002 72.4511 29.9947 72.5367 29.9599C72.6223 29.9251 72.695 29.8646 72.7447 29.7867C72.7855 29.7236 72.8097 29.6513 72.8152 29.5763C72.8206 29.5014 72.8072 29.4263 72.776 29.358L72.3958 28.5232L72.8683 27.7364C72.9113 27.6647 72.9334 27.5824 72.9321 27.4988C72.9308 27.4151 72.9062 27.3336 72.8609 27.2632C72.8157 27.1929 72.7517 27.1366 72.6761 27.1008C72.6006 27.0649 72.5165 27.0509 72.4334 27.0603L71.5228 27.1646L70.9201 26.4715C70.8781 26.4231 70.8262 26.3842 70.7679 26.3576C70.7096 26.331 70.6463 26.3172 70.5822 26.3171C70.4788 26.3173 70.3786 26.3531 70.2984 26.4185C70.2183 26.4838 70.1631 26.5748 70.1421 26.6761L69.9587 27.5747L69.1141 27.9334C69.0369 27.9658 68.9704 28.0192 68.9222 28.0876C68.874 28.156 68.8461 28.2366 68.8417 28.3202C68.8365 28.4038 68.8551 28.4873 68.8952 28.5609C68.9353 28.6345 68.9953 28.6953 69.0684 28.7364L69.8665 29.1885L69.947 30.1019Z" fill="white"/>
<path opacity="0.75" d="M24.0456 46.1712C24.0217 46.1059 23.9743 46.0518 23.9126 46.0195C23.851 45.9872 23.7796 45.979 23.7122 45.9966C23.6449 46.0141 23.5865 46.0561 23.5485 46.1144C23.5104 46.1726 23.4954 46.243 23.5065 46.3117C23.7163 47.6188 23.9841 48.9106 24.2722 50.1973C24.9941 53.4656 26.3181 58.4262 27.4809 61.6161C27.6034 61.9531 28.1118 61.821 28.0543 61.4665C27.5048 58.0797 26.2334 53.1093 25.2757 49.9356C24.8985 48.6721 24.501 47.4142 24.0456 46.1712Z" fill="white"/>
<path d="M87.1241 70.0731L75.1029 24.1255C75.1025 24.1243 75.1022 24.1231 75.1021 24.1219C74.8009 23.0237 73.6626 22.3652 72.5666 22.6538L20.8473 36.1725C19.7389 36.4641 19.0713 37.6033 19.3592 38.7128L31.38 84.6459C31.4479 84.9105 31.5678 85.1589 31.7326 85.3768C31.8974 85.5947 32.1038 85.7776 32.3399 85.915C32.5758 86.0539 32.8369 86.1445 33.1081 86.1817C33.3793 86.2189 33.6551 86.2018 33.9197 86.1316L85.6393 72.613C85.9038 72.5443 86.1522 72.4239 86.3699 72.2587C86.5877 72.0935 86.7705 71.8867 86.9079 71.6504C87.0466 71.4149 87.1371 71.1542 87.1742 70.8834C87.2113 70.6127 87.1943 70.3372 87.1241 70.0731ZM86.384 71.3436C86.2866 71.5109 86.1571 71.6573 86.0029 71.7743C85.8486 71.8913 85.6728 71.9766 85.4855 72.0253L33.7659 85.544C33.5786 85.5939 33.3832 85.606 33.1911 85.5797C32.9991 85.5535 32.8142 85.4893 32.6472 85.3909C32.4801 85.2937 32.334 85.1642 32.2174 85.01C32.1008 84.8559 32.016 84.68 31.968 84.4928L19.9472 38.5596C19.7433 37.7738 20.2165 36.9666 21.0013 36.7601L72.7206 23.2415C72.8413 23.2095 72.9657 23.1934 73.0906 23.1933C73.7375 23.1933 74.3356 23.6273 74.5158 24.2812L86.5366 70.2273C86.5863 70.4142 86.5984 70.6091 86.5722 70.8007C86.546 70.9924 86.4821 71.1769 86.384 71.3436Z" fill="#122344"/>
<path d="M81.7198 64.6021L80.3338 59.3002L79.2385 55.1087C79.1906 54.9241 79.1067 54.7508 78.9915 54.5988C78.8762 54.4468 78.732 54.3192 78.5672 54.2233C78.4029 54.1264 78.221 54.0631 78.0321 54.037C77.8431 54.011 77.6508 54.0227 77.4665 54.0716L73.2753 55.167L67.9732 56.5531L62.6715 57.9389L57.3694 59.325L52.0677 60.711L46.7656 62.0969L41.4638 63.4829L36.4556 64.7921L35.2232 60.0777L40.2314 58.7686L45.5332 57.3826L50.8353 55.9967L56.137 54.6107L61.4391 53.2247L66.7412 51.8388L72.0429 50.4528L76.2342 49.3573C77.0086 49.1548 77.4738 48.3599 77.2719 47.5856L76.1762 43.3943L74.7902 38.0924L73.6945 33.9014C73.6468 33.7167 73.5629 33.5433 73.4477 33.3913C73.3326 33.2392 73.1884 33.1115 73.0236 33.0154C72.8592 32.9187 72.6773 32.8555 72.4883 32.8295C72.2994 32.8035 72.1071 32.8151 71.9227 32.8637L67.7317 33.9594L62.4296 35.3452L57.1279 36.7313L51.8258 38.1171L46.5237 39.5032L41.222 40.8892L35.9199 42.2751L30.6181 43.6611L26.4268 44.7566C25.6525 44.9591 25.1872 45.754 25.3892 46.5283L26.1946 49.6087C26.2424 49.7933 26.3263 49.9666 26.4414 50.1187C26.5566 50.2707 26.7008 50.3984 26.8655 50.4944C27.03 50.5911 27.2119 50.6543 27.4008 50.6803C27.5898 50.7064 27.782 50.6947 27.9665 50.6461L32.1578 49.5505L37.4595 48.1646L42.7616 46.7786L48.0634 45.3926L53.3655 44.0067L58.6672 42.6207L63.9693 41.2346L68.9775 39.9256L70.2095 44.64L65.2017 45.9491L59.8996 47.3351L54.5979 48.7211L49.2958 50.107L43.9937 51.493L38.6919 52.8791L33.3898 54.2649L29.1989 55.3606C29.0142 55.4083 28.8408 55.4922 28.6888 55.6073C28.5367 55.7225 28.409 55.8667 28.3131 56.0315C28.2163 56.1959 28.153 56.3778 28.1269 56.5667C28.1008 56.7556 28.1125 56.9479 28.1612 57.1323L29.2569 61.3234L30.6426 66.6253L31.7382 70.8167C31.9089 71.4685 32.4992 71.9012 33.1434 71.9012C33.2647 71.9012 33.3876 71.8861 33.5101 71.854L37.7014 70.7585L43.0031 69.3725L48.3052 67.9864L53.6073 66.6006L58.9091 65.2145L64.2112 63.8287L69.5129 62.4426L74.5211 61.1334L75.7535 65.8479L70.7453 67.1571L65.4432 68.5431L60.1415 69.929L54.8394 71.315L49.5376 72.701L44.2355 74.0869L38.9338 75.4729L34.7425 76.5684C33.9682 76.7709 33.5029 77.5656 33.7048 78.3401L34.5103 81.4205C34.5581 81.6051 34.642 81.7784 34.7571 81.9305C34.8723 82.0825 35.0164 82.2101 35.1812 82.3061C35.3456 82.4029 35.5275 82.4662 35.7165 82.4922C35.9055 82.5183 36.0977 82.5065 36.2822 82.4578L40.4731 81.3623L45.7752 79.9763L51.0773 78.5904L56.379 77.2044L61.6811 75.8184L66.9829 74.4325L72.285 73.0465L77.5867 71.6606L81.778 70.565C82.1533 70.4669 82.4678 70.2287 82.6638 69.894C82.8598 69.5593 82.9136 69.1684 82.8157 68.7933L81.7198 64.6021ZM77.6203 54.659C77.7275 54.6308 77.8393 54.624 77.9492 54.6392C78.0591 54.6543 78.1649 54.6911 78.2605 54.7473C78.3563 54.8031 78.4401 54.8774 78.5071 54.9658C78.5741 55.0542 78.6229 55.155 78.6507 55.2623L79.6694 59.1597L77.3125 59.7759L74.9554 60.392L74.3393 58.0347L73.723 55.6775L77.6203 54.659ZM69.6533 61.7782L69.1503 59.8539L68.4209 57.0637L73.1352 55.8313L73.7515 58.1886L74.3678 60.5458L69.6533 61.7782ZM48.4455 67.3218L47.8294 64.9646L47.2131 62.6073L51.9274 61.3751L52.4305 63.2994L53.1598 66.0896L48.4455 67.3218ZM53.7476 65.9359L53.1313 63.5787L52.515 61.2215L57.2289 59.9891L57.8452 62.3463L58.4613 64.7035L53.7476 65.9359ZM59.0495 64.5501L58.3105 61.7233L57.8171 59.8356L62.5314 58.6032L63.5159 62.3699L63.7638 63.3177L59.0495 64.5501ZM64.3516 63.1642L63.7353 60.807L63.119 58.4498L67.833 57.2175L68.1487 58.4255L69.0653 61.9318L64.3516 63.1642ZM46.6253 62.761L47.2414 65.1182L47.8577 67.4754L43.1434 68.7078L41.9112 63.9934L46.6253 62.761ZM37.8417 70.0939L37.2254 67.7366L36.6091 65.3794L41.3234 64.147L42.5554 68.8615L37.8417 70.0939ZM33.8374 54.7754L38.5517 53.5432L39.168 55.9004L39.7842 58.2576L35.07 59.4899L34.1575 55.9994L33.8374 54.7754ZM49.1553 50.7713L49.7716 53.1285L50.3879 55.4857L45.6736 56.718L45.0573 54.3607L44.441 52.0035L49.1553 50.7713ZM43.8532 52.1571L44.4695 54.5144L45.0858 56.8716L40.3719 58.104L39.7556 55.7468L39.1393 53.3895L43.8532 52.1571ZM50.9757 55.3321L50.2144 52.4196L49.7433 50.6177L54.4576 49.3854L55.6896 54.0997L50.9757 55.3321ZM70.9793 47.5847L71.5956 49.9419L66.8816 51.1743L66.2653 48.8171L65.649 46.4599L70.363 45.2277L70.9793 47.5847ZM65.0614 46.6134L65.6777 48.9706L66.294 51.3278L61.5797 52.56L60.7667 49.4499L60.3473 47.8456L65.0614 46.6134ZM76.0808 48.7697L72.1835 49.7885L71.8677 48.5805L70.951 45.0742L73.308 44.4579L75.6652 43.8418L76.6841 47.7392C76.7404 47.9559 76.7085 48.186 76.5954 48.3791C76.4823 48.5723 76.2973 48.7127 76.0808 48.7697ZM72.0763 33.4512C72.1835 33.4228 72.2954 33.416 72.4052 33.4312C72.5151 33.4463 72.6209 33.4831 72.7165 33.5394C72.8124 33.5953 72.8962 33.6695 72.9632 33.758C73.0302 33.8464 73.079 33.9472 73.1067 34.0547L74.1256 37.9519L71.7687 38.5682L69.4118 39.1843L68.7957 36.8273L68.1794 34.47L72.0763 33.4512ZM64.1097 40.5703L63.4934 38.2131L62.8773 35.8559L67.5916 34.6237L68.2077 36.9809L68.824 39.3381L64.1097 40.5703ZM62.2893 36.0095L62.9056 38.3668L63.5217 40.724L58.8075 41.9564L58.1914 39.5992L57.5752 37.2419L62.2893 36.0095ZM52.9179 43.4959L48.2036 44.7281L47.5873 42.3709L46.9712 40.0136L51.6853 38.7812L52.3016 41.1385L52.9179 43.4959ZM32.2981 48.886L31.6818 46.5288L31.0655 44.1716L35.7794 42.9392L36.3957 45.2964L37.012 47.6536L32.2981 48.886ZM37.5998 47.5002L36.9835 45.1429L36.3672 42.7857L41.0815 41.5535L41.6978 43.9107L42.3139 46.2679L37.5998 47.5002ZM42.9019 46.1141L42.1629 43.2876L41.6695 41.3999L46.3834 40.1675L47.3358 43.8103L47.616 44.8817L42.9019 46.1141ZM27.8128 50.0583C27.7056 50.0866 27.5938 50.0934 27.4839 50.0782C27.374 50.063 27.2682 50.0262 27.1726 49.9699C27.0768 49.9141 26.9929 49.8399 26.9259 49.7515C26.8589 49.6631 26.8102 49.5622 26.7824 49.4549L25.977 46.3745C25.9206 46.1578 25.9525 45.9276 26.0656 45.7344C26.1786 45.5412 26.3637 45.4008 26.5803 45.3439L30.4775 44.3252L31.0938 46.6824L31.7101 49.0397L27.8128 50.0583ZM53.5057 43.3422L52.6738 40.1597L52.2733 38.6278L56.9874 37.3956L57.6035 39.7528L58.2195 42.11L53.5057 43.3422ZM72.3208 39.0516L74.2792 38.5397L75.5116 43.254L73.1545 43.8703L70.7973 44.4864L69.5653 39.7721L72.3208 39.0516ZM59.7591 47.9994L60.075 49.2074L60.9917 52.7138L56.2774 53.9462L55.6615 51.589L55.0454 49.2318L59.7591 47.9994ZM28.8371 56.3383C28.893 56.2424 28.9673 56.1586 29.0557 56.0916C29.1442 56.0246 29.2451 55.9758 29.3525 55.948L33.2494 54.9292L33.8657 57.2864L34.482 59.6437L32.0059 60.2911L29.768 60.8761L28.7492 56.9788C28.7206 56.8716 28.7137 56.7597 28.7288 56.6497C28.7439 56.5397 28.7807 56.4339 28.8371 56.3383ZM32.2786 60.8471L34.6354 60.231L35.8678 64.9454L33.0126 65.6918L31.1536 66.1776L29.9215 61.4634L32.2786 60.8471ZM33.3564 71.2661C32.907 71.383 32.4436 71.113 32.326 70.6629L31.3072 66.7653L33.6642 66.1492L36.0213 65.533L36.9338 69.0233L37.2537 70.2473L33.3564 71.2661ZM77.0071 60.4836L79.8228 59.7476L81.0552 64.4618L78.6982 65.0779L76.3413 65.6941L75.1089 60.9798L77.0071 60.4836ZM61.8214 75.1539L61.5055 73.9459L60.5888 70.4394L65.3028 69.2072L65.919 71.5644L66.5352 73.9217L61.8214 75.1539ZM45.9155 79.3117L45.2992 76.9544L44.6831 74.5972L49.3972 73.365L49.7131 74.5729L50.6298 78.0794L45.9155 79.3117ZM51.2176 77.9258L50.6013 75.5686L49.9852 73.2113L54.6991 71.9789L55.3154 74.3362L55.9317 76.6934L51.2176 77.9258ZM56.5193 76.5399L55.9032 74.1827L55.2869 71.8255L60.0012 70.5931L60.5043 72.5174L61.2336 75.3074L56.5193 76.5399ZM67.1231 73.768L66.3842 70.9415L65.8907 69.0538L70.605 67.8214L71.344 70.6479L71.8374 72.5356L67.1231 73.768ZM72.4252 72.382L71.8089 70.0248L71.1928 67.6676L75.9069 66.4351L77.139 71.1498L72.4252 72.382ZM44.0951 74.7508L45.0076 78.2413L45.3275 79.4653L40.6132 80.6977L39.9971 78.3405L39.381 75.9832L44.0951 74.7508ZM36.1285 81.87C36.0212 81.8982 35.9094 81.905 35.7995 81.8898C35.6896 81.8747 35.5838 81.838 35.4881 81.7817C35.3923 81.726 35.3084 81.6517 35.2414 81.5633C35.1744 81.4749 35.1257 81.3741 35.0979 81.2667L34.2925 78.1863C34.2361 77.9696 34.268 77.7395 34.3811 77.5463C34.4942 77.3531 34.6793 77.2126 34.8958 77.1557L38.793 76.137L39.4091 78.4943L40.0252 80.8515L36.1285 81.87ZM82.1398 69.5871C82.0839 69.683 82.0096 69.7668 81.9211 69.8338C81.8327 69.9008 81.7318 69.9495 81.6244 69.9773L77.7271 70.9961L77.111 68.6389L76.4949 66.2817L79.3106 65.5457L81.2088 65.0495L82.2277 68.9467C82.2561 69.054 82.263 69.1658 82.2479 69.2757C82.2329 69.3856 82.1961 69.4915 82.1398 69.5871ZM29.4181 40.0156C29.7413 40.2151 30.1135 40.3211 30.4933 40.3218C30.667 40.3218 30.8407 40.2993 31.0092 40.2534C31.5362 40.1105 31.9903 39.7477 32.2552 39.2581C32.5227 38.764 32.5774 38.1767 32.4058 37.6473C32.3792 37.5728 32.3247 37.5117 32.2537 37.4768C32.1828 37.4419 32.1011 37.436 32.0259 37.4604C31.9507 37.4848 31.8879 37.5375 31.851 37.6074C31.814 37.6773 31.8057 37.7588 31.8279 37.8347C31.9504 38.2122 31.9126 38.6151 31.7212 38.9688C31.535 39.313 31.2177 39.5675 30.8505 39.667C30.4791 39.7672 30.0739 39.7059 29.7371 39.4984C29.3912 39.285 29.1569 38.9512 29.0767 38.5585C29.0605 38.4796 29.0137 38.4104 28.9466 38.3659C28.8794 38.3215 28.7974 38.3055 28.7185 38.3214C28.6794 38.3293 28.6422 38.3448 28.6091 38.3671C28.5761 38.3894 28.5477 38.418 28.5257 38.4513C28.5037 38.4845 28.4884 38.5218 28.4809 38.561C28.4733 38.6001 28.4735 38.6404 28.4815 38.6795C28.5935 39.2307 28.935 39.7175 29.4181 40.0156ZM33.8212 37.011C33.8855 37.011 33.9497 37.0071 34.0137 36.999C34.4273 36.9482 34.7884 36.7286 35.0585 36.4122L35.9111 36.8273C35.9835 36.8624 36.0669 36.8674 36.1431 36.8412C36.2192 36.8149 36.2818 36.7595 36.3171 36.6872C36.3523 36.6147 36.3572 36.5312 36.3309 36.4551C36.3046 36.379 36.2491 36.3164 36.1767 36.2811L35.376 35.8914C35.3862 35.867 35.3966 35.8429 35.4061 35.8179L36.3243 35.8921C36.4046 35.8985 36.4842 35.8728 36.5455 35.8207C36.6069 35.7685 36.6451 35.6941 36.6516 35.6138C36.658 35.5336 36.6323 35.454 36.5801 35.3927C36.5279 35.3314 36.4535 35.2933 36.3732 35.2867L35.534 35.219C35.5395 35.1394 35.5481 35.0607 35.5448 34.9791C35.5375 34.8116 35.3997 34.6836 35.2287 34.6882C35.1482 34.6916 35.0723 34.7267 35.0178 34.786C34.9632 34.8452 34.9344 34.9237 34.9376 35.0042C34.967 35.7126 34.5284 36.324 33.9399 36.3962C33.4498 36.4567 32.9404 36.1384 32.6771 35.6036C32.6414 35.5314 32.5786 35.4762 32.5023 35.4503C32.426 35.4244 32.3426 35.4299 32.2703 35.4655C32.198 35.5011 32.1429 35.564 32.117 35.6402C32.0911 35.7165 32.0965 35.8 32.1321 35.8722C32.477 36.5724 33.1387 37.011 33.8212 37.011ZM26.1617 39.0249C26.3656 39.0249 26.5694 38.9869 26.7627 38.9066C27.4593 38.6185 27.8946 37.8521 27.8462 36.9999C27.8367 36.8324 27.6947 36.7081 27.526 36.7139C27.4861 36.7161 27.4472 36.7262 27.4113 36.7435C27.3753 36.7608 27.3432 36.785 27.3166 36.8148C27.2901 36.8445 27.2696 36.8792 27.2565 36.9168C27.2433 36.9545 27.2377 36.9943 27.24 37.0342C27.2732 37.6195 26.9816 38.1586 26.5305 38.3453C25.9822 38.5733 25.2997 38.2557 24.9768 37.6248C24.9594 37.588 24.9347 37.5552 24.9044 37.5281C24.874 37.5011 24.8385 37.4804 24.8 37.4674C24.7615 37.4543 24.7208 37.4491 24.6802 37.452C24.6397 37.455 24.6001 37.4661 24.5639 37.4846C24.5278 37.5031 24.4956 37.5287 24.4695 37.5599C24.4434 37.591 24.4238 37.6271 24.4119 37.666C24.4 37.7049 24.396 37.7458 24.4002 37.7862C24.4044 37.8266 24.4166 37.8658 24.4363 37.9015C24.4732 37.9737 24.5159 38.0412 24.5595 38.1075L23.8662 38.5766C23.8331 38.599 23.8048 38.6277 23.7829 38.661C23.7609 38.6943 23.7457 38.7316 23.7382 38.7708C23.7306 38.81 23.7308 38.8502 23.7389 38.8893C23.7469 38.9284 23.7625 38.9656 23.7849 38.9986C23.8073 39.0316 23.8359 39.06 23.8692 39.0819C23.9025 39.1039 23.9399 39.1191 23.979 39.1266C24.0182 39.1342 24.0585 39.1339 24.0976 39.1259C24.1367 39.1179 24.1738 39.1023 24.2069 39.0799L24.9641 38.5675C24.985 38.5852 25.0081 38.5991 25.0295 38.6158L24.5264 39.346C24.5029 39.3788 24.4861 39.416 24.4771 39.4554C24.4681 39.4947 24.467 39.5355 24.4739 39.5753C24.4808 39.615 24.4956 39.653 24.5174 39.687C24.5392 39.721 24.5675 39.7504 24.6008 39.7733C24.634 39.7962 24.6715 39.8122 24.711 39.8205C24.7506 39.8288 24.7913 39.8291 24.831 39.8214C24.8706 39.8137 24.9083 39.7982 24.9419 39.7757C24.9755 39.7533 25.0043 39.7244 25.0265 39.6907L25.5628 38.9122C25.7578 38.9832 25.9594 39.0249 26.1617 39.0249ZM41.0101 39.2965C41.0307 39.3743 41.0813 39.4408 41.1508 39.4814C41.2204 39.522 41.3031 39.5334 41.381 39.513C41.4196 39.5029 41.4558 39.4852 41.4876 39.4611C41.5194 39.437 41.5461 39.4068 41.5662 39.3723C41.5863 39.3379 41.5994 39.2998 41.6048 39.2603C41.6102 39.2207 41.6078 39.1805 41.5976 39.1419L40.059 33.293C40.0381 33.2154 39.9875 33.1492 39.9181 33.1086C39.8487 33.0681 39.7661 33.0565 39.6883 33.0764C39.6497 33.0866 39.6135 33.1042 39.5817 33.1284C39.5499 33.1525 39.5232 33.1827 39.5031 33.2171C39.483 33.2516 39.4699 33.2897 39.4645 33.3292C39.4591 33.3687 39.4615 33.4089 39.4717 33.4475L41.0101 39.2965ZM41.8288 34.1162C41.8544 34.1162 41.8804 34.1128 41.9061 34.1062L57.9379 29.8886C58.0158 29.8682 58.0824 29.8176 58.1231 29.7481C58.1637 29.6785 58.1751 29.5957 58.1546 29.5177C58.1342 29.4398 58.0836 29.3732 58.0141 29.3326C57.9445 29.2919 57.8616 29.2806 57.7837 29.301L41.7519 33.5185C41.6805 33.5372 41.6182 33.5812 41.5769 33.6425C41.5356 33.7037 41.5179 33.7779 41.5274 33.8512C41.5368 33.9244 41.5726 33.9918 41.6281 34.0405C41.6835 34.0893 41.7549 34.1162 41.8288 34.1162ZM42.0624 35.8926C42.0829 35.9704 42.1335 36.0369 42.203 36.0775C42.2725 36.1181 42.3552 36.1295 42.4331 36.1092L58.4649 31.8915C58.5428 31.8711 58.6094 31.8205 58.6501 31.7509C58.6907 31.6814 58.702 31.5985 58.6816 31.5206C58.6612 31.4427 58.6106 31.3761 58.541 31.3354C58.4715 31.2948 58.3886 31.2834 58.3107 31.3039L42.2789 35.5216C42.2403 35.5317 42.2041 35.5493 42.1723 35.5734C42.1405 35.5975 42.1138 35.6277 42.0937 35.6622C42.0735 35.6966 42.0604 35.7347 42.055 35.7743C42.0497 35.8138 42.0522 35.854 42.0624 35.8926ZM42.5892 37.8955C42.6097 37.9733 42.6602 38.0398 42.7297 38.0803C42.7992 38.1209 42.8819 38.1323 42.9597 38.112L58.9915 33.8945C59.0301 33.8844 59.0663 33.8667 59.0981 33.8426C59.1298 33.8185 59.1566 33.7883 59.1767 33.7539C59.1968 33.7194 59.2099 33.6813 59.2153 33.6418C59.2207 33.6022 59.2182 33.562 59.2081 33.5235C59.1873 33.4458 59.1367 33.3795 59.0672 33.3389C58.9978 33.2984 58.9152 33.2869 58.8373 33.3069L42.8056 37.5246C42.767 37.5347 42.7308 37.5523 42.699 37.5764C42.6673 37.6006 42.6406 37.6307 42.6205 37.6652C42.6004 37.6996 42.5873 37.7377 42.5819 37.7772C42.5765 37.8167 42.579 37.8569 42.5892 37.8955ZM61.1807 30.9147L62.2528 31.5218L62.3604 32.7491C62.3773 32.953 62.4705 33.1429 62.6214 33.281C62.7722 33.4192 62.9697 33.4952 63.1742 33.4941C63.3778 33.494 63.574 33.4176 63.7239 33.2798L64.6327 32.4478L65.8333 32.7249C65.9971 32.7633 66.1687 32.7499 66.3246 32.6864C66.4804 32.623 66.6126 32.5127 66.703 32.3709C66.7771 32.2562 66.8211 32.1247 66.8309 31.9886C66.8407 31.8525 66.816 31.716 66.7591 31.592L66.2488 30.4707L66.8832 29.4146C66.9574 29.2908 66.9975 29.1495 66.9995 29.0052C67.0014 28.8609 66.965 28.7187 66.8941 28.593C66.8152 28.4536 66.6971 28.3405 66.5545 28.2677C66.4118 28.195 66.251 28.1658 66.0918 28.1837L64.8677 28.3226L64.0593 27.3929C63.9829 27.3048 63.8885 27.2342 63.7825 27.1858C63.6765 27.1373 63.5613 27.1122 63.4447 27.1122C63.2566 27.1126 63.0743 27.1777 62.9286 27.2966C62.7828 27.4155 62.6824 27.581 62.6442 27.7652L62.398 28.9725L61.2638 29.4539C61.1234 29.5129 61.0024 29.6103 60.9147 29.7349C60.827 29.8595 60.7762 30.0063 60.7681 30.1585C60.7589 30.3105 60.7927 30.4621 60.8657 30.5959C60.9387 30.7296 61.0478 30.8401 61.1807 30.9147ZM61.5013 30.0129L62.8285 29.4494C62.8916 29.4226 62.9374 29.3664 62.9512 29.2993L63.2393 27.8865C63.2607 27.781 63.3518 27.7195 63.4446 27.7195C63.5008 27.7195 63.5579 27.7422 63.6008 27.7914L64.5469 28.8795C64.5691 28.905 64.5971 28.9247 64.6287 28.937C64.6602 28.9492 64.6942 28.9536 64.7278 28.9498L66.1604 28.7874C66.1688 28.7863 66.1771 28.786 66.1852 28.786C66.3432 28.786 66.4473 28.9609 66.3625 29.1019L65.62 30.3378C65.6027 30.3667 65.5926 30.3995 65.5906 30.4333C65.5887 30.467 65.595 30.5007 65.609 30.5315L66.2063 31.8439C66.2708 31.9857 66.1634 32.1388 66.018 32.1388C66.0022 32.1388 65.9862 32.1371 65.9697 32.1332L64.5648 31.8091C64.5319 31.8015 64.4976 31.8021 64.465 31.8107C64.4323 31.8193 64.4022 31.8357 64.3773 31.8585L63.3138 32.8319C63.2851 32.8582 63.2497 32.876 63.2114 32.8832C63.1732 32.8904 63.1337 32.8867 63.0974 32.8726C63.0611 32.8585 63.0295 32.8345 63.0062 32.8034C62.9829 32.7722 62.9687 32.7352 62.9654 32.6964L62.8395 31.2601C62.8366 31.2264 62.8255 31.194 62.8072 31.1655C62.789 31.1371 62.764 31.1136 62.7346 31.097L61.48 30.3863C61.3297 30.301 61.3422 30.0804 61.5013 30.0129ZM68.9188 29.0008L69.5781 29.3743L69.6442 30.1291C69.6598 30.317 69.7457 30.4921 69.8847 30.6193C70.0238 30.7466 70.2057 30.8168 70.3943 30.8157C70.5821 30.8157 70.7631 30.7452 70.9014 30.6181L71.4602 30.1066L72.1985 30.2769C72.3495 30.3123 72.5077 30.2999 72.6514 30.2415C72.795 30.183 72.917 30.0814 73.0004 29.9507C73.1393 29.7348 73.1586 29.4664 73.0522 29.2325L72.7383 28.5427L73.1285 27.8932C73.1969 27.7791 73.2339 27.6488 73.2357 27.5158C73.2374 27.3828 73.2039 27.2516 73.1386 27.1357C73.0658 27.0073 72.9569 26.9031 72.8255 26.8361C72.694 26.769 72.5457 26.7421 72.399 26.7587L71.6462 26.8441L71.1489 26.2723C71.0784 26.1911 70.9914 26.126 70.8936 26.0814C70.7959 26.0367 70.6896 26.0136 70.5822 26.0135C70.4088 26.014 70.2408 26.074 70.1065 26.1836C69.9722 26.2932 69.8796 26.4457 69.8444 26.6154L69.6929 27.3579L68.9954 27.6541C68.8659 27.7085 68.7544 27.7983 68.6735 27.9132C68.5927 28.028 68.5459 28.1634 68.5385 28.3036C68.5301 28.4438 68.5612 28.5835 68.6285 28.7068C68.6957 28.8301 68.7963 28.932 68.9188 29.0008ZM69.2329 28.2131L70.1543 27.8218C70.1759 27.8126 70.1949 27.7983 70.2098 27.7802C70.2246 27.762 70.2348 27.7405 70.2396 27.7176L70.4396 26.7367C70.4448 26.7101 70.4574 26.6855 70.476 26.6658C70.4945 26.646 70.5182 26.6319 70.5444 26.625C70.5706 26.6182 70.5983 26.6188 70.6241 26.6269C70.65 26.635 70.673 26.6502 70.6906 26.6708L71.3475 27.4261C71.3629 27.4439 71.3824 27.4576 71.4042 27.4661C71.4261 27.4746 71.4497 27.4777 71.473 27.475L72.4676 27.3621C72.4944 27.3591 72.5216 27.3637 72.5459 27.3753C72.5703 27.3868 72.591 27.405 72.6056 27.4277C72.6202 27.4504 72.6281 27.4767 72.6286 27.5037C72.629 27.5307 72.6219 27.5573 72.608 27.5805L72.0927 28.4385C72.0806 28.4586 72.0735 28.4813 72.0722 28.5047C72.0708 28.5282 72.0752 28.5516 72.0849 28.5729L72.4996 29.484C72.5107 29.5086 72.5147 29.5358 72.5112 29.5625C72.5077 29.5892 72.4968 29.6145 72.4798 29.6353C72.4627 29.6562 72.4402 29.6719 72.4147 29.6807C72.3891 29.6895 72.3617 29.6909 72.3354 29.6849L71.36 29.4599C71.3371 29.4546 71.3133 29.455 71.2906 29.4609C71.2679 29.4669 71.247 29.4783 71.2297 29.4942L70.4913 30.1701C70.4714 30.1883 70.4468 30.2007 70.4203 30.2057C70.3937 30.2106 70.3663 30.2081 70.3412 30.1983C70.316 30.1885 70.2941 30.1719 70.2779 30.1503C70.2617 30.1286 70.2519 30.1029 70.2496 30.076L70.1622 29.0788C70.1602 29.0555 70.1525 29.033 70.1398 29.0133C70.1271 28.9935 70.1098 28.9772 70.0895 28.9656L69.2185 28.4722C69.1949 28.459 69.1755 28.4394 69.1625 28.4157C69.1495 28.392 69.1434 28.3651 69.1449 28.3382C69.1464 28.3112 69.1554 28.2851 69.171 28.263C69.1865 28.2409 69.208 28.2236 69.2329 28.2131Z" fill="#122344"/>
<path d="M51.4718 19.6129C48.8418 16.6749 47.2904 13.745 46.4225 11.6959C46.5733 11.5619 46.7114 11.4144 46.8351 11.255C47.0957 10.9195 47.2872 10.5356 47.3984 10.1255C47.5097 9.71546 47.5385 9.28742 47.4832 8.86616C47.3028 7.45815 46.2445 6.34458 44.8512 6.0955C44.5252 6.03541 44.1919 6.02657 43.8632 6.06931C43.4415 6.12221 43.0346 6.25823 42.6659 6.46951C42.2972 6.68078 41.9741 6.96311 41.7153 7.30013C41.4545 7.63566 41.2629 8.01958 41.1516 8.42966C41.0402 8.83974 41.0113 9.26784 41.0665 9.68917C41.1964 10.6999 41.777 11.5709 42.6594 12.078C42.7158 12.1107 42.7758 12.1352 42.8338 12.1643C42.5109 14.3662 41.7478 17.5898 39.9471 21.0912C39.743 21.489 40.0944 21.864 40.4896 22.0466C40.8808 22.2272 41.284 22.3807 41.6963 22.5061C44.9143 23.5024 48.5607 22.8293 51.188 20.6743C51.5244 20.3978 51.7696 19.9464 51.4718 19.6129Z" fill="#3B6EFF"/>
<path d="M40.8337 20.4341C42.4602 20.8533 44.1055 21.0087 45.7199 20.7897C47.336 20.5868 48.8857 20.0173 50.3495 19.2003C50.4039 19.1691 50.468 19.1591 50.5293 19.172C50.5907 19.185 50.6452 19.2202 50.6824 19.2707C50.7195 19.3213 50.7368 19.3838 50.7309 19.4462C50.7249 19.5087 50.6962 19.5668 50.6502 19.6095C50.0056 20.2158 49.2447 20.6999 48.4301 21.0669C47.6161 21.4388 46.7393 21.6758 45.8489 21.7936C44.9576 21.904 44.0498 21.8887 43.169 21.7345C42.2888 21.583 41.4323 21.3024 40.6576 20.8779C40.6062 20.8497 40.567 20.8036 40.5471 20.7485C40.5273 20.6933 40.5283 20.6328 40.5499 20.5783C40.5715 20.5238 40.6123 20.4791 40.6646 20.4526C40.7168 20.426 40.777 20.4194 40.8337 20.4341Z" fill="#4217A6"/>
<path opacity="0.5" d="M42.3004 19.2363C42.0839 19.4057 41.7854 19.1603 41.9121 18.9146C42.8914 17.0156 43.0879 15.2736 43.537 13.4619L43.5399 13.4508C43.5475 13.4198 43.5613 13.3906 43.5802 13.3649C43.5992 13.3392 43.6231 13.3175 43.6504 13.3011C43.6778 13.2846 43.7081 13.2737 43.7397 13.2689C43.7713 13.2642 43.8035 13.2657 43.8345 13.2734C44.4214 13.4193 44.3022 17.6692 42.3004 19.2363Z" fill="white"/>
<path d="M51.4719 19.6128C48.7127 16.5312 47.1373 13.4531 46.2967 11.3977C46.6301 11.0811 46.884 10.6903 47.0379 10.2571C47.1917 9.82388 47.2412 9.36048 47.1823 8.90455C47.0157 7.60553 46.0222 6.61324 44.7964 6.39404C45.0191 7.17258 45.2783 7.94355 45.2651 8.76322C45.2385 10.4231 44.1536 11.3258 42.812 11.8151C43.3665 12.1374 44.0119 12.2673 44.6479 12.1846C44.8544 12.1581 45.0522 12.111 45.2412 12.0447C45.0285 12.8714 45.039 13.7675 45.1076 14.628C45.2016 15.8228 45.3895 17.032 45.1721 18.2108C44.8604 19.8916 43.7099 21.3611 42.2342 22.2238C42.0593 22.3258 41.8799 22.4199 41.6965 22.5058C44.9146 23.5021 48.561 22.8291 51.1882 20.674C51.5245 20.3977 51.7697 19.9462 51.4719 19.6128Z" fill="#122344"/>
<path d="M45.3752 10.0183C45.1568 9.83919 45.2825 9.5539 45.5276 9.42909C45.9074 9.23573 46.3145 9.2955 46.5 9.45001C46.9976 9.86415 45.9048 10.4528 45.3752 10.0183ZM43.3976 10.272C43.5636 10.0436 43.37 9.79929 43.1014 9.7404C42.685 9.64899 42.3062 9.80983 42.1657 10.006C41.7889 10.5323 42.9949 10.8262 43.3976 10.272Z" fill="#FC09B2"/>
<path d="M51.6993 19.4112C49.1624 16.5765 47.6349 13.7224 46.7841 11.7694C47.5266 11.0192 47.9288 9.95185 47.7857 8.82649C47.692 8.07979 47.3618 7.38268 46.8434 6.83715C46.325 6.29161 45.6456 5.92629 44.9046 5.79462C44.6964 5.759 44.4856 5.74089 44.2743 5.74048C44.1273 5.74048 43.9727 5.74821 43.8257 5.76755C41.8882 6.01505 40.5154 7.79395 40.7668 9.72755C40.906 10.8258 41.5363 11.7733 42.4954 12.334C42.1589 14.5074 41.3932 17.6127 39.6762 20.954C39.6249 21.0521 39.5943 21.1597 39.5863 21.2701C39.5783 21.3806 39.5931 21.4915 39.6298 21.5959C39.7303 21.8899 39.9972 22.1528 40.3607 22.323C40.7706 22.5086 41.1883 22.671 41.6059 22.7948C42.6091 23.1053 43.6534 23.263 44.7035 23.2627C45.9095 23.2621 47.1069 23.0595 48.2459 22.6633C49.379 22.265 50.4463 21.6772 51.3822 20.9076C51.6916 20.6524 51.8849 20.3275 51.9081 20.0181C51.9238 19.794 51.8542 19.5813 51.6993 19.4112ZM41.3662 9.6502C41.1612 8.04532 42.2982 6.57579 43.903 6.37083C44.0262 6.3554 44.1502 6.34765 44.2743 6.34763C44.4522 6.34763 44.6262 6.3631 44.7964 6.39403C46.0223 6.61446 47.0161 7.60446 47.1824 8.90384C47.2347 9.30346 47.2032 9.70959 47.09 10.0964C46.9768 10.4832 46.7844 10.8422 46.525 11.1507C46.3863 11.3197 46.2279 11.4716 46.0532 11.6031C45.6587 11.9086 45.1792 12.1136 44.6494 12.1832C44.5218 12.2025 44.398 12.2103 44.2704 12.2103C43.8798 12.2103 43.5047 12.1329 43.1605 11.986C43.0402 11.9387 42.9238 11.8818 42.8125 11.8158C42.7352 11.7733 42.6617 11.723 42.5882 11.6727C42.2554 11.4387 41.975 11.1381 41.7646 10.7899C41.5542 10.4417 41.4186 10.0536 41.3662 9.6502ZM50.9955 20.4398C48.4702 22.5126 44.9394 23.1933 41.7838 22.2149C41.3848 22.0934 40.9946 21.9448 40.6159 21.7701C40.411 21.6773 40.2485 21.5304 40.2021 21.3989C40.1828 21.3409 40.1867 21.2867 40.2176 21.2287C41.923 17.9146 42.7081 14.8206 43.0677 12.6009C43.4525 12.7441 43.8598 12.8175 44.2704 12.8174C44.4212 12.8174 44.5759 12.8058 44.7268 12.7865C45.2926 12.7157 45.832 12.5057 46.2968 12.1755C47.1824 14.1671 48.7254 17.0019 51.2468 19.8132C51.2894 19.8634 51.3048 19.9137 51.301 19.9717C51.2894 20.1111 51.1695 20.2967 50.9955 20.4398Z" fill="#122344"/>
<path d="M43.1762 8.9039C43.1762 8.88843 43.1762 8.87297 43.1723 8.86136C43.1452 8.6332 42.9403 8.48238 42.7044 8.51332C42.4723 8.54812 42.3215 8.74922 42.3486 8.98125C42.3679 9.17461 42.5536 9.33703 42.7624 9.33703C42.7817 9.33703 42.8011 9.33703 42.8204 9.33316C43.037 9.30222 43.1839 9.1282 43.1762 8.9039ZM45.686 8.96578C45.7169 8.96191 45.7478 8.95418 45.7749 8.94644C46.2467 8.78789 46.0882 8.06859 45.5932 8.14593C45.3186 8.18461 45.2142 8.42437 45.2296 8.61C45.2296 8.6216 45.2335 8.62933 45.2374 8.64093C45.2722 8.83429 45.4926 9.00058 45.686 8.96578ZM44.0231 10.037C44.1082 10.0718 44.1971 10.0873 44.2861 10.0873C44.4485 10.0873 44.6109 10.0254 44.7462 9.90937C44.9203 9.75855 45.0324 9.53425 45.0672 9.27129C45.0943 9.08566 45.0827 8.8807 45.0286 8.668V8.66027C45.0097 8.58256 44.9609 8.51543 44.8929 8.47343C44.8248 8.43144 44.743 8.41798 44.665 8.43597C44.5964 8.4525 44.5357 8.49243 44.4933 8.5489C44.451 8.60537 44.4297 8.67484 44.433 8.74535C44.433 8.76468 44.4369 8.78015 44.4407 8.79949C44.4987 9.04312 44.4755 9.23648 44.4175 9.35636C44.4035 9.39217 44.3809 9.42403 44.3518 9.44918C44.3015 9.49172 44.2667 9.48011 44.2512 9.47238C44.213 9.45502 44.1807 9.42677 44.1584 9.39117C44.085 9.30222 44.0076 9.1282 43.9805 8.83816C43.9805 8.82656 43.9767 8.81496 43.9728 8.80336C43.9419 8.6564 43.8027 8.54812 43.648 8.56359C43.5711 8.57079 43.5001 8.6074 43.4496 8.66578C43.3992 8.72416 43.3733 8.79978 43.3773 8.87683V8.89617C43.3966 9.11273 43.443 9.30609 43.5126 9.47238C43.6248 9.75082 43.7988 9.94804 44.0231 10.037Z" fill="#122344"/>
<path d="M67.6776 18.5045C65.4422 15.2551 64.2761 12.1508 63.6761 10.0078C64.5281 9.42456 65.0889 8.44546 65.0889 7.33734C65.0889 5.91773 64.1806 4.67864 62.8306 4.25466C62.515 4.15363 62.1856 4.10239 61.8542 4.10279C60.0705 4.10279 58.6193 5.55386 58.6193 7.33734C58.6193 8.35652 59.0849 9.29431 59.8956 9.90954C59.9475 9.94927 60.0048 9.97827 60.0585 10.0145C59.4584 12.1574 58.2912 15.2593 56.0586 18.5045C55.8057 18.8732 56.1065 19.2898 56.4751 19.5211C56.8402 19.75 57.2206 19.9536 57.6136 20.1305C60.6789 21.5282 64.3812 21.3244 67.2612 19.5211C67.6298 19.2898 67.9306 18.8732 67.6776 18.5045Z" fill="#3B6EFF"/>
<path d="M57.0214 17.9656C58.5813 18.5884 60.1934 18.9519 61.8227 18.9398C63.4515 18.9442 65.0609 18.5763 66.6168 17.9522C66.6747 17.9287 66.7392 17.9273 66.7982 17.9481C66.8571 17.9689 66.9064 18.0106 66.9366 18.0653C66.9669 18.12 66.9762 18.1838 66.9626 18.2449C66.949 18.3059 66.9135 18.3598 66.8629 18.3964C66.1466 18.9157 65.3301 19.2994 64.4752 19.5596C63.6204 19.825 62.7206 19.9486 61.8225 19.9519C60.9243 19.9481 60.0259 19.8173 59.1717 19.5524C58.318 19.2905 57.5041 18.903 56.7897 18.3834C56.7425 18.3488 56.7095 18.2981 56.697 18.2408C56.6844 18.1836 56.6932 18.1238 56.7216 18.0725C56.75 18.0213 56.7961 17.9822 56.8513 17.9625C56.9065 17.9428 56.967 17.9439 57.0214 17.9656Z" fill="#55C9F5"/>
<g opacity="0.5">
<path d="M67.6777 18.5045C65.333 15.0969 64.1621 11.8435 63.5897 9.69773C63.9607 9.42613 64.2622 9.07082 64.47 8.66071C64.6777 8.25059 64.7857 7.79724 64.7852 7.33751C64.7852 6.02777 63.926 4.91718 62.7381 4.54382C62.8599 5.34433 63.0188 6.14185 62.9016 6.95326C62.6641 8.59628 61.4732 9.35355 60.0801 9.6682C60.5891 10.0584 61.2128 10.2693 61.8541 10.2683C62.0578 10.2685 62.261 10.2473 62.4603 10.205C62.1441 10.998 62.0408 11.8881 61.9991 12.7503C61.9404 13.9474 61.9729 15.1707 61.6073 16.3124C61.0843 17.9398 59.7561 19.2511 58.1827 19.9191C57.9962 19.9979 57.8063 20.0684 57.6135 20.1303C60.6788 21.528 64.3811 21.3243 67.2611 19.5209C67.6299 19.2898 67.9307 18.8732 67.6777 18.5045Z" fill="#55C9F5"/>
</g>
<path opacity="0.75" d="M61.0632 11.4566C61.2671 14.7571 58.6996 17.588 58.2749 16.8742C58.18 16.7146 58.3074 16.5435 58.2937 16.5822C60.2384 13.7718 60.2398 10.9845 60.9087 11.245C60.9997 11.2805 61.0574 11.365 61.0632 11.4566Z" fill="white"/>
<path d="M62.9807 8.13667C62.7801 7.92415 62.9468 7.64783 63.2149 7.55203C63.6302 7.40349 64.0403 7.51863 64.2105 7.70144C64.6665 8.19204 63.4673 8.65259 62.9807 8.13667ZM60.7275 8.13667C60.9281 7.92415 60.7615 7.64783 60.4934 7.55203C60.078 7.40349 59.6679 7.51863 59.4978 7.70144C59.0418 8.19204 60.2412 8.65259 60.7275 8.13667Z" fill="#FC09B2"/>
<path d="M61.8541 6.69999C61.4352 6.69735 61.0088 6.86768 61.0088 7.19534C61.0104 7.63338 61.4293 7.95014 61.8541 7.95823C62.2792 7.95032 62.6979 7.63338 62.6995 7.19534C62.6995 6.86768 62.273 6.69717 61.8541 6.69999Z" fill="white"/>
<path d="M67.9263 18.3323C65.7685 15.196 64.6199 12.1718 64.0282 10.1259C64.8597 9.47624 65.3933 8.46691 65.3933 7.33769C65.3933 5.78308 64.3995 4.42956 62.9222 3.9655C62.5774 3.8542 62.2172 3.79808 61.8549 3.79921C59.9019 3.79921 58.3164 5.38476 58.3164 7.33769C58.3164 8.44757 58.823 9.47238 59.7008 10.1453C59.0898 12.2529 57.9374 15.2347 55.8066 18.3323C55.679 18.5218 55.6326 18.7422 55.679 18.9626C55.7408 19.2681 55.9729 19.5659 56.3132 19.7786C56.6904 20.0138 57.0832 20.2231 57.4888 20.4051C58.8733 21.0393 60.3737 21.3487 61.8665 21.3487C62.841 21.3487 63.8155 21.2172 64.7514 20.9542C65.6934 20.6912 66.5932 20.2954 67.4236 19.7786C67.7639 19.5659 67.996 19.2681 68.0578 18.9626C68.1042 18.7422 68.0578 18.5218 67.9263 18.3323ZM58.9234 7.33769C58.9234 5.71734 60.2343 4.40636 61.8547 4.40636C62.1641 4.40636 62.458 4.45277 62.7364 4.54558C63.3312 4.73155 63.8509 5.10281 64.2196 5.60514C64.5883 6.10747 64.7868 6.71454 64.786 7.33769C64.7868 7.74106 64.7037 8.14018 64.5419 8.50968C64.3801 8.87919 64.1432 9.21098 63.8463 9.48398C63.6882 9.6348 63.5114 9.76476 63.3203 9.8707C62.8911 10.1259 62.3884 10.269 61.8547 10.269C61.3249 10.269 60.826 10.1298 60.4006 9.8823C60.2138 9.77461 60.0388 9.64759 59.8786 9.50331C59.5774 9.22867 59.3369 8.89419 59.1724 8.52129C59.008 8.14838 58.9231 7.74525 58.9234 7.33769ZM67.0986 19.2643C64.3297 20.9968 60.7448 21.2249 57.7398 19.8521C57.3647 19.6858 56.9935 19.4847 56.6377 19.2643C56.4443 19.1444 56.3012 18.9781 56.2742 18.8427C56.2626 18.7809 56.2703 18.7306 56.309 18.6765C58.4204 15.6059 59.5922 12.6359 60.2303 10.4819C60.732 10.7422 61.2892 10.8775 61.8545 10.8763C62.4462 10.8763 63.0031 10.7294 63.4942 10.4703C64.1129 12.5586 65.2847 15.5634 67.4271 18.6766C67.4619 18.7308 67.4735 18.781 67.4619 18.8429C67.4352 18.9781 67.292 19.1444 67.0986 19.2643Z" fill="#122344"/>
<path d="M60.3543 7.15599C60.54 7.14052 60.683 7.00903 60.7217 6.82728C60.7264 6.79784 60.729 6.76812 60.7295 6.73833C60.7295 6.5063 60.5477 6.33227 60.3118 6.33614C60.0759 6.33614 59.9019 6.5179 59.898 6.74993C59.8941 6.96263 60.0875 7.16372 60.3195 7.15985C60.3311 7.15985 60.3427 7.15985 60.3543 7.15599ZM63.3823 7.15985H63.3862C63.9663 7.14438 63.9315 6.32067 63.4017 6.33227C63.1232 6.34001 62.9879 6.56431 62.984 6.74993C62.984 6.777 62.984 6.80407 62.9918 6.82728C63.0266 7.00517 63.2045 7.16372 63.3823 7.15985Z" fill="#122344"/>
<path d="M15.0187 23.6801L17.85 32.2638C17.8999 32.4139 17.9144 32.5735 17.8924 32.7301C17.8705 32.8868 17.8126 33.0362 17.7235 33.1668L13.3505 39.5851C13.2424 39.7426 13.0928 39.8672 12.9182 39.9449C12.7437 40.0226 12.551 40.0505 12.3616 40.0254L3.89105 38.8809C3.69956 38.8551 3.5192 38.776 3.37054 38.6525C3.22188 38.5291 3.1109 38.3664 3.05029 38.1829L0.35556 30.0133C0.335434 29.9548 0.322104 29.8943 0.315833 29.8328C0.276477 29.5652 0.344599 29.2929 0.505326 29.0753L5.4947 22.3519C5.60484 22.2043 5.75248 22.0888 5.92231 22.0175C6.09213 21.9463 6.27794 21.9217 6.46044 21.9465L14.1772 22.9799C14.3689 23.0064 14.5493 23.086 14.698 23.2097C14.8468 23.3335 14.9579 23.4964 15.0187 23.6801Z" fill="white"/>
<path d="M17.4389 31.0172L17.8501 32.2638C17.8999 32.4139 17.9144 32.5735 17.8925 32.7301C17.8705 32.8868 17.8127 33.0362 17.7235 33.1668L13.3506 39.5851C13.2425 39.7426 13.0929 39.8672 12.9183 39.9449C12.7438 40.0226 12.5511 40.0505 12.3617 40.0254L3.89113 38.8809C3.69965 38.8551 3.51928 38.7759 3.37062 38.6525C3.22196 38.5291 3.11099 38.3664 3.05037 38.1829L0.355645 30.0133C0.335518 29.9548 0.322188 29.8943 0.315918 29.8328C0.431929 29.8433 0.546347 29.8672 0.656934 29.9038C1.44988 30.1708 2.00201 30.9045 2.34109 31.6688C2.68229 32.4322 2.86369 33.2609 3.21016 34.0251C3.94369 35.6321 5.43713 36.8717 7.15223 37.2938C8.86732 37.7159 10.7677 37.3147 12.1625 36.2319C13.4274 35.2512 14.2323 33.8093 15.2983 32.6166C15.8856 31.9588 16.6298 31.3559 17.4389 31.0172Z" fill="#122344"/>
<path d="M18.1383 32.1687L15.307 23.5849C15.1465 23.098 14.7301 22.7509 14.2177 22.6786L6.50178 21.6454C6.26534 21.613 6.02455 21.6447 5.80453 21.7371C5.58452 21.8295 5.39333 21.9793 5.25092 22.1708L0.26049 28.8956C0.0528923 29.1785 -0.036053 29.5367 0.0133415 29.8591C0.020197 29.9373 0.0383025 30.0214 0.0673064 30.108L2.76186 38.2776C2.92235 38.7647 3.33912 39.111 3.85065 39.1817L12.3219 40.3262C12.5672 40.3595 12.8168 40.3238 13.0429 40.2231C13.269 40.1223 13.4625 39.9606 13.6018 39.7559L17.9736 33.3389C18.2069 33.0003 18.2684 32.5626 18.1383 32.1687ZM17.4723 32.9956L13.1001 39.4133C13.0239 39.5247 12.9183 39.6127 12.7951 39.6676C12.6718 39.7225 12.5358 39.742 12.4021 39.7241L3.93256 38.5798C3.79721 38.562 3.66963 38.5064 3.56452 38.4193C3.4594 38.3321 3.38103 38.2171 3.33842 38.0874L0.643693 29.9171C0.629449 29.875 0.620129 29.8314 0.61592 29.7872C0.589105 29.5996 0.636876 29.409 0.748986 29.2562L5.73766 22.5336C5.81542 22.4292 5.91974 22.3476 6.03976 22.2973C6.15977 22.2469 6.29109 22.2296 6.42004 22.2473L14.1346 23.2803C14.2703 23.2985 14.3981 23.3546 14.5034 23.4421C14.6087 23.5297 14.6872 23.6451 14.7299 23.7751L17.5612 32.3589C17.5965 32.4647 17.6068 32.5772 17.5913 32.6876C17.5759 32.7981 17.5352 32.9035 17.4723 32.9956Z" fill="#122344"/>
<path d="M8.73683 31.084C8.81392 31.0836 8.88798 31.0539 8.94401 31.001C9.00003 30.948 9.03383 30.8757 9.03854 30.7988C9.04326 30.7218 9.01854 30.646 8.96941 30.5866C8.92027 30.5272 8.85039 30.4887 8.77392 30.4789L1.29109 29.5494C1.25145 29.5442 1.21116 29.5469 1.17258 29.5574C1.134 29.5679 1.09788 29.5859 1.06634 29.6105C1.03479 29.6351 1.00844 29.6656 0.988808 29.7005C0.969182 29.7353 0.956672 29.7737 0.952006 29.8134C0.942118 29.8933 0.964376 29.9739 1.01389 30.0374C1.0634 30.101 1.13611 30.1422 1.21603 30.1521L8.69886 31.0817C8.71187 31.0833 8.72435 31.084 8.73683 31.084ZM14.5678 23.6294C14.5343 23.6079 14.4968 23.5932 14.4575 23.5862C14.4183 23.5791 14.378 23.5799 14.3391 23.5884C14.3001 23.597 14.2632 23.6131 14.2305 23.6359C14.1978 23.6587 14.1699 23.6878 14.1484 23.7214L10.2162 29.8579C10.1867 29.9037 10.1701 29.9567 10.1681 30.0111C10.1661 30.0656 10.1789 30.1196 10.205 30.1675C10.2312 30.2153 10.2697 30.2552 10.3167 30.283C10.3636 30.3108 10.4171 30.3254 10.4716 30.3253C10.5718 30.3253 10.6697 30.2761 10.7277 30.1854L14.66 24.0488C14.6815 24.0153 14.6961 23.9778 14.7031 23.9385C14.7101 23.8992 14.7093 23.859 14.7008 23.82C14.6922 23.7811 14.6761 23.7442 14.6533 23.7115C14.6305 23.6788 14.6014 23.6509 14.5678 23.6294ZM10.197 31.2291C10.1718 31.1526 10.1172 31.0893 10.0453 31.053C9.97338 31.0168 9.88999 31.0106 9.81349 31.0358C9.77562 31.0483 9.74059 31.0681 9.71038 31.0941C9.68018 31.1201 9.65541 31.1518 9.63748 31.1875C9.61955 31.2231 9.60883 31.2619 9.60591 31.3016C9.60299 31.3414 9.60794 31.3813 9.62048 31.4192L12.2227 39.3089C12.2481 39.3854 12.3026 39.4487 12.3746 39.4849C12.4465 39.5212 12.5298 39.5274 12.6063 39.5023C12.6442 39.4898 12.6792 39.47 12.7094 39.444C12.7396 39.418 12.7644 39.3862 12.7824 39.3506C12.8003 39.315 12.811 39.2762 12.814 39.2365C12.8169 39.1967 12.812 39.1568 12.7995 39.1189L10.197 31.2291ZM6.98359 24.5632C7.55576 24.3744 7.92771 23.9432 7.81451 23.5999C7.7013 23.2566 7.14566 23.1313 6.57349 23.32C6.00132 23.5088 5.62937 23.94 5.74257 24.2833C5.85578 24.6266 6.41142 24.752 6.98359 24.5632ZM7.32988 29.0957C7.44308 29.439 7.99873 29.5643 8.57089 29.3755C9.14306 29.1867 9.51501 28.7556 9.40181 28.4123C9.28861 28.069 8.73296 27.9436 8.1608 28.1324C7.5888 28.3212 7.21667 28.7524 7.32988 29.0957ZM6.53623 26.6896C6.64943 27.0329 7.20507 27.1582 7.77707 26.9694C8.34923 26.7808 8.72119 26.3495 8.60798 26.0062C8.49478 25.6629 7.93914 25.5375 7.36697 25.7263C6.79515 25.9149 6.42302 26.3463 6.53623 26.6896ZM11.9041 25.6082C12.4762 25.4194 12.8482 24.9882 12.735 24.6449C12.6218 24.3016 12.0661 24.1763 11.494 24.3651C10.9218 24.5539 10.5498 24.985 10.663 25.3283C10.7764 25.6716 11.3319 25.7968 11.9041 25.6082ZM3.65042 28.3305C4.22259 28.1417 4.59455 27.7105 4.48134 27.3672C4.36814 27.0239 3.81249 26.8986 3.24033 27.0874C2.66816 27.2762 2.29621 27.7074 2.40941 28.0507C2.52279 28.394 3.07826 28.5193 3.65042 28.3305ZM8.44222 32.8864C7.96814 32.5148 7.40283 32.4442 7.17994 32.7287C6.95705 33.0132 7.1606 33.5451 7.63486 33.9167C8.10894 34.2883 8.67425 34.3589 8.89714 34.0743C9.12003 33.7899 8.91648 33.258 8.44222 32.8864ZM5.31648 36.8749C4.84222 36.5033 4.27708 36.4326 4.05419 36.7172C3.83113 37.0016 4.03486 37.5335 4.50912 37.9051C4.9832 38.2767 5.54851 38.3474 5.7714 38.0628C5.99429 37.7784 5.79074 37.2465 5.31648 36.8749ZM10.2997 37.5611C9.82562 37.1895 9.26031 37.1189 9.03742 37.4035C8.81435 37.6881 9.01808 38.2198 9.49216 38.5914C9.96642 38.963 10.5316 39.0337 10.7544 38.7491C10.9775 38.4647 10.7738 37.9327 10.2997 37.5611ZM3.45917 32.2002C2.98509 31.8286 2.41978 31.7579 2.19689 32.0425C1.974 32.3271 2.17755 32.8588 2.65181 33.2306C3.12589 33.6022 3.69121 33.6729 3.9141 33.3883C4.13699 33.1037 3.93326 32.5718 3.45917 32.2002ZM14.3121 30.8684C13.9526 30.8301 13.6097 31.2849 13.5459 31.8839C13.4822 32.483 13.722 32.9996 14.0813 33.0378C14.4408 33.0759 14.7837 32.6213 14.8475 32.0223C14.9113 31.4232 14.6716 30.9066 14.3121 30.8684ZM13.8691 35.0345C13.5096 34.9961 13.1667 35.4509 13.1031 36.0499C13.0393 36.649 13.279 37.1656 13.6385 37.2038C13.998 37.2419 14.3409 36.7874 14.4045 36.1883C14.4684 35.5894 14.2286 35.0728 13.8691 35.0345ZM14.7229 27.0055C14.3634 26.9673 14.0205 27.4219 13.9567 28.021C13.893 28.62 14.1328 29.1367 14.4921 29.1748C14.8516 29.2129 15.1945 28.7584 15.2583 28.1593C15.3219 27.5604 15.0822 27.0436 14.7229 27.0055ZM25.2597 21.8421C25.1056 21.8955 24.9532 21.9555 24.7971 22.0252C24.635 22.098 24.4754 22.1778 24.3344 22.2815L24.3378 22.288C24.6185 23.1142 25.2314 24.4095 25.5064 25.2218C25.277 24.9996 24.6503 24.0926 24.5422 24.068C24.5383 24.0777 24.541 24.0847 24.5429 24.1079C24.6239 24.56 24.7097 24.9856 24.7762 25.4437C24.2298 24.7528 23.8001 23.4485 23.3671 22.6825C23.2017 22.7488 23.0126 22.8171 22.8299 22.8992C22.6826 22.9654 22.5405 23.0427 22.4049 23.1304L22.4075 23.1372C23.1365 24.6899 24.0887 26.1424 24.9977 27.5898L25.0049 27.5866C25.113 27.5546 25.1966 27.5251 25.2712 27.4915C25.4004 27.4339 25.4821 27.3808 25.5881 27.3087C25.6269 27.0146 25.3601 26.2558 25.4498 26.02L25.4564 26.0171C25.7312 26.1948 26.1234 26.8492 26.3731 26.9895L26.4542 26.9531L26.698 26.8438C26.7862 26.8044 26.8701 26.7747 26.9221 26.7269C26.3468 25.0975 25.8367 23.471 25.2705 21.8454L25.2597 21.8421ZM27.1228 21.0794L26.9567 21.1439C26.5435 21.3119 26.3557 21.361 26.1877 21.4184C26.1244 21.4427 25.9439 21.4889 25.8984 21.5146L25.9029 21.5285C26.338 23.1439 27.2382 24.7462 27.7535 26.4657C27.9256 26.335 28.8958 26.1262 28.9893 25.9148C28.2893 24.3781 27.7483 22.6927 27.1334 21.1071L27.1228 21.0794ZM32.0711 24.1223C31.9855 23.8615 31.911 23.6122 31.8206 23.3373C31.6875 22.9354 31.5524 22.5264 31.416 22.1337L30.6666 19.863C30.5228 19.879 30.3634 19.916 30.1867 19.9742C30.0115 20.0322 29.8461 20.1022 29.6931 20.1841C29.7629 20.4191 29.8209 20.6188 29.8861 20.8162C29.9976 21.1548 30.1213 21.4582 30.2447 21.8319C30.2982 21.9941 30.3442 22.2056 30.3231 22.236C30.302 22.2429 29.4426 21.3691 29.3424 21.2536C29.0426 20.9145 28.9628 20.886 28.7149 20.5847C28.701 20.5424 28.2259 20.6675 28.1065 20.7071C27.9931 20.7443 27.8824 20.7886 27.798 20.8399C27.9462 21.4557 28.144 22.1021 28.3575 22.7509C28.6481 23.6324 28.923 24.3941 29.2189 25.2897L29.3809 25.7833C29.5998 25.7112 29.8462 25.6766 30.0723 25.6024C30.1785 25.5674 30.2746 25.5279 30.3708 25.4648C30.3101 25.305 30.2428 25.1004 30.1711 24.8817C29.9107 24.0921 29.6017 23.0834 29.63 23.0743C29.6504 23.0673 29.7209 23.1615 29.7916 23.2555L29.9313 23.4438C30.3477 23.9711 30.8883 24.5199 31.4293 25.116C31.6192 25.0533 31.8992 25 32.0897 24.9372C32.2518 24.8838 32.292 24.8393 32.3105 24.8253L32.2637 24.6841C32.2015 24.4939 32.1342 24.3129 32.0711 24.1223ZM32.2363 19.4391C31.9503 19.4339 31.6049 19.6063 31.3604 19.6974L31.3393 19.7033C31.6214 21.0272 32.0445 22.2504 32.372 23.5159L32.3792 23.5138C32.6561 23.4294 33.0495 23.3204 33.2926 23.2223C32.8967 22.0145 32.5541 20.6686 32.2363 19.4391ZM33.4063 23.6066C33.1275 23.6837 32.7406 23.7061 32.5383 23.8627L32.5395 23.8697C32.6134 24.1344 32.6858 24.7305 32.7498 24.7128L33.285 24.5568L33.2994 24.5528C33.4061 24.5231 33.4584 24.5164 33.573 24.4848L33.6231 24.4707C33.5459 24.1921 33.4728 23.8732 33.4063 23.6066ZM22.0837 14.1907L22.0811 14.184C22.0245 14.2016 21.9255 14.2376 21.8174 14.2861C21.5808 14.3925 21.2764 14.5459 21.1287 14.6528C21.1306 15.0914 21.2776 15.9611 21.2407 16.3681C20.9257 16.1026 20.3206 15.4797 20.0531 15.1199C19.9306 15.1183 19.8191 15.1601 19.7103 15.2088C19.5147 15.2969 19.3287 15.4289 19.1462 15.511C19.6729 16.1937 20.4973 16.7592 21.0489 17.4632L21.0549 17.4767C21.093 18.4115 21.1299 19.3797 21.2215 20.2173L21.2347 20.2112C21.2915 20.1938 21.3461 20.1693 21.4001 20.1449C21.6089 20.0507 21.8378 19.9238 22.0269 19.8387C22.083 19.812 22.1406 19.7889 22.1996 19.7694C22.0257 17.9353 22.3098 16.0337 22.0837 14.1907ZM23.5693 17.79C23.6786 18.058 23.8092 18.3182 24.0279 18.4971C24.3337 18.8018 24.7336 18.7453 25.1284 18.6353C25.4065 18.5534 25.6656 18.4397 25.8929 18.2658C26.1485 18.0816 26.3721 17.854 26.4471 17.5713C26.5111 17.2375 26.4589 16.8683 26.3563 16.5342L26.2896 16.2974C26.1427 15.8054 25.9437 15.3649 25.7848 14.8615C25.7045 14.6298 25.6175 14.4007 25.5101 14.1798C25.4336 14.0418 25.3506 13.9066 25.2358 13.7916C25.1166 13.6506 24.9635 13.5421 24.7909 13.4763C24.101 13.2696 23.2342 13.5823 22.7373 14.1123C22.691 14.1682 22.6533 14.2306 22.6253 14.2975C22.4638 14.7317 22.5561 15.2049 22.7078 15.6238C22.9359 16.3712 23.2674 17.0788 23.5693 17.79ZM23.6753 14.7648C23.7793 14.5983 23.9639 14.457 24.1801 14.4623C24.4344 14.4846 24.6461 14.6663 24.7647 14.9152C24.8319 15.0722 24.94 15.2932 24.9426 15.3004L25.1351 15.7671L25.2624 16.1002C25.2696 16.1209 25.3211 16.2761 25.3856 16.4663C25.5036 16.8819 25.5721 16.8555 25.4865 17.1505C25.3225 17.5776 24.724 17.7571 24.4037 17.4579C24.1973 17.1867 24.0729 16.8371 23.9008 16.5293C23.732 16.1487 23.5896 15.7504 23.5309 15.3675C23.5132 15.152 23.5633 14.95 23.6753 14.7648ZM26.9145 16.7017C27.2144 17.565 28.2999 17.617 29.0789 17.2964C29.742 17.0264 30.0009 16.4208 29.8902 15.7718C29.6569 14.5087 29.2878 13.2631 28.864 12.065C28.5957 11.9987 28.0765 12.2564 27.82 12.3571C28.1237 13.4672 28.5015 14.6637 28.7947 15.8158C28.8336 16.2774 28.2055 16.5365 27.9313 16.1153C27.489 14.9824 27.1159 13.8236 26.8142 12.6454L26.8122 12.6383C26.5037 12.6461 26.0907 12.8175 25.7992 12.9054L25.792 12.9075L25.8013 12.9124C26.2009 14.1567 26.537 15.4508 26.9145 16.7017Z" fill="#122344"/>
<path d="M89.8891 28.5594L88.6527 27.505C88.6138 27.4719 88.5835 27.4298 88.5646 27.3823C88.5456 27.3349 88.5384 27.2836 88.5437 27.2327L88.7112 25.6166C88.7381 25.3568 88.4554 25.1789 88.2329 25.3157L86.8481 26.1658C86.8046 26.1925 86.7552 26.2082 86.7042 26.2116C86.6532 26.215 86.6021 26.206 86.5554 26.1853L85.0701 25.5264C84.8314 25.4204 84.5747 25.6344 84.6359 25.8884L85.0165 27.4679C85.0285 27.5176 85.0282 27.5694 85.0157 27.619C85.0031 27.6685 84.9787 27.7142 84.9446 27.7522L83.8591 28.9612C83.6846 29.1556 83.8087 29.4657 84.0692 29.4859L85.689 29.6121C85.74 29.6161 85.7892 29.6324 85.8324 29.6596C85.8756 29.6868 85.9116 29.7242 85.9372 29.7684L86.7516 31.1745C86.8826 31.4005 87.2158 31.3782 87.3155 31.1368L87.936 29.6353C87.9556 29.5881 87.9863 29.5464 88.0255 29.5137C88.0648 29.481 88.1114 29.4583 88.1614 29.4476L89.7503 29.1075C90.006 29.0526 90.0879 28.7288 89.8891 28.5594ZM88.3676 43.496C88.3427 43.4588 88.3273 43.416 88.3226 43.3714C88.318 43.3269 88.3242 43.2819 88.3408 43.2403L88.8687 41.9175C88.9536 41.7048 88.7578 41.4872 88.5374 41.5493L87.1664 41.9349C87.1233 41.947 87.0779 41.9485 87.0341 41.9392C86.9903 41.9298 86.9495 41.91 86.9151 41.8813L85.8203 40.9706C85.6444 40.8242 85.3768 40.9432 85.3677 41.1718L85.3107 42.5948C85.3089 42.6395 85.2963 42.6832 85.2739 42.722C85.2515 42.7607 85.2199 42.7935 85.1821 42.8173L83.9776 43.5772C83.7839 43.6994 83.8145 43.9905 84.0291 44.07L85.3649 44.5637C85.4501 44.5954 85.5145 44.6667 85.5368 44.7548L85.8873 46.1352C85.9435 46.3572 86.2299 46.418 86.3717 46.2384L87.2542 45.1206C87.2819 45.0855 87.3178 45.0576 87.3587 45.0394C87.3996 45.0212 87.4443 45.0132 87.489 45.0162L88.9102 45.1094C89.1387 45.1243 89.285 44.8708 89.158 44.6804L88.3676 43.496ZM78.7576 15.014L77.5187 15.1321C77.4797 15.1359 77.4405 15.1301 77.4043 15.1152C77.3681 15.1004 77.336 15.0769 77.3109 15.0469L76.5113 14.0933C76.3826 13.94 76.1342 14.0006 76.0908 14.1959L75.8203 15.4106C75.8118 15.4488 75.7941 15.4843 75.7689 15.5142C75.7436 15.544 75.7114 15.5673 75.6751 15.582L74.5211 16.0478C74.3356 16.1227 74.3165 16.3777 74.4887 16.4793L75.5605 17.112C75.6289 17.1522 75.673 17.2238 75.6786 17.303L75.7651 18.5446C75.779 18.7441 76.0156 18.8411 76.1657 18.7088L77.0986 17.8851C77.1279 17.8591 77.1631 17.8408 77.2011 17.8315C77.2391 17.8222 77.2788 17.8223 77.3167 17.8318L78.5242 18.1333C78.7182 18.1818 78.8836 17.9867 78.804 17.8031L78.3088 16.6614C78.2932 16.6255 78.2866 16.5864 78.2896 16.5474C78.2925 16.5084 78.3049 16.4706 78.3257 16.4375L78.9854 15.3823C79.0912 15.2126 78.9568 14.995 78.7576 15.014ZM17.5725 50.6667L15.9525 50.5405C15.9016 50.5365 15.8524 50.5202 15.8092 50.493C15.7659 50.4657 15.7299 50.4284 15.7043 50.3842L14.8899 48.9781C14.759 48.7522 14.4259 48.7744 14.326 49.0157L13.7055 50.5174C13.686 50.5646 13.6553 50.6064 13.616 50.6391C13.5767 50.6718 13.5301 50.6945 13.4802 50.7052L11.8913 51.0453C11.6359 51.1 11.554 51.4238 11.7528 51.5932L12.9892 52.6476C13.0681 52.7149 13.1089 52.8167 13.0982 52.9198L12.9307 54.536C12.9038 54.7958 13.1864 54.9737 13.409 54.8371L14.7938 53.987C14.8373 53.9603 14.8867 53.9445 14.9377 53.9411C14.9887 53.9377 15.0398 53.9468 15.0865 53.9675L16.5718 54.6263C16.8105 54.7323 17.0672 54.5184 17.006 54.2644L16.6254 52.6846C16.6135 52.635 16.6138 52.5832 16.6263 52.5336C16.6388 52.4841 16.6632 52.4384 16.6973 52.4004L17.7828 51.1914C17.957 50.9971 17.8329 50.6869 17.5725 50.6667ZM23.7716 77.0935L22.4359 76.5997C22.3939 76.5841 22.3563 76.5586 22.3264 76.5254C22.2964 76.4921 22.275 76.452 22.264 76.4086L21.9135 75.0282C21.8572 74.8064 21.5709 74.7454 21.429 74.925L20.5466 76.0428C20.5188 76.078 20.483 76.1058 20.4421 76.124C20.4011 76.1422 20.3564 76.1502 20.3117 76.1472L18.8907 76.0541C18.6622 76.0391 18.5158 76.2926 18.6429 76.483L19.4332 77.6677C19.4836 77.7433 19.4937 77.8389 19.4599 77.9233L18.932 79.2461C18.8471 79.4586 19.0429 79.6764 19.2634 79.6143L20.6343 79.2287C20.6774 79.2165 20.7228 79.2151 20.7666 79.2244C20.8104 79.2338 20.8513 79.2536 20.8857 79.2823L21.9806 80.193C22.1566 80.3394 22.4241 80.2204 22.4332 79.9917L22.4902 78.5688C22.492 78.524 22.5046 78.4804 22.527 78.4416C22.5495 78.4029 22.581 78.3701 22.6189 78.3463L23.8233 77.5863C24.0167 77.464 23.9863 77.1729 23.7716 77.0935ZM13.3232 66.192C13.2895 66.1721 13.2612 66.1443 13.2406 66.1111C13.22 66.0778 13.2078 66.04 13.2051 66.001L13.1186 64.7594C13.1047 64.5599 12.8679 64.4629 12.718 64.5952L11.7851 65.4189C11.7558 65.4449 11.7206 65.4632 11.6826 65.4725C11.6446 65.4818 11.6049 65.4817 11.567 65.4722L10.3595 65.1707C10.1655 65.1222 10.0001 65.3173 10.0797 65.501L10.5749 66.6427C10.6065 66.7157 10.6002 66.7994 10.558 66.8667L9.89828 67.9219C9.79228 68.0915 9.92676 68.3091 10.1259 68.2902L11.3648 68.172C11.4439 68.1645 11.5216 68.1963 11.5728 68.2571L12.3724 69.2107C12.5009 69.364 12.7495 69.3034 12.7929 69.1081L13.0634 67.8934C13.0806 67.8159 13.1349 67.7517 13.2086 67.722L14.3626 67.2562C14.548 67.1813 14.5672 66.9263 14.3949 66.8247L13.3232 66.192Z" fill="#55C9F5"/>
</svg>
