<svg width="45" height="46" viewBox="0 0 45 46" fill="none" xmlns="http://www.w3.org/2000/svg">
<rect y="0.758789" width="45" height="45" rx="22.5" fill="#0A3669"/>
<rect y="0.758789" width="45" height="45" rx="22.5" fill="#FECB00"/>
<rect y="0.758789" width="45" height="45" rx="22.5" fill="#132344"/>
<path d="M24.6654 18.1676L29.191 22.6932C29.341 22.8432 29.4252 23.0466 29.4252 23.2588C29.4252 23.4709 29.341 23.6743 29.191 23.8244L24.6654 28.35C24.5145 28.4957 24.3124 28.5763 24.1027 28.5745C23.8929 28.5727 23.6923 28.4886 23.544 28.3402C23.3956 28.1919 23.3115 27.9912 23.3097 27.7815C23.3078 27.5717 23.3885 27.3697 23.5342 27.2188L26.6942 24.0588H16.0998C15.8876 24.0588 15.6841 23.9745 15.5341 23.8245C15.3841 23.6744 15.2998 23.4709 15.2998 23.2588C15.2998 23.0466 15.3841 22.8431 15.5341 22.6931C15.6841 22.5431 15.8876 22.4588 16.0998 22.4588H26.6942L23.5342 19.2988C23.4578 19.225 23.3969 19.1367 23.3549 19.0391C23.313 18.9415 23.2909 18.8365 23.29 18.7303C23.2891 18.6241 23.3093 18.5187 23.3495 18.4204C23.3898 18.3221 23.4492 18.2328 23.5243 18.1577C23.5994 18.0825 23.6887 18.0231 23.787 17.9829C23.8854 17.9427 23.9907 17.9224 24.0969 17.9234C24.2031 17.9243 24.3081 17.9464 24.4057 17.9883C24.5033 18.0302 24.5916 18.0912 24.6654 18.1676Z" fill="white"/>
</svg>
