<svg width="24" height="25" viewBox="0 0 24 25" fill="none" xmlns="http://www.w3.org/2000/svg">
<path fill-rule="evenodd" clip-rule="evenodd" d="M19.801 10.9808C19.931 11.5528 20 12.1478 20 12.7588C20 17.1738 16.415 20.7588 12 20.7588C7.585 20.7588 4 17.1738 4 12.7588C4 8.34379 7.585 4.75879 12 4.75879C12.923 4.75879 13.809 4.91479 14.634 5.20279C15.155 5.38479 15.725 5.10979 15.907 4.58879C16.089 4.06679 15.814 3.49679 15.293 3.31479C14.261 2.95479 13.153 2.75879 12 2.75879C6.481 2.75879 2 7.23979 2 12.7588C2 18.2778 6.481 22.7588 12 22.7588C17.519 22.7588 22 18.2778 22 12.7588C22 11.9958 21.914 11.2518 21.752 10.5368C21.629 9.99879 21.093 9.66179 20.555 9.78379C20.017 9.90579 19.679 10.4418 19.801 10.9808ZM11 13.3448L19.293 5.05179C19.683 4.66179 20.317 4.66179 20.707 5.05179C21.097 5.44179 21.097 6.07579 20.707 6.46579L11.707 15.4658C11.317 15.8568 10.683 15.8568 10.293 15.4658L7.293 12.4658C6.903 12.0758 6.903 11.4418 7.293 11.0518C7.683 10.6618 8.317 10.6618 8.707 11.0518L11 13.3448Z" fill="#45C646"/>
</svg>
