<svg width="78" height="78" viewBox="0 0 78 78" fill="none" xmlns="http://www.w3.org/2000/svg">
<path d="M7.96579 55.0123C7.95674 55.4244 8.04615 55.8327 8.2266 56.2032L17.7039 75.6613C18.0703 76.4146 18.6426 77.031 19.3585 77.444C19.8581 77.7323 20.4124 77.9131 20.9858 77.9747C22.823 78.1748 24.5432 77.1694 25.2662 75.4732L31.1869 61.5933C31.2849 61.8441 31.3954 62.0899 31.518 62.3297C32.1427 63.539 33.0143 64.5239 34.1081 65.2559C35.0377 65.879 36.0606 66.2614 37.1472 66.3927C37.3988 66.4232 37.6562 66.4402 37.9141 66.4433C38.5837 66.4515 39.2514 66.3693 39.899 66.1991C40.2072 66.3284 40.5374 66.3969 40.8716 66.4008L44.478 66.4451C45.0747 66.4518 45.6553 66.2522 46.1217 65.8799C46.8281 66.3007 47.6526 66.5702 48.5878 66.6832C48.8859 66.7193 49.1998 66.7396 49.5203 66.7436C50.81 66.7597 51.965 66.5278 52.954 66.0545C53.3817 65.8483 53.785 65.595 54.1566 65.2993C54.1765 65.3135 54.1953 65.3292 54.2154 65.3432C55.2742 66.0871 56.4495 66.5416 57.7091 66.6939C57.7772 66.7021 57.8451 66.7094 57.9135 66.7158C58.1009 66.7404 58.3177 66.7536 58.5697 66.7565C59.6237 66.7694 60.6702 66.5767 61.6505 66.189C62.6558 65.7946 63.5417 65.2224 64.2845 64.4883C65.092 63.6894 65.6546 62.7563 65.9567 61.7147C66.0621 61.3507 66.0845 60.9824 66.0342 60.63C66.1663 60.3578 66.2497 60.0646 66.2805 59.7636C66.3038 59.5382 66.317 59.2639 66.3212 58.8995C66.35 56.5685 65.678 54.6418 64.3234 53.1723C63.8537 52.6633 63.3173 52.2433 62.7274 51.9001C62.9277 51.7392 63.1196 51.5683 63.3025 51.3879C64.1099 50.5893 64.6722 49.6562 64.9743 48.6142C65.0798 48.2506 65.1022 47.8823 65.0519 47.5301C65.1852 47.2559 65.269 46.9603 65.2994 46.6569C65.3218 46.4328 65.3349 46.1525 65.3395 45.7987C65.3549 44.5538 65.1639 43.4283 64.7822 42.4219C65.0124 42.4744 65.2454 42.529 65.4827 42.5852C65.7428 42.6469 66.0039 42.7084 66.2664 42.7682C66.6492 42.8555 67.1257 42.9638 67.6455 43.0265C68.3555 43.1123 68.9987 43.0942 69.6131 42.9708C71.2799 42.6355 73.5804 41.0109 73.2245 38.5895C72.9958 37.0332 71.794 36.2296 70.7888 35.7751C71.6711 35.2357 72.4217 34.5771 73.0003 33.8145C74.322 32.0724 74.716 29.802 74.0277 27.8897C73.5818 26.65 72.2765 25.9429 70.9934 26.2462C70.0955 26.4588 69.2765 26.8033 68.5314 27.2126C68.6659 26.512 68.7516 25.8026 68.779 25.0903C68.7953 24.6659 68.707 24.244 68.5218 23.8618C68.3367 23.4795 68.0603 23.1487 67.7171 22.8984C67.374 22.648 66.9746 22.4859 66.554 22.4263C66.1335 22.3667 65.7047 22.4115 65.3055 22.5567C64.5455 22.8331 63.8359 23.1851 63.168 23.5853C63.2216 23.1267 63.1517 22.6622 62.9654 22.2397C62.7791 21.8172 62.4832 21.4522 62.1085 21.1826C61.7293 20.9102 61.2835 20.7453 60.8183 20.7054C60.3531 20.6656 59.8857 20.7522 59.4657 20.9562C59.185 21.0924 58.9006 21.2205 58.6141 21.346C57.7926 21.7067 56.9517 22.0215 56.0953 22.289C56.77 20.4404 57.2132 18.5153 57.4149 16.5577C57.467 16.0477 57.3666 15.5337 57.1264 15.0807C56.8862 14.6278 56.517 14.2563 56.0655 14.0133C55.6141 13.7703 55.1006 13.6668 54.5903 13.7158C54.0799 13.7648 53.5956 13.9641 53.1986 14.2886C52.7437 14.6604 52.2546 15.0005 51.7386 15.3151C51.8223 14.3182 51.5638 13.3225 51.0058 12.4923C50.3469 11.508 49.3442 10.8393 48.1818 10.6089C47.4644 10.4675 46.7232 10.5071 46.0249 10.724C46.4466 8.33177 44.8775 6.02193 42.4835 5.54799C40.0413 5.06278 37.6879 6.67808 37.2137 9.0749C37.0235 10.035 37.1532 11.0066 37.5685 11.8736C37.2048 11.8906 36.8452 11.9579 36.4999 12.0736L36.5331 10.5494C36.5769 8.58238 35.4084 6.86501 33.6758 6.14533C32.9061 3.03874 30.2994 0.638716 26.9739 0.23668C26.7149 0.205534 26.4545 0.187028 26.1937 0.181227L18.008 0.00191866C14.3831 -0.0774524 11.2677 2.31404 10.2762 5.633C9.67368 5.85454 9.12357 6.19856 8.66063 6.64334C7.76134 7.50409 7.25099 8.66358 7.22403 9.90761L7.17467 12.1471C7.14329 13.6024 7.77825 14.9286 8.82364 15.8099L8.79423 17.1595C8.60929 17.0917 8.41901 17.033 8.21975 16.9936C6.14437 16.5781 4.12825 17.9575 3.72286 20.0036C3.52451 21.006 3.72804 22.0259 4.29659 22.8753C4.86544 23.7249 5.73075 24.302 6.73287 24.5002C6.82736 24.519 6.92255 24.5342 7.01821 24.5457H7.01852C7.46107 24.5992 7.89617 24.5695 8.311 24.475C7.19036 26.8307 6.66249 29.3704 6.76639 31.7692C5.26397 32.1059 4.02801 33.3035 3.71494 34.886C3.28823 37.0422 4.69543 39.1439 6.85139 39.5709C6.95057 39.5907 7.0502 39.6064 7.14877 39.6183H7.14907C7.54182 39.6658 7.92953 39.6524 8.30308 39.5869L7.96579 55.0123ZM33.9034 51.7203C33.9642 51.7682 34.0254 51.8154 34.0877 51.8616C34.023 51.9044 33.9605 51.9495 33.8974 51.9939L33.9034 51.7203Z" fill="white"/>
<path d="M10.5552 55.0689L20.0331 74.5282C20.6213 75.736 22.3569 75.6925 22.8841 74.4568L31.2441 54.8578L24.2862 47.4053L10.5552 55.0689Z" fill="#122344"/>
<path d="M31.1865 14.1634L12.4077 13.7523L12.5386 7.77207C12.6026 4.84692 15.0257 2.52764 17.9509 2.59162L26.1368 2.77078C29.0619 2.83477 31.3812 5.25795 31.3172 8.1831L31.1865 14.1634ZM17.1075 68.5217L20.0331 74.5283C20.6213 75.7361 22.357 75.6926 22.8841 74.4569L25.339 68.702L17.1075 68.5217Z" fill="#3B6EFF"/>
<path d="M31.2438 54.8579L32.2196 10.2844L11.5452 9.83179L10.5549 55.069C11.6261 54.782 12.8096 54.7592 14.0648 55.0541C15.1373 55.3061 16.2008 55.7486 17.1866 56.3373C19.6081 54.9095 22.8629 55.2717 25.2273 56.9712C26.771 55.5466 28.9634 54.8888 31.2438 54.8579Z" fill="#55C9F5"/>
<path d="M25.589 32.6633C25.3309 44.4516 25.2136 54.3237 25.2895 56.9201C25.3368 56.8775 25.3886 56.8403 25.4371 56.7992C25.6274 54.0218 25.9363 44.2759 26.1901 32.6765C26.4077 22.7421 26.5251 14.1661 26.5114 10.1593L26.2533 10.1536C26.0643 14.156 25.8065 22.729 25.589 32.6633ZM17.4369 32.485C17.1918 43.6842 17.0734 53.1594 17.1273 56.3047C17.1468 56.3161 17.1673 56.3255 17.1866 56.3371C17.2259 56.314 17.2673 56.2952 17.3073 56.2728C17.4988 53.098 17.7938 43.6559 18.0381 32.4979C18.2554 22.5636 18.3731 13.9875 18.3593 9.98073L18.1013 9.9751C17.9122 13.9775 17.6543 22.5506 17.4369 32.485Z" fill="#122344"/>
<path d="M31.7804 14.7554L11.7884 14.3177C10.6453 14.2927 9.73919 13.3459 9.76418 12.2029L9.81323 9.96464C9.83822 8.82175 10.785 7.91546 11.9281 7.94045L31.92 8.37813C33.0629 8.40311 33.9692 9.34993 33.9442 10.493L33.8951 12.7312C33.8701 13.8741 32.9233 14.7804 31.7804 14.7554Z" fill="#24BED0"/>
<path d="M61.9235 33.7362C59.4663 35.8113 56.0487 36.802 52.8613 36.7898C55.4033 35.5003 57.3503 33.0735 59.1364 30.9207C61.1223 28.5271 63.2676 26.0538 66.1906 24.9912C66.0624 28.3275 64.4743 31.5819 61.9235 33.7362Z" fill="#3B6EFF"/>
<path d="M66.8411 40.2429C65.2126 39.8721 63.6419 39.4221 61.966 39.4482C60.2081 39.4754 58.5066 38.9399 56.7437 38.8808C59.1295 37.8918 61.1216 36.7917 63.7547 36.8688C65.4553 36.9186 67.2112 37.1808 68.8079 37.7838C69.3045 37.9713 70.5711 38.349 70.6618 38.9661C70.7698 39.7012 69.6708 40.3174 69.1022 40.4317C68.3547 40.5819 67.5843 40.4122 66.8411 40.2429Z" fill="#55C9F5"/>
<path d="M67.913 34.2735C67.17 34.5238 66.5896 34.548 65.8319 34.5459C65.5617 34.5451 63.5513 34.2692 63.4917 34.3158C64.752 33.328 66.0767 32.4162 67.2582 31.3503C68.5201 30.212 69.9365 29.1587 71.5903 28.7668C72.0074 29.9253 71.6811 31.2682 70.9369 32.2491C70.1925 33.2301 69.0798 33.8804 67.913 34.2735Z" fill="#3B6EFF"/>
<path d="M43.4704 10.3149C43.2672 11.341 42.2707 12.0081 41.2446 11.8048C40.2186 11.6016 39.5515 10.6051 39.7547 9.57911C39.9579 8.55307 40.9544 7.88596 41.9805 8.08918C43.0065 8.29226 43.6736 9.28889 43.4704 10.3149Z" fill="#3B6EFF"/>
<path d="M38.5381 17.0096C39.1771 16.5774 39.3448 15.709 38.9126 15.07C38.4804 14.431 37.612 14.2633 36.973 14.6955C36.334 15.1277 36.1663 15.9961 36.5985 16.6351C37.0306 17.2741 37.899 17.4418 38.5381 17.0096Z" fill="#3B6EFF"/>
<path d="M28.5679 35.8315C25.2732 35.1048 21.9613 34.266 18.5756 34.1219C17.3324 34.069 16.0454 34.2176 14.8134 34.3588C14.0238 34.4493 13.1095 34.4659 12.3735 34.7583C12.1365 34.8524 10.5498 35.9145 10.7824 36.2564C7.74622 31.7953 9.86059 24.6242 13.8363 21.3895C16.118 19.533 19.2278 19.0828 22.1691 19.0504C27.7758 18.9885 33.3226 20.1815 38.9241 20.4314C44.5257 20.6812 50.4975 19.8432 54.8386 16.2942C54.4903 19.6943 53.3058 23.0058 51.4186 25.8556C54.6073 25.5558 57.7162 24.6856 60.5972 23.2863C60.0486 27.5713 57.2896 31.3951 53.6887 33.7816C50.0877 36.168 45.7212 37.2169 41.4035 37.354C37.0856 37.4913 32.7865 36.762 28.5679 35.8315Z" fill="#3B6EFF"/>
<path d="M8.99663 35.9311C8.96099 36.111 8.89026 36.2822 8.78847 36.4348C8.68668 36.5874 8.55583 36.7185 8.40339 36.8205C8.25095 36.9225 8.0799 36.9936 7.90001 37.0295C7.72012 37.0654 7.53492 37.0656 7.35497 37.0299C7.17503 36.9943 7.00386 36.9236 6.85125 36.8218C6.69864 36.72 6.56757 36.5891 6.46553 36.4367C6.3635 36.2842 6.29248 36.1132 6.25655 35.9333C6.22062 35.7534 6.22047 35.5682 6.25612 35.3883C6.33216 35.0289 6.54671 34.7139 6.85332 34.5115C7.15993 34.3091 7.53391 34.2357 7.89428 34.3071C8.25465 34.3784 8.5724 34.5889 8.77872 34.8928C8.98504 35.1968 9.06333 35.5698 8.99663 35.9311ZM8.68889 20.9869C8.65735 21.1461 8.59476 21.2976 8.50468 21.4327C8.41461 21.5677 8.29881 21.6837 8.16391 21.774C8.02901 21.8643 7.87765 21.9271 7.71846 21.9589C7.55927 21.9907 7.39538 21.9909 7.23614 21.9593C7.07691 21.9278 6.92544 21.8652 6.79039 21.7751C6.65534 21.685 6.53936 21.5692 6.44907 21.4343C6.35877 21.2994 6.29593 21.1481 6.26413 20.9889C6.23233 20.8297 6.23219 20.6658 6.26373 20.5066C6.29525 20.3473 6.35784 20.1958 6.44791 20.0608C6.53798 19.9257 6.65377 19.8097 6.78868 19.7194C6.92358 19.6291 7.07496 19.5663 7.23415 19.5345C7.39335 19.5027 7.55724 19.5026 7.71648 19.5342C7.87573 19.5657 8.02721 19.6283 8.16227 19.7183C8.29733 19.8084 8.41332 19.9242 8.50362 20.0591C8.59392 20.194 8.65676 20.3454 8.68855 20.5046C8.72034 20.6638 8.72046 20.8277 8.68889 20.9869ZM49.1301 15.3176C48.9322 16.3167 47.9617 16.9662 46.9627 16.7685C45.9636 16.5708 45.314 15.6003 45.5119 14.6011C45.7098 13.602 46.6802 12.9524 47.6793 13.1502C48.6784 13.3481 49.3278 14.3184 49.1301 15.3176ZM37.2876 50.2954C36.5139 49.8288 35.9094 49.2007 35.4743 48.41C35.0387 47.6204 34.8268 46.7565 34.8382 45.8191C34.8495 44.905 35.076 44.0908 35.5188 43.3761C35.9607 42.6607 36.5737 42.1057 37.358 41.7113C38.1418 41.3167 39.0259 41.1257 40.0097 41.1374C41.2865 41.1534 42.3166 41.4825 43.0995 42.1241C43.8824 42.7667 44.3666 43.6454 44.5521 44.7611L41.3645 45.3016C41.2394 44.9836 41.0464 44.7438 40.7847 44.583C40.5226 44.4216 40.228 44.3391 39.9 44.3348C39.4314 44.3293 39.0198 44.4791 38.6645 44.7851C38.3092 45.0913 38.1284 45.5019 38.1222 46.0174C38.1156 46.5445 38.2887 46.9748 38.6424 47.3064C38.9957 47.6388 39.4122 47.8079 39.8926 47.8137C40.1972 47.8175 40.4821 47.7365 40.748 47.5695C41.0138 47.4033 41.2184 47.1684 41.363 46.8652L44.4476 47.5185C44.1649 48.6048 43.607 49.4618 42.7731 50.09C41.9391 50.7183 40.966 51.0253 39.8531 51.0117C38.9159 51.0003 38.0609 50.7617 37.2876 50.2954ZM52.3835 41.7293C52.8549 41.993 53.2286 42.314 53.5052 42.6924L52.2228 45.5232C52.003 45.2742 51.7886 45.0958 51.5787 44.9885C51.3694 44.8797 51.1416 44.8244 50.8957 44.8218C50.2394 44.8139 49.7717 44.9865 49.4919 45.3406C49.2123 45.6946 49.0387 46.2399 48.9712 46.9774L48.9232 50.8781L45.2499 50.8854L45.5233 41.5225L48.7396 41.4912L48.8726 42.1258C49.133 41.8716 49.4397 41.6696 49.7762 41.5308C50.1173 41.3886 50.482 41.3192 50.8683 41.3242C51.3995 41.3289 51.9208 41.4683 52.3835 41.7293ZM60.8761 42.1062C61.5968 42.5664 62.1335 43.2055 62.4871 44.0239C62.8398 44.8429 62.9866 45.7787 62.9269 46.8323L56.5078 47.21C56.6673 47.5758 56.9066 47.8684 57.2264 48.089C57.5457 48.3102 57.9102 48.4287 58.3204 48.4452C58.742 48.4507 59.1002 48.3786 59.3951 48.2301C59.6896 48.0815 59.9027 47.8728 60.0351 47.6055L62.7854 48.3422C62.6026 48.9255 62.2856 49.4429 61.8349 49.8943C61.3838 50.346 60.8436 50.6967 60.2137 50.9459C59.5837 51.1964 58.9351 51.3175 58.2675 51.3092C57.3534 51.298 56.5158 51.0558 55.7544 50.5842C54.9927 50.1118 54.3911 49.4778 53.9499 48.6819C53.5089 47.8853 53.2938 47.0127 53.3055 46.0638C53.3169 45.1389 53.5406 44.3215 53.9773 43.6115C54.4137 42.9025 55.0061 42.3534 55.7552 41.964C56.5038 41.5751 57.3466 41.386 58.2838 41.3979C59.2914 41.41 60.1552 41.6465 60.8761 42.1062ZM57.0996 44.1072C56.798 44.3491 56.5797 44.6748 56.4458 45.083L59.7707 44.825C59.6805 44.5076 59.4937 44.2504 59.209 44.0537C58.9242 43.8569 58.5888 43.7564 58.2023 43.7516C57.7686 43.7458 57.4013 43.8653 57.0996 44.1072Z" fill="#3B6EFF"/>
<path d="M41.4691 63.9273L41.4773 63.2594C40.8725 63.8737 39.984 64.1729 38.813 64.1586C38.0397 64.1488 37.3334 63.9144 36.6951 63.4554C36.0561 62.9967 35.554 62.3844 35.1885 61.6182C34.8231 60.8523 34.6459 60.0296 34.6567 59.1509C34.6671 58.2848 34.8791 57.4756 35.2928 56.7247C35.7062 55.9747 36.2435 55.3782 36.9052 54.9351C37.5668 54.4919 38.2548 54.2745 38.9696 54.2835C40.1406 54.2977 40.9744 54.6187 41.4706 55.2457L41.4785 54.5958L44.501 54.6327L44.808 63.968L41.4691 63.9273ZM41.0024 60.451C41.2986 60.1557 41.4505 59.7505 41.4569 59.235C41.4628 58.7315 41.3126 58.3307 41.0061 58.0344C40.6988 57.7379 40.2997 57.5868 39.8078 57.5807C39.3507 57.575 38.9655 57.7224 38.651 58.0232C38.337 58.3238 38.1774 58.7025 38.1717 59.1596C38.1684 59.4294 38.235 59.6963 38.3724 59.9614C38.5084 60.2254 38.7079 60.4513 38.9531 60.6189C39.2027 60.7922 39.486 60.8801 39.8023 60.8838C40.3056 60.8902 40.706 60.7462 41.0024 60.451ZM53.2416 62.7016C52.8831 63.2479 52.4389 63.6466 51.9089 63.8975C51.3787 64.1487 50.7153 64.2692 49.9185 64.2596C48.8405 64.2462 48.0267 63.9966 47.4761 63.5093C46.9259 63.0222 46.6579 62.1868 46.6724 61.0041C46.6766 60.6763 46.7108 60.2485 46.7761 59.7225L47.159 57.1616L45.7179 57.161L45.6294 54.3304L47.5803 54.319L47.7913 52.9158L51.0437 52.7979L50.832 54.2888L52.6598 54.276L52.9579 57.1969L50.41 57.1832L50.1015 59.4119C50.0885 59.4816 50.0817 59.5816 50.0802 59.7098C50.0757 60.073 50.1713 60.3731 50.3678 60.6096C50.5638 60.8468 50.8143 60.9668 51.119 60.9702C51.6109 60.9763 52.0245 60.7001 52.3595 60.1423L53.2416 62.7016ZM61.1892 55.1982C61.91 55.6584 62.4468 56.2972 62.8001 57.1162C63.1531 57.9352 63.2993 58.8706 63.2399 59.9245L56.8208 60.3021C56.9803 60.6679 57.2196 60.9603 57.5394 61.1812C57.8587 61.4024 58.2232 61.5209 58.6333 61.5374C59.055 61.5428 59.4132 61.4708 59.7078 61.3219C60.0026 61.1739 60.2157 60.9652 60.3481 60.6978L63.0985 61.4342C62.9156 62.0178 62.5987 62.5354 62.1481 62.9866C61.6971 63.4378 61.1568 63.789 60.5268 64.0382C59.8969 64.2887 59.2482 64.4098 58.5808 64.4013C57.667 64.3904 56.8291 64.1482 56.0676 63.6766C55.3058 63.2041 54.7042 62.5701 54.2632 61.7735C53.8222 60.9769 53.6071 60.1046 53.6188 59.1561C53.6304 58.2307 53.8539 57.4131 54.2906 56.7038C54.7269 55.9945 55.3194 55.4453 56.0685 55.056C56.8171 54.6674 57.6599 54.4785 58.5968 54.4902C59.6041 54.5023 60.4685 54.7383 61.1892 55.1982ZM57.4123 57.1992C57.1107 57.4411 56.8928 57.767 56.7588 58.1754L60.0837 57.9175C59.9939 57.6 59.8062 57.3429 59.522 57.1462C59.2372 56.9494 58.9018 56.8488 58.5153 56.8441C58.082 56.8383 57.7141 56.9568 57.4123 57.1992Z" fill="#55C9F5"/>
<path d="M60.5969 23.2864C60.2857 23.4365 59.9716 23.5806 59.6548 23.7184C56.6605 26.6146 52.645 28.5658 48.5302 29.4423C42.218 30.7867 35.6574 29.9749 29.3003 28.862C26.2705 28.3317 23.2239 27.7316 20.1492 27.8172C17.0744 27.9028 13.9143 28.7421 11.6018 30.7703C10.7709 31.4989 10.0777 32.4023 9.573 33.3936C9.79801 34.4177 10.1915 35.3887 10.7822 36.2565C10.5495 35.9146 12.1363 34.8525 12.3732 34.7583C13.1094 34.466 14.0236 34.4492 14.8133 34.3589C16.0455 34.2178 17.3323 34.0691 18.5754 34.122C21.9611 34.2659 25.2729 35.1049 28.5678 35.8316C32.7864 36.7619 37.0855 37.4912 41.4032 37.3541C45.721 37.217 50.0874 36.168 53.6884 33.7816C57.2893 31.3953 60.0481 27.5713 60.5969 23.2864Z" fill="#2E9CFF"/>
<path d="M19.4552 29.4712C19.4692 28.9205 19.4909 28.0949 19.502 27.0102C19.5125 25.9255 19.5213 24.9443 19.544 24.0662C19.5664 23.2061 19.605 22.3804 19.6775 21.6074C19.6807 21.4695 19.8039 21.3694 19.9418 21.3732C20.0791 21.3936 20.1792 21.5169 20.1584 21.6541C20.1015 22.4672 20.0629 23.2814 20.0425 24.0962C20.0204 24.9571 19.995 25.9377 19.9837 27.0224C19.9724 28.1071 19.9511 28.9331 19.9369 29.4834C19.9179 30.2064 19.9071 30.6191 19.9212 30.723C19.9314 30.9989 19.943 31.2231 19.9735 31.3787C19.9727 31.4131 19.9892 31.4482 20.0056 31.4833C20.0206 31.5524 20.1051 31.6235 20.2759 31.6625C20.4648 31.6846 20.6883 31.7079 20.9983 31.6988C21.5836 31.6966 21.98 31.707 22.1846 31.764C22.3223 31.7844 22.3868 31.9413 22.3667 32.061C22.3459 32.1988 22.1892 32.2635 22.0688 32.2429C21.9154 32.1876 21.5544 32.1777 21.0198 32.1984C20.468 32.2186 20.0737 32.1566 19.8186 32.0292C19.4954 31.8831 19.4578 31.3482 19.4219 30.7445L19.4552 29.4712ZM25.7086 22.0749C25.6896 22.0898 25.6896 22.0898 25.6874 22.1069C25.6853 22.124 25.6431 22.1879 25.6075 22.34C25.6034 22.3741 25.5826 22.4061 25.5762 22.4579C25.4455 22.9795 25.4134 23.6865 25.3739 24.6009C25.3314 25.3936 25.3721 25.3462 25.2548 26.043C25.1964 26.3832 25.3122 26.4318 25.552 26.46C25.7569 26.484 25.9451 26.5067 26.0838 26.5058C26.2226 26.5049 26.3302 26.6216 26.3308 26.7607C26.3146 26.8973 26.198 27.0047 26.0611 26.9889C25.8879 26.9852 25.7001 26.9629 25.4608 26.9348C25.2382 26.9083 25.1184 26.8938 25.0609 27.234C24.7766 28.8993 24.6008 30.2312 24.5575 31.1797C24.5401 31.4722 24.5478 31.6986 24.5636 31.8561C24.5595 31.8903 24.5728 31.9268 24.5706 31.9437C24.5859 31.9632 24.6171 31.8453 24.6233 31.7941C24.6031 31.9649 24.6571 32.0929 24.8412 32.1497C25.2089 32.2626 25.7133 32.2528 26.2127 32.278C26.4716 32.2912 26.6597 32.3132 26.7794 32.3276C26.9161 32.3441 27.0067 32.4588 26.9901 32.5955C26.974 32.7321 26.8593 32.8228 26.7226 32.8063C26.4999 32.7801 25.7738 32.763 25.549 32.7539C24.9832 32.7035 24.5788 32.604 24.3194 32.4519C24.1395 32.361 24.0955 32.1476 24.0712 31.9192C24.0417 31.7251 24.0362 31.4821 24.0577 31.1547C24.113 30.104 24.3238 28.6203 24.5091 27.4982C24.5936 26.9357 24.6823 26.4782 24.7461 26.0869C24.8697 25.339 24.8422 25.422 24.8735 24.5762C24.9129 23.6622 24.9509 22.9037 25.0861 22.3476C25.1783 22.0115 25.2811 21.7289 25.5025 21.6167C25.6305 21.5626 25.8378 21.5696 26.0599 21.5965C26.1797 21.6103 26.453 21.643 26.8785 21.711C27.7141 21.8273 28.1565 21.8974 28.225 21.9056C28.3638 21.9044 28.4711 22.0214 28.4723 22.1602C28.4641 22.2283 28.4386 22.2952 28.3838 22.3231C28.2663 22.4306 28.1512 22.3822 27.9974 22.3636C27.5983 22.3171 27.1999 22.2642 26.8025 22.2049C26.377 22.1369 26.1207 22.1063 26.018 22.0939C25.8983 22.0799 25.8128 22.0696 25.7592 22.0807L25.7086 22.0749ZM31.4678 23.5085C31.473 23.4745 31.3591 23.4224 31.1382 23.3883C30.7495 23.3109 30.406 23.2749 30.1139 23.2475C30.0816 23.2471 30.0496 23.2397 30.0203 23.2259C29.991 23.212 29.965 23.1921 29.9441 23.1674C29.9231 23.1427 29.9077 23.1138 29.8989 23.0826C29.8901 23.0514 29.888 23.0187 29.8929 22.9867C29.8976 22.8482 30.018 22.7448 30.1537 22.7661C30.6045 22.7822 31.2343 22.8794 32.0454 23.0395C32.9105 23.1904 33.5205 23.302 33.88 23.3403C34.0188 23.345 34.1223 23.4658 34.1186 23.6047C34.0973 23.7408 33.9769 23.8442 33.8404 23.8232C33.4471 23.7793 32.8173 23.6823 31.9546 23.5144C31.9546 23.5144 31.9611 23.5851 31.9518 23.758C31.9713 24.1963 31.9226 24.6244 31.7916 25.2485C31.7193 25.6035 31.6653 25.839 31.6496 25.9408C31.5815 26.3835 31.454 27.0955 31.2652 28.0942C30.8869 30.0915 30.6331 31.62 30.6313 32.8744C30.6273 33.013 30.5239 33.1188 30.3851 33.1148C30.2465 33.1108 30.1408 33.0074 30.1447 32.8686C30.1322 31.595 30.3935 30.0154 30.7939 27.9868C30.9826 26.9878 31.1104 26.2758 31.1733 25.8673C31.1944 25.7312 31.2309 25.4933 31.3031 25.1382C31.4278 24.4431 31.491 24.0351 31.4719 23.5962L31.4678 23.5085ZM35.901 23.2889C36.4316 23.9077 36.5578 24.8008 36.2622 25.9495C36.2327 26.0849 36.1046 26.1597 35.9691 26.1297C35.834 26.0998 35.7586 25.972 35.7884 25.8366C36.0352 24.8393 35.9473 24.1053 35.5267 23.5999C35.3247 23.3569 35.6986 23.0458 35.901 23.2889ZM41.0736 26.2118C41.269 24.8349 40.6718 24.2039 39.8469 24.2455C39.0055 24.3051 38.1937 25.0182 38.1327 26.1096C38.1029 26.6644 38.2386 27.1204 38.5977 27.5606C38.9569 28.0017 39.1589 28.1772 39.8173 28.6997C40.495 29.2555 40.6784 29.3979 41.2187 29.9637C41.7605 30.5463 42.0615 31.1464 42.1841 31.897C42.4896 33.5321 41.6672 34.5912 40.4936 34.5884C39.317 34.5506 38.3085 33.4659 38.1821 31.68C38.1723 31.5428 38.2683 31.4326 38.4059 31.423C38.5431 31.4133 38.6533 31.5089 38.6626 31.6461C38.7748 33.2255 39.6292 34.0796 40.5099 34.0868C41.3217 34.098 41.9416 33.3467 41.7081 31.9995C41.5918 31.335 41.3473 30.7999 40.8616 30.2821C40.3772 29.7817 40.1753 29.6062 39.4995 29.0844C38.8595 28.5775 38.6388 28.3862 38.2051 27.8649C37.7714 27.3434 37.6094 26.7677 37.6466 26.0748C37.709 24.7589 38.7304 23.8241 39.8117 23.7475C40.9803 23.6821 41.8063 24.6244 41.5617 26.2813C41.5541 26.4194 41.422 26.498 41.2835 26.4904C41.1444 26.4834 41.0658 26.3506 41.0736 26.2118ZM32.7164 10.6287C32.732 10.106 30.0189 9.60115 26.6565 9.50121C23.2943 9.40127 20.5559 9.74389 20.5404 10.2667C20.5248 10.7894 23.2379 11.2943 26.6003 11.3942C29.9625 11.494 32.7009 11.1514 32.7164 10.6287ZM19.7339 10.4907C19.7401 9.96784 19.1371 9.53655 18.3871 9.52772C17.6371 9.51873 17.0241 9.93539 17.0179 10.4584C17.0116 10.9814 17.6146 11.4124 18.3646 11.4214C19.1146 11.4302 19.7276 11.0135 19.7339 10.4907Z" fill="white"/>
</svg>
