<svg width="78" height="78" viewBox="0 0 78 78" fill="none" xmlns="http://www.w3.org/2000/svg">
<g clip-path="url(#clip0_28_4045)">
<path d="M77.959 43.1264C77.9479 42.8178 77.8745 42.5147 77.7431 42.2353C77.6118 41.956 77.4252 41.7061 77.1946 41.5007C78.1916 39.3038 78.5409 37.2518 76.592 36.1314C77.7081 33.5972 77.8371 30.8903 75.1895 30.3266C76.6622 26.3838 73.6245 22.482 70.6461 26.1611C68.4023 17.955 61.657 19.9334 64.496 27.6871C63.628 27.4809 62.6552 27.5327 61.9912 28.1901C61.0957 26.9287 59.4602 26.3342 58.101 25.9836C60.2729 22.7465 56.2149 20.8122 53.6592 21.3559C55.8479 19.0048 55.8953 15.6517 52.1377 15.4219C50.8644 15.4327 49.3637 15.9212 48.2649 16.3198C48.507 15.2755 50.3968 4.6753 45.4103 4.33545C41.9178 4.50591 41.9353 9.56371 41.6075 12.0398C39.8027 4.79945 33.1267 4.86738 27.2245 5.57069C23.5777 5.87809 19.9014 7.12735 16.7557 9.24123C13.055 11.388 12.6077 15.8114 13.1319 19.6688C13.565 22.4953 13.6791 25.1783 15.2965 27.8677C11.4087 27.5229 7.40246 24.85 3.42985 26.0761C-0.297048 27.397 0.0332031 30.9051 3.50404 32.8668C-3.46292 33.3476 1.10789 41.9464 8.84182 39.9393C8.39032 41.1644 7.96227 42.3303 8.37021 43.2563C6.52017 44.533 1.63724 47.4682 2.80865 49.9089C3.57319 51.784 5.76766 51.1647 7.35783 51.3269C7.11665 51.5591 6.88217 51.7981 6.65467 52.0438C4.84637 53.9643 -0.241752 61.3635 4.77995 62.0719C-3.9228 63.7634 0.671008 70.5332 7.35752 67.9822C5.9369 72.3202 9.64704 73.1233 12.6187 70.8015C13.8934 73.0537 16.7899 71.5479 18.426 70.5503C19.3986 72.8452 22.2537 71.7787 23.9225 70.9585C26.925 72.0861 30.5336 70.3605 32.7328 68.2605C32.7442 68.2628 32.7555 68.2646 32.767 68.266C31.8803 70.3316 33.492 72.7743 35.7763 72.0562C36.208 72.4284 36.8056 72.6622 37.4122 72.6611C38.3216 72.6611 39.1276 72.147 39.5552 71.3843C39.7416 73.0552 41.8002 74.0391 43.2226 73.1826C44.1695 73.9372 45.7407 73.7831 46.521 72.875C47.2091 73.2312 48.0573 73.1746 48.6957 72.7475C49.1 73.0124 49.5729 73.1531 50.0562 73.1524C50.7966 73.1588 51.5231 72.8001 51.9656 72.2541C53.4038 72.9698 55.2147 72.4977 56.1426 71.1918C57.4464 71.8637 59.2232 71.0495 59.5816 69.6534C61.0484 69.5807 62.3361 68.5217 62.7984 67.1424C64.0556 68.1107 66.0707 67.4257 67.0956 66.0947C67.9787 65.3 68.5484 64.21 68.1379 63.0755C68.5079 62.3268 68.6736 61.4769 68.6169 60.6431C70.4335 61.4849 72.6302 59.8656 72.1708 57.8719C73.3879 56.7218 73.0485 54.5944 71.5525 53.8205C72.6863 53.095 72.7044 51.7054 72.9733 50.4504C75.5903 48.4744 78.322 45.6164 77.959 43.1264Z" fill="white"/>
<path d="M39.3214 12.4546C39.0576 11.7655 38.771 11.0853 38.4621 10.4152C37.6864 8.72986 35.7134 7.84117 33.9833 7.70011C31.8259 7.52511 29.6563 7.57228 27.5086 7.84086C25.5108 8.09038 23.2685 8.4185 21.4555 9.30018C18.7355 10.623 15.5111 11.9821 15.3206 15.4794C15.206 17.5961 15.35 19.7189 15.7495 21.8007C16.0717 23.4801 16.4166 26.2719 17.9125 27.3549C19.763 28.694 22.7298 28.1865 24.6081 27.1776L25.5434 29.7413C25.7617 30.3394 25.9508 31.2698 26.5694 31.6139C27.9924 32.4056 30.0367 32.0345 31.5492 31.7972C33.3947 31.5074 34.8288 30.5354 35.0813 28.5655C35.2382 27.3407 34.9347 26.1089 34.6337 24.9114C37.2206 24.1657 40.0979 23.3688 40.7077 20.3194C40.9994 17.8313 40.2756 14.9544 39.3214 12.4546Z" fill="#55C9F5"/>
<path d="M35.0812 28.5655C35.232 27.3883 34.9575 26.205 34.6685 25.0517C34.4432 25.0526 34.2178 25.0537 33.9931 25.0558C31.4825 25.0796 28.9345 25.1308 26.5065 24.4919C24.0785 23.853 21.7394 22.4147 20.6188 20.168C19.9294 18.7858 19.748 17.2156 19.5285 15.6868C19.3089 14.1579 19.0218 12.5852 18.1643 11.3005C18.1261 11.2432 18.0848 11.1876 18.0438 11.1318C16.5737 12.1334 15.4314 13.4427 15.3203 15.4796C15.2057 17.5963 15.3498 19.7191 15.7493 21.8009C16.0715 23.4803 16.4164 26.272 17.9124 27.3551C19.7629 28.6942 22.7295 28.1867 24.608 27.1778L25.5433 29.7415C25.7616 30.3396 25.9507 31.27 26.5693 31.6141C27.9923 32.4058 30.0366 32.0348 31.5492 31.7973C33.3946 31.5075 34.8288 30.5354 35.0812 28.5655Z" fill="#2E9CFF"/>
<path d="M57.141 57.685C53.742 59.6254 49.7581 60.2893 45.8483 60.4663C38.9892 60.7769 32.1552 59.6956 25.3251 58.9938C18.4949 58.2921 11.4864 57.9819 4.8623 59.7895C6.04301 55.4511 9.29998 51.728 13.4429 49.9809C10.6592 49.2535 7.78636 48.9248 4.91029 49.0045C7.00665 46.9114 8.73118 45.406 11.4946 44.2625C14.1185 43.1768 16.9559 42.6257 19.7874 42.5064C25.3068 42.2741 30.7669 43.5357 36.1521 44.7673C41.5512 46.0021 47.1722 46.4324 52.6681 45.6228C55.0405 45.2734 57.5226 45.0771 59.7198 44.0377C62.4 42.7697 63.5166 40.397 64.0116 37.5684C64.9407 41.0427 65.3386 44.5991 64.366 48.1129C63.2543 52.1283 60.7949 55.5992 57.141 57.685Z" fill="#2E9CFF"/>
<path d="M29.7853 27.8167C29.4828 24.5569 28.6578 21.4489 27.0269 18.5956C25.8698 16.5712 23.7323 14.4396 21.2038 14.8972C19.1573 15.2675 19.8467 17.9555 20.734 19.0098C22.68 21.3217 25.5903 21.899 28.4357 21.1199C30.966 20.4269 32.9058 18.3438 33.5014 15.826C33.9288 14.0196 33.1947 10.9179 30.7962 11.4859C28.7447 11.9717 29.1871 16.2794 29.254 17.6201C29.4301 21.1532 30.5863 24.5797 31.9565 27.809C32.207 28.3994 33.066 27.8905 32.8179 27.3055C31.2631 23.6417 30.173 19.8223 30.2159 15.8136C30.2243 15.0267 30.2973 14.2279 30.4559 13.4577C30.5593 12.5957 31.1424 12.4296 32.2054 12.9593C32.7234 13.6553 32.647 14.7667 32.5394 15.5611C32.2738 17.5258 30.7191 18.9586 29.0534 19.8152C27.0501 20.8451 24.6414 20.6681 22.75 19.5274C21.9262 19.0307 21.2521 18.1997 20.8955 17.3156C20.6256 16.1565 21.1708 15.6819 22.5312 15.8916C23.2254 16.0219 23.8582 16.47 24.3916 16.9014C27.4097 19.3417 28.4491 24.1698 28.7875 27.8174C28.8466 28.4517 29.8447 28.4574 29.7853 27.8167Z" fill="#C99623"/>
<path d="M47.7909 23.3764C46.4248 24.3303 45.1289 25.3482 43.8118 26.363C43.16 26.8652 42.5359 27.4024 41.9422 27.9721C41.5548 28.3437 40.4434 29.1648 40.3271 29.6923C41.0663 26.3399 42.4592 22.9836 45.1193 20.7355C46.3268 19.715 47.7263 18.9258 49.2183 18.4048C50.0389 18.1183 53.8874 16.7731 52.6555 18.8381C51.5379 20.7119 49.5461 22.1508 47.7909 23.3764Z" fill="#55C9F5"/>
<path d="M45.3998 6.62366C46.8033 6.58787 46.4095 14.0382 46.3397 14.4354C45.8454 17.2491 44.7016 19.6549 42.2839 21.2624C43.6487 18.8827 43.7489 16.319 43.8295 13.6452C43.8778 12.0446 43.9533 10.4228 44.3578 8.86581C44.4781 8.40227 44.7422 6.8613 45.2303 6.66144C45.2896 6.63753 45.3461 6.62503 45.3998 6.62366ZM53.1143 26.0312C52.8908 26.0587 52.6666 26.0763 52.4434 26.0861C51.5902 26.1232 50.8091 26.0192 49.9364 26.1258C48.9139 26.2509 47.898 26.4249 46.8922 26.6473C48.2981 25.3081 50.2712 24.4234 52.1445 23.9659C53.1469 23.7213 54.2461 23.4835 55.2796 23.6461C55.6713 23.7078 56.478 23.8781 56.3981 24.3654C56.3257 24.8064 55.2682 25.3942 54.9092 25.5543C54.3428 25.8072 53.7317 25.9557 53.1143 26.0312Z" fill="#3B6EFF"/>
<path d="M54.0986 31.2871C56.2293 31.611 58.4949 30.8752 60.0285 29.3614C58.57 28.1584 56.5505 27.9429 54.6603 27.9088C52.4483 27.8688 50.4078 27.7307 48.2483 27.2644C49.5877 28.9836 51.6498 31.2871 54.0986 31.2871ZM11.5843 33.0689C13.3317 33.1431 15.0897 32.8869 16.7497 32.3388C17.5678 32.0687 18.3248 31.7919 19.0547 31.3339C19.8085 30.8609 20.5709 30.4106 21.0632 29.6441C20.2685 29.9262 19.5436 30.1099 18.6978 30.191C17.8822 30.2691 17.061 30.2837 16.2427 30.2423C14.5916 30.1588 12.9571 29.8481 11.3714 29.387C10.1702 29.0377 8.99776 28.5874 7.77851 28.3077C6.55926 28.028 5.26812 27.9246 4.067 28.2733C3.66546 28.3898 3.23269 28.6043 3.11661 29.006C2.9658 29.5279 3.42675 30.0137 3.86166 30.3392C6.08095 31.9999 8.81511 32.9515 11.5843 33.0689Z" fill="#55C9F5"/>
<path d="M7.14692 37.9132C8.2047 37.8202 9.23552 37.4834 10.1749 36.9949C10.808 36.6657 11.3869 36.2462 11.9089 35.7605C12.4005 35.3032 12.9845 34.8513 13.1761 34.1731C12.4852 34.6075 11.7484 34.9096 10.9328 34.9843C10.0573 35.0642 9.17657 35.0392 8.29869 35.0572L3.26678 35.1602C2.94064 35.1669 2.5458 35.2166 2.41343 35.5147C2.29172 35.7889 2.47665 36.0984 2.6762 36.3225C3.76749 37.5474 5.51273 38.0572 7.14692 37.9132Z" fill="#3B6EFF"/>
<path d="M15.4995 37.8156C15.5806 37.5653 15.6682 37.3172 15.7621 37.0714C16.0498 36.3264 16.4117 35.6121 16.8421 34.9393C17.2217 34.346 17.5927 33.8347 18.0637 33.3074C17.0819 33.3055 15.9962 34.2291 15.2865 34.8267C14.4707 35.5139 13.7462 36.3023 13.0564 37.1138C12.3863 37.9015 11.8241 38.775 11.3846 39.7112C11.2812 39.9319 10.3296 42.3858 10.5119 42.4417C11.7261 42.8143 13.068 42.1867 13.9058 41.232C14.8093 40.2029 15.1031 39.0229 15.4995 37.8156Z" fill="#55C9F5"/>
<path d="M64.3659 48.1134C64.9585 45.9724 65.0404 43.8157 64.8052 41.6714C64.4048 44.9972 63.3962 48.1265 61.0369 50.4271C58.3842 53.014 54.5492 53.9551 50.8692 54.3867C38.1478 55.8789 25.3725 52.5407 12.5651 52.3736C11.5605 52.3605 10.5254 52.386 9.49414 52.4697C7.28871 54.3981 5.63242 56.9609 4.86255 59.7898C11.4866 57.9822 18.495 58.2922 25.3253 58.9942C32.1555 59.696 38.9894 60.7772 45.8485 60.4666C49.7582 60.2894 53.7423 59.6256 57.1412 57.6854C60.795 55.5992 63.2544 52.1284 64.3659 48.1134Z" fill="#3B6EFF"/>
<path d="M71.034 48.0395C71.1662 47.0262 71.2588 46.0081 71.3117 44.9876C72.023 43.853 73.1001 42.9908 74.0185 42.0084C74.9902 40.9691 75.8295 39.6252 75.6452 38.2144C73.4457 39.368 71.8368 41.5658 71.3533 43.9973C71.3917 42.5376 71.3443 41.0795 71.2206 39.628C71.8412 38.4747 72.8212 37.5464 73.6399 36.5154C74.525 35.4013 75.2537 33.9944 74.9565 32.6028C72.8459 33.9365 71.4147 36.2741 71.1388 38.7512C70.9883 37.3549 70.763 35.9677 70.4642 34.5955C70.884 33.3287 71.7197 32.2365 72.3735 31.0666C73.0676 29.8245 73.5603 28.3187 73.0431 26.9931C71.1547 28.6668 70.116 31.2409 70.2689 33.7554C69.9072 32.2516 69.4573 30.7704 68.9217 29.3194C68.715 28.4502 68.6083 27.5467 68.4158 26.6717C68.1099 25.2822 67.4784 23.829 66.2114 23.1814C65.9069 25.7203 66.8672 28.3725 68.6984 30.1519C69.1307 31.3912 69.4998 32.6516 69.8041 33.9284C68.4973 31.7094 66.1147 30.1453 63.5518 29.8592C63.8927 31.2407 65.1629 32.1876 66.4459 32.803C67.6194 33.3659 68.8909 33.7695 69.9461 34.5187C70.2758 36 70.5184 37.4994 70.6724 39.0091C69.7561 36.5707 67.6392 34.6067 65.1276 33.9037C65.2417 35.3221 66.343 36.4612 67.51 37.2749C68.5901 38.0279 69.7948 38.6366 70.7199 39.5639C70.8555 41.1089 70.8984 42.6608 70.8482 44.211C70.1205 41.726 68.1759 39.6184 65.7433 38.7212C65.743 40.1441 66.7493 41.368 67.8472 42.2729C68.8477 43.0976 69.9807 43.7921 70.8246 44.7665C70.7577 46.1997 70.6115 47.628 70.3866 49.045C69.9828 46.3776 68.2006 43.9532 65.7668 42.7859C65.6332 44.2024 66.5204 45.5154 67.5286 46.5192C68.4773 47.4638 69.5791 48.2838 70.3303 49.3847C70.2034 50.1404 70.062 50.8946 69.8899 51.645C69.818 51.958 70.2989 52.091 70.371 51.7775C70.5515 50.9907 70.6991 50.2 70.8305 49.4077C71.6371 48.4162 72.7348 47.6871 73.6971 46.8341C74.7619 45.8903 75.7235 44.6311 75.6722 43.2091C73.546 44.0813 71.8394 45.8918 71.034 48.0395Z" fill="#55C9F5"/>
<path d="M33.2891 65.5312C32.8254 65.4484 32.3609 65.3693 31.8959 65.294C31.2657 62.7575 29.2999 60.5908 26.8317 59.7288C26.7429 60.6104 27.1472 61.4836 27.7263 62.1543C28.3055 62.8249 29.0498 63.3277 29.7773 63.8339C30.3775 64.2514 30.9737 64.6901 31.4679 65.2247C29.7781 64.9569 28.0811 64.7374 26.3788 64.5664C25.2411 62.2753 22.9366 60.5951 20.4013 60.2366C20.4853 61.1188 21.0517 61.8969 21.7501 62.4421C22.4487 62.9874 23.2765 63.3359 24.0884 63.691C24.6379 63.9312 25.1899 64.1829 25.6958 64.5014C23.8242 64.3267 21.9475 64.211 20.0686 64.1547C18.7669 61.9773 16.3696 60.4845 13.8363 60.3044C13.9815 61.1786 14.6004 61.9155 15.3351 62.4108C16.0698 62.9062 16.9198 63.1967 17.7544 63.4945C18.2848 63.6837 18.8186 63.8817 19.3177 64.139C17.7127 64.1052 16.107 64.1149 14.5024 64.168L14.5044 64.1629C13.0646 61.938 10.4441 60.5283 7.79399 60.5532C8.00878 61.4129 8.68497 62.0976 9.45698 62.5325C10.229 62.9674 11.0996 63.1886 11.9553 63.4185C12.6852 63.6145 13.4224 63.8261 14.0852 64.1824C12.427 64.2451 10.7708 64.354 9.11865 64.509C6.83401 63.8056 4.2278 64.18 2.25757 65.5417C2.91761 66.133 3.8613 66.3207 4.7445 66.2477C5.62756 66.1747 6.47238 65.8696 7.30989 65.5801C8.1474 65.2905 9.00486 65.0108 9.89081 64.9921L9.87817 64.9384C11.2558 64.8211 12.6359 64.7358 14.0174 64.6825C13.537 65.1334 12.9793 65.5054 12.4236 65.8648C11.6796 66.3461 10.9187 66.8237 10.3173 67.4743C9.71579 68.125 9.28241 68.9842 9.34151 69.8683C11.775 69.1092 13.7716 67.0942 14.5331 64.6642C16.3572 64.6031 18.1829 64.5982 20.0073 64.6496C19.4259 65.1899 18.7262 65.5928 18.0249 65.9705C17.2447 66.3904 16.448 66.8054 15.7962 67.4057C15.1444 68.0061 14.6434 68.8277 14.6313 69.7137C17.2165 69.1301 19.4439 67.1571 20.3352 64.6612L20.335 64.661C22.2978 64.7248 24.2579 64.8539 26.212 65.048C25.6052 65.5252 24.8927 65.8606 24.1862 66.1798C23.3787 66.5446 22.5552 66.9032 21.8632 67.4569C21.1713 68.0106 20.6145 68.7954 20.5409 69.6785C23.1434 69.2785 25.4872 67.4851 26.5595 65.0809C28.1539 65.2456 29.7435 65.4536 31.3267 65.7045C30.7114 65.9758 30.0472 66.1411 29.3895 66.2942C28.5264 66.4951 27.649 66.6869 26.8626 67.0956C26.0763 67.5043 25.3776 68.1659 25.134 69.0178C27.718 69.1292 30.3166 67.8717 31.8476 65.7894C32.2842 65.8611 32.7206 65.9338 33.1564 66.0121C33.4709 66.0686 33.6054 65.588 33.2891 65.5312Z" fill="#55C9F5"/>
<path d="M20.8823 46.3741C20.8823 46.3444 20.7774 46.3148 20.5829 46.3156C20.2387 46.3017 19.9396 46.3176 19.6855 46.3336C19.5658 46.3491 19.4605 46.2598 19.4602 46.14C19.445 46.0202 19.5342 45.9153 19.6541 45.915C20.0429 45.8682 20.5964 45.8665 21.3148 45.8939C22.0778 45.9061 22.6165 45.9189 22.9309 45.9031C23.0503 45.8878 23.1556 45.9771 23.1708 46.097C23.1711 46.2164 23.0818 46.3217 22.9619 46.322C22.6181 46.3383 22.0643 46.3403 21.3012 46.3129C21.3012 46.3129 21.3165 46.3727 21.332 46.5223C21.4082 46.8963 21.4243 47.2701 21.3963 47.8237C21.3824 48.1381 21.3683 48.3475 21.3686 48.4374C21.37 48.8261 21.357 49.4548 21.3303 50.3377C21.2769 52.1034 21.2667 53.45 21.4348 54.5268C21.4504 54.6465 21.3759 54.7515 21.2562 54.767C21.1367 54.7822 21.0315 54.7077 21.0162 54.588C20.8328 53.4964 20.8426 52.105 20.9113 50.3094C20.9379 49.4266 20.9509 48.7978 20.9495 48.4389C20.9492 48.3192 20.9481 48.1097 20.962 47.7953C20.9748 47.1819 20.9736 46.8229 20.8974 46.4489L20.8823 46.3741ZM27.0864 50.5109C26.8936 50.4855 26.7877 50.4868 26.7656 50.7708C26.7396 51.0841 26.7019 51.4867 26.6587 51.9338C26.56 52.9917 26.442 54.0478 26.3048 55.1014C26.2893 55.2202 26.1887 55.2976 26.0699 55.282C25.9511 55.2665 25.874 55.1656 25.8896 55.0471C25.9727 54.409 26.0744 53.517 26.1833 52.3392C26.3988 49.9983 26.3917 49.9371 26.6684 48.2835C26.7842 47.5141 26.8765 46.9226 26.9161 46.5051C26.9167 46.3846 27.0194 46.2923 27.1397 46.2929C27.2586 46.3084 27.3509 46.4109 27.3353 46.5298C27.2938 46.9619 27.2142 47.5702 27.0819 48.3525C26.9891 48.944 26.9123 49.4167 26.8677 49.7581C26.8308 50.0399 26.9326 50.0684 27.1256 50.0934L28.6835 50.297C28.8763 50.3225 28.986 50.2915 29.0337 50.0413C29.1295 49.5409 29.1778 49.1699 29.209 48.9325C29.2401 48.6953 29.3304 48.1187 29.3802 47.8534C29.4154 47.5863 29.4232 47.1801 29.3561 46.8845C29.319 46.5928 29.7202 46.5246 29.7909 46.7904C29.8501 47.145 29.8346 47.611 29.7956 47.9077C29.7743 48.0709 29.7488 48.2637 29.7053 48.4843C29.6726 48.6509 29.6456 48.8185 29.6244 48.9868C29.5875 49.2687 29.503 49.8006 29.3889 50.5555C29.2603 51.308 29.1717 51.8701 29.1232 52.2409C28.9016 53.7057 28.8251 54.7519 28.8975 55.3498C28.8988 55.4557 28.8221 55.5812 28.7161 55.5826C28.5956 55.582 28.4697 55.505 28.4703 55.3847C28.3867 54.755 28.4673 53.6789 28.6931 52.1844C28.7485 51.8749 28.8119 51.5059 28.872 51.0462C28.9106 50.7495 28.8071 50.7359 28.6141 50.7105L27.0864 50.5109ZM33.7173 47.358C33.5694 48.456 33.2639 50.1039 32.7889 52.2836C32.6884 52.7674 32.5744 53.4157 32.4756 54.234C32.3409 55.2586 32.2533 55.9268 32.2015 56.2216C32.1809 56.3393 32.0766 56.4122 31.9588 56.3914C31.8411 56.3704 31.768 56.2665 31.789 56.1488C31.8486 55.8097 31.9334 55.1564 32.0603 54.1761C32.1747 53.2693 32.2765 52.6038 32.3814 52.1814C32.823 50.1931 33.1231 48.5749 33.2994 47.3146C33.3054 47.1941 33.4121 47.1065 33.5324 47.1126C33.6508 47.1338 33.7381 47.2399 33.7173 47.358ZM36.9553 48.93C37.0179 49.2123 37.045 49.4284 37.0642 49.598C37.0814 49.782 37.3376 53.4247 37.5602 54.7307L37.5704 54.7626C37.6031 55.04 37.766 55.6555 37.8022 55.419L37.9028 54.7682C37.962 54.3839 38.0496 53.7159 38.168 52.7502C38.4007 50.8482 38.616 49.5492 38.9939 48.2752C39.0271 48.1591 39.1418 48.1012 39.2579 48.1341C39.374 48.1673 39.4318 48.2823 39.3989 48.3984C39.0277 49.6277 38.8295 50.9146 38.5994 52.8016C38.4681 53.7503 38.378 54.4329 38.3165 54.8322L38.1364 56.0003C38.1051 56.2077 38.0633 56.4135 38.0112 56.6167C37.9883 56.6947 37.9613 56.7714 37.9303 56.8465C37.9087 56.8888 37.8894 56.9158 37.8702 56.9432C37.7998 57.0081 37.7189 57.041 37.6322 57.0125C37.5879 57.0058 37.546 56.984 37.5059 56.9476C37.4934 56.9307 37.4957 56.9158 37.4832 56.8989C37.4708 56.8816 37.4708 56.8816 37.473 56.867L37.4548 56.7886C37.447 56.7418 37.424 56.6928 37.406 56.6143L37.3276 56.0422L37.1231 54.8145C37.0142 54.1469 36.9198 53.2844 36.8406 52.2277C36.7214 50.7409 36.6569 49.8832 36.6317 49.6524C36.6284 49.5759 36.5985 49.3745 36.5807 49.2961C36.5749 49.2348 36.4189 49.9525 36.4189 49.9525C36.312 50.4509 36.2471 50.7737 36.222 50.9365C36.1624 51.3202 36.0497 51.9539 35.8836 52.8368C35.5509 54.6025 35.4437 55.1009 35.3398 56.6594C35.3365 56.7799 35.2467 56.8722 35.1259 56.8688C35.0054 56.8652 34.9134 56.7755 34.9168 56.6547C34.9201 56.1407 34.9817 55.5445 35.0866 54.8643C35.2008 54.1196 35.3353 53.378 35.49 52.6406C35.6446 51.8316 35.7509 51.2425 35.8078 50.8727C35.8419 50.651 35.9089 50.313 35.9922 49.8717C36.0903 49.4326 36.1554 49.1098 36.1895 48.8877C36.2762 47.9321 36.3114 47.8016 36.4408 47.7457C36.5048 47.7254 36.5786 47.7365 36.6503 47.7629C36.7617 47.8255 36.8198 47.9402 36.8412 48.0948L36.9553 48.93ZM43.3647 54.6532C43.245 54.6518 43.1563 54.5612 43.1572 54.4413C43.1583 54.3219 43.2486 54.2329 43.3683 54.2338L43.593 54.2211L43.8773 54.2238C44.4305 54.2884 44.6522 54.5895 44.5987 55.5468C44.5459 56.4591 44.2377 57.4887 43.6512 57.7979C42.9146 58.1955 42.1276 57.5001 41.7692 55.7163C41.4686 54.1426 41.3996 51.8075 41.6971 50.3289C41.8694 49.4475 42.1438 48.8813 42.5051 48.6302C43.0919 48.2764 43.6147 48.3856 43.9848 48.8079C44.3557 49.1852 44.4705 49.7549 44.2711 50.2915C44.1641 50.545 43.7615 50.3921 43.8837 50.1089C44.0214 49.7659 43.9202 49.3608 43.6681 49.1043C43.1199 48.4861 42.4283 48.8688 42.1153 50.4073C41.8479 51.8863 41.8883 54.0715 42.1887 55.6304C42.3464 56.4397 42.5511 56.9653 42.7886 57.1916C43.308 57.6901 43.6541 57.4539 43.9451 56.6932C44.1908 55.9773 44.2293 55.0048 44.0966 54.7641C44.0229 54.6439 43.7836 54.6416 43.604 54.6552L43.3647 54.6532ZM49.8532 49.6935C49.7033 48.4936 49.0586 48.1007 48.3756 48.3235C47.6835 48.5654 47.1649 49.3494 47.3629 50.2789C47.4643 50.7505 47.6826 51.1026 48.0843 51.3902C48.486 51.6778 48.6958 51.7786 49.3674 52.0673C50.0628 52.3789 50.2485 52.4568 50.8311 52.8079C51.4185 53.1733 51.808 53.6078 52.0818 54.2095C52.7115 55.5116 52.2632 56.5875 51.2778 56.8528C50.2826 57.0897 49.189 56.4099 48.6754 54.9407C48.6358 54.827 48.6909 54.7126 48.8039 54.6733C48.917 54.6337 49.0314 54.6889 49.071 54.8019C49.5254 56.1019 50.4366 56.6236 51.1769 56.4282C51.8607 56.2525 52.2093 55.4807 51.7061 54.4043C51.4571 53.8731 51.1295 53.4803 50.604 53.1567C50.0837 52.847 49.8737 52.7459 49.1883 52.4624C48.5358 52.1832 48.3072 52.0729 47.824 51.7346C47.3411 51.3958 47.0745 50.9502 46.9476 50.3604C46.6993 49.2425 47.3425 48.2249 48.2324 47.914C49.1982 47.5923 50.1059 48.1941 50.2785 49.64C50.3039 49.7581 50.2104 49.8539 50.0926 49.8792C49.9747 49.9046 49.8786 49.8116 49.8532 49.6935Z" fill="white"/>
<path d="M21.0165 54.5882C21.0317 54.7079 21.137 54.7824 21.2564 54.7672C21.3762 54.7517 21.4506 54.6467 21.4351 54.527C21.3591 54.0403 21.3198 53.4978 21.3041 52.8871C21.1603 52.8737 21.0164 52.86 20.8726 52.8469C20.8875 53.4997 20.9306 54.0773 21.0165 54.5882ZM28.5056 53.6497C28.431 54.4034 28.4176 54.9847 28.4708 55.385C28.4702 55.5055 28.596 55.5823 28.7165 55.5829C28.8223 55.5815 28.8993 55.456 28.8979 55.35C28.8524 54.9741 28.8658 54.4205 28.937 53.6975L28.5056 53.6497ZM26.07 55.2822C26.1889 55.2978 26.2893 55.2202 26.3049 55.1016C26.3778 54.5443 26.4449 53.9863 26.5062 53.4276L26.0815 53.3807C26.0114 54.0592 25.9462 54.6135 25.8897 55.0473C25.8854 55.0747 25.8868 55.1026 25.8936 55.1294C25.9005 55.1563 25.9127 55.1814 25.9296 55.2034C25.9464 55.2254 25.9676 55.2437 25.9917 55.2572C26.0159 55.2708 26.0425 55.2793 26.07 55.2822ZM32.0785 54.0363L32.0606 54.1765C31.9337 55.1567 31.8487 55.81 31.7891 56.1491C31.7681 56.2669 31.8412 56.3708 31.959 56.3918C32.0767 56.4124 32.1809 56.3397 32.2016 56.2219C32.2534 55.9272 32.341 55.2589 32.4757 54.2343C32.4821 54.1813 32.4888 54.1308 32.4953 54.0791L32.0785 54.0363ZM35.1265 56.869C35.2473 56.8724 35.337 56.7801 35.3404 56.6596C35.4065 55.6679 35.4743 55.1048 35.6003 54.3719C35.4575 54.3597 35.3149 54.3477 35.1722 54.335C35.1428 54.5113 35.1145 54.6878 35.0874 54.8645C34.9824 55.5447 34.9209 56.1409 34.9175 56.6549C34.914 56.7757 35.006 56.8654 35.1265 56.869ZM37.9349 54.5513C37.9234 54.6306 37.9126 54.7049 37.9029 54.7686L37.8023 55.4192C37.7661 55.6557 37.6034 55.0402 37.5705 54.7628L37.5603 54.7309C37.5486 54.6618 37.5377 54.5925 37.5275 54.5232C37.3764 54.5125 37.2252 54.5008 37.074 54.4895C37.0902 54.6021 37.1066 54.7116 37.1234 54.8147L37.3278 56.0423L37.4063 56.6145C37.4243 56.6929 37.4473 56.742 37.455 56.7888L37.4733 56.8674C37.4709 56.8818 37.4709 56.8818 37.4835 56.8992C37.496 56.9161 37.4937 56.931 37.5062 56.9479C37.5461 56.9845 37.5882 57.0061 37.6325 57.0128C37.7192 57.0413 37.7999 57.0084 37.8704 56.9435C37.8898 56.9161 37.909 56.889 37.9306 56.8468C37.9547 56.79 37.9807 56.7182 38.0115 56.6171C38.0491 56.4716 38.0957 56.2669 38.1367 56.0006L38.3168 54.8325C38.3282 54.7585 38.341 54.6715 38.3544 54.5783C38.2144 54.5692 38.0747 54.5608 37.9349 54.5513ZM43.9453 56.6936C43.6544 57.4541 43.3081 57.6904 42.7888 57.192C42.5514 56.9656 42.3466 56.4401 42.189 55.6307C42.1333 55.3371 42.0882 55.0414 42.0539 54.7445C41.9102 54.741 41.7664 54.7375 41.6228 54.7332C41.6625 55.0814 41.7116 55.4134 41.7695 55.7167C42.1277 57.5006 42.9148 58.196 43.6515 57.7983C44.2378 57.489 44.5461 56.4593 44.599 55.5471C44.6177 55.2112 44.6019 54.9574 44.5504 54.7651C44.3997 54.7664 44.2491 54.767 44.0984 54.7675C44.2293 55.0121 44.1903 55.9799 43.9453 56.6936ZM51.7062 54.4043C52.2094 55.4807 51.8608 56.2526 51.177 56.4282C50.4367 56.6238 49.5255 56.1021 49.0711 54.8019C49.0315 54.6889 48.9171 54.6338 48.804 54.6734C48.691 54.7127 48.6359 54.8269 48.6755 54.9407C49.1891 56.4099 50.2827 57.0896 51.2779 56.8529C52.2595 56.5886 52.7075 55.5194 52.0881 54.2238C51.9411 54.2461 51.7941 54.2672 51.6473 54.2875C51.6671 54.3262 51.6873 54.3641 51.7062 54.4043Z" fill="#C5F0FC"/>
<path d="M36.29 65.5242C36.1127 65.4857 36.0143 65.4782 35.9709 65.7404C35.9219 66.03 35.8548 66.4015 35.7791 66.8137C35.6028 67.7901 35.4089 68.7632 35.1975 69.7325C35.1925 69.7579 35.1825 69.782 35.1679 69.8034C35.1534 69.8247 35.1346 69.8429 35.1129 69.8569C35.0911 69.8708 35.0667 69.8802 35.0412 69.8845C35.0157 69.8888 34.9896 69.8879 34.9645 69.8818C34.9391 69.8768 34.915 69.8667 34.8936 69.8522C34.8722 69.8376 34.854 69.8189 34.8401 69.7971C34.8261 69.7753 34.8167 69.751 34.8125 69.7255C34.8082 69.7 34.8091 69.6739 34.8152 69.6487C34.9437 69.0619 35.1092 68.2404 35.3045 67.1533C35.6915 64.9931 35.6899 64.9356 36.0791 63.419C36.2478 62.7125 36.3813 62.1698 36.4512 61.7847C36.4614 61.6724 36.5642 61.5949 36.6762 61.6049C36.7854 61.629 36.863 61.7318 36.8389 61.8408C36.7661 62.2397 36.6436 62.7991 36.4579 63.5164C36.3249 64.0591 36.2157 64.493 36.147 64.8066C36.0902 65.0662 36.1828 65.1006 36.3601 65.1393L37.7928 65.4529C37.9704 65.4918 38.0746 65.4718 38.1393 65.2429C38.2682 64.7851 38.3427 64.4436 38.3907 64.2255C38.466 63.8939 38.5478 63.5638 38.6359 63.2353C38.6897 62.9896 38.7293 62.6125 38.6905 62.3322C38.6793 62.0578 39.0579 62.0263 39.1027 62.2793C39.1293 62.614 39.0777 63.046 39.0181 63.3188C38.9854 63.469 38.9464 63.6463 38.8879 63.848C38.8445 64.0003 38.8061 64.154 38.7729 64.3088C38.716 64.5684 38.5949 65.0566 38.4287 65.7495C38.249 66.4394 38.1223 66.9548 38.0475 67.2958C37.7244 68.6409 37.5701 69.6082 37.59 70.1703C37.5826 70.2687 37.5011 70.3794 37.4025 70.3723C37.2905 70.3621 37.1795 70.2806 37.19 70.1683C37.1623 69.5762 37.3227 68.5817 37.6516 67.2093C37.746 66.8633 37.8319 66.515 37.909 66.1648C37.9686 65.8917 37.8732 65.8708 37.6959 65.8321L36.29 65.5242ZM41.816 70.9734C41.8562 70.7517 41.9445 70.1691 42.0673 69.2105C42.52 65.8359 42.5796 65.2657 42.9126 64.053C43.1068 63.3222 43.3173 62.8024 43.6049 62.6644C44.1931 62.4032 44.5216 62.7852 44.6572 63.3662C44.7395 63.6504 44.7635 63.9735 44.7844 64.3525C44.7885 64.5345 44.7969 64.633 44.7963 64.647C44.9811 66.8676 45.0143 69.0519 44.8951 71.1999C44.8891 71.3116 44.8007 71.3905 44.689 71.3844C44.6632 71.3835 44.6378 71.3775 44.6144 71.3666C44.5909 71.3556 44.57 71.34 44.5527 71.3208C44.5355 71.3015 44.5223 71.279 44.514 71.2545C44.5058 71.23 44.5025 71.204 44.5046 71.1783C44.5786 69.8393 44.598 68.4835 44.5478 67.1097C44.5431 66.9415 44.4511 66.8384 44.2835 66.8292C43.8815 66.765 43.4779 66.7287 43.0881 66.6932C42.9213 66.6699 42.8046 66.7613 42.7811 66.9281C42.7301 67.345 42.6171 68.1219 42.4702 69.2612C42.3474 70.2195 42.2583 70.8163 42.2032 71.0508C42.1832 71.1618 42.0818 71.2261 41.9707 71.2061C41.8603 71.1856 41.796 71.084 41.816 70.9734ZM43.1664 66.2914C43.5141 66.3249 43.8482 66.3573 44.1953 66.4044C44.4037 66.4298 44.5006 66.4493 44.5037 66.1415C44.503 65.6519 44.4455 65.1731 44.3784 64.358C44.3551 64.021 44.3305 63.7117 44.2739 63.4708C44.1947 63.1308 44.0908 62.9852 43.9365 62.9907C43.8103 62.9974 43.7376 63.0496 43.6756 63.1583C43.6313 63.1976 43.5994 63.2658 43.567 63.3481C43.4725 63.5386 43.3872 63.8136 43.2983 64.1584C43.1744 64.6275 43.0008 65.2331 42.9176 65.984C42.889 66.248 42.9849 66.2815 43.1664 66.2914ZM49.9144 66.5089C49.8146 66.5948 49.7404 66.6629 49.6756 66.7011C49.5345 66.7934 49.4495 66.7922 49.4888 66.956L49.8079 68.3903C50.0276 69.3601 50.1717 70.115 50.2523 70.6395C50.2692 70.7501 50.1991 70.8456 50.0888 70.8625C49.9782 70.8794 49.8827 70.8093 49.8658 70.699C49.7833 70.1607 49.6367 69.3919 49.4172 68.4222C49.1975 67.4527 49.0589 66.8241 48.9983 66.5226C48.9232 66.1244 48.7791 64.8182 48.7736 64.6921C48.6687 63.9169 48.5287 63.373 48.3536 63.0608C48.3398 63.0632 48.3398 63.0632 48.3378 63.0492C48.2325 63.0085 48.2018 62.9004 48.24 62.7815C48.2613 62.7358 48.2985 62.702 48.3517 62.6796C48.975 62.4144 49.6716 62.5334 50.1813 62.9074C50.677 63.2833 51.0421 63.8206 51.0864 64.478C51.1097 64.8133 51.0458 65.1341 50.9088 65.4377C50.8165 65.6641 50.6605 65.8434 50.4628 66.0292C50.365 66.129 50.2791 66.2129 50.2165 66.2647L49.9144 66.5089ZM49.4038 66.4036C49.4157 66.3878 49.4525 66.3535 49.5548 66.2815C49.5919 66.2477 49.6428 66.2114 49.6938 66.1753C49.9327 65.9835 50.0072 65.9154 50.179 65.7476C50.3513 65.5797 50.4564 65.4367 50.5434 65.2677C50.8473 64.6698 50.6648 64.034 50.3123 63.5793C50.03 63.2128 49.5513 62.9473 49.0691 62.9368C48.8716 62.9387 48.8099 63.0894 48.881 63.2765C49.0032 63.6108 49.1007 64.0622 49.1602 64.6323C49.1707 64.7014 49.2079 65.035 49.2672 65.6051C49.2926 65.7706 49.302 65.9246 49.3234 66.0626C49.3552 66.2697 49.3924 66.4196 49.4038 66.4036ZM56.0356 64.9474C55.9602 65.0557 55.9051 65.1399 55.8519 65.1931C55.7383 65.3175 55.6557 65.3375 55.7342 65.4865L56.4005 66.7963C56.8542 67.6808 57.1818 68.3762 57.3901 68.8641C57.4342 68.9669 57.3901 69.0769 57.2873 69.1206C57.1845 69.1646 57.0745 69.1206 57.0308 69.0178C56.8166 68.5169 56.4836 67.8087 56.0298 66.9243C55.5757 66.0402 55.2848 65.4659 55.1515 65.1888C54.9792 64.8217 54.5151 63.5927 54.4785 63.4716C54.1838 62.7471 53.9131 62.2551 53.6657 61.9963C53.6529 62.0021 53.6529 62.0021 53.6474 61.9891C53.5354 61.9759 53.4789 61.8788 53.4864 61.7542C53.4955 61.7044 53.523 61.6625 53.569 61.6276C54.1067 61.2154 54.8107 61.1577 55.3975 61.3927C55.971 61.6337 56.4586 62.0635 56.6651 62.6888C56.7709 63.0082 56.7892 63.3343 56.7321 63.6626C56.6986 63.9048 56.5919 64.1173 56.4468 64.3464C56.377 64.4672 56.3149 64.57 56.2667 64.636L56.0356 64.9474ZM55.5145 64.9727C55.522 64.9541 55.5497 64.912 55.6303 64.8167C55.658 64.7748 55.6982 64.7269 55.7389 64.6793C55.9223 64.4336 55.9774 64.3493 56.1023 64.1443C56.2273 63.9389 56.2935 63.7741 56.3359 63.5887C56.4813 62.9343 56.1464 62.3639 55.692 62.0112C55.3276 61.7264 54.7976 61.5882 54.328 61.6979C54.1375 61.7489 54.1152 61.9104 54.2305 62.0738C54.4319 62.3675 54.6386 62.7803 54.8379 63.3176C54.8653 63.3819 54.9844 63.6955 55.1837 64.2329C55.2493 64.3873 55.297 64.5341 55.3518 64.6624C55.4339 64.8549 55.5074 64.9909 55.5145 64.9727ZM58.755 58.9937C58.7544 59.0137 58.7544 59.0137 58.7639 59.0239C58.7733 59.0341 58.791 59.0939 58.8664 59.1957C58.8853 59.216 58.8941 59.2461 58.9226 59.2766C59.1764 59.6318 59.5969 60.0227 60.1417 60.5269C60.6096 60.9691 60.6016 60.9195 60.9707 61.358C61.1507 61.5719 61.2413 61.5259 61.3845 61.3929C61.5073 61.2788 61.6197 61.1743 61.6921 61.0881C61.7644 61.0019 61.893 60.9967 61.9794 61.0687C62.0556 61.1507 62.0606 61.2793 61.9788 61.3553C61.886 61.4605 61.7734 61.565 61.6302 61.6983C61.4973 61.8219 61.4255 61.8884 61.6056 62.1023C62.486 63.1526 63.2172 63.96 63.781 64.4847C63.9528 64.6493 64.0971 64.7629 64.2029 64.836C64.2218 64.8566 64.2514 64.8675 64.2608 64.8776C64.2805 64.8787 64.2243 64.7975 64.1955 64.7666C64.2905 64.8691 64.3982 64.9026 64.5298 64.8183C64.7928 64.6502 65.0516 64.3335 65.3291 64.0373C65.4732 63.8847 65.5856 63.7802 65.6574 63.7135C65.6759 63.6954 65.6978 63.6813 65.722 63.672C65.7461 63.6627 65.7718 63.6583 65.7977 63.6593C65.8235 63.6603 65.8489 63.6665 65.8722 63.6775C65.8956 63.6886 65.9165 63.7043 65.9336 63.7237C66.0097 63.8057 66.0053 63.924 65.9234 63.9999C65.7904 64.1237 65.3989 64.564 65.2753 64.6975C64.9471 65.0214 64.673 65.219 64.443 65.2996C64.2925 65.3632 64.1374 65.2782 63.9831 65.174C63.8477 65.0898 63.6945 64.9656 63.5036 64.7809C62.8827 64.1949 62.076 63.2856 61.4794 62.5821C61.176 62.235 60.9397 61.9396 60.7313 61.695C60.3335 61.2256 60.3706 61.2866 59.8641 60.823C59.3194 60.3188 58.8703 59.8973 58.5977 59.5217C58.4383 59.2886 58.3175 59.0767 58.3641 58.8808C58.398 58.7733 58.511 58.649 58.644 58.5256C58.7157 58.4589 58.8795 58.307 59.1448 58.0796C59.6554 57.6238 59.9309 57.3869 59.9718 57.349C60.0442 57.2628 60.1728 57.2573 60.2591 57.3297C60.2974 57.3706 60.3251 57.4211 60.3132 57.4701C60.3187 57.5987 60.2279 57.6447 60.1359 57.7303C60.0029 57.8538 59.7572 58.0822 59.41 58.3853C59.1448 58.613 58.9914 58.7555 58.9299 58.8123C58.8585 58.879 58.8071 58.9267 58.7861 58.9652L58.755 58.9937ZM63.1237 55.0301C63.3933 55.0345 63.5953 55.0564 63.7537 55.0758C63.9246 55.1002 67.287 55.6565 68.521 55.7374L68.5521 55.7349C68.8114 55.7651 69.4052 55.7508 69.1984 55.6662L68.6293 55.4344C68.293 55.2973 67.7059 55.073 66.8545 54.7564C65.1783 54.1335 64.0454 53.6567 62.9707 53.0375C62.8726 52.9823 62.8449 52.8656 62.9001 52.7674C62.9552 52.6693 63.0719 52.6416 63.1701 52.6967C64.2063 53.2996 65.3312 53.7584 66.9947 54.376C67.8278 54.7004 68.4277 54.9299 68.777 55.0723L69.7985 55.4888C69.98 55.5621 70.1578 55.6445 70.331 55.7358C70.4163 55.7859 70.4759 55.8251 70.5222 55.8591C70.5557 55.8879 70.5763 55.9115 70.597 55.9349C70.6407 56.0131 70.6529 56.0934 70.6086 56.1657C70.5927 56.2046 70.5639 56.2381 70.5223 56.2662C70.5041 56.274 70.4913 56.269 70.473 56.2764C70.4547 56.2842 70.4547 56.2842 70.4419 56.2789L70.3668 56.2786C70.3228 56.2755 70.2734 56.2857 70.1983 56.285L69.6617 56.2326L68.5031 56.1525C67.873 56.1068 67.0698 56.0056 66.0932 55.8486C64.7177 55.6347 63.9249 55.5078 63.7097 55.4804C63.6399 55.4668 63.4504 55.4502 63.3753 55.4496C63.3185 55.4415 63.9364 55.7386 63.9364 55.7386C64.3655 55.9436 64.6445 56.0725 64.787 56.1304C65.123 56.2675 65.6738 56.5069 66.4393 56.8491C67.9701 57.5336 68.3992 57.7387 69.7915 58.1704C69.9004 58.1998 69.9644 58.3014 69.9353 58.41C69.9059 58.5186 69.8043 58.5829 69.6957 58.5538C69.2297 58.4391 68.7019 58.254 68.107 58.0116C67.4555 57.7467 66.8114 57.4641 66.1753 57.1641C65.4746 56.848 64.9626 56.6244 64.6391 56.4928C64.4451 56.4135 64.1531 56.2792 63.7705 56.1084C63.3929 55.9244 63.1136 55.7954 62.9199 55.7163C62.0709 55.4307 61.9599 55.3705 61.9376 55.2406C61.9326 55.1783 61.959 55.1137 61.9983 55.0545C62.0795 54.9669 62.1961 54.9387 62.3413 54.953L63.1237 55.0301Z" fill="#3B6EFF"/>
<path d="M28.7877 27.8165C28.8466 28.4515 29.8447 28.4572 29.7853 27.8165C29.6977 26.8592 29.5592 25.9071 29.3705 24.9645C29.0363 24.9366 28.7029 24.9003 28.3706 24.8557C28.5692 25.88 28.7015 26.8867 28.7877 27.8165ZM32.818 27.305C32.5044 26.5672 32.2116 25.8207 31.94 25.0664C31.5842 25.0646 31.2285 25.0584 30.8729 25.048C31.2065 25.9822 31.5726 26.9033 31.9566 27.8085C32.2072 28.3991 33.0662 27.8901 32.818 27.305Z" fill="#CC8F15"/>
<path d="M35.6211 27.1435L24.7671 29.7674C24.6521 29.7952 24.5326 29.8001 24.4157 29.7818C24.2987 29.7634 24.1865 29.7222 24.0855 29.6605C23.9844 29.5988 23.8965 29.5178 23.8268 29.4221C23.7571 29.3265 23.7069 29.218 23.679 29.1029C23.6512 28.9879 23.6464 28.8684 23.6647 28.7515C23.683 28.6345 23.7242 28.5223 23.7859 28.4213C23.8476 28.3202 23.9286 28.2323 24.0243 28.1626C24.12 28.0929 24.2284 28.0427 24.3435 28.0148L35.1975 25.391C35.4299 25.3348 35.6751 25.3732 35.8791 25.4978C36.0832 25.6225 36.2294 25.823 36.2856 26.0554C36.3417 26.2878 36.3033 26.533 36.1787 26.7371C36.0541 26.9411 35.8535 27.0873 35.6211 27.1435ZM36.4111 29.0626L25.5571 31.6864C25.3247 31.7426 25.0795 31.7042 24.8755 31.5796C24.6714 31.455 24.5252 31.2544 24.469 31.022C24.4129 30.7896 24.4513 30.5444 24.5759 30.3403C24.7005 30.1363 24.9011 29.9901 25.1335 29.9339L35.9874 27.31C36.2182 27.2583 36.4601 27.2993 36.6609 27.4243C36.8617 27.5492 37.0054 27.7481 37.061 27.978C37.1166 28.2079 37.0796 28.4504 36.958 28.6533C36.8364 28.8562 36.64 29.0032 36.4111 29.0626Z" fill="#3B6EFF"/>
<path d="M37.7852 22.7242C37.929 22.8229 38.3803 22.4948 38.844 21.7486C39.0777 21.3783 39.2937 20.9003 39.4689 20.346C39.6485 19.7405 39.7526 19.1152 39.7789 18.4842C39.7967 17.8529 39.7366 17.2218 39.5999 16.6052C39.4639 16.0401 39.2817 15.5482 39.0747 15.1624C38.6644 14.3856 38.2372 14.0267 38.0866 14.1151C37.9168 14.2115 38.0338 14.7171 38.1788 15.4804C38.2553 15.8617 38.3229 16.3141 38.3787 16.8126C38.4241 17.3131 38.4518 17.861 38.4353 18.437C38.4114 19.0127 38.3455 19.5574 38.2652 20.0535C38.1747 20.5469 38.0755 20.9935 37.9726 21.3686C37.7747 22.1199 37.6225 22.616 37.7852 22.7242ZM37.8125 13.556C38.1552 13.4133 38.2108 12.7644 37.9368 12.1066C37.6627 11.4489 37.1628 11.0315 36.82 11.1742C36.4774 11.317 36.4217 11.9659 36.6957 12.6236C36.9698 13.2814 37.4697 13.6988 37.8125 13.556Z" fill="white"/>
<path d="M32.9388 34.063C33.445 34.5154 33.7029 35.1735 33.712 36.0376L33.6488 41.461L30.7879 41.6824L30.7616 37.153C30.7619 36.756 30.6824 36.4576 30.5241 36.2587C30.365 36.0603 30.1465 35.9605 29.8683 35.9605C29.6004 35.9602 29.3865 36.0522 29.2278 36.2353C29.0684 36.4194 28.9642 36.6748 28.9141 37.0028L28.8661 41.6363L26.0055 41.6641L25.9789 37.2985C25.9792 36.9012 25.8977 36.6008 25.7336 36.397C25.5702 36.1933 25.3543 36.0911 25.0859 36.0911C24.778 36.0908 24.5468 36.2075 24.3927 36.4407C24.2386 36.6742 24.1514 36.9993 24.1314 37.4165L24.2624 41.6627L21.3572 41.6607L21.363 33.8238L24.0152 33.7362L24.0298 34.1535C24.2981 33.9551 24.6158 33.8016 24.9837 33.6922C25.3512 33.5833 25.7325 33.5284 26.1158 33.5295C27.1191 33.5301 27.8638 33.8282 28.3503 34.4252C28.6085 34.1071 28.9689 33.8544 29.4308 33.6658C29.893 33.4777 30.3823 33.3833 30.8987 33.3836C31.7525 33.3842 32.4326 33.6106 32.9388 34.063ZM40.1592 41.6297L40.1595 41.0636C39.6526 41.5897 38.9028 41.8521 37.9098 41.8513C37.254 41.8507 36.6531 41.6591 36.1073 41.2764C35.5612 40.8941 35.1293 40.3793 34.812 39.7335C34.4946 39.0879 34.3363 38.3922 34.3369 37.647C34.3372 36.912 34.5092 36.2245 34.8522 35.584C35.1953 34.9437 35.6454 34.4325 36.2017 34.0505C36.7583 33.6684 37.3396 33.4776 37.9457 33.478C38.9389 33.4786 39.6488 33.7429 40.0755 34.2691L40.0758 33.7179L42.6386 33.7199L42.9904 41.6316L40.1592 41.6297ZM39.7295 38.6868C39.9778 38.4333 40.1024 38.0889 40.1027 37.6514C40.103 37.2247 39.9714 36.8864 39.7085 36.638C39.4453 36.3897 39.1056 36.2647 38.6883 36.2647C38.301 36.2644 37.9754 36.3933 37.7122 36.6512C37.4487 36.9097 37.3171 37.2325 37.3166 37.6196C37.3163 37.8484 37.3759 38.074 37.495 38.2976C37.6128 38.52 37.7842 38.7096 37.9937 38.8492C38.2073 38.9936 38.4481 39.0653 38.7161 39.0658C39.1432 39.0658 39.4809 38.9395 39.7295 38.6868ZM52.4509 41.6385L49.322 41.8147L47.164 38.6997L47.162 41.605L44.0331 41.6324L44.042 29.6087L47.2007 29.4622L47.181 36.0177L48.747 33.5455L51.8758 33.7713L49.6233 37.3007L52.4509 41.6385Z" fill="#3B6EFF"/>
<path d="M58.4906 34.0369C59.1062 34.4196 59.5673 34.9562 59.8753 35.6469C60.1825 36.3376 60.3158 37.1297 60.2756 38.0232L54.8373 38.407C54.976 38.7148 55.1817 38.9611 55.4551 39.145C55.7278 39.329 56.0381 39.4259 56.386 39.436C56.7437 39.4363 57.0465 39.3723 57.2948 39.2431C57.5436 39.1145 57.7221 38.9356 57.8315 38.7071L60.1703 39.3046C60.0211 39.8014 59.7575 40.243 59.3799 40.6304C59.0023 41.0174 58.5476 41.32 58.0159 41.5383C57.4939 41.7543 56.9344 41.8651 56.3694 41.8644C55.5945 41.8641 54.8819 41.6671 54.2319 41.2746C53.5816 40.8817 53.0652 40.3498 52.6832 39.6792C52.3014 39.0082 52.1107 38.2709 52.1113 37.4663C52.1119 36.6817 52.2934 35.9863 52.6568 35.3809C53.0195 34.7753 53.5166 34.304 54.1477 33.9666C54.7785 33.6296 55.4914 33.4607 56.2862 33.4614C57.1402 33.462 57.8747 33.654 58.4906 34.0369ZM55.3086 35.7701C55.0548 35.9785 54.8734 36.2567 54.7642 36.6041L57.5801 36.3531C57.5006 36.0849 57.3399 35.8685 57.0966 35.7045C56.853 35.5404 56.5677 35.4585 56.2399 35.4582C55.8719 35.4577 55.5618 35.5616 55.3086 35.7701Z" fill="#3B6EFF"/>
</g>
<defs>
<clipPath id="clip0_28_4045">
<rect width="78" height="78" fill="white"/>
</clipPath>
</defs>
</svg>
