<svg width="78" height="79" viewBox="0 0 78 79" fill="none" xmlns="http://www.w3.org/2000/svg">
<path d="M57.7612 43.5836C57.7514 43.5696 57.7444 43.5537 57.7407 43.537C57.737 43.5203 57.7366 43.503 57.7396 43.4861C57.7426 43.4693 57.7489 43.4532 57.7582 43.4388C57.7674 43.4243 57.7794 43.4119 57.7935 43.4021C58.8298 42.6757 59.0851 41.293 58.9785 40.2415C58.7326 37.809 56.8757 35.6489 57.3239 33.1149C57.6874 31.0651 59.5869 29.4489 59.5209 27.4438C59.4809 26.2582 58.7591 25.2172 58.3051 24.0779C57.8241 22.8715 57.7919 21.3198 58.8043 20.571C58.818 20.5603 58.8337 20.5524 58.8505 20.5479C58.8673 20.5434 58.8848 20.5422 58.902 20.5446C58.9192 20.5469 58.9358 20.5527 58.9507 20.5616C58.9656 20.5704 58.9787 20.5822 58.989 20.5961C58.9993 20.6101 59.0067 20.626 59.0108 20.6429C59.0149 20.6598 59.0155 20.6773 59.0127 20.6945C59.0099 20.7116 59.0037 20.728 58.9944 20.7427C58.9851 20.7574 58.973 20.7701 58.9588 20.78C58.0576 21.4461 58.1023 22.8683 58.5469 23.9817C58.9941 25.1059 59.7388 26.1865 59.7809 27.4355C59.8506 29.5446 57.9354 31.1571 57.5797 33.1602C57.1497 35.587 58.99 37.7689 59.2375 40.215C59.3514 41.3403 59.0711 42.8239 57.9427 43.6153C57.9287 43.6252 57.9129 43.6322 57.8962 43.6359C57.8795 43.6397 57.8622 43.6401 57.8454 43.6371C57.8285 43.6342 57.8124 43.628 57.798 43.6188C57.7835 43.6096 57.771 43.5976 57.7612 43.5836ZM58.0795 54.099C58.0533 54.0767 58.0371 54.0448 58.0343 54.0105C58.0316 53.9762 58.0426 53.9422 58.0649 53.916C59.1808 52.6009 59.2167 50.7055 59.1049 49.0243C58.9775 47.2407 58.7804 45.3953 59.5199 43.8056C60.5271 41.6414 63.1079 40.3253 63.4069 38.0373C63.5873 36.653 62.8687 35.3083 63.2171 33.8377C61.7813 32.0157 61.8625 28.5805 64.0012 26.5234C64.0133 26.5106 64.0278 26.5003 64.044 26.4932C64.0602 26.4861 64.0776 26.4824 64.0953 26.4823C64.1129 26.4822 64.1304 26.4857 64.1466 26.4926C64.1629 26.4994 64.1776 26.5095 64.1898 26.5222C64.202 26.535 64.2115 26.55 64.2178 26.5665C64.224 26.5831 64.2268 26.6007 64.2259 26.6183C64.2251 26.6359 64.2207 26.6532 64.213 26.6691C64.2053 26.6849 64.1945 26.6991 64.1811 26.7106C62.2831 28.5369 62.0387 31.7141 63.3101 33.5242C63.4266 33.2023 63.6065 32.9028 63.8749 32.6568C64.281 32.2855 64.9305 32.1628 65.4941 32.3516C66.4015 32.6568 66.5773 33.6349 65.9257 34.2641C65.2357 34.9287 64.2175 34.8824 63.4318 34.0832C63.202 35.431 63.8426 36.7092 63.6653 38.0711C63.3512 40.4693 60.7429 41.7953 59.7554 43.9159C59.0477 45.4374 59.238 47.2387 59.3639 49.0072C59.4793 50.7403 59.4387 52.6981 58.263 54.0839C58.252 54.097 58.2385 54.1078 58.2232 54.1156C58.208 54.1234 58.1914 54.1282 58.1744 54.1296C58.1573 54.131 58.1402 54.129 58.1239 54.1238C58.1076 54.1185 58.0925 54.1101 58.0795 54.099ZM63.5031 33.7717C64.2222 34.5985 65.1317 34.6692 65.7453 34.0769C65.9913 33.8393 66.0973 33.5502 66.0443 33.2621C65.8971 32.4603 64.6517 32.2991 64.0506 32.8487C63.774 33.1019 63.6024 33.4254 63.5031 33.7717Z" fill="#3B6EFF"/>
<path d="M60.0835 64.1272C60.0314 64.1418 53.2038 69.6007 30.8293 70.9605C30.7778 70.9668 30.7263 70.9668 30.6749 70.9725C30.6062 70.9725 30.5433 70.9777 30.4856 70.9839L29.8387 71.0183C26.0718 71.2283 21.8811 71.323 17.2225 71.2616C16.8171 71.2553 16.421 71.1392 16.0763 70.9258C15.7315 70.7124 15.4511 70.4095 15.2647 70.0495C13.4915 66.6435 11.9783 61.8871 10.9929 58.1581C10.9643 58.0666 10.9409 57.9751 10.9128 57.8773C10.3169 55.6091 9.71521 53.0086 9.13073 50.0357C9.11326 49.9405 9.09627 49.8452 9.07977 49.7497C8.5741 47.1411 8.13283 44.5204 7.75637 41.8899C7.73984 41.7951 7.72648 41.6997 7.71633 41.6039C7.33875 38.9889 7.01212 36.3667 6.73665 33.7389C6.72487 33.6437 6.71343 33.5483 6.70233 33.4529C6.42845 30.8311 6.19355 28.2053 5.99773 25.5765C5.99201 25.4787 5.98057 25.3872 5.98057 25.29C5.88677 24.0453 5.80115 22.8001 5.72369 21.5543C5.70617 21.2709 5.74682 20.9869 5.84313 20.7198C5.93943 20.4527 6.08937 20.2081 6.28371 20.0011C6.47806 19.7941 6.71269 19.6291 6.9732 19.5161C7.2337 19.4032 7.51456 19.3447 7.79849 19.3443H49.5857C49.8582 19.3439 50.1281 19.3972 50.38 19.5011C50.632 19.605 50.8609 19.7575 51.0539 19.95C51.2469 20.1424 51.4 20.371 51.5046 20.6226C51.6092 20.8742 51.6633 21.144 51.6636 21.4165C51.6641 22.1279 51.6699 23.0025 51.686 24.0123C51.686 24.1044 51.686 24.2016 51.6912 24.2989C51.7351 27.024 51.8442 29.7476 52.0183 32.4675C52.1784 34.9417 52.402 37.6171 52.7171 40.3492L52.7514 40.6352C53.3734 45.8055 54.3915 51.68 56.1252 56.6117C56.1595 56.7089 56.1938 56.8067 56.2282 56.8977C57.265 59.7733 58.5307 62.2771 60.0835 64.1272Z" fill="#3B6EFF"/>
<path d="M51.6916 24.2988L5.99763 25.5765C5.99191 25.4787 5.98047 25.3872 5.98047 25.29L51.6859 24.0123C51.6859 24.1044 51.6864 24.2016 51.6916 24.2988ZM52.0182 32.4675L6.73655 33.7389C6.72477 33.6436 6.71333 33.5483 6.70223 33.4529L52.001 32.181L52.0182 32.467V32.4675ZM52.7513 40.6357L7.75575 41.8899C7.73938 41.7951 7.7262 41.6997 7.71623 41.6039L52.717 40.3492L52.7513 40.6357ZM54.0342 48.7752L9.13115 50.0357C9.11368 49.9405 9.09669 49.8451 9.08019 49.7497L53.9775 48.495C53.9947 48.5865 54.0175 48.678 54.0347 48.7758L54.0342 48.7752ZM56.2281 56.8982L10.9927 58.1576C10.9641 58.0661 10.9407 57.9746 10.9127 57.8768L56.1251 56.6111C56.1594 56.7084 56.1937 56.8061 56.2281 56.8971V56.8982ZM56.9155 64.9119C56.9161 64.9505 56.9014 64.9878 56.8746 65.0157C56.8478 65.0435 56.8111 65.0597 56.7725 65.0606L13.5875 66.2696C13.5475 66.1781 13.5132 66.0809 13.4731 65.9836C64.8959 64.5484 55.6696 64.7751 56.7725 64.7751C56.8469 64.7751 56.9098 64.8375 56.9155 64.9124V64.9119Z" fill="#2E9CFF"/>
<path d="M60.0835 64.1273C60.0315 64.1418 53.2455 69.5873 30.8293 70.9606C38.751 70.2549 47.1391 66.5489 52.596 59.8898C52.7988 59.6416 53.0902 59.482 53.4085 59.4449C53.7268 59.4077 54.0471 59.4958 54.3016 59.6906L60.0835 64.1273Z" fill="#2E9CFF"/>
<path d="M51.7946 60.8221C44.3591 69.1333 34.0428 70.674 30.8292 70.96C30.7777 70.9657 30.7263 70.9657 30.6748 70.972C30.6061 70.972 30.5432 70.9772 30.4855 70.9834L29.8386 71.0177C40.769 68.2108 46.5067 62.2329 48.3964 59.9043C48.6029 59.6516 48.8975 59.4864 49.2209 59.4421C49.5442 59.3977 49.8724 59.4774 50.1394 59.6651L51.7946 60.8221Z" fill="#55C9F5"/>
<path d="M40.3865 21.5533L37.5727 22.9042L40.1197 24.379C40.3246 24.4975 40.2403 24.8116 40.0032 24.8116H16.8965C16.5413 24.8116 16.4035 24.3493 16.701 24.1549L18.9214 22.704L16.0213 21.4368C15.9586 21.4093 15.905 21.3644 15.8671 21.3073C15.8292 21.2503 15.8085 21.1835 15.8074 21.115C15.8064 21.0465 15.8251 20.9791 15.8612 20.9209C15.8974 20.8627 15.9496 20.8162 16.0115 20.7868L19.0535 19.3464L16.0967 18.3085C16.0305 18.2853 15.9725 18.2431 15.9301 18.1871C15.8877 18.1312 15.8627 18.064 15.8583 17.9939C15.8538 17.9238 15.8701 17.854 15.9051 17.7931C15.9402 17.7323 15.9923 17.6831 16.0551 17.6517L18.3317 16.5114L16.2366 15.0538C15.9496 14.8541 16.091 14.4038 16.441 14.4038H39.7188C39.9424 14.4038 40.0391 14.6862 39.8628 14.8229L36.8453 17.1702L40.2149 17.9429C40.4307 17.9923 40.4639 18.2861 40.2643 18.3828L37.1718 19.8737L40.3709 21.1284C40.4129 21.145 40.4491 21.1734 40.4752 21.2102C40.5013 21.247 40.5161 21.2907 40.5177 21.3358C40.5194 21.3809 40.5079 21.4255 40.4845 21.4641C40.4612 21.5027 40.4271 21.5337 40.3865 21.5533Z" fill="#122344"/>
<path d="M35.8822 45.2226L34.6623 39.9976H31.7617L30.9791 45.0385L28.4473 44.6241L30.8413 29.6169H34.9389L38.3912 44.6704L35.8822 45.2226ZM32.9588 32.5856L32.1996 37.4424H34.0872L32.9588 32.5856ZM48.0128 35.8543L47.6217 38.2712L44.8361 38.4324V41.632H42.4654L42.2351 38.4324H39.0589L39.1738 36.0384L42.1893 36.1304L42.2351 32.6547H44.8361L44.9287 36.0384L48.0128 35.8543Z" fill="#122344"/>
<path d="M36.6002 49.1528C32.4142 49.1528 28.5049 47.4217 26.3562 44.4083C23.3927 40.2535 24.0932 33.7332 27.9162 29.8743C30.9457 26.8177 36.2466 25.292 41.1086 26.0762C45.2442 26.7439 48.4073 28.8956 50.0152 32.1352C51.5767 35.2812 51.2601 39.3908 49.2081 42.6044C46.5977 46.6911 41.483 49.1528 36.6002 49.1528ZM28.2859 30.2404C24.6324 33.9272 23.9564 40.1479 26.7795 44.1062C29.458 47.8632 35.0236 49.5282 40.3151 48.1585C43.9166 47.2251 46.9981 45.0988 48.7693 42.3241C50.7255 39.2613 51.0313 35.3525 49.5493 32.3661C48.0184 29.2815 44.9909 27.2296 41.0254 26.5894C36.3231 25.8302 31.2016 27.2977 28.2859 30.2404Z" fill="#122344"/>
<path d="M20.7668 63.8787C20.6815 63.6322 20.5936 63.3524 20.5775 62.4279C19.0346 64.8287 15.1071 64.978 14.7836 60.7436C14.2324 53.5972 21.7969 48.8252 21.0424 53.9794C20.928 54.7111 20.6789 55.4698 20.3367 56.0834C20.2301 56.2425 20.0336 56.3075 19.8755 56.2186C19.7153 56.112 19.6508 55.9144 19.7403 55.7563C20.4418 54.5109 20.5187 53.0237 20.3294 52.7351C19.7205 51.7694 16.7014 53.9904 15.7108 57.7479C15.4612 58.7255 15.3816 59.7083 15.4529 60.6952C15.6515 63.2058 17.2297 63.8485 18.6322 63.225C20.721 62.3166 20.6654 59.9137 20.7304 58.9662C20.7839 58.5409 21.4142 58.5955 21.4064 59.0021C21.4032 59.8934 21.0408 62.5626 21.3908 63.665C21.4212 63.7498 21.4168 63.8432 21.3785 63.9248C21.3402 64.0064 21.2711 64.0695 21.1864 64.1002C21.0049 64.147 20.8136 64.0596 20.7668 63.8787Z" fill="#122344"/>
<path d="M22.1853 58.3901C19.2504 54.3445 24.2866 48.8299 27.2069 52.8932C28.3119 54.4459 28.6733 56.8602 28.3182 58.9387C28.7857 58.6527 29.2646 58.2975 29.7705 57.8404C29.913 57.7125 30.133 57.7302 30.2427 57.8566C30.3711 57.999 30.3685 58.2013 30.2261 58.3292C29.4996 58.9876 28.8117 59.4753 28.1461 59.8097C26.5486 65.6477 21.4875 64.3144 22.1853 58.3901ZM27.4815 55.061C25.8487 49.2381 20.5083 53.3612 22.3647 57.3672C22.4942 56.8358 22.6575 56.3023 22.8899 55.7979C22.9061 55.7563 22.9309 55.7186 22.9627 55.6872C22.9944 55.6558 23.0324 55.6314 23.0742 55.6157C23.116 55.5999 23.1606 55.5931 23.2052 55.5958C23.2498 55.5984 23.2933 55.6104 23.3329 55.631C23.4889 55.7038 23.5711 55.8998 23.4978 56.0568C23.2102 56.7339 22.9949 57.4728 22.8961 58.2034C23.8363 59.3308 25.6937 60.1217 27.572 59.3292C27.8907 57.9262 27.8465 56.3808 27.4815 55.061ZM22.8072 59.0682C22.6164 63.4076 25.8414 64.4704 27.3437 60.1201C25.6147 60.6495 23.9237 60.0811 22.8072 59.0682Z" fill="#122344"/>
<path d="M31.0248 57.75C28.0899 53.7044 33.1256 48.1898 36.0454 52.2525C37.1514 53.8053 37.5118 56.2201 37.1577 58.2986C37.6241 58.0126 38.1041 57.6574 38.6085 57.2003C38.7515 57.0724 38.9714 57.0896 39.0817 57.2159C39.2096 57.3589 39.207 57.5607 39.0656 57.6891C38.3391 58.3475 37.6501 58.8352 36.9845 59.1691C35.3881 65.0071 30.327 63.6743 31.0248 57.75ZM36.321 54.4209C34.6877 48.598 29.3478 52.7211 31.2032 56.7271C31.3332 56.1957 31.4964 55.6622 31.7289 55.1573C31.7451 55.1157 31.7699 55.078 31.8016 55.0467C31.8333 55.0154 31.8713 54.9911 31.913 54.9754C31.9548 54.9597 31.9993 54.9529 32.0439 54.9556C32.0884 54.9583 32.1318 54.9703 32.1714 54.9909C32.3284 55.0637 32.4096 55.2597 32.3373 55.4162C32.0427 56.1024 31.8402 56.8245 31.7351 57.5638C32.6748 58.6907 34.5327 59.4816 36.411 58.6891C36.7302 57.2861 36.686 55.7407 36.321 54.4209ZM31.6462 58.4281C31.4559 62.7675 34.6799 63.8298 36.1822 59.48C34.4532 60.0089 32.7621 59.4415 31.6462 58.4281ZM39.9938 61.4591C41.273 62.1575 43.2297 61.2917 44.4652 60.2262C48.8067 56.4957 46.539 50.2807 42.0795 51.6811C41.7901 54.5008 41.8042 57.3434 42.1216 60.1602C42.1292 60.2481 42.1032 60.3356 42.0489 60.4051C41.9946 60.4747 41.916 60.5211 41.8288 60.5351L41.8122 60.5361C41.7235 60.5423 41.636 60.5131 41.5688 60.4549C41.5015 60.3968 41.4601 60.3143 41.4534 60.2257C41.1502 57.4828 41.1243 54.7162 41.3759 51.9681C40.8247 52.2432 40.3474 52.6311 40.1134 53.1194C39.8924 53.5094 39.3386 53.227 39.5034 52.8277C39.884 52.0424 40.637 51.5162 41.4544 51.1876C41.4726 50.9676 41.4914 50.7643 41.5262 50.5428C41.546 50.3566 41.7217 50.2256 41.9084 50.2464C42.0779 50.2677 42.2084 50.4429 42.1882 50.6296C42.1788 50.7315 42.1705 50.8501 42.1445 50.9525C47.1172 49.6666 49.7386 56.5789 44.9062 60.7327C43.4965 61.9459 41.2605 62.9157 39.6667 62.0551C39.3006 61.8471 39.5653 61.2823 39.9938 61.4591ZM40.3806 21.5559L37.5726 22.9042L40.1108 24.3738C40.3188 24.4944 40.233 24.8116 39.9932 24.8116H21.7688C25.5034 23.8319 28.9973 21.9188 31.8443 19.3126C33.4142 17.8748 34.7943 16.2248 35.9003 14.4038H39.7187C39.9423 14.4038 40.039 14.6862 39.8627 14.8229L36.8452 17.1702L40.3786 17.9804C40.4139 17.9887 40.4457 18.0078 40.4698 18.0349C40.4938 18.0621 40.5089 18.096 40.5129 18.1321C40.5169 18.1682 40.5096 18.2046 40.4921 18.2364C40.4745 18.2681 40.4476 18.2937 40.415 18.3095L37.1717 19.8737L40.3645 21.1264C40.407 21.143 40.4437 21.1718 40.4701 21.209C40.4964 21.2462 40.5114 21.2903 40.5131 21.3359C40.5148 21.3814 40.5032 21.4265 40.4797 21.4656C40.4562 21.5047 40.4217 21.5361 40.3806 21.5559Z" fill="#122344"/>
<path d="M26.1233 15.0289C26.5518 15.2046 26.571 15.8078 25.6719 15.8291L19.5957 15.9716C19.2151 15.9805 18.3051 15.6685 18.8787 15.1849C19.2411 14.8801 20.3726 15.0751 20.8157 15.0663C25.9465 14.9633 25.8841 14.9306 26.1233 15.0289Z" fill="white"/>
<path d="M68.3811 48.9749C66.6016 49.2989 65.2174 50.6213 64.7405 52.2639C64.7104 52.3674 64.6542 52.9165 64.5845 52.9441C64.4764 52.9862 64.4618 52.6383 64.4467 52.5687C64.0437 50.7487 62.595 49.3046 60.7079 48.9703C60.657 48.9614 60.5426 48.9671 60.5062 48.9255C60.4245 48.8319 60.6851 48.8325 60.7449 48.8215C62.5019 48.496 63.9049 47.1846 64.3802 45.505C64.5206 45.0084 64.4842 44.843 64.5435 44.829C64.6215 44.8097 64.6454 45.1472 64.6579 45.207C64.8517 46.1087 65.3077 46.933 65.9687 47.5762C66.6297 48.2194 67.4661 48.6529 68.3727 48.8221C68.4289 48.8325 68.548 48.8304 68.5885 48.8751C68.6811 48.9781 68.4669 48.9593 68.3811 48.9749Z" fill="#55C9F5"/>
<path d="M13.0682 12.46C12.7233 12.5237 12.4028 12.682 12.1425 12.9171C11.8822 13.1522 11.6924 13.455 11.594 13.7917C11.5285 14.0169 11.5441 14.227 11.4749 13.9155C11.3951 13.5499 11.2086 13.2163 10.9391 12.9568C10.6695 12.6974 10.329 12.5237 9.96069 12.4579C9.81977 12.433 9.85409 12.42 9.97577 12.3976C10.3495 12.3274 10.6935 12.1463 10.9629 11.8779C11.2323 11.6095 11.4147 11.2662 11.4864 10.8927C11.5202 10.7138 11.5228 10.7549 11.5607 10.9338C11.6393 11.2989 11.824 11.6327 12.0916 11.8931C12.3593 12.1535 12.698 12.3291 13.0651 12.3976C13.2091 12.4241 13.1837 12.4392 13.0682 12.46Z" fill="#2E9CFF"/>
<path d="M11.2227 65.2821C10.6559 65.3869 10.1294 65.6469 9.70176 66.0333C9.2741 66.4196 8.9621 66.9171 8.80051 67.4703C8.78075 67.5395 8.74331 67.9045 8.69651 67.9227C8.62475 67.9508 8.61539 67.7199 8.60499 67.6731C8.47375 67.0728 8.16739 66.5249 7.72466 66.0987C7.28193 65.6725 6.72273 65.3873 6.11783 65.279C6.08403 65.2733 6.00811 65.2769 5.98367 65.2494C5.92907 65.187 6.10275 65.1875 6.14227 65.1802C6.75618 65.0647 7.32115 64.7672 7.7637 64.3263C8.20625 63.8855 8.50591 63.3216 8.62371 62.7081C8.62891 62.679 8.63879 62.5313 8.66947 62.5241C8.72147 62.5116 8.73707 62.7357 8.74591 62.7757C8.8463 63.2411 9.05188 63.6772 9.34688 64.0509C9.64189 64.4245 10.0185 64.7256 10.4479 64.9311C11.0292 65.2088 11.3126 65.1631 11.3605 65.2161C11.4234 65.2858 11.2747 65.2733 11.2227 65.2821Z" fill="#122344"/>
<path d="M57.9357 21.7072C58.2462 21.9953 58.6856 22.1065 59.0902 21.9797C61.907 21.0983 66.313 19.1665 68.2292 17.0183C69.0934 16.0491 69.7065 14.8063 69.7106 13.5073C69.719 10.5053 66.6286 8.37803 63.7249 9.49915C62.4072 10.0077 61.0635 11.1377 60.6673 12.4938C60.7141 11.0862 60.452 9.73523 59.3772 8.82575C58.3023 7.91627 56.8032 7.53095 55.4221 7.80915C54.042 8.08735 52.8091 9.02387 52.171 10.2791C51.4368 11.7227 51.5039 13.4813 52.0701 14.9987C52.6364 16.516 53.6582 17.8223 54.7825 18.9886C55.7497 19.9917 56.9181 20.7629 57.9357 21.7072Z" fill="#122344"/>
<path d="M67.6115 14.814C67.5366 15.9206 66.8258 16.7557 66.0151 17.4541C63.9143 19.2611 61.3621 20.48 58.746 21.3931C57.0758 19.3349 54.7181 17.6018 53.7784 15.0408C53.3099 13.7694 53.2532 12.2993 53.8668 11.094C54.483 9.89224 55.8558 9.03996 57.1896 9.26356C58.0918 9.41332 58.8708 10.0139 59.4059 10.7518C59.9379 11.4818 60.3483 12.2931 60.6211 13.1542C60.6211 13.1636 60.6242 13.1698 60.6274 13.1786C60.6544 13.1324 60.682 13.0892 60.7121 13.046C61.28 12.3711 61.9664 11.6878 62.7739 11.3404C65.0713 10.3488 67.7992 12.0747 67.6115 14.814Z" fill="#122344"/>
<path d="M55.5746 10.7402C56.3469 10.034 56.6993 9.16218 56.3617 8.79298C56.0241 8.42378 55.1243 8.69698 54.352 9.40319C53.5797 10.1094 53.2273 10.9812 53.5649 11.3504C53.9025 11.7196 54.8022 11.4464 55.5746 10.7402Z" fill="white"/>
<path d="M53.1045 13.5375C53.4118 13.5375 53.6609 13.2884 53.6609 12.9811C53.6609 12.6738 53.4118 12.4247 53.1045 12.4247C52.7972 12.4247 52.5481 12.6738 52.5481 12.9811C52.5481 13.2884 52.7972 13.5375 53.1045 13.5375Z" fill="white"/>
<path d="M63.6199 26.8937C63.7863 27.1173 64.0577 27.2421 64.3349 27.2093C66.2656 26.9764 69.3529 26.2546 70.852 25.0929C73.8098 22.8023 71.6965 19.1457 68.8375 19.6802C67.9229 19.8518 66.9167 20.4223 66.4975 21.2527C66.6962 20.3469 66.6889 19.44 66.1023 18.7214C65.8051 18.3632 65.432 18.0757 65.0099 17.8796C64.5878 17.6835 64.1274 17.5838 63.662 17.5878C61.6974 17.6184 60.1998 19.4161 60.6262 21.8429C60.8108 22.8933 61.3157 23.8631 61.9039 24.7534C62.4098 25.5193 63.0739 26.1594 63.6199 26.8937Z" fill="#3B6EFF"/>
<path d="M69.366 25.109C67.7872 26.0274 65.9875 26.5104 64.1831 26.7876C63.348 25.2536 62.0288 23.847 61.7277 22.0754C61.5769 21.1955 61.7173 20.2361 62.2596 19.5289C62.803 18.8243 63.7947 18.4369 64.6324 18.7422C65.1987 18.9476 65.6308 19.4306 65.8892 19.973C66.144 20.5102 66.3167 21.0842 66.3874 21.6755C66.3864 21.6812 66.3874 21.6859 66.389 21.6921C66.6178 21.4285 67.3853 20.8986 68.0004 20.7592C70.2895 20.2372 72.2665 23.4175 69.366 25.109Z" fill="#2E9CFF"/>
<path d="M63.4052 19.4933C63.9904 19.1286 64.3234 18.6062 64.1491 18.3264C63.9747 18.0466 63.3589 18.1154 62.7737 18.4801C62.1885 18.8447 61.8555 19.3672 62.0298 19.647C62.2042 19.9268 62.82 19.858 63.4052 19.4933Z" fill="white"/>
<path d="M61.539 21.0265C61.7414 21.0265 61.9056 20.8624 61.9056 20.6599C61.9056 20.4575 61.7414 20.2933 61.539 20.2933C61.3365 20.2933 61.1724 20.4575 61.1724 20.6599C61.1724 20.8624 61.3365 21.0265 61.539 21.0265Z" fill="white"/>
</svg>
