<svg width="46" height="46" viewBox="0 0 46 46" fill="none" xmlns="http://www.w3.org/2000/svg">
<rect x="0.427002" y="0.581299" width="45" height="45" rx="22.5" fill="#0A3669"/>
<rect x="0.427002" y="0.581299" width="45" height="45" rx="22.5" fill="white"/>
<rect x="0.427002" y="0.581299" width="45" height="45" rx="22.5" fill="#132344"/>
<g clip-path="url(#clip0_28_4469)">
<path d="M31.9057 15.4252C31.8667 14.7102 31.298 14.1416 30.583 14.1025C29.1403 14.0237 26.3171 14.1004 23.6175 15.4967C22.2413 16.2085 20.7859 17.4154 19.6243 18.8079C19.61 18.825 19.5961 18.8423 19.5819 18.8595L16.9459 19.0631C16.512 19.0967 16.1255 19.3241 15.8855 19.687L14.0871 22.4072C13.9051 22.6824 13.8762 23.0269 14.0097 23.3287C14.1432 23.6305 14.4176 23.8408 14.7437 23.8913L16.9645 24.2352C16.9567 24.2784 16.9488 24.3216 16.9416 24.3647C16.8677 24.807 17.0142 25.2617 17.3336 25.5811L20.4271 28.6746C20.6919 28.9394 21.0498 29.0854 21.4165 29.0854C21.492 29.0854 21.5679 29.0792 21.6435 29.0666C21.6867 29.0594 21.7298 29.0515 21.773 29.0437L22.1169 31.2646C22.1675 31.5906 22.3778 31.865 22.6795 31.9985C22.805 32.0541 22.9379 32.0815 23.0701 32.0815C23.2559 32.0815 23.4403 32.0274 23.601 31.9211L26.3211 30.1227C26.6841 29.8827 26.9115 29.4962 26.945 29.0623L27.1486 26.4264C27.1658 26.4122 27.1831 26.3982 27.2003 26.3839C28.5928 25.2224 29.7997 23.7669 30.5115 22.3907C31.9079 19.691 31.9844 16.8678 31.9057 15.4252ZM25.7395 29.2429L23.1375 30.9632L22.8023 28.7988C23.902 28.4754 24.9898 27.9576 26.0262 27.2639L25.8935 28.9811C25.8853 29.0882 25.8291 29.1836 25.7395 29.2429ZM21.1729 27.9288L18.0794 24.8353C18.0004 24.7564 17.9639 24.6454 17.9818 24.5386C18.0738 23.9887 18.2167 23.4651 18.3936 22.972L23.0352 27.6136C22.4429 27.8258 21.9124 27.9523 21.4696 28.0264C21.3626 28.0441 21.2518 28.0078 21.1729 27.9288ZM17.0271 20.1147L18.7443 19.982C18.0505 21.0184 17.5327 22.1063 17.2093 23.2059L15.045 22.8707L16.7653 20.2687C16.8246 20.1791 16.92 20.1229 17.0271 20.1147ZM26.5248 25.574C25.6728 26.2846 24.8458 26.7986 24.0836 27.1705L18.8375 21.9244C19.3247 20.9294 19.9193 20.1008 20.4342 19.4835C21.5091 18.1948 22.846 17.0832 24.1021 16.4335C26.5797 15.1519 29.1901 15.0829 30.5256 15.1556C30.7024 15.1652 30.843 15.3058 30.8526 15.4826C30.9254 16.8182 30.8563 19.4285 29.5747 21.9061C28.9251 23.1622 27.8134 24.4991 26.5248 25.574Z" fill="white"/>
<path d="M26.257 22.3868C26.9321 22.3867 27.6074 22.1297 28.1214 21.6157C28.6194 21.1178 28.8936 20.4556 28.8936 19.7514C28.8936 19.0471 28.6194 18.385 28.1214 17.887C27.0933 16.8589 25.4206 16.859 24.3926 17.887C23.8946 18.385 23.6204 19.0471 23.6204 19.7514C23.6204 20.4556 23.8947 21.1178 24.3926 21.6157C24.9067 22.1298 25.5817 22.3868 26.257 22.3868ZM25.1383 18.6327C25.4467 18.3243 25.8518 18.1701 26.2569 18.1701C26.6621 18.1701 27.0672 18.3243 27.3756 18.6327C27.6744 18.9315 27.8389 19.3288 27.8389 19.7513C27.8389 20.1739 27.6744 20.5712 27.3756 20.87C26.7588 21.4868 25.7551 21.4868 25.1383 20.87C24.8395 20.5712 24.6749 20.1739 24.6749 19.7514C24.6749 19.3288 24.8395 18.9315 25.1383 18.6327Z" fill="white"/>
<path d="M14.4648 28.9151C14.5998 28.9151 14.7348 28.8636 14.8377 28.7606L16.5594 27.0389C16.7653 26.833 16.7653 26.4991 16.5594 26.2931C16.3535 26.0872 16.0196 26.0872 15.8136 26.2931L14.092 28.0148C13.886 28.2208 13.886 28.5547 14.092 28.7606C14.1949 28.8636 14.3299 28.9151 14.4648 28.9151Z" fill="white"/>
<path d="M18.1373 27.871C17.9314 27.6651 17.5975 27.6651 17.3916 27.871L14.0815 31.1811C13.8755 31.3871 13.8755 31.721 14.0815 31.9269C14.1844 32.0299 14.3194 32.0814 14.4543 32.0814C14.5893 32.0814 14.7243 32.0299 14.8272 31.9269L18.1373 28.6168C18.3433 28.4108 18.3433 28.077 18.1373 27.871Z" fill="white"/>
<path d="M18.9692 29.4488L17.2475 31.1705C17.0415 31.3764 17.0415 31.7103 17.2475 31.9162C17.3504 32.0192 17.4854 32.0707 17.6203 32.0707C17.7553 32.0707 17.8903 32.0193 17.9932 31.9162L19.7149 30.1945C19.9209 29.9886 19.9209 29.6547 19.7149 29.4488C19.509 29.2428 19.1751 29.2428 18.9692 29.4488Z" fill="white"/>
</g>
<defs>
<clipPath id="clip0_28_4469">
<rect width="18" height="18" fill="white" transform="translate(13.927 14.0813)"/>
</clipPath>
</defs>
</svg>
