<svg width="110" height="110" viewBox="0 0 110 110" fill="none" xmlns="http://www.w3.org/2000/svg">
<g clip-path="url(#clip0_28_4183)">
<path d="M95.6061 16.8605C94.7166 13.0867 91.6973 9.84235 87.9644 8.75813C86.4876 8.32852 84.965 8.2464 83.4952 8.51894C79.0042 9.35705 76.0822 12.7976 74.155 16.6027L74.0472 15.8459C73.9828 15.3933 73.8297 14.9578 73.5965 14.5645C73.3633 14.1712 73.0546 13.8279 72.6883 13.5543C72.322 13.2807 71.9052 13.0823 71.4619 12.9703C71.0186 12.8584 70.5575 12.8352 70.1052 12.902L66.8913 13.3764C66.1553 11.5136 64.9604 10.0703 62.8529 10.151C62.6055 10.161 62.3597 10.1963 62.1194 10.2562C61.0535 10.5246 59.324 11.4326 59.3226 14.4947L58.9836 14.5445C58.2562 12.5822 57.0353 10.9615 54.845 11.0453C54.5978 11.0554 54.3523 11.0907 54.1122 11.1505C52.7726 11.487 51.225 12.55 51.3204 15.6762L51.0894 15.7104C50.3599 13.7813 49.1435 12.1925 46.9774 12.2755C46.7292 12.2858 46.4827 12.3212 46.2417 12.3811C45.1569 12.6549 43.3938 13.5932 43.4503 16.7949C42.7129 14.9483 41.5197 13.5239 39.4251 13.6042C39.1779 13.6143 38.9324 13.6496 38.6924 13.7095C37.6252 13.9774 35.8941 14.8868 35.8945 17.9544L35.6252 17.9944C34.8889 16.1417 33.6953 14.7072 31.5943 14.7878C31.3461 14.7981 31.0996 14.8335 30.8586 14.8936C29.7956 15.1618 28.0721 16.0666 28.064 19.1114L26.7805 19.3008C26.0433 17.472 24.8537 16.0585 22.7691 16.1384C22.5206 16.1486 22.2738 16.1842 22.0326 16.2445C20.9755 16.5114 19.2627 17.4089 19.2386 20.4146L17.8282 20.623C17.1342 19.1469 15.987 17.836 14.0113 17.9118C13.7656 17.9218 13.5215 17.9567 13.2828 18.0159C12.4742 18.218 10.6923 18.9734 10.4958 21.7056L8.83058 21.9517C8.04578 22.0676 7.3244 22.4489 6.78662 23.0321C6.24884 23.6154 5.92714 24.3652 5.87513 25.1569C5.27162 25.5089 4.78845 26.0349 4.48884 26.6661C4.18923 27.2973 4.08715 28.0042 4.19594 28.6944L15.8274 102.472C15.9001 102.933 16.0653 103.375 16.3129 103.771C16.5605 104.167 16.8855 104.509 17.2685 104.776C17.6514 105.044 18.0844 105.231 18.5415 105.327C18.9986 105.423 19.4704 105.426 19.9285 105.335L64.2664 96.5624C65.3722 96.8261 66.5208 96.9369 67.6934 96.8921C69.2265 96.8334 70.7184 96.5131 72.1293 95.9404C73.139 95.5286 74.1084 95.0244 75.0253 94.4342L81.1429 93.2235C82.715 92.9125 83.8322 91.582 83.9322 90.0478C85.1482 89.3388 85.8539 87.9283 85.6038 86.4649L83.2244 72.5592C83.9074 71.9168 84.3991 71.0978 84.645 70.193C85.0018 68.8865 84.8288 67.5189 84.1576 66.3424C83.9915 66.0511 83.7972 65.7767 83.5777 65.5232C84.544 62.8807 85.365 60.2467 86.1274 57.7611L86.48 56.6079C87.0785 54.6487 87.6979 52.6226 88.3507 50.6626C90.3935 44.5293 92.2786 37.9189 94.1139 30.4541C94.2552 29.8798 94.4095 29.2954 94.5653 28.7036C95.5138 25.1055 96.5887 21.0277 95.6061 16.8605Z" fill="#2E9CFF"/>
<path d="M71.509 37.448L68.8979 19.1043L7.6233 28.1542L19.2551 101.931L80.4695 89.8196L71.509 37.448Z" fill="#1284AB"/>
<path d="M73.2231 34.6783L70.612 16.3346L9.33741 25.3844L20.9692 99.1617L82.1836 87.0499L73.2231 34.6783Z" fill="#2E9CFF"/>
<path d="M79.0481 68.7243C73.3067 67.7093 67.4321 67.447 61.6263 67.9851C53.5801 68.7308 45.0635 70.8949 37.7144 67.5349C30.4266 64.2029 26.4351 56.355 23.5852 48.8653C20.5541 40.8992 18.1883 32.6811 16.507 24.3255L9.33723 25.3844L20.9692 99.1617L82.1836 87.0499L79.0481 68.7243Z" fill="#122344"/>
<path d="M15.5005 29.7152C15.8414 29.6887 15.9669 27.7543 15.5793 25.4217C15.1963 23.0886 14.4557 21.2972 14.1244 21.3816C13.7853 21.4669 13.9705 23.3501 14.3437 25.6257C14.7218 27.9008 15.152 29.7434 15.5005 29.7152ZM24.2586 27.9418C24.5994 27.9153 24.7249 25.9808 24.3373 23.6483C23.9543 21.3151 23.2137 19.5236 22.8825 19.6082C22.5433 19.6935 22.7285 21.5766 23.1017 23.8523C23.48 26.1273 23.91 27.9702 24.2586 27.9418ZM33.0839 26.5913C33.4248 26.5648 33.5501 24.6304 33.1627 22.2978C32.7798 19.9646 32.0391 18.1731 31.7078 18.2577C31.3687 18.343 31.5539 20.2262 31.9271 22.5018C32.3052 24.7769 32.7352 26.6197 33.0839 26.5913ZM40.9144 25.4078C41.2553 25.3814 41.3808 23.4469 40.9932 21.1144C40.6101 18.7812 39.8696 16.9896 39.5383 17.0742C39.1992 17.1596 39.3844 19.0427 39.7574 21.3184C40.1358 23.5932 40.5659 25.4361 40.9144 25.4078ZM48.4667 24.0793C48.8076 24.0528 48.933 22.1184 48.5455 19.7858C48.1624 17.4527 47.4219 15.6611 47.0906 15.7457C46.7514 15.831 46.9367 17.7142 47.3097 19.9898C47.6881 22.2647 48.1181 24.1075 48.4667 24.0793ZM56.3343 22.8489C56.6752 22.8224 56.8006 20.8879 56.413 18.5554C56.03 16.2222 55.2895 14.4308 54.9582 14.5153C54.619 14.6006 54.8043 16.4837 55.1772 18.7594C55.5557 21.0344 55.9857 22.8771 56.3343 22.8489ZM64.3423 21.9547C64.6831 21.9283 64.8084 19.9938 64.421 17.6613C64.0382 15.3281 63.2974 13.5365 62.9662 13.6211C62.627 13.7065 62.8122 15.5896 63.1854 17.8652C63.5637 20.1403 63.9937 21.983 64.3423 21.9547ZM65.3563 45.571C65.2803 45.2335 54.9588 47.2725 42.3027 50.1253C29.647 52.9778 19.4488 55.5638 19.5248 55.9011C19.6009 56.2385 29.9223 54.1995 42.5781 51.347C55.2342 48.4945 65.4323 45.9083 65.3563 45.571Z" fill="#122344"/>
<path d="M26.1583 54.855C26.0267 54.5878 25.8971 54.3197 25.77 54.0504C21.8669 55.0454 19.4882 55.7376 19.5251 55.9013C19.5625 56.0674 22.09 55.6562 26.1583 54.855Z" fill="#122344"/>
<path d="M60.7264 48.2709C60.6459 47.9346 53.5274 49.3495 44.8268 51.4312C36.1263 53.5128 29.1383 55.4731 29.2188 55.8094C29.2993 56.1457 36.4178 54.7308 45.1182 52.6491C53.8188 50.5674 60.8069 48.6072 60.7264 48.2709Z" fill="#122344"/>
<path d="M26.3806 41.8419C27.8255 38.7012 29.4195 35.6312 31.157 32.6424C31.7945 31.5458 30.0607 30.6288 29.4273 31.7184C27.4922 35.0475 25.7512 38.4716 24.1813 41.9822L22.3959 32.5962C22.1601 31.3575 20.2929 31.9609 20.5265 33.1892L23.8641 50.7349C24.0997 51.9736 25.9671 51.3701 25.7335 50.1416L24.81 45.2868C24.8743 45.2134 24.9332 45.1289 24.9787 45.0207C25.1613 44.5882 25.3583 44.163 25.5462 43.7333L32.0301 49.6333C32.9656 50.4846 34.2987 49.0469 33.3625 48.1948C31.0351 46.0773 28.7078 43.9597 26.3806 41.8419ZM43.2496 46L37.5956 46.8632L36.1289 38.1405L38.8257 37.654C39.3526 37.5589 39.6093 36.882 39.4638 36.4227C39.2872 35.865 38.7581 35.6898 38.2325 35.7847L35.8062 36.2224L35.0449 31.6956L40.3536 30.7003C41.5928 30.4681 40.9889 28.6007 39.7606 28.831L33.7368 29.9604C33.3621 30.0306 33.1584 30.2511 33.0871 30.5172C32.9842 30.6711 32.9348 30.8718 32.9771 31.1237L35.7861 47.8272C35.7994 47.9064 35.8204 47.9796 35.8472 48.048C35.8352 48.564 36.16 49.0531 36.813 48.9534L43.3245 47.9591C44.5594 47.7706 44.4983 45.8093 43.2496 46ZM53.8389 44.3817C51.6357 44.844 49.4192 45.1996 47.1853 45.4653L45.6173 35.6475L49.3774 35.0116C50.6059 34.8039 50.5464 32.8421 49.3025 33.0525L45.3106 33.7276L44.6303 29.4675L49.5629 28.5687C50.8026 28.3429 50.1982 26.4756 48.9696 26.6994L43.048 27.7784C42.2484 27.9239 42.2186 28.7503 42.6259 29.2603L45.3482 46.3061C45.3766 46.489 45.4539 46.6608 45.5719 46.8033C45.6512 47.224 45.9734 47.5742 46.5301 47.5134C49.183 47.2218 51.82 46.8005 54.4317 46.2511C55.6676 45.9916 55.0663 44.1242 53.8389 44.3817ZM54.3781 24.521C53.7238 24.7075 53.5968 25.334 53.8055 25.8199C53.7977 25.8979 53.7968 25.9804 53.81 26.0709L56.5825 45.129C56.7626 46.3666 58.7237 46.3045 58.5416 45.0541L57.5321 38.115C61.4574 37.4865 64.1517 34.0077 63.5188 29.911C62.8529 25.6007 58.3407 23.3912 54.3781 24.521ZM57.2497 36.1727L55.8017 26.2202C58.2733 25.8783 60.5349 27.1752 61.4439 29.6253C62.6098 32.7677 60.2117 35.6422 57.2497 36.1727Z" fill="#C9CF74"/>
<path d="M15.5006 29.7152C15.8414 29.6888 15.9669 27.7543 15.5793 25.4218C15.528 25.1093 15.4688 24.7981 15.4016 24.4886L14.1945 24.667C14.2415 24.987 14.2911 25.3066 14.3435 25.6258C14.7218 27.9007 15.1518 29.7435 15.5006 29.7152Z" fill="#122344"/>
<path d="M23.5855 48.8651C23.5326 48.7263 23.4815 48.5867 23.4292 48.4478L23.8642 50.7349C23.9509 51.1905 24.2584 51.3961 24.6007 51.414C24.2487 50.5699 23.9102 49.7201 23.5855 48.8651Z" fill="#9DCE76"/>
<path d="M24.1194 74.7274L30.5248 73.5958C31.7652 73.3765 31.1601 71.5094 29.9315 71.7265L24.6169 72.6653L22.7131 59.3642C22.5358 58.1255 20.5748 58.1881 20.7539 59.4391L22.7794 73.59C22.797 73.708 22.8344 73.8222 22.8902 73.9276C23.0304 74.4062 23.4929 74.838 24.1194 74.7274Z" fill="#FFF2FF"/>
<path d="M35.6756 65.4414C35.2776 68.034 33.2326 70.674 30.4112 69.2593C29.0661 68.5849 28.4318 66.9856 28.12 65.6129C28.0842 65.4507 28.0558 65.287 28.0349 65.1223L35.5508 63.5406C36.1131 63.4223 36.2919 62.9714 36.2075 62.5391C36.2859 62.3558 36.3097 62.1405 36.2452 61.8992C35.3527 58.5557 31.6695 57.3106 28.733 58.8755C26.4177 60.1096 25.8375 63.2053 26.1386 65.5659C26.4455 67.9723 27.9161 70.634 30.3784 71.3719C34.1798 72.5113 37.0429 69.4204 37.5848 65.89C37.7757 64.6466 35.8674 64.1926 35.6756 65.4414ZM28.9247 61.2806C30.3337 59.4081 33.1192 59.9461 34.1169 61.8482L28.1225 63.1097C28.2682 62.4428 28.5284 61.8073 28.9247 61.2806ZM41.2489 69.9665C40.9387 68.3846 40.2803 65.9371 40.0862 63.5639C42.4959 63.1703 44.89 62.7017 47.2689 62.1514C47.9501 64.592 48.3064 67.1618 48.4766 68.1579C48.6865 69.3857 50.6483 69.3264 50.4358 68.083C49.7257 63.9272 48.6949 53.933 42.4416 55.0455C40.359 55.4159 39.0219 57.608 38.4853 59.4521C37.4695 62.9428 38.7039 67.1159 39.3794 70.5598C39.6224 71.7975 41.4897 71.1946 41.2489 69.9665ZM42.632 57.0408C44.4737 56.2115 45.763 57.9368 46.6609 60.2861C44.4722 60.7936 42.2679 61.2309 40.0512 61.5972C40.1696 59.5888 40.8377 57.8487 42.632 57.0408ZM61.6208 64.5061L57.7608 60.8686C59.1267 59.6976 60.0638 58.178 59.6565 56.4986C58.7446 52.7394 53.7166 52.6507 50.9304 54.092C50.5721 54.2774 50.4379 54.5717 50.4551 54.8678C50.4204 54.9832 50.4075 55.1146 50.4261 55.2639L51.9398 67.3524C52.0958 68.597 54.0562 68.5325 53.8991 67.2774L53.379 63.1239C54.1888 62.9376 55.1699 62.553 56.1175 62.014L60.2884 65.9445C61.2098 66.8126 62.5414 65.3735 61.6208 64.5061ZM52.4318 55.5603C54.2203 54.9491 58.1016 54.858 57.7223 57.4316C57.5817 58.3862 56.89 59.1858 56.0163 59.8124C55.8163 59.8685 55.6359 59.9911 55.4992 60.1527C54.7194 60.6205 53.8608 60.9635 53.1338 61.1657L52.4318 55.5603ZM30.0668 75.5031C30.4299 78.3984 30.6366 81.309 30.9175 84.2123C28.8554 81.794 26.8171 79.3585 25.0401 76.7154C24.7758 76.3222 24.377 76.2248 24.0193 76.3119C23.6503 76.364 23.3226 76.5985 23.2485 77.0096C23.2471 77.0141 23.2465 77.0189 23.2453 77.0234C23.2428 77.0392 23.2388 77.0541 23.2369 77.0703C23.2096 77.1992 23.2135 77.3327 23.2483 77.4597L24.2305 89.3903C24.3339 90.6465 26.2936 90.5769 26.1898 89.3153L25.4769 80.6562C27.4123 83.1711 29.5169 85.5532 31.5679 87.9778C31.904 88.375 32.3243 88.3593 32.6483 88.1409C33.0057 88.0242 33.2758 87.7173 33.2137 87.2212C32.7218 83.2999 32.518 79.3498 32.0261 75.4286C31.8699 74.1838 29.9093 74.2481 30.0668 75.5031ZM36.2157 76.0292C36.025 74.7949 34.0637 74.856 34.2566 76.1041L35.8003 86.1018C35.991 87.3361 37.9522 87.275 37.7596 86.0268L36.2157 76.0292ZM44.9468 72.7219C45.5521 75.5842 45.8742 78.4825 46.1505 81.3884C43.9792 79.0712 41.8568 76.7108 39.8448 74.2507C39.8284 74.2307 39.8097 74.2166 39.7926 74.1983C39.3698 73.6675 38.4262 73.7239 38.1295 74.3239C37.9732 74.5439 37.923 74.8198 38.0626 75.1039C38.3463 78.865 38.7836 82.613 39.3733 86.3384C39.5687 87.5711 41.5301 87.5105 41.3324 86.2635C40.8853 83.4408 40.5257 80.605 40.2541 77.7602C42.3403 80.181 44.5101 82.526 46.7207 84.8376C47.0637 85.1963 47.4748 85.1901 47.7972 84.9985C48.1461 84.8749 48.4119 84.5681 48.3665 84.081C47.9933 80.074 47.65 76.0723 46.8161 72.1288C46.5547 70.8936 44.6872 71.4947 44.9468 72.7219ZM57.8961 73.9414C57.6814 73.645 57.3156 73.4725 56.8612 73.6304L52.2704 75.224C51.0794 75.6374 51.6659 77.5089 52.8636 77.0933L56.4882 75.8351C56.8457 77.3202 56.9336 78.8024 56.1809 80.2299C54.868 82.7204 52.243 81.4359 50.9982 79.7506C49.0372 77.0955 49.9396 70.4351 54.3741 71.6095C55.5996 71.934 56.0412 70.023 54.8227 69.7004C48.2341 67.9555 46.2836 77.5199 49.8841 81.5095C51.6183 83.4313 54.4138 84.5123 56.6207 82.6256C59.1401 80.4717 58.9869 77.258 58.1079 74.3247C58.0606 74.1665 57.9866 74.0407 57.8961 73.9414Z" fill="#FFF2FF"/>
<path d="M78.6298 68.5479C81.3433 62.404 82.9426 55.9194 85.0588 49.5659C87.2438 43.0059 89.0942 36.3383 90.7449 29.6252C91.6786 25.8273 93.1578 21.5952 92.2291 17.6567C91.3999 14.1401 87.825 11.241 84.132 11.9299C77.7787 13.1152 75.3471 22.3468 74.1665 27.6533C71.3393 40.3612 70.3352 53.0828 69.1758 65.9777C72.3347 66.8819 75.4381 67.6558 78.5561 68.7142L78.6298 68.5479Z" fill="#122344"/>
<path d="M90.7447 29.6252C91.6784 25.8273 93.1577 21.5952 92.229 17.6567C91.6196 15.0722 89.5252 12.827 86.9927 12.089C86.3934 13.2873 85.9169 14.5596 85.5478 15.8179C83.7264 22.0279 83.5922 28.5832 83.0179 35.0291C82.4437 41.475 81.3411 48.0894 77.8723 53.5526C75.8901 56.6748 72.9671 59.3395 69.6317 60.8772C69.4793 62.5747 69.3289 64.2746 69.1757 65.9777C72.3345 66.8819 75.4381 67.6558 78.5559 68.7142C78.5806 68.6588 78.6053 68.6033 78.6296 68.5479C81.3433 62.404 82.9424 55.9194 85.0587 49.566C87.2437 43.0059 89.0941 36.3383 90.7447 29.6252Z" fill="#122344"/>
<path d="M79.334 23.8994C79.5334 23.9571 79.8661 23.4119 80.0774 22.6818C80.2887 21.9515 80.2984 21.3129 80.099 21.2552C79.8996 21.1975 79.5669 21.7428 79.3556 22.4729C79.1443 23.2031 79.1346 23.8417 79.334 23.8994Z" fill="#340E74"/>
<path d="M87.7104 26.3234C87.9098 26.3811 88.2426 25.836 88.4539 25.1057C88.6652 24.3756 88.6749 23.7368 88.4755 23.6792C88.2761 23.6215 87.9433 24.1665 87.7321 24.8968C87.5208 25.6271 87.5111 26.2659 87.7104 26.3234Z" fill="#2A0E68"/>
<path d="M85.0226 24.5653C84.9147 24.5521 84.8125 24.7806 84.5685 25.0065C84.3254 25.2379 83.9411 25.4297 83.497 25.324C83.0506 25.2286 82.7907 24.8912 82.6775 24.5771C82.5606 24.2683 82.5771 24.0194 82.4758 23.9803C82.3928 23.9372 82.1547 24.1629 82.1522 24.6574C82.1578 24.9501 82.253 25.234 82.4251 25.4709C82.6232 25.7506 82.9541 25.9717 83.3316 26.057C83.7091 26.1421 84.1016 26.0849 84.4003 25.9206C84.657 25.7831 84.8666 25.5718 85.0021 25.3139C85.2197 24.8739 85.1162 24.5671 85.0226 24.5653Z" fill="#340E74"/>
<path d="M85.0226 24.5653C84.9147 24.5521 84.8125 24.7806 84.5685 25.0065C84.3254 25.2379 83.9411 25.4297 83.497 25.324C83.0506 25.2286 82.7907 24.8912 82.6775 24.5771C82.5606 24.2683 82.5771 24.0194 82.4758 23.9803C82.3928 23.9372 82.1547 24.1629 82.1522 24.6574C82.1578 24.9501 82.253 25.234 82.4251 25.4709C82.6232 25.7506 82.9541 25.9717 83.3316 26.057C83.7091 26.1421 84.1016 26.0849 84.4003 25.9206C84.657 25.7831 84.8666 25.5718 85.0021 25.3139C85.2197 24.8739 85.1162 24.5671 85.0226 24.5653Z" fill="#340E74"/>
<path d="M84.4001 25.9204C84.6568 25.7829 84.8665 25.5716 85.0019 25.3138C85.2197 24.8737 85.1163 24.567 85.0226 24.5653C84.9147 24.5521 84.8125 24.7806 84.5685 25.0065C84.3853 25.1809 84.122 25.3325 83.8133 25.3515C83.7878 25.5989 83.7647 25.8468 83.7407 26.0947C83.9798 26.0862 84.2093 26.0256 84.4001 25.9204Z" fill="#2A0E68"/>
<path d="M70.6873 64.9052C69.3848 66.0646 67.7461 66.7626 66.2763 67.7009C63.9031 69.2161 61.9288 71.4393 61.0026 74.0985C60.0764 76.7577 60.2828 79.8545 61.8182 82.2149C62.8891 83.8609 64.5822 85.1865 65.0227 87.1003C65.4794 89.0849 64.229 91.314 62.2971 91.9587C64.7309 93.6714 68.0661 93.8455 70.8235 92.7257C74.7277 91.1403 77.8923 87.7692 79.2075 83.763C79.8409 81.8334 79.8627 79.7065 79.9309 77.6943C79.9916 75.8995 79.672 74.0904 78.9948 72.4268C78.692 71.6831 78.2552 71.1407 78.1415 70.3536C77.9772 69.2169 78.1187 68.0287 78.5371 66.9606" fill="#F79C3D"/>
<path d="M64.0631 90.4686C64.0839 90.5034 64.4521 90.3548 64.9599 89.8609C65.4562 89.3663 66.0449 88.4808 66.3522 87.2511C66.6852 86.0259 66.6604 84.4901 66.4146 82.8849C66.1767 81.2691 65.7933 79.5608 65.7525 77.7362C65.6902 75.9151 65.9188 74.1802 66.3969 72.688C66.873 71.1961 67.5978 69.9583 68.3461 69.0383C68.9391 68.3059 69.6289 67.6574 70.3964 67.1107C70.9454 66.7244 71.2764 66.5403 71.2517 66.4862C71.2344 66.4459 70.8595 66.5399 70.2428 66.8618C69.6318 67.1871 68.7844 67.7636 67.9425 68.6927C67.1017 69.616 66.2821 70.8992 65.7399 72.4695C65.1967 74.0356 64.9366 75.8635 65.0016 77.7593C65.0452 79.6629 65.4641 81.4292 65.7308 82.9916C66.007 84.5603 66.079 85.9781 65.8344 87.1332C65.6116 88.2929 65.1401 89.1448 64.7404 89.6677C64.3309 90.188 64.0265 90.4182 64.0631 90.4686ZM63.2317 81.2144C63.339 81.1862 63.2082 80.4354 63.0769 79.2314C62.9473 78.0306 62.8415 76.3583 63.1254 74.5612C63.4083 72.7657 64.0685 71.2331 64.6908 70.2174C65.3077 69.1931 65.8337 68.6423 65.7527 68.5572C65.6958 68.4887 65.0228 68.9121 64.2513 69.9187C63.4774 70.9122 62.6835 72.5295 62.3833 74.4428C62.0819 76.3545 62.2836 78.1063 62.5526 79.3169C62.8242 80.5344 63.1389 81.2401 63.2317 81.2144Z" fill="#FFE97B"/>
<path d="M63.6293 91.5476C63.6172 91.5799 64.0554 91.7515 64.8435 91.5804C65.621 91.4185 66.6905 90.8317 67.5854 89.731C68.5028 88.6502 69.2309 87.0717 69.5684 85.2523C69.9325 83.4323 69.9025 81.3871 69.7695 79.308C69.6435 77.2248 69.5123 75.2591 69.7061 73.4996C69.8825 71.7486 70.4154 70.2225 71.0907 69.0826C71.763 67.9348 72.5665 67.1907 73.1727 66.7595C73.7851 66.3316 74.1787 66.1672 74.1546 66.1061C74.1435 66.0704 73.7103 66.1406 73.0171 66.5119C72.3325 66.8853 71.4131 67.6187 70.6395 68.8021C69.8627 69.9756 69.2432 71.5771 69.0182 73.4202C68.7776 75.2568 68.8945 77.2774 69.0193 79.3513C69.152 81.4276 69.1975 83.3868 68.8872 85.1281C68.6008 86.8684 67.9708 88.3529 67.1698 89.3999C66.3841 90.4691 65.4559 91.0646 64.7637 91.299C64.0667 91.5411 63.6326 91.4794 63.6293 91.5476Z" fill="#FFE97B"/>
<path d="M74.5615 67.5533C74.5505 67.5221 74.0832 67.7063 73.6345 68.437C73.4176 68.7994 73.2394 69.2908 73.1331 69.8724C73.0234 70.454 72.9912 71.1239 72.999 71.8521C73.0338 73.2994 73.0635 74.999 73.0078 76.8967C72.9444 78.7876 72.8512 80.8826 72.5592 83.0297C72.2656 85.1731 71.6671 87.1656 70.6691 88.7155C69.6862 90.2628 68.2672 91.2557 66.9759 91.747C66.3925 91.9714 65.7806 92.1128 65.1579 92.167C64.6068 92.2108 64.1298 92.161 63.7444 92.0948C62.9753 91.9443 62.5743 91.7328 62.5431 91.7953C62.5244 91.8223 62.8803 92.1278 63.6757 92.3791C64.1625 92.5212 64.6675 92.5912 65.1747 92.587C65.7671 92.5783 66.4441 92.4823 67.1539 92.2477C68.5648 91.7876 70.1427 90.7597 71.2479 89.0956C72.3548 87.4505 73.0016 85.3398 73.3031 83.1365C73.857 78.7229 73.7364 74.7091 73.5301 71.8348C73.4323 70.4148 73.5612 69.2744 73.8939 68.5727C74.2215 67.8692 74.6073 67.6053 74.5615 67.5533ZM73.6413 90.5324C73.6691 90.5629 73.9643 90.3807 74.386 89.9238C74.8075 89.4699 75.329 88.7166 75.7462 87.6806C76.161 86.6458 76.4517 85.3362 76.5262 83.8724C76.605 82.4056 76.457 80.8112 76.2674 79.1667C76.0773 77.5232 75.8888 75.9709 75.8848 74.5659C75.876 73.161 76.0418 71.9016 76.3183 70.8821C76.8697 68.8246 77.8349 67.8256 77.7264 67.7455C77.6957 67.7168 77.4165 67.9216 77.0286 68.4067C76.6405 68.8888 76.1704 69.6724 75.8101 70.7273C75.4517 71.7812 75.2221 73.0984 75.1926 74.5602C75.1585 76.0248 75.3315 77.6115 75.5211 79.2522C75.7105 80.8915 75.8731 82.4445 75.8345 83.8458C75.8004 85.2472 75.5773 86.4974 75.2471 87.4988C74.5858 89.5224 73.537 90.4444 73.6413 90.5324Z" fill="#FFE97B"/>
<path d="M79.331 70.3997L67.8481 67.2595C67.6453 67.204 67.4554 67.1091 67.2892 66.9803C67.1231 66.8514 66.9839 66.6911 66.8797 66.5085C66.7756 66.3259 66.7084 66.1245 66.682 65.9159C66.6557 65.7073 66.6706 65.4955 66.7261 65.2927C66.7816 65.0899 66.8764 64.9 67.0052 64.7338C67.1341 64.5676 67.2944 64.4285 67.477 64.3243C67.6597 64.2201 67.861 64.1529 68.0696 64.1265C68.2782 64.1001 68.49 64.1151 68.6928 64.1706L80.1757 67.3109C80.5799 67.4276 80.922 67.6988 81.1278 68.0657C81.3337 68.4327 81.3869 68.8659 81.2759 69.2717C81.1649 69.6775 80.8987 70.0234 80.5347 70.2345C80.1708 70.4456 79.7384 70.5049 79.331 70.3997Z" fill="#BF34BC"/>
<path d="M88.4081 14.5534C88.4933 14.4136 88.1584 13.9995 87.4105 13.6197C86.6737 13.2405 85.498 12.943 84.2029 13.1111C82.9076 13.2779 81.8463 13.8643 81.2302 14.4186C80.6034 14.9759 80.3847 15.4616 80.5027 15.5752C80.7512 15.829 82.2193 14.6133 84.3634 14.3532C86.5035 14.0595 88.2323 14.862 88.4081 14.5534ZM80.1529 16.4966C79.9703 16.2071 79.294 16.3115 78.7964 16.8874C78.2982 17.4626 78.2922 18.147 78.6052 18.286C78.9225 18.4315 79.3716 18.1305 79.7438 17.7068C80.1096 17.2773 80.3427 16.7896 80.1529 16.4966ZM16.9151 39.1138C15.7687 38.6363 14.7317 38.5081 14.5987 38.8273C14.4656 39.1466 15.2873 39.7924 16.4337 40.2699C17.5801 40.7474 18.6173 40.8757 18.7501 40.5564C18.8832 40.2373 18.0616 39.5915 16.9151 39.1138ZM16.2001 45.2586C17.1928 45.1849 17.9768 44.8454 17.9511 44.5007C17.9254 44.1557 17.1 43.9359 16.1073 44.0095C15.1147 44.0832 14.3308 44.4227 14.3563 44.7674C14.382 45.1124 15.2074 45.3322 16.2001 45.2586ZM16.9586 50.0643C16.1259 50.808 15.6378 51.6201 15.8681 51.878C16.0985 52.1359 16.9604 51.7421 17.7931 50.9982C18.6257 50.2544 19.1141 49.4424 18.8838 49.1845C18.6533 48.9266 17.7913 49.3206 16.9586 50.0643ZM67.5628 31.0795C68.7706 30.4566 69.6212 29.7027 69.4628 29.3954C69.3044 29.088 68.1967 29.3436 66.9888 29.9664C65.7812 30.5892 64.9304 31.3431 65.0888 31.6507C65.2474 31.9579 66.3551 31.7021 67.5628 31.0795ZM67.8436 36.2352C66.3232 36.1241 65.0558 36.1891 64.9962 36.5327C64.9365 36.8703 66.162 37.3675 67.7505 37.4841C69.3388 37.6042 70.6245 37.2941 70.6155 36.9515C70.6073 36.6028 69.3636 36.3507 67.8436 36.2352ZM66.9825 41.2427C65.6778 40.7463 64.5204 40.6057 64.3974 40.9292C64.2745 41.2524 65.2325 41.917 66.5371 42.4134C67.8418 42.9099 68.9994 43.0504 69.1224 42.7271C69.2451 42.4037 68.2871 41.7392 66.9825 41.2427Z" fill="#FFF2FF"/>
</g>
<defs>
<clipPath id="clip0_28_4183">
<rect width="94" height="94" fill="white" transform="translate(0.0825195 17.1001) rotate(-10.4489)"/>
</clipPath>
</defs>
</svg>
