<svg width="674" height="921" viewBox="0 0 674 921" fill="none" xmlns="http://www.w3.org/2000/svg">
<g opacity="0.5">
<g opacity="0.7">
<path d="M35.0586 554.676C35.4382 554.431 35.5457 553.923 35.2986 553.543C35.053 553.164 34.5451 553.056 34.1655 553.302C33.7873 553.549 33.6784 554.055 33.9254 554.435C34.1711 554.815 34.679 554.922 35.0586 554.676Z" fill="white"/>
<path d="M94.4463 587.463C94.8259 587.218 94.9347 586.71 94.6877 586.33C94.4421 585.951 93.9341 585.843 93.5545 586.089C93.1749 586.336 93.0674 586.842 93.3145 587.222C93.5601 587.602 94.0681 587.71 94.4463 587.463Z" fill="white"/>
<path opacity="0.3" d="M60.9408 538.86C61.3204 538.614 61.4292 538.106 61.1822 537.727C60.9366 537.347 60.4286 537.24 60.049 537.485C59.6694 537.732 59.5619 538.239 59.8076 538.618C60.0546 538.998 60.5626 539.106 60.9408 538.86Z" fill="white"/>
<path opacity="0.11" d="M61.5654 580.466C61.945 580.219 62.0539 579.711 61.8069 579.333C61.5612 578.953 61.0532 578.844 60.6736 579.091C60.294 579.337 60.1866 579.845 60.4336 580.225C60.6792 580.604 61.1872 580.712 61.5654 580.466Z" fill="white"/>
<path d="M139.449 597.342C140.018 596.974 140.18 596.212 139.81 595.642C139.44 595.073 138.68 594.911 138.109 595.279C137.539 595.649 137.377 596.411 137.747 596.981C138.117 597.55 138.879 597.712 139.449 597.342Z" fill="white"/>
<path d="M136.462 544.566C137.032 544.196 137.193 543.435 136.824 542.865C136.454 542.295 135.693 542.133 135.122 542.503C134.553 542.873 134.391 543.634 134.761 544.204C135.131 544.774 135.891 544.936 136.462 544.566Z" fill="white"/>
<path d="M128.426 496.045C128.996 495.677 129.158 494.915 128.788 494.345C128.419 493.776 127.657 493.614 127.087 493.983C126.518 494.352 126.356 495.114 126.726 495.684C127.096 496.253 127.856 496.415 128.426 496.045Z" fill="white"/>
<path d="M5.25716 584.773C5.82655 584.403 5.98844 583.641 5.61862 583.072C5.24879 582.502 4.48816 582.34 3.91737 582.71C3.34798 583.079 3.18609 583.841 3.55591 584.41C3.92574 584.979 4.68776 585.143 5.25716 584.773Z" fill="white"/>
<path opacity="0.3" d="M21.2014 536.32C21.9606 535.828 22.1769 534.812 21.6842 534.053C21.1902 533.292 20.1756 533.076 19.415 533.57C18.6558 534.062 18.4395 535.078 18.9321 535.838C19.4248 536.597 20.4408 536.813 21.2014 536.32Z" fill="white"/>
<path opacity="0.3" d="M120.942 540.962C121.701 540.469 121.917 539.454 121.423 538.694C120.93 537.935 119.916 537.719 119.155 538.211C118.396 538.704 118.18 539.72 118.672 540.479C119.165 541.24 120.181 541.455 120.942 540.962Z" fill="white"/>
<path opacity="0.3" d="M41.3947 594.537C42.1539 594.045 42.3702 593.029 41.8776 592.269C41.3835 591.509 40.3689 591.293 39.6083 591.787C38.8492 592.279 38.6329 593.295 39.1255 594.054C39.6181 594.814 40.6341 595.03 41.3947 594.537Z" fill="white"/>
<path opacity="0.11" d="M79.3693 538.63C80.1285 538.137 80.3448 537.121 79.8522 536.362C79.3581 535.603 78.3435 535.387 77.583 535.879C76.8238 536.372 76.6075 537.388 77.1001 538.147C77.5942 538.908 78.6087 539.124 79.3693 538.63Z" fill="white"/>
<path d="M85.7256 276.196C86.1052 275.95 86.214 275.442 85.967 275.063C85.7214 274.683 85.2134 274.576 84.8338 274.821C84.4542 275.068 84.3467 275.575 84.5938 275.954C84.8394 276.334 85.3474 276.443 85.7256 276.196Z" fill="white"/>
<path d="M136.566 190.438C136.945 190.191 137.054 189.684 136.807 189.305C136.562 188.925 136.054 188.818 135.674 189.063C135.294 189.31 135.187 189.817 135.433 190.197C135.68 190.576 136.186 190.684 136.566 190.438Z" fill="white"/>
<path d="M195.953 223.227C196.333 222.981 196.44 222.474 196.193 222.094C195.947 221.714 195.44 221.607 195.061 221.852C194.682 222.099 194.573 222.606 194.82 222.986C195.066 223.365 195.573 223.474 195.953 223.227Z" fill="white"/>
<path opacity="0.11" d="M78.0723 306.561C78.4519 306.314 78.5593 305.807 78.3123 305.428C78.0667 305.048 77.5587 304.941 77.1805 305.186C76.8009 305.433 76.692 305.94 76.939 306.32C77.1847 306.699 77.6927 306.807 78.0723 306.561Z" fill="white"/>
<path opacity="0.3" d="M162.449 174.62C162.827 174.373 162.936 173.866 162.689 173.486C162.444 173.107 161.936 172.999 161.556 173.245C161.178 173.492 161.069 173.999 161.316 174.378C161.562 174.758 162.07 174.865 162.449 174.62Z" fill="white"/>
<path opacity="0.11" d="M33.4681 218.262C33.8477 218.016 33.9566 217.508 33.7096 217.128C33.4639 216.75 32.9559 216.641 32.5763 216.888C32.1967 217.134 32.0893 217.642 32.3349 218.022C32.5819 218.4 33.0885 218.509 33.4681 218.262Z" fill="white"/>
<path opacity="0.11" d="M163.07 216.224C163.45 215.979 163.557 215.471 163.31 215.091C163.065 214.713 162.557 214.604 162.179 214.851C161.799 215.097 161.69 215.605 161.937 215.984C162.183 216.364 162.691 216.471 163.07 216.224Z" fill="white"/>
<path opacity="0.11" d="M20.3303 288.344C21.0895 287.85 21.3058 286.836 20.8131 286.075C20.3191 285.316 19.3045 285.1 18.5439 285.592C17.7847 286.086 17.5684 287.101 18.061 287.861C18.5537 288.621 19.5697 288.837 20.3303 288.344Z" fill="white"/>
<path d="M4.37434 264.503C4.94374 264.133 5.10559 263.373 4.73576 262.803C4.36593 262.234 3.60535 262.07 3.03456 262.44C2.46516 262.81 2.30327 263.572 2.6731 264.141C3.04293 264.711 3.80355 264.873 4.37434 264.503Z" fill="white"/>
<path d="M3.7831 367.476C4.35389 367.107 4.51574 366.345 4.14592 365.775C3.77609 365.206 3.01411 365.044 2.44472 365.412C1.87532 365.782 1.71343 366.544 2.08326 367.113C2.45309 367.683 3.2137 367.845 3.7831 367.476Z" fill="white"/>
<path d="M240.954 233.103C241.524 232.733 241.686 231.972 241.316 231.403C240.946 230.833 240.185 230.67 239.615 231.04C239.045 231.41 238.883 232.172 239.253 232.741C239.623 233.31 240.384 233.472 240.954 233.103Z" fill="white"/>
<path d="M86.1229 345.308C86.6937 344.938 86.8556 344.176 86.4858 343.607C86.1159 343.037 85.354 342.876 84.7846 343.245C84.2152 343.615 84.0533 344.376 84.4231 344.945C84.7929 345.515 85.5535 345.678 86.1229 345.308Z" fill="white"/>
<path d="M237.968 180.326C238.537 179.956 238.699 179.195 238.33 178.624C237.96 178.055 237.199 177.893 236.628 178.263C236.059 178.633 235.897 179.393 236.267 179.964C236.637 180.534 237.397 180.695 237.968 180.326Z" fill="white"/>
<path d="M229.933 131.806C230.502 131.436 230.664 130.675 230.294 130.105C229.925 129.536 229.164 129.374 228.593 129.743C228.024 130.113 227.862 130.874 228.232 131.444C228.602 132.013 229.362 132.176 229.933 131.806Z" fill="white"/>
<path opacity="0.3" d="M61.5398 228.383C62.3004 227.889 62.5167 226.875 62.0241 226.114C61.53 225.355 60.5155 225.139 59.7549 225.631C58.9957 226.125 58.7793 227.14 59.272 227.901C59.7646 228.66 60.7806 228.876 61.5398 228.383Z" fill="white"/>
<path d="M29.8576 179.571C30.6168 179.079 30.8331 178.063 30.3405 177.304C29.8465 176.544 28.8319 176.328 28.0713 176.821C27.3121 177.313 27.0957 178.329 27.5884 179.089C28.0824 179.849 29.097 180.064 29.8576 179.571Z" fill="white"/>
<path d="M106.763 220.533C107.332 220.163 107.494 219.401 107.124 218.831C106.755 218.262 105.993 218.1 105.423 218.47C104.854 218.838 104.692 219.6 105.062 220.17C105.432 220.739 106.192 220.901 106.763 220.533Z" fill="white"/>
<path opacity="0.3" d="M122.709 172.078C123.468 171.586 123.685 170.57 123.192 169.811C122.698 169.05 121.683 168.834 120.923 169.328C120.164 169.82 119.947 170.836 120.44 171.595C120.934 172.355 121.949 172.571 122.709 172.078Z" fill="white"/>
<path opacity="0.3" d="M222.447 176.722C223.207 176.229 223.423 175.213 222.93 174.454C222.436 173.695 221.422 173.479 220.661 173.971C219.902 174.464 219.686 175.48 220.178 176.239C220.672 177 221.687 177.215 222.447 176.722Z" fill="white"/>
<path opacity="0.3" d="M142.899 230.297C143.658 229.804 143.874 228.788 143.382 228.029C142.887 227.269 141.873 227.052 141.112 227.546C140.353 228.039 140.137 229.054 140.629 229.814C141.123 230.573 142.138 230.79 142.899 230.297Z" fill="white"/>
<path opacity="0.11" d="M180.873 174.39C181.632 173.897 181.849 172.881 181.356 172.122C180.862 171.363 179.847 171.147 179.087 171.639C178.328 172.132 178.111 173.148 178.604 173.907C179.098 174.668 180.113 174.884 180.873 174.39Z" fill="white"/>
<path opacity="0.11" d="M351.93 218.419C352.689 217.927 352.905 216.911 352.413 216.152C351.919 215.391 350.904 215.176 350.144 215.669C349.384 216.161 349.168 217.177 349.661 217.937C350.155 218.696 351.169 218.912 351.93 218.419Z" fill="white"/>
<path d="M361.302 223.083C361.871 222.714 362.033 221.952 361.664 221.382C361.294 220.813 360.533 220.651 359.962 221.021C359.393 221.391 359.231 222.151 359.601 222.721C359.971 223.29 360.731 223.453 361.302 223.083Z" fill="white"/>
<path d="M374.624 193.923C375.194 193.553 375.356 192.793 374.986 192.223C374.616 191.653 373.855 191.491 373.285 191.861C372.715 192.23 372.553 192.992 372.923 193.562C373.293 194.131 374.053 194.293 374.624 193.923Z" fill="white"/>
<path d="M315.29 230.47C315.86 230.1 316.022 229.338 315.652 228.769C315.282 228.2 314.521 228.038 313.951 228.407C313.381 228.777 313.219 229.538 313.589 230.107C313.959 230.677 314.72 230.84 315.29 230.47Z" fill="white"/>
<path opacity="0.11" d="M291.963 269.054C292.722 268.561 292.939 267.545 292.446 266.786C291.952 266.027 290.937 265.811 290.177 266.303C289.418 266.796 289.201 267.812 289.694 268.571C290.188 269.332 291.203 269.548 291.963 269.054Z" fill="white"/>
<path d="M269.09 262.405C269.47 262.159 269.577 261.651 269.33 261.272C269.084 260.892 268.576 260.785 268.197 261.03C267.819 261.277 267.71 261.784 267.957 262.163C268.202 262.543 268.71 262.652 269.09 262.405Z" fill="white"/>
<path d="M367.258 246.571C367.636 246.324 367.745 245.818 367.498 245.438C367.253 245.059 366.745 244.95 366.365 245.197C365.985 245.442 365.878 245.95 366.125 246.33C366.371 246.71 366.879 246.817 367.258 246.571Z" fill="white"/>
<path d="M517.141 149.311C517.519 149.065 517.628 148.557 517.381 148.178C517.135 147.798 516.627 147.691 516.248 147.936C515.868 148.183 515.761 148.69 516.008 149.07C516.253 149.449 516.761 149.558 517.141 149.311Z" fill="white"/>
<path d="M567.98 63.5534C568.359 63.307 568.468 62.7998 568.221 62.4202C567.975 62.0407 567.467 61.9327 567.088 62.179C566.708 62.4253 566.601 62.9326 566.848 63.3121C567.093 63.6917 567.601 63.7997 567.98 63.5534Z" fill="white"/>
<path d="M627.369 96.3385C627.749 96.0922 627.856 95.5849 627.609 95.2055C627.364 94.8259 626.856 94.7178 626.476 94.9642C626.098 95.2105 625.989 95.7179 626.236 96.0974C626.482 96.4768 626.99 96.5848 627.369 96.3385Z" fill="white"/>
<path d="M127.168 377.956C127.548 377.71 127.655 377.202 127.408 376.822C127.162 376.443 126.654 376.335 126.275 376.581C125.897 376.828 125.788 377.335 126.035 377.714C126.28 378.094 126.788 378.203 127.168 377.956Z" fill="white"/>
<path opacity="0.11" d="M92.7695 347.519C93.1491 347.274 93.2566 346.766 93.0096 346.387C92.7639 346.008 92.2559 345.899 91.8777 346.146C91.4981 346.392 91.3893 346.9 91.6363 347.279C91.8819 347.659 92.3899 347.766 92.7695 347.519Z" fill="white"/>
<path opacity="0.11" d="M73.47 382.517C73.8496 382.27 73.9584 381.763 73.7114 381.384C73.4658 381.004 72.9578 380.895 72.5782 381.142C72.1986 381.388 72.0911 381.896 72.3381 382.275C72.5838 382.655 73.0918 382.762 73.47 382.517Z" fill="white"/>
<path opacity="0.11" d="M122.926 409.045C123.304 408.799 123.413 408.291 123.166 407.913C122.921 407.533 122.413 407.424 122.033 407.671C121.653 407.917 121.546 408.425 121.793 408.805C122.039 409.184 122.547 409.292 122.926 409.045Z" fill="white"/>
<path opacity="0.11" d="M268.697 275.357C269.077 275.112 269.184 274.604 268.937 274.225C268.692 273.846 268.185 273.737 267.805 273.984C267.426 274.23 267.317 274.738 267.564 275.117C267.81 275.497 268.318 275.604 268.697 275.357Z" fill="white"/>
<path opacity="0.11" d="M381.946 272.214C382.324 271.967 382.433 271.46 382.186 271.081C381.94 270.701 381.432 270.592 381.053 270.839C380.673 271.085 380.565 271.593 380.813 271.973C381.058 272.352 381.566 272.46 381.946 272.214Z" fill="white"/>
<path opacity="0.11" d="M509.489 179.676C509.867 179.429 509.976 178.923 509.729 178.543C509.483 178.164 508.975 178.056 508.596 178.302C508.216 178.549 508.108 179.055 508.355 179.435C508.601 179.814 509.109 179.922 509.489 179.676Z" fill="white"/>
<path opacity="0.3" d="M147.642 340.241C148.022 339.994 148.13 339.488 147.883 339.108C147.638 338.729 147.13 338.62 146.75 338.867C146.371 339.112 146.263 339.62 146.509 340C146.756 340.38 147.262 340.487 147.642 340.241Z" fill="white"/>
<path d="M281.672 200.501C282.05 200.254 282.159 199.747 281.912 199.367C281.667 198.988 281.159 198.88 280.779 199.126C280.4 199.373 280.292 199.88 280.539 200.259C280.785 200.639 281.293 200.746 281.672 200.501Z" fill="white"/>
<path d="M386.657 130.421C387.035 130.174 387.144 129.667 386.897 129.287C386.651 128.908 386.143 128.8 385.763 129.046C385.384 129.292 385.276 129.8 385.523 130.179C385.769 130.559 386.277 130.667 386.657 130.421Z" fill="white"/>
<path d="M275.969 294.092C276.348 293.846 276.456 293.338 276.209 292.959C275.963 292.579 275.455 292.472 275.076 292.719C274.697 292.964 274.589 293.472 274.836 293.851C275.081 294.23 275.589 294.339 275.969 294.092Z" fill="white"/>
<path opacity="0.3" d="M227.843 325.323C228.223 325.077 228.332 324.569 228.085 324.19C227.839 323.81 227.331 323.703 226.951 323.948C226.572 324.195 226.464 324.702 226.71 325.081C226.957 325.461 227.464 325.57 227.843 325.323Z" fill="white"/>
<path opacity="0.11" d="M143.815 319.28C144.195 319.034 144.304 318.526 144.057 318.147C143.811 317.767 143.303 317.66 142.924 317.905C142.544 318.152 142.437 318.659 142.684 319.038C142.929 319.418 143.437 319.527 143.815 319.28Z" fill="white"/>
<path opacity="0.3" d="M304.763 208.969C305.143 208.724 305.251 208.216 305.004 207.836C304.759 207.456 304.251 207.349 303.871 207.595C303.492 207.842 303.384 208.348 303.63 208.728C303.877 209.107 304.383 209.216 304.763 208.969Z" fill="white"/>
<path opacity="0.3" d="M296.141 299.569C296.52 299.323 296.628 298.815 296.382 298.436C296.135 298.056 295.627 297.949 295.249 298.194C294.869 298.441 294.76 298.948 295.007 299.327C295.253 299.707 295.761 299.816 296.141 299.569Z" fill="white"/>
<path opacity="0.3" d="M217.408 360.429C217.787 360.182 217.896 359.675 217.649 359.296C217.403 358.916 216.895 358.807 216.516 359.054C216.136 359.3 216.029 359.808 216.274 360.187C216.521 360.567 217.028 360.675 217.408 360.429Z" fill="white"/>
<path opacity="0.3" d="M167.584 327.307C167.963 327.062 168.071 326.554 167.824 326.174C167.579 325.794 167.071 325.687 166.691 325.933C166.312 326.18 166.204 326.686 166.451 327.066C166.697 327.445 167.205 327.554 167.584 327.307Z" fill="white"/>
<path opacity="0.3" d="M593.864 47.7351C594.243 47.4888 594.351 46.9815 594.104 46.6019C593.858 46.2225 593.352 46.1145 592.972 46.3608C592.592 46.6071 592.484 47.1144 592.731 47.4938C592.976 47.8734 593.484 47.9814 593.864 47.7351Z" fill="white"/>
<path opacity="0.11" d="M464.882 91.3776C465.261 91.1313 465.37 90.624 465.123 90.2444C464.878 89.8649 464.37 89.7569 463.99 90.0032C463.61 90.2495 463.503 90.7568 463.75 91.1363C463.996 91.5159 464.504 91.6239 464.882 91.3776Z" fill="white"/>
<path opacity="0.11" d="M594.487 89.3405C594.865 89.0941 594.974 88.5869 594.727 88.2074C594.481 87.8278 593.973 87.7198 593.594 87.9661C593.214 88.2124 593.107 88.7197 593.354 89.0993C593.599 89.4788 594.107 89.5868 594.487 89.3405Z" fill="white"/>
<path opacity="0.3" d="M424.565 208.407C425.324 207.915 425.54 206.899 425.047 206.14C424.553 205.38 423.539 205.164 422.778 205.657C422.019 206.149 421.803 207.165 422.295 207.925C422.789 208.685 423.804 208.9 424.565 208.407Z" fill="white"/>
<path opacity="0.11" d="M451.744 161.462C452.504 160.968 452.72 159.953 452.227 159.192C451.733 158.433 450.719 158.217 449.958 158.709C449.199 159.204 448.982 160.218 449.475 160.979C449.969 161.738 450.984 161.954 451.744 161.462Z" fill="white"/>
<path d="M435.79 137.62C436.36 137.251 436.522 136.489 436.152 135.92C435.782 135.35 435.021 135.188 434.451 135.558C433.881 135.927 433.719 136.689 434.089 137.258C434.459 137.828 435.22 137.99 435.79 137.62Z" fill="white"/>
<path d="M435.2 240.593C435.77 240.223 435.932 239.461 435.562 238.892C435.192 238.322 434.43 238.161 433.861 238.53C433.291 238.899 433.129 239.661 433.499 240.23C433.869 240.8 434.63 240.961 435.2 240.593Z" fill="white"/>
<path d="M672.368 106.218C672.938 105.848 673.1 105.087 672.73 104.517C672.36 103.948 671.6 103.786 671.029 104.155C670.459 104.525 670.297 105.286 670.667 105.856C671.037 106.426 671.798 106.588 672.368 106.218Z" fill="white"/>
<path d="M218.593 384.087C219.162 383.717 219.324 382.955 218.955 382.386C218.585 381.817 217.824 381.655 217.253 382.025C216.684 382.395 216.522 383.155 216.892 383.724C217.262 384.295 218.022 384.457 218.593 384.087Z" fill="white"/>
<path d="M116.904 427.61C117.473 427.241 117.635 426.48 117.265 425.911C116.895 425.341 116.135 425.178 115.564 425.548C114.994 425.918 114.833 426.679 115.202 427.249C115.572 427.818 116.333 427.98 116.904 427.61Z" fill="white"/>
<path d="M87.3665 407.697C87.9359 407.327 88.0978 406.565 87.728 405.995C87.3581 405.426 86.5975 405.264 86.0267 405.634C85.4573 406.004 85.2955 406.764 85.6653 407.334C86.0351 407.905 86.7957 408.067 87.3665 407.697Z" fill="white"/>
<path d="M411.716 172.787C412.285 172.417 412.447 171.655 412.078 171.085C411.708 170.516 410.947 170.354 410.376 170.724C409.807 171.092 409.645 171.854 410.015 172.424C410.385 172.993 411.145 173.156 411.716 172.787Z" fill="white"/>
<path d="M325.103 301.292C325.672 300.923 325.834 300.161 325.464 299.591C325.094 299.022 324.334 298.86 323.763 299.23C323.194 299.6 323.032 300.36 323.402 300.93C323.771 301.499 324.532 301.662 325.103 301.292Z" fill="white"/>
<path d="M517.538 218.425C518.108 218.055 518.27 217.293 517.9 216.724C517.53 216.155 516.769 215.993 516.199 216.363C515.629 216.732 515.467 217.493 515.837 218.062C516.207 218.633 516.968 218.795 517.538 218.425Z" fill="white"/>
<path d="M669.383 53.4427C669.952 53.073 670.114 52.3116 669.744 51.742C669.376 51.1724 668.614 51.0103 668.045 51.3799C667.475 51.7496 667.313 52.511 667.682 53.0805C668.052 53.6502 668.814 53.8122 669.383 53.4427Z" fill="white"/>
<path d="M661.347 4.92115C661.916 4.5515 662.078 3.7901 661.708 3.2205C661.339 2.6509 660.578 2.48879 660.007 2.85845C659.438 3.22809 659.276 3.98949 659.646 4.55909C660.016 5.12869 660.776 5.2908 661.347 4.92115Z" fill="white"/>
<path opacity="0.3" d="M492.945 101.5C493.705 101.007 493.921 99.9913 493.428 99.2317C492.934 98.472 491.92 98.2558 491.159 98.7489C490.4 99.2418 490.184 100.257 490.676 101.017C491.17 101.777 492.185 101.993 492.945 101.5Z" fill="white"/>
<path d="M461.274 52.6874C462.033 52.1943 462.249 51.1789 461.756 50.4191C461.262 49.6595 460.248 49.4434 459.487 49.9363C458.728 50.4293 458.512 51.4447 459.004 52.2045C459.498 52.9642 460.513 53.1804 461.274 52.6874Z" fill="white"/>
<path d="M538.177 93.6477C538.746 93.2781 538.908 92.5167 538.539 91.947C538.169 91.3775 537.408 91.2153 536.837 91.585C536.268 91.9547 536.106 92.716 536.476 93.2857C536.846 93.8552 537.606 94.0173 538.177 93.6477Z" fill="white"/>
<path opacity="0.3" d="M554.121 45.1953C554.88 44.7022 555.097 43.6867 554.604 42.9271C554.11 42.1673 553.096 41.9511 552.335 42.4442C551.576 42.9372 551.359 43.9527 551.852 44.7124C552.346 45.472 553.361 45.6882 554.121 45.1953Z" fill="white"/>
<path opacity="0.3" d="M653.862 49.8378C654.623 49.3447 654.838 48.3293 654.345 47.5695C653.852 46.8099 652.836 46.5938 652.077 47.0867C651.318 47.5797 651.102 48.5953 651.594 49.3549C652.087 50.1146 653.103 50.3308 653.862 49.8378Z" fill="white"/>
<path opacity="0.3" d="M574.315 103.412C575.074 102.919 575.29 101.904 574.797 101.144C574.303 100.384 573.289 100.168 572.528 100.661C571.769 101.154 571.553 102.169 572.045 102.929C572.539 103.689 573.554 103.905 574.315 103.412Z" fill="white"/>
<path opacity="0.3" d="M187.274 371.194C188.033 370.7 188.249 369.685 187.757 368.925C187.262 368.166 186.248 367.949 185.487 368.442C184.728 368.936 184.512 369.951 185.004 370.711C185.498 371.47 186.513 371.687 187.274 371.194Z" fill="white"/>
<path opacity="0.3" d="M107.039 369.523C107.798 369.03 108.015 368.015 107.522 367.255C107.028 366.496 106.014 366.279 105.253 366.772C104.494 367.265 104.277 368.281 104.77 369.04C105.264 369.8 106.279 370.017 107.039 369.523Z" fill="white"/>
<path opacity="0.11" d="M612.289 47.5057C613.048 47.0128 613.265 45.9972 612.772 45.2375C612.278 44.4779 611.263 44.2617 610.503 44.7546C609.744 45.2477 609.527 46.2632 610.02 47.0229C610.514 47.7826 611.529 47.9988 612.289 47.5057Z" fill="white"/>
<path opacity="0.3" d="M190.186 282.348C190.945 281.854 191.161 280.84 190.669 280.079C190.175 279.32 189.16 279.104 188.399 279.596C187.64 280.09 187.424 281.105 187.917 281.865C188.411 282.625 189.425 282.841 190.186 282.348Z" fill="white"/>
<path opacity="0.11" d="M162.699 280.643C163.459 280.15 163.675 279.134 163.182 278.375C162.688 277.614 161.674 277.398 160.913 277.892C160.154 278.385 159.938 279.401 160.43 280.16C160.924 280.919 161.939 281.135 162.699 280.643Z" fill="white"/>
<path opacity="0.3" d="M185.758 328.211C186.517 327.718 186.734 326.703 186.241 325.943C185.747 325.183 184.732 324.966 183.972 325.46C183.212 325.953 182.996 326.969 183.489 327.728C183.983 328.487 184.997 328.704 185.758 328.211Z" fill="white"/>
<path d="M228.275 299.64C228.844 299.27 229.006 298.51 228.636 297.939C228.266 297.369 227.506 297.208 226.935 297.577C226.366 297.947 226.204 298.709 226.573 299.279C226.943 299.848 227.704 300.01 228.275 299.64Z" fill="white"/>
</g>
</g>
</svg>
