<svg width="45" height="45" viewBox="0 0 45 45" fill="none" xmlns="http://www.w3.org/2000/svg">
<rect width="45" height="45" rx="22.5" fill="#0A3669"/>
<rect width="45" height="45" rx="22.5" fill="#FECB00"/>
<rect width="45" height="45" rx="22.5" fill="#132344"/>
<path d="M21.2454 23.7546C20.8548 22.9638 20.8548 22.0362 21.2454 21.2454C22.0362 20.8548 22.9638 20.8548 23.7546 21.2454C24.1452 22.0362 24.1452 22.9638 23.7546 23.7546C22.9638 24.1452 22.0362 24.1452 21.2454 23.7546Z" fill="white"/>
<path fill-rule="evenodd" clip-rule="evenodd" d="M23.5 12.5V14.3215C24.1702 14.3646 24.8383 14.451 25.5 14.5807V12.5H27.5V15.1132C28.6149 15.5078 29.4922 16.3851 29.8868 17.5H32.5V19.5H30.4193C30.5491 20.1617 30.6354 20.8298 30.6785 21.5H32.5V23.5H30.6785C30.6354 24.1702 30.549 24.8383 30.4193 25.5H32.5V27.5H29.8868C29.4922 28.6149 28.6149 29.4921 27.5 29.8867V32.5H25.5V30.4192C24.8383 30.5489 24.1702 30.6353 23.5 30.6784V32.5H21.5V30.6784C20.8298 30.6353 20.1617 30.5489 19.5 30.4192V32.5H17.5V29.8866C16.3852 29.4921 15.5079 28.6148 15.1134 27.5H12.5V25.5H14.5808C14.4511 24.8383 14.3647 24.1702 14.3216 23.5H12.5V21.5H14.3216C14.3647 20.8298 14.4511 20.1617 14.5808 19.5H12.5V17.5H15.1133C15.5079 16.3851 16.3851 15.5078 17.5 15.1132V12.5H19.5V14.5807C20.1617 14.451 20.8298 14.3646 21.5 14.3215V12.5H23.5ZM24.6615 19.4627C23.3008 18.7824 21.6992 18.7824 20.3385 19.4627C19.9595 19.6522 19.6522 19.9595 19.4627 20.3385C18.7824 21.6992 18.7824 23.3008 19.4627 24.6615C19.6522 25.0405 19.9595 25.3478 20.3385 25.5373C21.6992 26.2176 23.3008 26.2176 24.6615 25.5373C25.0405 25.3478 25.3478 25.0405 25.5373 24.6615C26.2176 23.3008 26.2176 21.6992 25.5373 20.3385C25.3478 19.9595 25.0405 19.6522 24.6615 19.4627Z" fill="white"/>
</svg>
