<svg width="83" height="15" viewBox="0 0 83 15" fill="none" xmlns="http://www.w3.org/2000/svg">
<g clip-path="url(#clip0_28_1003)">
<path d="M7.56595 1.57264L5.55571 5.64613L1.0625 6.29559L4.31422 9.46779L3.54547 13.9433L7.56595 11.8315L11.5864 13.9433L10.8177 9.46779L14.0694 6.30001L9.57618 5.64613L7.56595 1.57264Z" fill="#D9AE76"/>
</g>
<g clip-path="url(#clip1_28_1003)">
<path d="M24.5315 1.57264L22.5213 5.64613L18.0281 6.29559L21.2798 9.46779L20.5111 13.9433L24.5315 11.8315L28.552 13.9433L27.7832 9.46779L31.035 6.30001L26.5418 5.64613L24.5315 1.57264Z" fill="#D9AE76"/>
</g>
<g clip-path="url(#clip2_28_1003)">
<path d="M41.4971 1.57264L39.4869 5.64613L34.9937 6.29559L38.2454 9.46779L37.4766 13.9433L41.4971 11.8315L45.5176 13.9433L44.7488 9.46779L48.0005 6.30001L43.5073 5.64613L41.4971 1.57264Z" fill="#D9AE76"/>
</g>
<g clip-path="url(#clip3_28_1003)">
<path d="M58.4702 1.57264L56.46 5.64613L51.9668 6.29559L55.2185 9.46779L54.4498 13.9433L58.4702 11.8315L62.4907 13.9433L61.722 9.46779L64.9737 6.30001L60.4805 5.64613L58.4702 1.57264Z" fill="#D9AE76"/>
</g>
<g clip-path="url(#clip4_28_1003)">
<path d="M75.428 1.57264L73.4178 5.64613L68.9246 6.29559L72.1763 9.46779L71.4075 13.9433L75.428 11.8315L79.4485 13.9433L78.6797 9.46779L81.9315 6.30001L77.4382 5.64613L75.428 1.57264Z" fill="#D9AE76"/>
</g>
<defs>
<clipPath id="clip0_28_1003">
<rect width="14.1379" height="14.1379" fill="white" transform="translate(0.5 0.689823)"/>
</clipPath>
<clipPath id="clip1_28_1003">
<rect width="14.1379" height="14.1379" fill="white" transform="translate(17.4656 0.689823)"/>
</clipPath>
<clipPath id="clip2_28_1003">
<rect width="14.1379" height="14.1379" fill="white" transform="translate(34.4312 0.689823)"/>
</clipPath>
<clipPath id="clip3_28_1003">
<rect width="14.1379" height="14.1379" fill="white" transform="translate(51.3965 0.689823)"/>
</clipPath>
<clipPath id="clip4_28_1003">
<rect width="14.1379" height="14.1379" fill="white" transform="translate(68.3621 0.689823)"/>
</clipPath>
</defs>
</svg>
