<svg width="1916" height="345" viewBox="0 0 1916 345" fill="none" xmlns="http://www.w3.org/2000/svg">
<g clip-path="url(#clip0_28_20)">
<rect width="1916" height="345" fill="url(#paint0_radial_28_20)"/>
<g opacity="0.3" clip-path="url(#clip1_28_20)">
<path fill-rule="evenodd" clip-rule="evenodd" d="M1925.57 141.5L1584.45 0.696833L1585.88 0.5L1927 141.303L1925.57 141.5Z" fill="url(#paint1_radial_28_20)"/>
<path fill-rule="evenodd" clip-rule="evenodd" d="M1804.71 141.49L1506.22 0.687172L1507.7 0.509662L1806.18 141.313L1804.71 141.49Z" fill="url(#paint2_radial_28_20)"/>
<path fill-rule="evenodd" clip-rule="evenodd" d="M1683.83 141.48L1428 0.676628L1429.52 0.520205L1685.35 141.323L1683.83 141.48Z" fill="url(#paint3_radial_28_20)"/>
<path fill-rule="evenodd" clip-rule="evenodd" d="M1562.96 141.468L1349.76 0.665225L1351.32 0.531608L1564.52 141.335L1562.96 141.468Z" fill="url(#paint4_radial_28_20)"/>
<path fill-rule="evenodd" clip-rule="evenodd" d="M1848.76 51.4119H71.297V50.5H1848.76V51.4119Z" fill="url(#paint5_radial_28_20)"/>
<path fill-rule="evenodd" clip-rule="evenodd" d="M1442.11 141.456L1271.55 0.653008L1273.13 0.543825L1443.69 141.347L1442.11 141.456Z" fill="url(#paint6_radial_28_20)"/>
<path fill-rule="evenodd" clip-rule="evenodd" d="M1321.24 141.443L1193.31 0.640069L1194.93 0.556765L1322.85 141.36L1321.24 141.443Z" fill="url(#paint7_radial_28_20)"/>
<path fill-rule="evenodd" clip-rule="evenodd" d="M1200.39 141.43L1115.1 0.626538L1116.74 0.570295L1202.03 141.373L1200.39 141.43Z" fill="url(#paint8_radial_28_20)"/>
<path fill-rule="evenodd" clip-rule="evenodd" d="M1079.53 141.416L1036.89 0.612584L1038.54 0.58425L1081.18 141.387L1079.53 141.416Z" fill="url(#paint9_radial_28_20)"/>
<path fill-rule="evenodd" clip-rule="evenodd" d="M958.674 141.402V0.598417H960.326V141.402H958.674Z" fill="url(#paint10_radial_28_20)"/>
<path fill-rule="evenodd" clip-rule="evenodd" d="M837.838 141.387L880.474 0.58425L882.122 0.612584L839.486 141.416L837.838 141.387Z" fill="url(#paint11_radial_28_20)"/>
<path fill-rule="evenodd" clip-rule="evenodd" d="M716.99 141.373L802.279 0.570295L803.914 0.626538L718.625 141.43L716.99 141.373Z" fill="url(#paint12_radial_28_20)"/>
<path fill-rule="evenodd" clip-rule="evenodd" d="M596.146 141.36L724.071 0.556765L725.685 0.640069L597.761 141.443L596.146 141.36Z" fill="url(#paint13_radial_28_20)"/>
<path fill-rule="evenodd" clip-rule="evenodd" d="M475.322 141.347L645.883 0.543825L647.47 0.653008L476.909 141.456L475.322 141.347Z" fill="url(#paint14_radial_28_20)"/>
<path fill-rule="evenodd" clip-rule="evenodd" d="M354.485 141.335L567.681 0.531608L569.235 0.665225L356.039 141.468L354.485 141.335Z" fill="url(#paint15_radial_28_20)"/>
<path fill-rule="evenodd" clip-rule="evenodd" d="M233.666 141.323L489.498 0.520205L491.014 0.676628L235.182 141.48L233.666 141.323Z" fill="url(#paint16_radial_28_20)"/>
<path fill-rule="evenodd" clip-rule="evenodd" d="M112.832 141.313L411.317 0.509662L412.792 0.687172L114.307 141.49L112.832 141.313Z" fill="url(#paint17_radial_28_20)"/>
<path fill-rule="evenodd" clip-rule="evenodd" d="M-8 141.303L333.121 0.5L334.552 0.696833L-6.5694 141.5L-8 141.303Z" fill="url(#paint18_radial_28_20)"/>
<path fill-rule="evenodd" clip-rule="evenodd" d="M1131 1.5H787V0.5H1131V1.5Z" fill="url(#paint19_linear_28_20)"/>
</g>
</g>
<defs>
<radialGradient id="paint0_radial_28_20" cx="0" cy="0" r="1" gradientUnits="userSpaceOnUse" gradientTransform="translate(973.967 -0.162286) rotate(95.8278) scale(157.247 864.824)">
<stop stop-color="#0E1C36"/>
<stop offset="1" stop-color="#071125"/>
</radialGradient>
<radialGradient id="paint1_radial_28_20" cx="0" cy="0" r="1" gradientUnits="userSpaceOnUse" gradientTransform="translate(959.5 71) rotate(90) scale(70.5 588.617)">
<stop stop-color="white"/>
<stop offset="1" stop-color="#323232" stop-opacity="0"/>
</radialGradient>
<radialGradient id="paint2_radial_28_20" cx="0" cy="0" r="1" gradientUnits="userSpaceOnUse" gradientTransform="translate(959.5 71) rotate(90) scale(70.5 588.617)">
<stop stop-color="white"/>
<stop offset="1" stop-color="#323232" stop-opacity="0"/>
</radialGradient>
<radialGradient id="paint3_radial_28_20" cx="0" cy="0" r="1" gradientUnits="userSpaceOnUse" gradientTransform="translate(959.5 71) rotate(90) scale(70.5 588.617)">
<stop stop-color="white"/>
<stop offset="1" stop-color="#323232" stop-opacity="0"/>
</radialGradient>
<radialGradient id="paint4_radial_28_20" cx="0" cy="0" r="1" gradientUnits="userSpaceOnUse" gradientTransform="translate(959.5 71) rotate(90) scale(70.5 588.617)">
<stop stop-color="white"/>
<stop offset="1" stop-color="#323232" stop-opacity="0"/>
</radialGradient>
<radialGradient id="paint5_radial_28_20" cx="0" cy="0" r="1" gradientUnits="userSpaceOnUse" gradientTransform="translate(959.5 71) rotate(90) scale(70.5 588.617)">
<stop stop-color="white"/>
<stop offset="1" stop-color="#323232" stop-opacity="0"/>
</radialGradient>
<radialGradient id="paint6_radial_28_20" cx="0" cy="0" r="1" gradientUnits="userSpaceOnUse" gradientTransform="translate(959.5 71) rotate(90) scale(70.5 588.617)">
<stop stop-color="white"/>
<stop offset="1" stop-color="#323232" stop-opacity="0"/>
</radialGradient>
<radialGradient id="paint7_radial_28_20" cx="0" cy="0" r="1" gradientUnits="userSpaceOnUse" gradientTransform="translate(959.5 71) rotate(90) scale(70.5 588.617)">
<stop stop-color="white"/>
<stop offset="1" stop-color="#323232" stop-opacity="0"/>
</radialGradient>
<radialGradient id="paint8_radial_28_20" cx="0" cy="0" r="1" gradientUnits="userSpaceOnUse" gradientTransform="translate(959.5 71) rotate(90) scale(70.5 588.617)">
<stop stop-color="white"/>
<stop offset="1" stop-color="#323232" stop-opacity="0"/>
</radialGradient>
<radialGradient id="paint9_radial_28_20" cx="0" cy="0" r="1" gradientUnits="userSpaceOnUse" gradientTransform="translate(959.5 71) rotate(90) scale(70.5 588.617)">
<stop stop-color="white"/>
<stop offset="1" stop-color="#323232" stop-opacity="0"/>
</radialGradient>
<radialGradient id="paint10_radial_28_20" cx="0" cy="0" r="1" gradientUnits="userSpaceOnUse" gradientTransform="translate(959.5 71) rotate(90) scale(70.5 588.617)">
<stop stop-color="white"/>
<stop offset="1" stop-color="#323232" stop-opacity="0"/>
</radialGradient>
<radialGradient id="paint11_radial_28_20" cx="0" cy="0" r="1" gradientUnits="userSpaceOnUse" gradientTransform="translate(959.5 71) rotate(90) scale(70.5 588.617)">
<stop stop-color="white"/>
<stop offset="1" stop-color="#323232" stop-opacity="0"/>
</radialGradient>
<radialGradient id="paint12_radial_28_20" cx="0" cy="0" r="1" gradientUnits="userSpaceOnUse" gradientTransform="translate(959.5 71) rotate(90) scale(70.5 588.617)">
<stop stop-color="white"/>
<stop offset="1" stop-color="#323232" stop-opacity="0"/>
</radialGradient>
<radialGradient id="paint13_radial_28_20" cx="0" cy="0" r="1" gradientUnits="userSpaceOnUse" gradientTransform="translate(959.5 71) rotate(90) scale(70.5 588.617)">
<stop stop-color="white"/>
<stop offset="1" stop-color="#323232" stop-opacity="0"/>
</radialGradient>
<radialGradient id="paint14_radial_28_20" cx="0" cy="0" r="1" gradientUnits="userSpaceOnUse" gradientTransform="translate(959.5 71) rotate(90) scale(70.5 588.617)">
<stop stop-color="white"/>
<stop offset="1" stop-color="#323232" stop-opacity="0"/>
</radialGradient>
<radialGradient id="paint15_radial_28_20" cx="0" cy="0" r="1" gradientUnits="userSpaceOnUse" gradientTransform="translate(959.5 71) rotate(90) scale(70.5 588.617)">
<stop stop-color="white"/>
<stop offset="1" stop-color="#323232" stop-opacity="0"/>
</radialGradient>
<radialGradient id="paint16_radial_28_20" cx="0" cy="0" r="1" gradientUnits="userSpaceOnUse" gradientTransform="translate(959.5 71) rotate(90) scale(70.5 588.617)">
<stop stop-color="white"/>
<stop offset="1" stop-color="#323232" stop-opacity="0"/>
</radialGradient>
<radialGradient id="paint17_radial_28_20" cx="0" cy="0" r="1" gradientUnits="userSpaceOnUse" gradientTransform="translate(959.5 71) rotate(90) scale(70.5 588.617)">
<stop stop-color="white"/>
<stop offset="1" stop-color="#323232" stop-opacity="0"/>
</radialGradient>
<radialGradient id="paint18_radial_28_20" cx="0" cy="0" r="1" gradientUnits="userSpaceOnUse" gradientTransform="translate(959.5 71) rotate(90) scale(70.5 588.617)">
<stop stop-color="white"/>
<stop offset="1" stop-color="#323232" stop-opacity="0"/>
</radialGradient>
<linearGradient id="paint19_linear_28_20" x1="1131" y1="1.49801" x2="773" y2="1.49831" gradientUnits="userSpaceOnUse">
<stop stop-color="white" stop-opacity="0"/>
<stop offset="0.21091" stop-color="white" stop-opacity="0.31604"/>
<stop offset="0.480188" stop-color="white" stop-opacity="0.76"/>
<stop offset="0.748833" stop-color="white" stop-opacity="0.233846"/>
<stop offset="1" stop-color="white" stop-opacity="0"/>
</linearGradient>
<clipPath id="clip0_28_20">
<rect width="1916" height="345" fill="white"/>
</clipPath>
<clipPath id="clip1_28_20">
<rect width="1935" height="141" fill="white" transform="translate(-8 0.5)"/>
</clipPath>
</defs>
</svg>
