<svg width="734" height="920" viewBox="0 0 734 920" fill="none" xmlns="http://www.w3.org/2000/svg">
<g opacity="0.7">
<g opacity="0.7">
<path opacity="0.11" d="M281.412 708.826C282.171 708.333 282.388 707.317 281.895 706.558C281.401 705.797 280.387 705.582 279.626 706.075C278.867 706.568 278.65 707.584 279.143 708.343C279.637 709.102 280.652 709.318 281.412 708.826Z" fill="white"/>
<path d="M290.784 713.49C291.354 713.12 291.516 712.358 291.146 711.788C290.776 711.219 290.015 711.057 289.446 711.427C288.875 711.797 288.713 712.557 289.083 713.127C289.453 713.696 290.215 713.859 290.784 713.49Z" fill="white"/>
<path d="M304.107 684.331C304.676 683.962 304.838 683.201 304.468 682.632C304.098 682.061 303.338 681.899 302.767 682.269C302.198 682.639 302.036 683.401 302.406 683.97C302.775 684.539 303.536 684.701 304.107 684.331Z" fill="white"/>
<path d="M244.773 720.876C245.344 720.507 245.506 719.745 245.136 719.175C244.766 718.606 244.004 718.444 243.435 718.814C242.866 719.182 242.704 719.944 243.073 720.513C243.443 721.083 244.204 721.246 244.773 720.876Z" fill="white"/>
<path opacity="0.11" d="M221.447 759.464C222.207 758.971 222.423 757.955 221.93 757.196C221.436 756.437 220.422 756.221 219.661 756.713C218.902 757.206 218.686 758.222 219.178 758.981C219.672 759.742 220.687 759.957 221.447 759.464Z" fill="white"/>
<path d="M198.574 752.813C198.953 752.567 199.062 752.059 198.815 751.68C198.569 751.3 198.061 751.193 197.682 751.438C197.302 751.685 197.195 752.192 197.44 752.572C197.687 752.951 198.194 753.06 198.574 752.813Z" fill="white"/>
<path d="M296.741 736.98C297.121 736.733 297.23 736.226 296.983 735.846C296.737 735.467 296.229 735.358 295.849 735.605C295.47 735.851 295.362 736.359 295.609 736.738C295.855 737.118 296.362 737.225 296.741 736.98Z" fill="white"/>
<path d="M446.625 639.717C447.005 639.472 447.112 638.964 446.865 638.584C446.619 638.205 446.111 638.097 445.733 638.343C445.354 638.59 445.245 639.096 445.492 639.476C445.737 639.855 446.245 639.964 446.625 639.717Z" fill="white"/>
<path d="M497.465 553.96C497.844 553.714 497.952 553.206 497.705 552.826C497.459 552.447 496.951 552.339 496.572 552.585C496.194 552.832 496.085 553.339 496.332 553.718C496.577 554.098 497.085 554.205 497.465 553.96Z" fill="white"/>
<path d="M556.851 586.747C557.23 586.501 557.339 585.993 557.092 585.613C556.846 585.234 556.338 585.126 555.959 585.372C555.579 585.619 555.472 586.126 555.719 586.505C555.964 586.885 556.472 586.994 556.851 586.747Z" fill="white"/>
<path d="M56.65 868.362C57.0296 868.116 57.1376 867.608 56.8913 867.229C56.6449 866.849 56.1377 866.742 55.7581 866.987C55.3786 867.234 55.2706 867.741 55.5169 868.12C55.7632 868.5 56.2705 868.609 56.65 868.362Z" fill="white"/>
<path opacity="0.11" d="M22.2535 837.927C22.6331 837.68 22.741 837.172 22.4948 836.794C22.2485 836.414 21.7412 836.305 21.3616 836.552C20.9821 836.798 20.8741 837.306 21.1204 837.686C21.3666 838.065 21.874 838.173 22.2535 837.927Z" fill="white"/>
<path opacity="0.11" d="M2.95468 872.925C3.3342 872.678 3.44222 872.171 3.19593 871.792C2.94964 871.412 2.44233 871.303 2.06281 871.55C1.68329 871.796 1.57527 872.304 1.82157 872.684C2.06786 873.063 2.57516 873.171 2.95468 872.925Z" fill="white"/>
<path opacity="0.11" d="M52.4099 899.453C52.7893 899.207 52.8973 898.699 52.651 898.32C52.4047 897.942 51.8974 897.833 51.518 898.08C51.1384 898.325 51.0303 898.833 51.2767 899.213C51.523 899.592 52.0303 899.7 52.4099 899.453Z" fill="white"/>
<path opacity="0.11" d="M198.179 765.767C198.559 765.522 198.668 765.014 198.42 764.634C198.175 764.256 197.667 764.147 197.287 764.394C196.908 764.64 196.8 765.148 197.046 765.527C197.293 765.907 197.799 766.014 198.179 765.767Z" fill="white"/>
<path opacity="0.11" d="M311.441 762.622C311.821 762.375 311.928 761.869 311.681 761.489C311.436 761.11 310.929 761.001 310.55 761.248C310.17 761.493 310.061 762.001 310.308 762.381C310.554 762.76 311.062 762.868 311.441 762.622Z" fill="white"/>
<path opacity="0.11" d="M438.969 670.085C439.347 669.838 439.456 669.331 439.209 668.951C438.964 668.572 438.456 668.464 438.076 668.71C437.696 668.957 437.589 669.463 437.836 669.843C438.082 670.223 438.59 670.33 438.969 670.085Z" fill="white"/>
<path opacity="0.3" d="M77.1266 830.65C77.506 830.403 77.614 829.896 77.3679 829.516C77.1215 829.137 76.6141 829.028 76.2347 829.275C75.8551 829.521 75.7472 830.029 75.9935 830.408C76.2397 830.788 76.7471 830.895 77.1266 830.65Z" fill="white"/>
<path d="M211.156 690.909C211.536 690.662 211.643 690.155 211.396 689.776C211.151 689.396 210.643 689.288 210.263 689.534C209.885 689.781 209.776 690.288 210.023 690.667C210.269 691.047 210.777 691.154 211.156 690.909Z" fill="white"/>
<path d="M316.141 620.827C316.52 620.581 316.628 620.073 316.381 619.694C316.135 619.314 315.627 619.206 315.248 619.452C314.869 619.699 314.76 620.206 315.007 620.585C315.253 620.965 315.761 621.074 316.141 620.827Z" fill="white"/>
<path d="M205.453 784.498C205.833 784.253 205.94 783.745 205.693 783.365C205.448 782.986 204.94 782.878 204.562 783.125C204.182 783.371 204.073 783.879 204.32 784.257C204.566 784.637 205.074 784.745 205.453 784.498Z" fill="white"/>
<path opacity="0.3" d="M157.327 815.731C157.707 815.485 157.816 814.977 157.569 814.598C157.323 814.218 156.815 814.111 156.435 814.356C156.056 814.603 155.948 815.11 156.195 815.49C156.441 815.869 156.949 815.978 157.327 815.731Z" fill="white"/>
<path opacity="0.11" d="M73.3005 809.686C73.68 809.44 73.788 808.932 73.5417 808.553C73.2953 808.173 72.788 808.066 72.4084 808.311C72.029 808.558 71.921 809.065 72.1673 809.445C72.4136 809.824 72.9209 809.933 73.3005 809.686Z" fill="white"/>
<path opacity="0.3" d="M234.245 699.378C234.625 699.132 234.734 698.624 234.487 698.244C234.241 697.865 233.733 697.757 233.354 698.003C232.974 698.25 232.867 698.756 233.112 699.136C233.359 699.516 233.866 699.625 234.245 699.378Z" fill="white"/>
<path opacity="0.3" d="M225.622 789.975C226.002 789.73 226.11 789.222 225.863 788.842C225.618 788.462 225.11 788.355 224.73 788.601C224.351 788.848 224.243 789.354 224.49 789.734C224.736 790.113 225.244 790.222 225.622 789.975Z" fill="white"/>
<path opacity="0.3" d="M146.892 850.836C147.272 850.59 147.38 850.082 147.133 849.704C146.888 849.324 146.38 849.215 146 849.462C145.621 849.708 145.513 850.216 145.759 850.596C146.006 850.975 146.512 851.083 146.892 850.836Z" fill="white"/>
<path opacity="0.3" d="M97.0681 817.713C97.4475 817.468 97.5555 816.96 97.3092 816.58C97.0629 816.201 96.5556 816.093 96.1762 816.339C95.7966 816.586 95.6885 817.092 95.9349 817.472C96.1812 817.852 96.6885 817.961 97.0681 817.713Z" fill="white"/>
<path opacity="0.3" d="M523.347 538.143C523.727 537.897 523.835 537.39 523.588 537.01C523.343 536.63 522.835 536.523 522.455 536.768C522.076 537.016 521.968 537.522 522.214 537.902C522.461 538.281 522.969 538.389 523.347 538.143Z" fill="white"/>
<path opacity="0.11" d="M394.367 581.783C394.745 581.537 394.854 581.029 394.607 580.651C394.362 580.272 393.854 580.163 393.474 580.41C393.096 580.655 392.987 581.163 393.234 581.543C393.48 581.923 393.988 582.03 394.367 581.783Z" fill="white"/>
<path opacity="0.11" d="M523.968 579.749C524.347 579.502 524.456 578.994 524.209 578.616C523.964 578.236 523.456 578.128 523.076 578.375C522.696 578.62 522.589 579.128 522.836 579.508C523.082 579.887 523.59 579.995 523.968 579.749Z" fill="white"/>
<path opacity="0.3" d="M354.047 698.816C354.806 698.323 355.023 697.307 354.53 696.548C354.036 695.789 353.021 695.572 352.261 696.065C351.502 696.558 351.285 697.574 351.778 698.333C352.272 699.093 353.286 699.31 354.047 698.816Z" fill="white"/>
<path opacity="0.11" d="M381.229 651.87C381.988 651.376 382.204 650.361 381.712 649.601C381.218 648.841 380.203 648.625 379.442 649.118C378.683 649.612 378.467 650.626 378.959 651.387C379.454 652.146 380.468 652.362 381.229 651.87Z" fill="white"/>
<path d="M365.269 628.028C365.84 627.659 366.002 626.897 365.632 626.328C365.262 625.758 364.5 625.597 363.931 625.965C363.362 626.335 363.2 627.097 363.57 627.666C363.939 628.236 364.7 628.398 365.269 628.028Z" fill="white"/>
<path d="M364.685 731.001C365.254 730.632 365.416 729.87 365.046 729.3C364.676 728.731 363.916 728.569 363.345 728.939C362.776 729.307 362.614 730.069 362.984 730.639C363.353 731.208 364.114 731.37 364.685 731.001Z" fill="white"/>
<path d="M601.853 596.625C602.422 596.257 602.584 595.495 602.214 594.926C601.844 594.356 601.084 594.194 600.513 594.563C599.944 594.933 599.782 595.694 600.152 596.264C600.521 596.833 601.283 596.995 601.853 596.625Z" fill="white"/>
<path d="M148.077 874.494C148.647 874.124 148.809 873.362 148.439 872.792C148.069 872.223 147.308 872.061 146.738 872.431C146.168 872.801 146.006 873.561 146.376 874.131C146.746 874.702 147.507 874.863 148.077 874.494Z" fill="white"/>
<path d="M46.3853 918.019C46.9548 917.649 47.117 916.888 46.7473 916.319C46.3776 915.749 45.6162 915.586 45.0467 915.956C44.477 916.326 44.315 917.088 44.6847 917.657C45.0542 918.226 45.8156 918.388 46.3853 918.019Z" fill="white"/>
<path d="M16.8502 898.105C17.4197 897.735 17.5819 896.973 17.2122 896.404C16.8425 895.834 16.0811 895.672 15.5115 896.042C14.9418 896.412 14.7798 897.173 15.1495 897.742C15.5191 898.313 16.2805 898.475 16.8502 898.105Z" fill="white"/>
<path d="M341.197 663.195C341.768 662.825 341.93 662.063 341.56 661.494C341.19 660.924 340.428 660.762 339.859 661.132C339.289 661.501 339.127 662.263 339.497 662.832C339.867 663.401 340.628 663.565 341.197 663.195Z" fill="white"/>
<path d="M254.586 791.699C255.157 791.329 255.318 790.567 254.949 789.997C254.579 789.428 253.817 789.266 253.247 789.636C252.678 790.006 252.516 790.766 252.886 791.336C253.256 791.905 254.016 792.068 254.586 791.699Z" fill="white"/>
<path d="M447.023 708.831C447.592 708.462 447.754 707.7 447.384 707.13C447.014 706.561 446.254 706.399 445.683 706.769C445.114 707.139 444.952 707.899 445.322 708.469C445.691 709.039 446.452 709.201 447.023 708.831Z" fill="white"/>
<path d="M598.865 543.849C599.434 543.479 599.596 542.719 599.226 542.148C598.856 541.578 598.096 541.417 597.525 541.786C596.955 542.156 596.794 542.917 597.163 543.488C597.533 544.057 598.294 544.219 598.865 543.849Z" fill="white"/>
<path d="M590.828 495.328C591.399 494.96 591.561 494.198 591.191 493.629C590.821 493.059 590.059 492.897 589.49 493.266C588.92 493.636 588.758 494.398 589.128 494.967C589.498 495.536 590.259 495.698 590.828 495.328Z" fill="white"/>
<path opacity="0.3" d="M422.442 591.907C423.201 591.414 423.417 590.398 422.924 589.638C422.43 588.878 421.416 588.662 420.655 589.155C419.896 589.649 419.68 590.663 420.172 591.424C420.666 592.183 421.681 592.399 422.442 591.907Z" fill="white"/>
<path d="M390.758 543.095C391.517 542.602 391.733 541.586 391.239 540.827C390.747 540.068 389.732 539.852 388.972 540.344C388.212 540.837 387.996 541.853 388.489 542.612C388.981 543.373 389.997 543.588 390.758 543.095Z" fill="white"/>
<path d="M467.661 584.056C468.231 583.686 468.393 582.924 468.023 582.355C467.653 581.785 466.892 581.624 466.322 581.993C465.752 582.362 465.59 583.124 465.96 583.693C466.33 584.263 467.092 584.426 467.661 584.056Z" fill="white"/>
<path opacity="0.3" d="M483.606 535.604C484.365 535.111 484.581 534.095 484.089 533.336C483.595 532.575 482.58 532.359 481.819 532.853C481.06 533.346 480.844 534.362 481.336 535.121C481.829 535.88 482.845 536.096 483.606 535.604Z" fill="white"/>
<path opacity="0.3" d="M583.346 540.245C584.105 539.753 584.321 538.737 583.827 537.978C583.335 537.218 582.32 537.002 581.56 537.495C580.8 537.987 580.584 539.003 581.077 539.762C581.569 540.523 582.585 540.738 583.346 540.245Z" fill="white"/>
<path opacity="0.3" d="M503.799 593.82C504.558 593.328 504.775 592.312 504.282 591.553C503.788 590.792 502.773 590.576 502.013 591.07C501.253 591.562 501.037 592.578 501.53 593.338C502.022 594.097 503.038 594.313 503.799 593.82Z" fill="white"/>
<path opacity="0.3" d="M116.757 861.6C117.517 861.106 117.733 860.092 117.24 859.331C116.747 858.572 115.732 858.356 114.972 858.848C114.212 859.342 113.996 860.357 114.489 861.117C114.982 861.877 115.998 862.093 116.757 861.6Z" fill="white"/>
<path opacity="0.3" d="M36.5229 859.929C37.2826 859.436 37.4988 858.422 37.0057 857.661C36.5127 856.902 35.4973 856.686 34.7375 857.178C33.9779 857.671 33.7617 858.687 34.2546 859.447C34.7477 860.207 35.7633 860.423 36.5229 859.929Z" fill="white"/>
<path opacity="0.11" d="M541.774 537.913C542.533 537.421 542.749 536.405 542.256 535.645C541.762 534.886 540.748 534.67 539.987 535.163C539.228 535.655 539.012 536.671 539.504 537.43C539.998 538.191 541.013 538.407 541.774 537.913Z" fill="white"/>
<path opacity="0.3" d="M119.669 772.756C120.429 772.262 120.645 771.248 120.152 770.487C119.659 769.728 118.644 769.512 117.884 770.004C117.124 770.498 116.908 771.513 117.401 772.274C117.894 773.033 118.91 773.249 119.669 772.756Z" fill="white"/>
<path opacity="0.11" d="M92.1831 771.051C92.9429 770.558 93.1589 769.542 92.666 768.783C92.1729 768.023 91.1575 767.806 90.3978 768.3C89.638 768.793 89.4218 769.809 89.9149 770.568C90.4079 771.327 91.4234 771.544 92.1831 771.051Z" fill="white"/>
<path opacity="0.3" d="M115.242 818.619C116.001 818.127 116.218 817.111 115.724 816.351C115.232 815.591 114.216 815.375 113.456 815.869C112.697 816.361 112.48 817.377 112.973 818.136C113.466 818.896 114.482 819.112 115.242 818.619Z" fill="white"/>
<path d="M157.759 790.048C158.328 789.678 158.49 788.918 158.121 788.347C157.751 787.778 156.99 787.616 156.419 787.986C155.85 788.355 155.688 789.116 156.058 789.687C156.428 790.256 157.19 790.418 157.759 790.048Z" fill="white"/>
<path opacity="0.11" d="M382.92 344.586C383.679 344.093 383.896 343.078 383.403 342.318C382.909 341.558 381.894 341.341 381.134 341.835C380.375 342.328 380.158 343.344 380.651 344.103C381.145 344.862 382.159 345.079 382.92 344.586Z" fill="white"/>
<path d="M392.29 349.251C392.86 348.882 393.022 348.12 392.652 347.55C392.282 346.981 391.521 346.819 390.951 347.189C390.381 347.557 390.219 348.319 390.589 348.889C390.959 349.458 391.72 349.621 392.29 349.251Z" fill="white"/>
<path d="M405.613 320.091C406.184 319.721 406.346 318.961 405.976 318.39C405.606 317.821 404.844 317.659 404.275 318.029C403.705 318.398 403.544 319.16 403.913 319.73C404.283 320.299 405.044 320.461 405.613 320.091Z" fill="white"/>
<path d="M346.281 356.638C346.85 356.268 347.012 355.506 346.642 354.937C346.272 354.368 345.512 354.206 344.941 354.575C344.371 354.944 344.21 355.706 344.579 356.275C344.949 356.845 345.71 357.007 346.281 356.638Z" fill="white"/>
<path opacity="0.11" d="M322.953 395.222C323.712 394.729 323.929 393.713 323.436 392.954C322.942 392.195 321.928 391.979 321.167 392.471C320.408 392.964 320.191 393.98 320.684 394.739C321.178 395.5 322.193 395.714 322.953 395.222Z" fill="white"/>
<path d="M300.08 388.575C300.458 388.329 300.567 387.821 300.32 387.442C300.075 387.062 299.567 386.955 299.187 387.2C298.809 387.447 298.7 387.954 298.947 388.333C299.193 388.713 299.701 388.822 300.08 388.575Z" fill="white"/>
<path d="M398.25 372.738C398.628 372.492 398.737 371.984 398.49 371.606C398.244 371.227 397.736 371.118 397.357 371.365C396.979 371.61 396.87 372.118 397.117 372.498C397.362 372.878 397.87 372.985 398.25 372.738Z" fill="white"/>
<path d="M548.128 275.479C548.508 275.233 548.616 274.725 548.369 274.346C548.124 273.966 547.616 273.859 547.236 274.104C546.857 274.351 546.749 274.858 546.996 275.238C547.242 275.617 547.75 275.726 548.128 275.479Z" fill="white"/>
<path d="M598.968 189.721C599.348 189.474 599.457 188.968 599.21 188.588C598.964 188.208 598.456 188.101 598.076 188.347C597.697 188.594 597.589 189.1 597.835 189.48C598.082 189.859 598.589 189.967 598.968 189.721Z" fill="white"/>
<path d="M658.357 222.51C658.737 222.265 658.844 221.757 658.597 221.377C658.352 220.998 657.844 220.89 657.466 221.136C657.086 221.383 656.977 221.889 657.224 222.269C657.47 222.648 657.978 222.757 658.357 222.51Z" fill="white"/>
<path d="M158.155 504.122C158.535 503.876 158.644 503.368 158.397 502.988C158.151 502.609 157.643 502.501 157.263 502.747C156.884 502.994 156.776 503.501 157.023 503.88C157.269 504.26 157.777 504.369 158.155 504.122Z" fill="white"/>
<path opacity="0.11" d="M123.757 473.687C124.137 473.442 124.245 472.934 123.999 472.554C123.752 472.176 123.245 472.067 122.866 472.314C122.486 472.56 122.378 473.068 122.624 473.447C122.871 473.827 123.378 473.934 123.757 473.687Z" fill="white"/>
<path opacity="0.11" d="M104.461 508.683C104.84 508.436 104.948 507.929 104.702 507.55C104.455 507.17 103.948 507.061 103.569 507.308C103.189 507.554 103.081 508.062 103.327 508.441C103.574 508.821 104.081 508.928 104.461 508.683Z" fill="white"/>
<path opacity="0.11" d="M153.916 535.213C154.296 534.967 154.403 534.459 154.157 534.08C153.91 533.7 153.404 533.593 153.024 533.84C152.645 534.085 152.536 534.593 152.783 534.973C153.028 535.351 153.536 535.46 153.916 535.213Z" fill="white"/>
<path opacity="0.11" d="M299.688 401.527C300.066 401.282 300.175 400.774 299.928 400.394C299.682 400.016 299.174 399.907 298.795 400.154C298.415 400.4 298.308 400.908 298.555 401.287C298.8 401.665 299.308 401.774 299.688 401.527Z" fill="white"/>
<path opacity="0.11" d="M412.945 398.381C413.324 398.135 413.432 397.627 413.185 397.249C412.94 396.869 412.432 396.76 412.052 397.007C411.674 397.253 411.565 397.761 411.812 398.141C412.058 398.52 412.566 398.628 412.945 398.381Z" fill="white"/>
<path opacity="0.11" d="M540.477 305.844C540.856 305.597 540.964 305.091 540.717 304.711C540.471 304.332 539.963 304.224 539.585 304.47C539.205 304.717 539.096 305.223 539.343 305.603C539.589 305.982 540.097 306.09 540.477 305.844Z" fill="white"/>
<path opacity="0.3" d="M178.633 466.411C179.012 466.164 179.12 465.658 178.873 465.278C178.627 464.899 178.119 464.79 177.741 465.037C177.361 465.282 177.253 465.79 177.5 466.17C177.745 466.55 178.253 466.657 178.633 466.411Z" fill="white"/>
<path d="M312.662 326.669C313.042 326.422 313.149 325.915 312.904 325.535C312.657 325.156 312.15 325.048 311.77 325.294C311.391 325.54 311.282 326.047 311.529 326.427C311.775 326.807 312.282 326.914 312.662 326.669Z" fill="white"/>
<path d="M417.644 256.586C418.023 256.341 418.132 255.833 417.885 255.453C417.639 255.074 417.131 254.966 416.752 255.212C416.372 255.459 416.265 255.965 416.512 256.345C416.757 256.725 417.265 256.832 417.644 256.586Z" fill="white"/>
<path d="M306.958 420.258C307.338 420.013 307.446 419.505 307.199 419.125C306.954 418.746 306.446 418.638 306.066 418.884C305.687 419.131 305.579 419.637 305.826 420.017C306.072 420.396 306.58 420.505 306.958 420.258Z" fill="white"/>
<path opacity="0.3" d="M258.834 451.491C259.214 451.245 259.321 450.737 259.074 450.358C258.828 449.978 258.32 449.871 257.942 450.116C257.563 450.363 257.454 450.87 257.701 451.249C257.946 451.629 258.454 451.738 258.834 451.491Z" fill="white"/>
<path opacity="0.11" d="M174.804 445.448C175.183 445.202 175.292 444.694 175.045 444.314C174.8 443.935 174.292 443.827 173.912 444.073C173.532 444.32 173.425 444.827 173.671 445.206C173.918 445.586 174.424 445.695 174.804 445.448Z" fill="white"/>
<path opacity="0.3" d="M335.754 335.137C336.134 334.892 336.241 334.384 335.994 334.004C335.748 333.624 335.24 333.517 334.861 333.763C334.483 334.01 334.374 334.516 334.621 334.896C334.866 335.275 335.374 335.384 335.754 335.137Z" fill="white"/>
<path opacity="0.3" d="M327.129 425.735C327.508 425.489 327.616 424.981 327.369 424.602C327.123 424.222 326.615 424.115 326.237 424.36C325.858 424.607 325.749 425.114 325.996 425.494C326.241 425.873 326.749 425.982 327.129 425.735Z" fill="white"/>
<path opacity="0.3" d="M248.401 486.596C248.779 486.35 248.888 485.842 248.641 485.462C248.395 485.084 247.887 484.975 247.508 485.222C247.128 485.468 247.021 485.976 247.268 486.355C247.513 486.735 248.021 486.843 248.401 486.596Z" fill="white"/>
<path opacity="0.3" d="M198.574 453.473C198.954 453.228 199.061 452.72 198.816 452.34C198.569 451.96 198.062 451.853 197.682 452.099C197.303 452.346 197.194 452.852 197.441 453.232C197.687 453.611 198.195 453.72 198.574 453.473Z" fill="white"/>
<path opacity="0.3" d="M624.854 173.903C625.232 173.656 625.341 173.149 625.094 172.77C624.848 172.39 624.34 172.283 623.96 172.528C623.582 172.775 623.473 173.282 623.72 173.661C623.966 174.041 624.474 174.149 624.854 173.903Z" fill="white"/>
<path opacity="0.11" d="M495.87 217.545C496.25 217.299 496.359 216.791 496.112 216.412C495.866 216.033 495.358 215.925 494.979 216.172C494.599 216.417 494.492 216.925 494.737 217.305C494.984 217.683 495.491 217.792 495.87 217.545Z" fill="white"/>
<path opacity="0.11" d="M625.475 215.508C625.854 215.262 625.962 214.754 625.715 214.374C625.469 213.996 624.961 213.887 624.583 214.134C624.203 214.38 624.094 214.888 624.341 215.268C624.587 215.647 625.095 215.755 625.475 215.508Z" fill="white"/>
<path opacity="0.3" d="M455.553 334.577C456.312 334.085 456.528 333.069 456.036 332.31C455.542 331.55 454.527 331.334 453.767 331.827C453.007 332.319 452.791 333.335 453.284 334.094C453.778 334.855 454.792 335.07 455.553 334.577Z" fill="white"/>
<path opacity="0.11" d="M482.733 287.628C483.492 287.134 483.708 286.119 483.215 285.358C482.721 284.599 481.707 284.383 480.946 284.876C480.187 285.37 479.971 286.384 480.463 287.145C480.956 287.904 481.972 288.12 482.733 287.628Z" fill="white"/>
<path d="M466.779 263.786C467.348 263.416 467.51 262.656 467.14 262.086C466.77 261.517 466.01 261.354 465.439 261.723C464.869 262.093 464.708 262.855 465.077 263.425C465.447 263.994 466.208 264.156 466.779 263.786Z" fill="white"/>
<path d="M466.187 366.76C466.758 366.39 466.92 365.628 466.55 365.058C466.18 364.489 465.418 364.327 464.849 364.696C464.28 365.065 464.118 365.827 464.488 366.397C464.857 366.966 465.618 367.128 466.187 366.76Z" fill="white"/>
<path d="M703.359 232.386C703.928 232.016 704.09 231.255 703.72 230.686C703.35 230.117 702.59 229.953 702.019 230.323C701.45 230.693 701.288 231.455 701.657 232.024C702.027 232.594 702.788 232.756 703.359 232.386Z" fill="white"/>
<path d="M249.583 510.253C250.153 509.883 250.315 509.122 249.945 508.552C249.575 507.983 248.813 507.821 248.244 508.191C247.674 508.561 247.512 509.321 247.882 509.891C248.252 510.461 249.013 510.623 249.583 510.253Z" fill="white"/>
<path d="M147.892 553.778C148.461 553.408 148.623 552.648 148.253 552.079C147.884 551.509 147.123 551.346 146.552 551.716C145.983 552.085 145.821 552.847 146.191 553.417C146.561 553.986 147.321 554.148 147.892 553.778Z" fill="white"/>
<path d="M118.356 533.865C118.926 533.495 119.088 532.733 118.718 532.163C118.348 531.594 117.587 531.432 117.017 531.802C116.448 532.172 116.286 532.932 116.655 533.502C117.025 534.073 117.786 534.234 118.356 533.865Z" fill="white"/>
<path d="M442.704 298.955C443.274 298.585 443.436 297.823 443.066 297.253C442.696 296.684 441.935 296.522 441.365 296.892C440.795 297.26 440.633 298.022 441.003 298.592C441.373 299.161 442.134 299.323 442.704 298.955Z" fill="white"/>
<path d="M356.091 427.458C356.66 427.089 356.822 426.327 356.453 425.757C356.083 425.188 355.322 425.026 354.751 425.396C354.182 425.764 354.02 426.526 354.39 427.096C354.76 427.665 355.52 427.828 356.091 427.458Z" fill="white"/>
<path d="M548.527 344.591C549.098 344.221 549.26 343.459 548.89 342.89C548.52 342.321 547.758 342.159 547.189 342.529C546.619 342.898 546.458 343.659 546.827 344.228C547.197 344.798 547.958 344.961 548.527 344.591Z" fill="white"/>
<path d="M700.372 179.609C700.942 179.239 701.104 178.478 700.734 177.908C700.364 177.338 699.603 177.176 699.033 177.546C698.463 177.916 698.301 178.677 698.671 179.247C699.041 179.817 699.802 179.979 700.372 179.609Z" fill="white"/>
<path d="M692.337 131.089C692.907 130.719 693.068 129.958 692.699 129.388C692.329 128.819 691.568 128.657 690.997 129.026C690.428 129.396 690.266 130.157 690.636 130.727C691.006 131.297 691.766 131.459 692.337 131.089Z" fill="white"/>
<path opacity="0.3" d="M523.946 227.667C524.707 227.173 524.923 226.158 524.43 225.397C523.936 224.638 522.922 224.422 522.161 224.915C521.402 225.409 521.186 226.423 521.678 227.184C522.171 227.943 523.187 228.159 523.946 227.667Z" fill="white"/>
<path d="M492.264 178.855C493.023 178.362 493.239 177.346 492.747 176.587C492.253 175.828 491.238 175.611 490.478 176.104C489.718 176.597 489.502 177.613 489.995 178.372C490.489 179.132 491.503 179.347 492.264 178.855Z" fill="white"/>
<path d="M569.167 219.816C569.737 219.446 569.899 218.684 569.529 218.115C569.159 217.545 568.397 217.383 567.828 217.753C567.258 218.122 567.096 218.884 567.466 219.453C567.836 220.022 568.596 220.184 569.167 219.816Z" fill="white"/>
<path opacity="0.3" d="M585.112 171.362C585.871 170.869 586.087 169.853 585.594 169.094C585.1 168.333 584.086 168.117 583.325 168.611C582.566 169.103 582.35 170.119 582.842 170.879C583.336 171.638 584.351 171.854 585.112 171.362Z" fill="white"/>
<path opacity="0.3" d="M684.85 176.005C685.609 175.512 685.825 174.496 685.333 173.737C684.839 172.978 683.824 172.762 683.063 173.254C682.304 173.747 682.088 174.763 682.581 175.522C683.075 176.283 684.089 176.498 684.85 176.005Z" fill="white"/>
<path opacity="0.3" d="M605.303 229.58C606.062 229.088 606.278 228.072 605.786 227.312C605.292 226.552 604.277 226.336 603.517 226.83C602.757 227.322 602.541 228.337 603.034 229.097C603.528 229.857 604.542 230.073 605.303 229.58Z" fill="white"/>
<path opacity="0.3" d="M218.264 497.362C219.023 496.868 219.239 495.853 218.747 495.093C218.253 494.334 217.238 494.117 216.478 494.61C215.718 495.104 215.502 496.118 215.995 496.879C216.489 497.638 217.503 497.855 218.264 497.362Z" fill="white"/>
<path opacity="0.3" d="M138.029 495.689C138.788 495.196 139.005 494.181 138.512 493.421C138.019 492.662 137.003 492.445 136.243 492.938C135.484 493.431 135.268 494.447 135.76 495.206C136.254 495.966 137.269 496.183 138.029 495.689Z" fill="white"/>
<path opacity="0.11" d="M643.278 173.673C644.037 173.18 644.253 172.164 643.76 171.405C643.266 170.646 642.252 170.43 641.491 170.922C640.732 171.415 640.516 172.431 641.008 173.19C641.502 173.951 642.517 174.167 643.278 173.673Z" fill="white"/>
<path opacity="0.3" d="M221.174 408.516C221.933 408.022 222.15 407.008 221.657 406.247C221.163 405.488 220.148 405.272 219.388 405.764C218.628 406.258 218.412 407.273 218.905 408.033C219.399 408.793 220.413 409.009 221.174 408.516Z" fill="white"/>
<path opacity="0.11" d="M193.69 406.811C194.449 406.318 194.665 405.302 194.173 404.543C193.678 403.782 192.664 403.566 191.903 404.06C191.144 404.553 190.928 405.569 191.42 406.328C191.914 407.087 192.929 407.303 193.69 406.811Z" fill="white"/>
<path opacity="0.3" d="M216.748 454.379C217.507 453.886 217.724 452.87 217.231 452.111C216.737 451.351 215.722 451.134 214.962 451.628C214.203 452.121 213.986 453.137 214.479 453.896C214.973 454.655 215.988 454.872 216.748 454.379Z" fill="white"/>
<path d="M259.265 425.808C259.834 425.438 259.996 424.677 259.626 424.107C259.257 423.537 258.495 423.375 257.925 423.745C257.356 424.115 257.194 424.876 257.564 425.446C257.934 426.016 258.694 426.178 259.265 425.808Z" fill="white"/>
<path d="M731.496 261.688C731.876 261.442 731.983 260.934 731.736 260.555C731.491 260.175 730.983 260.068 730.603 260.313C730.225 260.56 730.116 261.067 730.363 261.447C730.609 261.826 731.117 261.935 731.496 261.688Z" fill="white"/>
<path d="M589.57 377.239C589.95 376.993 590.057 376.485 589.81 376.106C589.565 375.726 589.057 375.619 588.677 375.864C588.299 376.111 588.19 376.618 588.437 376.997C588.683 377.377 589.191 377.486 589.57 377.239Z" fill="white"/>
<path opacity="0.11" d="M555.174 346.803C555.553 346.557 555.661 346.049 555.414 345.671C555.168 345.291 554.66 345.182 554.282 345.429C553.902 345.675 553.794 346.183 554.041 346.562C554.286 346.942 554.794 347.05 555.174 346.803Z" fill="white"/>
<path opacity="0.11" d="M535.874 381.8C536.254 381.553 536.363 381.046 536.116 380.667C535.87 380.287 535.362 380.178 534.982 380.425C534.603 380.671 534.495 381.179 534.742 381.559C534.988 381.938 535.496 382.046 535.874 381.8Z" fill="white"/>
<path opacity="0.11" d="M585.33 408.328C585.709 408.082 585.818 407.574 585.57 407.196C585.325 406.817 584.817 406.708 584.437 406.955C584.058 407.2 583.95 407.708 584.197 408.088C584.443 408.467 584.951 408.575 585.33 408.328Z" fill="white"/>
<path opacity="0.11" d="M731.102 274.64C731.481 274.395 731.589 273.887 731.342 273.509C731.096 273.129 730.589 273.02 730.21 273.267C729.83 273.513 729.721 274.021 729.968 274.4C730.214 274.78 730.722 274.887 731.102 274.64Z" fill="white"/>
<path opacity="0.3" d="M610.046 339.525C610.426 339.278 610.535 338.771 610.288 338.391C610.042 338.012 609.534 337.903 609.154 338.15C608.775 338.396 608.667 338.904 608.913 339.283C609.16 339.663 609.667 339.77 610.046 339.525Z" fill="white"/>
<path opacity="0.3" d="M690.247 324.606C690.627 324.36 690.736 323.852 690.489 323.473C690.243 323.093 689.735 322.986 689.356 323.231C688.976 323.478 688.869 323.985 689.114 324.365C689.361 324.744 689.868 324.853 690.247 324.606Z" fill="white"/>
<path opacity="0.11" d="M606.218 318.563C606.597 318.317 606.706 317.809 606.459 317.43C606.214 317.05 605.706 316.943 605.326 317.188C604.946 317.435 604.839 317.942 605.086 318.322C605.332 318.701 605.84 318.81 606.218 318.563Z" fill="white"/>
<path opacity="0.3" d="M679.812 359.712C680.191 359.465 680.3 358.959 680.053 358.579C679.808 358.199 679.3 358.09 678.92 358.337C678.54 358.583 678.433 359.091 678.679 359.471C678.926 359.85 679.432 359.958 679.812 359.712Z" fill="white"/>
<path opacity="0.3" d="M629.989 326.59C630.367 326.345 630.476 325.837 630.229 325.457C629.983 325.078 629.475 324.97 629.096 325.216C628.716 325.463 628.608 325.969 628.855 326.349C629.101 326.729 629.609 326.837 629.989 326.59Z" fill="white"/>
<path d="M680.997 383.371C681.567 383.001 681.729 382.239 681.359 381.669C680.989 381.1 680.228 380.938 679.658 381.308C679.088 381.678 678.926 382.438 679.296 383.008C679.666 383.578 680.427 383.74 680.997 383.371Z" fill="white"/>
<path d="M579.306 426.894C579.875 426.524 580.037 425.763 579.667 425.194C579.298 424.624 578.537 424.461 577.966 424.831C577.397 425.201 577.235 425.963 577.605 426.532C577.975 427.101 578.735 427.263 579.306 426.894Z" fill="white"/>
<path d="M549.771 406.98C550.34 406.61 550.502 405.848 550.132 405.279C549.762 404.709 549.002 404.547 548.431 404.917C547.862 405.287 547.7 406.048 548.07 406.617C548.439 407.188 549.2 407.35 549.771 406.98Z" fill="white"/>
<path opacity="0.3" d="M649.678 370.477C650.437 369.983 650.653 368.969 650.161 368.208C649.667 367.449 648.652 367.232 647.892 367.725C647.132 368.219 646.916 369.234 647.409 369.994C647.903 370.754 648.917 370.97 649.678 370.477Z" fill="white"/>
<path opacity="0.3" d="M569.444 368.806C570.203 368.313 570.419 367.299 569.926 366.538C569.432 365.779 568.418 365.563 567.657 366.055C566.898 366.548 566.682 367.564 567.174 368.323C567.668 369.084 568.683 369.3 569.444 368.806Z" fill="white"/>
<path opacity="0.3" d="M652.588 281.631C653.347 281.137 653.564 280.123 653.071 279.362C652.577 278.603 651.562 278.387 650.802 278.879C650.043 279.373 649.826 280.388 650.319 281.149C650.813 281.908 651.827 282.124 652.588 281.631Z" fill="white"/>
<path opacity="0.11" d="M625.104 279.926C625.863 279.433 626.079 278.417 625.587 277.658C625.093 276.898 624.078 276.681 623.317 277.175C622.558 277.668 622.342 278.684 622.834 279.443C623.329 280.202 624.343 280.419 625.104 279.926Z" fill="white"/>
<path opacity="0.3" d="M648.162 327.494C648.921 327.002 649.138 325.986 648.645 325.227C648.151 324.466 647.137 324.25 646.376 324.744C645.617 325.236 645.4 326.252 645.893 327.011C646.387 327.771 647.402 327.987 648.162 327.494Z" fill="white"/>
<path d="M690.679 298.923C691.248 298.553 691.41 297.793 691.04 297.222C690.671 296.653 689.91 296.491 689.339 296.861C688.77 297.23 688.608 297.992 688.978 298.562C689.348 299.131 690.108 299.293 690.679 298.923Z" fill="white"/>
</g>
</g>
</svg>
