<svg width="78" height="79" viewBox="0 0 78 79" fill="none" xmlns="http://www.w3.org/2000/svg">
<g clip-path="url(#clip0_28_4540)">
<path d="M72.6774 50.1484C72.4898 49.5398 72.2171 49.0562 71.8623 48.6961C73.3355 47.4458 73.2907 45.5584 73.2721 44.8392C73.1599 40.3501 72.2639 35.9152 70.6245 31.7346C69.7827 29.5852 68.3536 26.4725 65.6761 24.2711C64.3941 23.2166 62.8812 22.4657 61.3011 22.0996C60.3253 21.8735 59.3555 21.8021 58.4201 21.8828C58.146 20.9233 57.8529 19.9694 57.541 19.0215C57.3759 18.5202 57.2042 18.0212 57.0257 17.5246L66.0203 17.6378C65.8423 17.8363 65.6763 18.0791 65.5361 18.3826C64.1962 19.0306 64.0491 20.22 64.0434 20.6597C64.0398 20.954 64.1044 22.2533 65.4732 22.9728C65.9069 23.99 66.6408 24.3948 67.2788 24.543L67.2794 24.5432C67.4463 24.5819 67.6375 24.6047 67.8088 24.607C68.2621 24.6127 69.5082 24.4858 70.1783 23.0347C71.5185 22.3866 71.6657 21.1973 71.6713 20.7578C71.6749 20.4634 71.6105 19.1638 70.2412 18.4446C69.9686 17.8046 69.5767 17.4076 69.1645 17.1638C69.6294 16.808 69.9466 16.293 70.0554 15.7178C70.113 15.4125 70.1428 15.1236 70.1466 14.8342C70.177 12.4291 68.4741 10.284 66.0979 9.73341C65.7241 9.64695 65.342 9.60098 64.9583 9.5963C64.958 9.5963 64.9577 9.59615 64.9574 9.59645C64.0596 7.58627 62.4772 6.1419 60.5543 5.69645C60.1755 5.60872 59.7884 5.56198 59.3995 5.55706C57.0122 5.52704 54.8934 7.0552 53.7449 9.46315C53.4804 9.47438 53.2172 9.50463 52.9571 9.55364C52.3357 8.72002 51.676 7.96378 50.9652 7.26879C49.4355 5.77384 47.3274 3.97603 44.5776 3.33893C43.7876 3.15563 42.9766 3.07867 42.1663 3.11011C40.7719 3.1645 39.3726 3.44999 38.007 3.95806C37.0929 4.29966 36.2149 4.73118 35.3861 5.24627L35.2957 5.30386C35.2368 5.34103 35.1822 5.37881 35.1242 5.41644C34.9784 4.69449 34.465 3.69618 32.8116 3.16541C32.5319 2.05604 31.9231 0.882997 30.5592 0.567036C30.3789 0.52532 30.1947 0.503052 30.0097 0.500614C28.9759 0.487665 27.7454 0.976993 27.1543 3.0964C25.0905 3.70136 24.7161 5.00557 24.7055 5.8395C24.6979 6.47569 24.9255 7.95418 27.0718 8.64354C27.0826 8.6865 27.0949 8.72961 27.1066 8.77273C27.0524 8.77029 26.9986 8.76389 26.9442 8.76328C24.4642 8.73175 22.2752 10.4782 21.1308 13.2128C18.2699 13.3593 15.9299 15.7973 15.6196 19.0252C15.588 19.3534 15.6249 19.6846 15.7279 19.9978C15.8309 20.311 15.9978 20.5995 16.2179 20.8449C16.4381 21.0904 16.7069 21.2874 17.0071 21.4237C17.3074 21.5599 17.6327 21.6324 17.9624 21.6365L21.9777 21.6872C20.545 22.0355 19.1479 22.7067 17.9148 23.6698C15.1821 25.8045 13.6757 28.8794 12.7801 31.0068C12.6786 31.2485 12.5795 31.4912 12.4829 31.7349C12.2859 31.135 11.8048 30.3987 10.6502 29.9543C10.2827 28.7619 9.59259 28.0431 8.58682 27.8101C8.40915 27.7689 8.22758 27.747 8.04523 27.7446C7.25 27.735 6.00581 28.0456 5.38638 29.8956C3.6131 30.5285 3.36615 31.8184 3.35807 32.4462C3.35229 32.9093 3.49016 34.3499 5.32224 35.0555C5.68939 36.2476 6.37951 36.9664 7.38498 37.1996L7.38559 37.1998C7.56307 37.2409 7.74527 37.2628 7.92717 37.2653C8.72255 37.2749 9.96659 36.9642 10.586 35.1142C10.9268 34.9926 11.2103 34.8464 11.4475 34.6855C10.5156 37.7243 9.96326 40.8669 9.80313 44.0414C9.78835 44.3342 9.76565 44.8221 9.83908 45.3831C9.63306 45.5788 9.45996 45.8065 9.32645 46.0573C8.13908 46.7302 8.04371 47.9079 8.03944 48.2096C8.0303 48.9322 8.36485 49.8269 9.2652 50.3836C9.72193 51.2992 10.4577 51.6257 10.9564 51.7414L10.957 51.7416C11.1233 51.7801 11.3097 51.8027 11.4806 51.8047C11.6104 51.8063 11.9046 51.794 12.2528 51.6855C12.1607 51.886 12.0765 52.09 12.0004 52.297C10.8043 52.4611 9.69161 52.9727 8.79949 53.781C7.63269 54.8384 6.97913 56.2692 6.96009 57.8111C6.95798 57.9975 6.96556 58.184 6.98279 58.3696C7.07755 59.4119 7.83424 60.2486 8.81731 60.4764C8.98139 60.5145 9.15216 60.5355 9.32705 60.5378L25.3833 60.7398C24.69 62.1549 24.32 63.6037 24.2153 65.2839C24.0418 68.0748 25.5629 70.87 27.9147 72.0819C28.6458 72.4587 29.3604 72.6489 29.9913 72.817C30.4186 72.9309 30.822 73.0385 31.095 73.175C31.7569 73.5063 32.1571 74.4821 31.9184 75.1824C31.5764 76.1868 31.9426 77.2616 32.7505 77.8631C33.0556 78.1455 33.429 78.3435 33.834 78.4375C34.8757 78.6789 35.6379 78.1626 35.9249 77.968C35.9692 77.938 36.0127 77.9062 36.055 77.8733C36.1269 77.817 36.1962 77.7602 36.2631 77.7019C36.2925 77.6883 36.3219 77.674 36.3513 77.6586C40.1366 75.724 41.7272 71.0173 41.9391 67.5747C42.0033 66.5375 41.9375 65.4819 41.7446 64.4372C41.417 62.6665 40.3479 61.1432 39.1777 59.8405C39.3688 59.6934 39.5444 59.5273 39.7021 59.3449C40.4606 58.4663 40.6317 57.429 40.6721 56.7377C41.4958 56.7561 42.314 56.7624 43.1219 56.7563C43.1442 57.4493 43.2874 58.493 44.0241 59.3923C44.288 59.7142 44.6051 59.9863 44.9731 60.2075C44.3451 61.5563 44.0128 62.9448 43.9138 64.5415C43.7397 67.3323 45.2608 70.1278 47.6119 71.3395C48.3437 71.7166 49.0588 71.9072 49.6899 72.0752C50.1171 72.1889 50.5205 72.2963 50.7935 72.4328C51.4554 72.7641 51.8556 73.7399 51.6169 74.4402C51.2749 75.4446 51.6411 76.5194 52.449 77.1208C52.7541 77.4033 53.1275 77.6013 53.5325 77.6953C54.5725 77.9363 55.3344 77.4214 55.621 77.2276C55.6662 77.1972 55.7104 77.165 55.7535 77.1313C55.8257 77.0748 55.8955 77.0175 55.9631 76.9589C55.9919 76.9455 56.0209 76.9313 56.05 76.9165C59.8354 74.9816 61.4259 70.2753 61.6379 66.8323C61.7019 65.7956 61.6364 64.7403 61.4434 63.6951C61.2639 62.7242 60.8608 61.8278 60.3404 61.0009C60.7153 61.3394 61.1261 61.4987 61.4419 61.572L61.4425 61.5722C61.6088 61.6107 61.7952 61.6333 61.9661 61.6352C62.2755 61.6394 63.5168 61.5703 64.2104 60.2812C65.401 59.6076 65.4941 58.427 65.4976 58.128C65.5067 57.4054 65.1719 56.5106 64.2715 55.954C63.8148 55.0388 63.079 54.712 62.58 54.5964C62.4082 54.5571 62.2327 54.536 62.0564 54.5333C61.747 54.5292 60.5051 54.5983 59.8118 55.8879C59.4541 56.0905 59.1969 56.339 59.0102 56.5954C59.1217 56.1291 59.1809 55.6277 59.1808 55.0878C59.6341 54.9521 60.0667 54.7549 60.4666 54.5019C60.734 54.3323 60.9854 54.1387 61.2176 53.9235C61.3719 53.7794 61.5173 53.6261 61.6529 53.4643C62.0266 53.0237 62.3246 52.5242 62.5348 51.9861C62.7098 51.5374 62.8216 51.0667 62.8672 50.5873C62.8984 50.2605 62.8986 49.9284 62.8675 49.5972L62.7741 48.6155C62.6958 47.7888 62.6159 46.9622 62.5345 46.1358C63.8499 47.2736 65.3162 48.2243 66.8918 48.9609C67.175 49.0934 67.466 49.2084 67.7632 49.3053C67.6206 49.5545 67.5033 49.8174 67.4133 50.09C65.6383 50.7233 65.3924 52.0141 65.385 52.6409C65.3792 53.104 65.5172 54.545 67.3492 55.2502C67.7166 56.4423 68.4067 57.1614 69.4122 57.3945H69.4125C69.5891 57.4354 69.7703 57.4574 69.9541 57.46C70.7492 57.4694 71.9929 57.1588 72.6128 55.3089C74.3864 54.6762 74.6332 53.3857 74.6412 52.756C74.6472 52.2928 74.5082 50.8534 72.6774 50.1484ZM20.4856 45.6218C20.4152 46.1893 20.3456 46.7569 20.2769 47.3247L20.1518 48.3624C19.753 48.1553 19.3327 47.9945 18.8923 47.8925C18.5265 47.8077 18.1527 47.7625 17.7773 47.7578C17.5828 47.7565 17.3884 47.7662 17.195 47.7867C18.3644 47.1819 19.4673 46.4563 20.4856 45.6218Z" fill="white"/>
<path d="M26.7353 24.3215C24.3614 23.2268 21.4427 23.9392 19.3825 25.5482C17.3224 27.1573 15.9915 29.5223 14.9774 31.9316C13.3445 35.8152 12.3994 39.9532 12.1843 44.1607C12.1476 44.8852 12.1773 45.7167 12.7326 46.1836C13.3767 46.7251 14.3517 46.4735 15.1226 46.1364C16.6467 45.4694 18.0615 44.5764 19.3193 43.4875C20.1246 42.7899 20.925 41.9809 21.9704 41.7748C22.8968 41.5921 23.8357 41.9214 24.7548 42.1383C25.6737 42.3552 26.7342 42.4323 27.4731 41.8444C28.0459 41.3886 28.2854 40.6414 28.4793 39.9354C29.6699 35.6003 30.2641 31.1232 30.2457 26.6276M56.8423 24.7006C59.243 23.666 62.1428 24.4515 64.1619 26.1119C66.1809 27.7723 67.4517 30.1702 68.4049 32.6042C69.9395 36.5277 70.7801 40.6882 70.8892 44.8997C70.9076 45.625 70.8571 46.4554 70.29 46.9082C69.6325 47.4333 68.6642 47.1571 67.902 46.8008C66.3952 46.0956 65.0034 45.1672 63.7734 44.047C62.9859 43.3293 62.2061 42.5006 61.1663 42.2681C60.2448 42.0621 59.2978 42.3676 58.3737 42.5614C57.4496 42.7551 56.3876 42.8056 55.6637 42.1991C55.1024 41.729 54.882 40.9759 54.7057 40.2654C53.6247 35.9017 53.1434 31.411 53.2749 26.9173" fill="#55C9F5"/>
<path d="M69.8779 47.1195C69.8353 46.3086 69.7613 45.4997 69.6561 44.6946C69.4747 43.2981 69.1636 41.6444 68.6672 39.8457C68.1633 38.0506 67.479 36.1076 66.5558 34.1602C65.6429 32.2178 64.6224 30.3981 63.3421 28.9877C62.7043 28.2852 62.0089 27.6918 61.2857 27.2438C60.5595 26.793 59.8132 26.5 59.1096 26.336C57.6976 25.9915 56.4899 26.179 55.7427 26.4549C54.9881 26.7413 54.656 27.05 54.6748 27.0742C54.7036 27.124 55.0782 26.8937 55.8169 26.6946C56.5506 26.5045 57.6849 26.3995 58.9951 26.7771C59.6476 26.958 60.3359 27.2567 60.9975 27.694C61.662 28.1319 62.3048 28.7049 62.8989 29.383C64.0913 30.7419 65.0727 32.5179 65.9726 34.4344C66.8801 36.3484 67.5695 38.2515 68.0967 40.0099C68.5575 41.5716 68.9278 43.1586 69.2058 44.763C69.3422 45.5677 69.4602 46.3753 69.5595 47.1854C69.6677 47.175 69.7745 47.1529 69.8779 47.1195ZM25.1652 26.3512C26.4845 26.0066 27.6158 26.1402 28.3444 26.3488C29.078 26.5665 29.4466 26.8061 29.4767 26.757C29.496 26.7333 29.1718 26.4164 28.4247 26.1111C27.6846 25.8165 26.482 25.5986 25.0617 25.9074C24.3542 26.0538 23.6008 26.3279 22.8634 26.7601C22.1291 27.1898 21.4189 27.7656 20.7638 28.4517C19.4483 29.8294 18.3824 31.6229 17.4208 33.5417C16.4487 35.4652 15.7156 37.3903 15.1667 39.1721C14.6253 40.9578 14.2726 42.6031 14.0561 43.9946C13.9266 44.8227 13.8304 45.6557 13.7676 46.4915C13.8772 46.4871 13.9864 46.4757 14.0945 46.4574C14.194 45.7933 14.3247 44.9918 14.5048 44.0741C14.8229 42.4772 15.2331 40.9 15.7331 39.3504C16.3046 37.6059 17.0414 35.7206 17.9969 33.8302C18.9448 31.937 19.9707 30.1861 21.1969 28.8577C21.808 28.1947 22.465 27.6382 23.1402 27.217C23.8127 26.797 24.5083 26.5156 25.1652 26.3512Z" fill="#3B6EFF"/>
<path d="M39.5604 67.4276C39.6118 66.5937 39.5618 65.7407 39.4009 64.8699C39.0786 63.1253 37.556 61.5371 36.338 60.3188C35.5477 59.5282 34.8254 59.2116 34.6169 57.9647C34.564 57.6489 34.2857 54.9144 34.6613 54.8416C33.4005 55.0854 32.104 55.0785 30.8457 54.8214C31.027 56.7066 29.7991 58.4016 28.6713 59.9232C27.3758 61.671 26.729 63.274 26.5947 65.4312C26.4858 67.1821 27.4229 69.1458 29.0065 69.962C29.9967 70.4724 31.166 70.544 32.1621 71.0425C33.8876 71.9059 34.7974 74.1236 34.1754 75.9502C34.2019 75.8725 35.1336 75.6035 35.2669 75.5352C38.0484 74.114 39.3803 70.3577 39.5604 67.4276ZM59.2591 66.6854C59.3104 65.8515 59.2604 64.9985 59.0996 64.1277C58.7771 62.3831 57.2547 60.7949 56.0367 59.5766C55.2463 58.7859 54.5241 58.4694 54.3155 57.2226C54.2627 56.9068 53.9843 54.1724 54.36 54.0995C53.0991 54.3433 51.8026 54.3364 50.5444 54.0793C50.7257 55.9645 49.4978 57.6597 48.37 59.1811C47.0745 60.929 46.4276 62.5318 46.2934 64.6891C46.1845 66.44 47.1215 68.4037 48.7052 69.22C49.6954 69.7303 50.8646 69.8019 51.8608 70.3004C53.5864 71.1639 54.496 73.3815 53.874 75.2081C53.9005 75.1304 54.8323 74.8614 54.9657 74.7932C57.7469 73.3718 59.0789 69.6155 59.2591 66.6854Z" fill="#55C9F5"/>
<path d="M30.8282 70.3463C30.856 70.3205 30.6956 70.1369 30.4715 69.7689C30.2468 69.4028 29.9798 68.8347 29.8186 68.087C29.6592 67.3405 29.6189 66.4167 29.7698 65.4152C29.9185 64.4131 30.2718 63.3394 30.6975 62.2311C31.1251 61.1214 31.5693 60.066 31.8752 59.0617C32.184 58.0599 32.3527 57.1187 32.3828 56.3207C32.4121 55.522 32.3129 54.8758 32.1916 54.448C32.0713 54.0187 31.9506 53.8019 31.929 53.81C31.8512 53.8284 32.2209 54.7585 32.0797 56.3015C32.0125 57.0681 31.8199 57.9705 31.498 58.9418C31.1796 59.9144 30.7285 60.9566 30.2963 62.0772C29.866 63.1982 29.5119 64.3063 29.3777 65.3604C29.2417 66.4115 29.3165 67.3811 29.523 68.1575C29.7313 68.9356 30.0572 69.5131 30.3335 69.8632C30.61 70.216 30.8135 70.3614 30.8282 70.3463ZM34.3696 76.1129C34.3779 76.1247 34.453 76.0857 34.588 75.9943C34.7773 75.8491 34.9447 75.6774 35.0851 75.4845C35.4532 74.9885 35.8008 74.0897 35.6925 72.9661C35.5871 71.8402 34.9843 70.624 34.2078 69.4234C33.8248 68.8169 33.4095 68.1961 33.0536 67.5211C32.6951 66.8477 32.4147 66.1137 32.3163 65.323C32.1147 63.7307 32.5343 62.1922 32.9086 60.8297C33.3056 59.4642 33.6596 58.2017 33.7722 57.1094C33.9012 56.018 33.7928 55.1148 33.6251 54.5254C33.4569 53.9331 33.2724 53.643 33.2541 53.6524C33.2186 53.6671 33.3489 53.9779 33.4622 54.5632C33.5751 55.1469 33.634 56.015 33.471 57.0704C33.323 58.13 32.9499 59.3483 32.5283 60.7197C32.3234 61.4069 32.1223 62.1384 31.9826 62.9177C31.848 63.6962 31.7796 64.5295 31.8902 65.3783C31.9956 66.2298 32.3045 67.0238 32.6817 67.7182C33.0573 68.4174 33.4857 69.0411 33.8746 69.6371C34.6627 70.8159 35.2548 71.9565 35.3906 73.001C35.5287 74.043 35.2509 74.8969 34.9459 75.3914C34.634 75.8931 34.3435 76.0816 34.3696 76.1129ZM27.9659 69.0143C28.0322 68.9823 27.7033 68.3841 27.5616 67.3308C27.4116 66.281 27.5398 64.7935 28.109 63.2634C28.6666 61.7317 29.3922 60.4141 29.8437 59.4264C30.3072 58.4446 30.5675 57.8235 30.5148 57.7963C30.4621 57.7691 30.1064 58.3408 29.5738 59.287C29.055 60.237 28.2825 61.5344 27.7044 63.1188C27.1142 64.6995 27.0232 66.2939 27.262 67.3807C27.4923 68.4793 27.9312 69.0422 27.9659 69.0143Z" fill="#FFE97B"/>
<path d="M37.7987 72.9845C37.8209 72.9926 37.9266 72.8052 38.0138 72.4286C38.0951 72.0539 38.1387 71.4821 38.0075 70.8016C37.8811 70.1218 37.5919 69.3437 37.1523 68.5527C36.717 67.762 36.1515 66.958 35.6425 66.0843C35.1256 65.2135 34.7723 64.3267 34.632 63.472C34.4801 62.6201 34.5108 61.8296 34.6045 61.1793C34.8101 59.8731 35.2368 59.1375 35.166 59.1048C35.145 59.0929 35.01 59.2578 34.8363 59.5978C34.6617 59.9361 34.4489 60.4529 34.3054 61.1259C34.1684 61.7979 34.1028 62.629 34.2414 63.5353C34.3662 64.4429 34.7393 65.407 35.2708 66.2995C35.7956 67.1991 36.3674 67.9909 36.8084 68.7488C37.2513 69.5015 37.5538 70.2306 37.7107 70.866C38.0351 72.1511 37.722 72.9716 37.7987 72.9845ZM38.8949 69.7267C38.9318 69.7484 39.2191 69.2053 39.1551 68.2585C39.1278 67.7901 38.999 67.2444 38.791 66.6694C38.5808 66.0948 38.2872 65.4938 37.9603 64.8824C37.2997 63.6768 36.7959 62.552 36.6666 61.6805C36.5193 60.8124 36.6763 60.2622 36.6029 60.2459C36.5653 60.2248 36.2892 60.7725 36.3651 61.7175C36.3982 62.1852 36.5322 62.7294 36.7444 63.3023C36.9585 63.8751 37.2545 64.4743 37.5814 65.0849C38.2412 66.2895 38.7346 67.4194 38.8533 68.292C38.9895 69.1615 38.8215 69.7091 38.8949 69.7267ZM50.5268 69.604C50.5547 69.5783 50.3943 69.3947 50.1702 69.0266C49.9455 68.6606 49.6784 68.0925 49.5172 67.3449C49.3579 66.5984 49.3175 65.6746 49.4685 64.6731C49.6172 63.6708 49.9705 62.5973 50.3963 61.489C50.8237 60.3793 51.2681 59.3239 51.574 58.3196C51.8828 57.3178 52.0515 56.3766 52.0816 55.5786C52.1109 54.7799 52.0117 54.1337 51.8904 53.7059C51.7701 53.2766 51.6493 53.0598 51.6278 53.0679C51.55 53.0863 51.9197 54.0164 51.7785 55.5595C51.7113 56.326 51.5187 57.2284 51.1968 58.1997C50.8784 59.1723 50.4273 60.2145 49.9951 61.3351C49.5648 62.4559 49.2109 63.564 49.0765 64.6181C48.9405 65.6693 49.0153 66.6388 49.2218 67.4153C49.4301 68.1933 49.756 68.7709 50.0323 69.1211C50.3087 69.4739 50.5122 69.6191 50.5268 69.604ZM54.0684 75.3707C54.0767 75.3824 54.1517 75.3434 54.2868 75.252C54.4761 75.1068 54.6435 74.9351 54.7839 74.7423C55.152 74.2462 55.4996 73.3474 55.3913 72.2239C55.2859 71.0979 54.6831 69.8817 53.9066 68.6811C53.5236 68.0746 53.1083 67.4538 52.7526 66.7788C52.3941 66.1055 52.1136 65.3716 52.0152 64.5808C51.8137 62.9885 52.2332 61.45 52.6077 60.0874C53.0047 58.722 53.3587 57.4595 53.4713 56.3672C53.6004 55.2758 53.4919 54.3725 53.3242 53.7831C53.156 53.1908 52.9715 52.9008 52.9532 52.9102C52.9177 52.9248 53.048 53.2356 53.1613 53.8209C53.2742 54.4047 53.3331 55.2727 53.1701 56.3282C53.0221 57.3877 52.649 58.606 52.2276 59.9774C52.0225 60.6646 51.8216 61.3962 51.6819 62.1754C51.5472 62.9539 51.4788 63.7874 51.5894 64.6361C51.6948 65.4875 52.0038 66.2816 52.381 66.9759C52.7565 67.6754 53.1851 68.299 53.5738 68.895C54.3619 70.0739 54.9541 71.2144 55.0898 72.2589C55.228 73.3009 54.9501 74.1548 54.6451 74.6493C54.3327 75.151 54.0421 75.3395 54.0684 75.3707ZM47.6646 68.2722C47.7309 68.2402 47.4021 67.642 47.2603 66.5887C47.1102 65.5389 47.2385 64.0514 47.8076 62.5213C48.3652 60.9896 49.0908 59.672 49.5424 58.6843C50.0058 57.7025 50.2662 57.0814 50.2134 57.0543C50.1607 57.027 49.805 57.5987 49.2724 58.5449C48.7538 59.495 47.9812 60.7923 47.403 62.3767C46.8128 63.9574 46.7219 65.5518 46.9606 66.6387C47.1909 67.7372 47.6298 68.3 47.6646 68.2722Z" fill="#FFE97B"/>
<path d="M57.4971 72.2423C57.5194 72.2504 57.6251 72.0632 57.7122 71.6864C57.7936 71.3117 57.8372 70.7399 57.706 70.0594C57.5796 69.3795 57.2904 68.6015 56.8507 67.8105C56.4155 67.0198 55.8501 66.2158 55.341 65.3421C54.8241 64.4713 54.4708 63.5845 54.3305 62.7298C54.1786 61.8779 54.2091 61.0874 54.3028 60.4371C54.5085 59.1307 54.9352 58.3954 54.8645 58.3626C54.8433 58.3507 54.7083 58.5156 54.5348 58.8557C54.3602 59.1941 54.1474 59.7108 54.0039 60.3839C53.8669 61.0559 53.8013 61.8869 53.9399 62.7932C54.0645 63.7009 54.4378 64.6649 54.9693 65.5573C55.4941 66.4571 56.0659 67.2487 56.5069 68.0066C56.9496 68.7593 57.2523 69.4883 57.4092 70.1238C57.7337 71.4089 57.4207 72.2295 57.4971 72.2423ZM58.5934 68.9846C58.6303 69.0064 58.9176 68.4633 58.8536 67.5165C58.8265 67.048 58.6975 66.5023 58.4895 65.9274C58.2793 65.3527 57.9857 64.7517 57.6586 64.1404C56.9981 62.9347 56.4943 61.81 56.3649 60.9384C56.2176 60.0704 56.3747 59.5201 56.3012 59.5038C56.2636 59.4828 55.9877 60.0305 56.0634 60.9754C56.0965 61.4431 56.2307 61.9873 56.4428 62.5603C56.6568 63.1331 56.953 63.7321 57.2797 64.3429C57.9395 65.5474 58.433 66.6774 58.5517 67.5498C58.688 68.4194 58.52 68.9669 58.5934 68.9846Z" fill="#FFE97B"/>
<path d="M27.963 51.0623C27.3654 52.4779 26.4751 55.2192 27.5441 56.6168C28.2321 57.5162 29.6473 57.5912 30.6708 57.844C31.9777 58.167 33.4297 58.4898 34.7822 58.4167C35.684 58.368 37.2549 58.531 37.8981 57.7866C38.2555 57.373 38.2982 56.7807 38.3026 56.2341C38.3162 54.4724 38.1106 52.7158 37.6906 51.0049M55.9772 51.4202C56.5375 52.851 57.3555 55.6147 56.2501 56.9838C55.5388 57.8649 54.122 57.9025 53.0921 58.1285C51.7773 58.417 50.3172 58.7016 48.9671 58.593C48.0669 58.5206 46.4923 58.6423 45.8688 57.8814C45.5223 57.4585 45.4952 56.8652 45.5053 56.3186C45.5379 54.5572 45.7895 52.8066 46.2543 51.1073" fill="#14ACD1"/>
<path d="M67.7134 15.2752C67.7423 15.1218 67.7615 14.9651 67.7635 14.8039C67.7828 13.264 66.5138 11.9994 64.9288 11.9794C64.3537 11.9709 63.789 12.1327 63.3056 12.4444C62.9581 9.8978 61.3393 7.96486 59.3701 7.94018C57.4481 7.91596 55.8182 9.71956 55.3583 12.1648C54.9416 11.9587 54.4841 11.8485 54.0193 11.8422C52.2849 11.8204 50.8407 13.2317 50.6478 15.0604L67.7134 15.2752ZM35.4284 19.4723C35.4597 19.2953 35.4771 19.1162 35.4803 18.9365C35.5024 17.1859 34.2076 15.7504 32.5882 15.73C31.9753 15.7222 31.404 15.919 30.9292 16.2607C30.5777 13.3665 28.9266 11.1719 26.9148 11.1464C24.9511 11.1217 23.2834 13.1743 22.8097 15.9544C22.3923 15.7268 21.9304 15.5956 21.4421 15.5895C19.6701 15.5673 18.1925 17.1737 17.9928 19.2526L35.4284 19.4723ZM25.5254 58.3571C25.5525 58.1891 25.5708 58.0174 25.5731 57.8411C25.5947 56.1268 24.3821 54.7214 22.8646 54.7024C22.3742 54.6962 21.9129 54.8372 21.5111 55.0866C21.4068 52.3493 19.7766 50.167 17.7472 50.1414C15.773 50.1166 14.1226 52.141 13.8749 54.7681C13.5556 54.6767 13.2256 54.628 12.8935 54.6235C10.956 54.5991 9.36691 56.0389 9.34421 57.8393C9.34284 57.9453 9.34802 58.05 9.35731 58.1534L25.5254 58.3571Z" fill="#EFD5FA"/>
<path d="M43.7441 54.3648C45.3102 54.3405 46.8752 54.2692 48.437 54.1512C51.7151 53.9038 54.9773 53.4773 58.2088 52.8736C59.6442 52.6051 60.6318 51.2759 60.4949 49.8219C59.536 39.6388 58.5034 29.5614 55.2771 19.7681C53.9773 15.8229 52.2695 11.8769 49.2991 8.97321C47.3327 7.05109 45.0777 5.38125 42.2601 5.4917C39.4219 5.60291 36.7215 6.86888 34.6557 8.78903C31.6132 11.6168 29.8066 15.5187 28.4079 19.4298C24.936 29.1388 23.6501 39.1869 22.4351 49.3426C22.2616 50.7926 23.2156 52.1462 24.6437 52.4509C30.9281 53.7915 37.3336 54.4653 43.7441 54.3648Z" fill="#3B6EFF"/>
<path d="M32.7948 5.94022C32.7992 5.5915 31.901 5.28788 30.6804 5.18749C30.616 3.86971 30.3331 2.88847 29.9804 2.88405C29.6277 2.87963 29.3201 3.85356 29.2226 5.1692C27.9999 5.23883 27.0944 5.5199 27.09 5.86846C27.0856 6.21718 27.9838 6.5208 29.2044 6.62119C29.2688 7.93897 29.5517 8.92021 29.9044 8.92463C30.257 8.92905 30.5646 7.95527 30.6623 6.63963C31.8847 6.56985 32.7904 6.28878 32.7948 5.94022ZM10.2312 32.5329C10.2347 32.2585 9.52779 32.0195 8.56741 31.9406C8.51668 30.9037 8.29411 30.1316 8.01654 30.1281C7.73897 30.1246 7.49705 30.8909 7.42027 31.9261C6.45822 31.9809 5.74555 32.202 5.7422 32.4764C5.7387 32.7507 6.44557 32.9896 7.40595 33.0687C7.45668 34.1055 7.67925 34.8776 7.95682 34.8811C8.23439 34.8846 8.47631 34.1183 8.55309 33.083C9.51515 33.0283 10.2277 32.8073 10.2312 32.5329ZM72.2582 52.7273C72.2617 52.4529 71.5548 52.2139 70.5945 52.135C70.5437 51.0981 70.3212 50.326 70.0436 50.3225C69.766 50.319 69.5241 51.0853 69.4473 52.1206C68.4853 52.1753 67.7726 52.3965 67.7693 52.6709C67.7658 52.9453 68.4726 53.1841 69.433 53.2632C69.4837 54.3001 69.7063 55.0721 69.9839 55.0756C70.2615 55.0791 70.5034 54.3129 70.5802 53.2777C71.5422 53.2227 72.2547 53.0016 72.2582 52.7273ZM69.2881 20.7267C69.2903 20.5518 68.8399 20.3996 68.2278 20.3492C68.1955 19.6885 68.0537 19.1964 67.8768 19.1941C67.6999 19.1918 67.5458 19.6803 67.4969 20.3401C66.8837 20.3749 66.4297 20.5159 66.4274 20.6907C66.4251 20.8656 66.8756 21.0178 67.4877 21.0683C67.52 21.729 67.6619 22.221 67.8387 22.2233C68.0156 22.2256 68.1698 21.7372 68.2187 21.0774C68.8317 21.0424 69.2858 20.9016 69.2881 20.7267ZM63.1144 58.0977C63.1161 57.9629 62.7689 57.8456 62.2971 57.8067C62.2722 57.2973 62.1629 56.9179 62.0265 56.9163C61.8902 56.9146 61.7713 57.291 61.7336 57.7996C61.261 57.8265 60.9109 57.9351 60.9092 58.0698C60.9075 58.2046 61.2547 58.3219 61.7265 58.3608C61.7514 58.8702 61.8608 59.2494 61.9971 59.2512C62.1335 59.2529 62.2523 58.8765 62.2901 58.368C62.7626 58.3411 63.1127 58.2325 63.1144 58.0977ZM12.6291 48.2673C12.6307 48.1324 12.2835 48.0151 11.8117 47.9763C11.7869 47.4668 11.6775 47.0875 11.5412 47.0858C11.4048 47.0842 11.286 47.4606 11.2482 47.9691C10.7756 47.9961 10.4256 48.1047 10.4239 48.2394C10.4222 48.3742 10.7694 48.4915 11.2412 48.5303C11.2662 49.0398 11.3754 49.4191 11.5119 49.4208C11.6483 49.4225 11.7671 49.046 11.8049 48.5375C12.2773 48.5105 12.6274 48.4019 12.6291 48.2673Z" fill="#55C9F5"/>
<path d="M58.2087 52.8735C59.6441 52.6049 60.6317 51.2757 60.4948 49.8217C60.3286 48.0556 60.1592 46.293 59.9774 44.5342C56.3137 43.3212 52.5552 42.3947 48.745 41.7813C44.7913 41.1449 40.4366 40.6723 37.6537 37.7925C35.1859 35.2388 34.6129 31.3481 35.0697 27.8262C35.5264 24.3045 36.8635 20.9646 37.7261 17.5195C38.651 13.8255 39.0225 9.99497 38.8394 6.19141C37.2939 6.76666 35.8654 7.66427 34.6554 8.78871C31.613 11.6165 29.8063 15.5183 28.4077 19.4295C24.9358 29.1385 23.6498 39.1866 22.4349 49.3423C22.2614 50.7923 23.2153 52.146 24.6434 52.4506C30.9279 53.7911 37.3333 54.465 43.7438 54.3643C45.3099 54.34 46.8749 54.2688 48.4368 54.1507C51.715 53.9037 54.9772 53.4773 58.2087 52.8735Z" fill="#3B6EFF"/>
<path d="M40.6685 33.2827L36.1877 33.1823C35.1881 33.1599 35.1088 34.7111 36.1109 34.7334L39.9492 34.8194C40.1062 37.7173 36.9121 39.5533 34.5586 37.376C31.7526 34.7802 34.8449 28.9029 38.5373 30.8341C39.4183 31.2949 40.2731 29.9972 39.3864 29.5335C34.2508 26.8474 30.0956 33.6002 32.9798 37.8897C36.0397 42.4404 42.3946 38.787 41.3882 33.889C41.3203 33.5584 41.0081 33.2903 40.6685 33.2827Z" fill="#14ACD1"/>
<path d="M49.3554 29.5675C49.2863 29.807 49.1905 30.0379 49.0698 30.256C47.4322 28.8756 45.3213 29.0396 43.5741 30.358C41.3665 32.0238 41.2675 35.6957 42.5205 37.9202C43.965 40.4846 47.1461 40.472 49.1251 38.6219C50.994 36.8748 51.1179 33.8435 50.062 31.617C50.4026 31.1757 50.675 30.6563 50.8463 30.0593C51.125 29.087 49.6344 28.5948 49.3554 29.5675ZM47.9872 31.3844C47.1213 31.8911 46.0291 31.8894 45.1047 31.2168C45.9461 30.6216 46.9776 30.5323 47.9872 31.3844ZM48.5401 36.8014C47.4062 39.0067 44.7984 38.7674 43.6766 36.7763C42.9484 35.4835 43.2397 33.6745 44.0468 32.3769C45.5269 33.5185 47.4133 33.5452 48.8585 32.6828C49.3642 34.0053 49.1947 35.5284 48.5401 36.8014Z" fill="#14ACD1"/>
<path d="M37.9718 38.1035C36.9342 38.5332 35.6551 38.3908 34.5585 37.3762C32.7808 35.7316 33.371 32.7707 34.9808 31.312C34.9295 30.7029 34.9152 30.0887 34.9353 29.4773C32.3058 30.9396 31.0236 34.9809 32.9797 37.89C34.6664 40.3987 37.3542 40.4134 39.2585 39.1018C38.8008 38.8079 38.3702 38.4738 37.9718 38.1035Z" fill="#1795CC"/>
<path d="M35.6887 34.6006C35.5891 34.3314 35.4999 34.0583 35.4214 33.7821C35.3514 34.0825 35.4374 34.4194 35.6887 34.6006Z" fill="#1795CC"/>
<path d="M29.8914 40.5378C30.4357 40.6784 30.678 39.8405 30.1338 39.7L27.7429 39.0824C27.5872 39.0422 27.4574 39.0835 27.3623 39.1642C27.2665 39.2095 27.1893 39.2971 27.1577 39.4359L25.6319 46.1653C25.5079 46.7121 26.3453 46.956 26.4696 46.4077L26.9528 44.2766C27.5534 44.5205 28.1702 44.6992 28.8183 44.7949C29.3669 44.8759 29.6147 44.0389 29.0607 43.9571C28.4003 43.8596 27.7594 43.6829 27.1474 43.4187L27.9163 40.0277L29.8914 40.5378ZM34.4745 41.4872C34.3641 42.3842 34.2303 43.2667 34.0192 44.1454C33.8828 44.7129 33.6665 45.2511 33.4157 45.7772C33.1421 46.3513 32.044 48.0815 31.1041 46.7022C30.0796 45.1987 31.0451 42.4704 31.4706 40.9022C31.6181 40.3591 30.78 40.1174 30.6329 40.6598C30.1994 42.2567 29.8197 43.8311 29.9159 45.4965C29.9616 46.2869 30.3011 47.7921 31.2884 47.9743C34.4878 48.5646 35.0781 43.6759 35.3462 41.4983C35.4151 40.9404 34.5425 40.9354 34.4745 41.4872ZM39.5276 42.9291C39.715 41.3225 37.7464 40.6842 36.5176 40.7599C36.4569 40.7633 36.3976 40.7787 36.3429 40.8051C36.1794 40.8531 36.0371 40.9826 36.0153 41.1956L35.366 47.5264C35.3086 48.0859 36.1809 48.092 36.2379 47.5373L36.4813 45.1638C36.751 45.1334 37.0228 45.0902 37.2885 45.0296C37.2994 45.0579 37.3136 45.0867 37.332 45.1157C37.8806 45.9758 38.3079 46.8852 38.6097 47.8602C38.7753 48.3949 39.6202 48.1776 39.4534 47.639C39.1406 46.624 38.6961 45.6544 38.1315 44.7548C38.8577 44.4268 39.4176 43.8733 39.5276 42.9291ZM36.5718 44.2833L36.8444 41.6253C37.6771 41.6451 38.6202 41.9383 38.6559 42.918C38.6915 43.902 37.3793 44.1844 36.5718 44.2833Z" fill="#E8822E"/>
<path d="M42.899 41.4272C43.4594 41.4119 43.4727 40.5401 42.9099 40.5553L39.4202 40.6496C38.8596 40.6647 38.8465 41.5367 39.4092 41.5215L40.7844 41.4843L41.0495 47.6443C41.0736 48.2037 41.9456 48.2177 41.9214 47.6553L41.6548 41.4607L42.899 41.4272Z" fill="#55C9F5"/>
<path d="M46.1028 42.0667L46.2512 44.7711C45.3606 44.8564 44.47 44.8817 43.5757 44.8465C43.5742 44.0696 43.5926 43.2923 43.637 42.514C43.669 41.952 42.7969 41.9435 42.7651 42.503C42.6675 44.212 42.6808 45.9256 42.8052 47.6329C42.8457 48.1894 43.7179 48.2049 43.677 47.6439C43.6304 47.002 43.6045 46.3607 43.5891 45.7192C44.4947 45.7536 45.3965 45.7263 46.2987 45.6373L46.3996 47.4755C46.4302 48.0339 47.3022 48.0485 47.2714 47.4865L46.9747 42.0774C46.944 41.5193 46.0719 41.5047 46.1028 42.0667Z" fill="#E8822E"/>
<path d="M52.0383 45.2356C51.9664 46.3836 51.1426 47.176 49.9853 47.1642C48.756 47.1517 48.1795 45.954 48.1117 44.9033C48.1035 44.775 48.1028 44.6463 48.1098 44.5179L52.1102 44.1995C52.4403 44.1733 52.5782 43.8553 52.5197 43.6104C52.5141 43.5581 52.4997 43.5072 52.4769 43.4599C51.8198 42.1051 50.4652 41.3738 48.9897 41.8119C47.56 42.2365 47.0824 44.0037 47.274 45.3198C47.5077 46.9246 48.6168 48.0222 50.2695 48.0391C51.7796 48.0545 52.8236 46.6274 52.9101 45.2465C52.9453 44.6845 52.0733 44.6763 52.0383 45.2356ZM49.4813 42.5752C50.2621 42.3433 50.9546 42.7897 51.4063 43.3844L48.3156 43.6305C48.5264 43.1415 48.9006 42.7476 49.4813 42.5752ZM57.3322 46.1147L56.093 43.5732C56.6657 43.196 57.0679 42.6424 57.0659 41.8179C57.0621 40.1945 55.1455 39.6755 53.8646 39.7431C53.7558 39.7489 53.6683 39.7871 53.601 39.8438C53.3661 39.8172 53.1222 39.9508 53.1412 40.2532L53.5241 46.2969C53.5594 46.8544 54.4316 46.8696 54.3959 46.3079L54.2648 44.2373C54.613 44.1707 54.9712 44.0808 55.3112 43.956L56.5735 46.5453C56.8203 47.0507 57.5779 46.6187 57.3322 46.1147ZM54.0353 40.6106C54.9118 40.59 55.8758 40.7664 56.1756 41.7187C56.5079 42.7741 55.0912 43.1872 54.2098 43.3633L54.0353 40.6106Z" fill="#55C9F5"/>
<path d="M39.4202 40.6496C38.8596 40.6647 38.8465 41.5367 39.4092 41.5215L40.7844 41.4843L41.0495 47.6443C41.0736 48.2037 41.9456 48.2177 41.9214 47.6553L41.6548 41.4607L42.899 41.427C43.2736 41.4168 43.4023 41.0248 43.2795 40.7699C43.0348 40.7061 42.7912 40.6378 42.549 40.5649L39.4202 40.6496ZM47.274 45.3198C47.5077 46.9246 48.6167 48.0223 50.2695 48.0392C51.7796 48.0546 52.8236 46.6274 52.9101 45.2466C52.9453 44.6847 52.0733 44.6765 52.0382 45.2356C51.9663 46.3836 51.1426 47.176 49.9852 47.1643C48.756 47.1518 48.1795 45.954 48.1117 44.9033C48.1035 44.775 48.1028 44.6463 48.1097 44.5179L52.1101 44.1995C52.4403 44.1731 52.5781 43.8554 52.5196 43.6104C52.5141 43.5581 52.4996 43.5072 52.4768 43.4599C52.2469 42.9859 51.9302 42.5904 51.5542 42.2925C50.6953 42.119 49.8332 41.9614 48.9684 41.8197C47.5558 42.2559 47.0833 44.0104 47.274 45.3198ZM51.4062 43.3845L48.3154 43.6305C48.5263 43.1415 48.9006 42.7477 49.4813 42.5752C50.2619 42.3433 50.9545 42.7897 51.4062 43.3845ZM55.1269 43.115C54.8155 43.2294 54.4861 43.3081 54.2094 43.3634L54.1787 42.8773C53.8843 42.8063 53.5895 42.737 53.2943 42.6697L53.524 46.2971C53.5594 46.8545 54.4316 46.8698 54.3959 46.3081L54.2647 44.2374C54.613 44.1709 54.9712 44.0808 55.3112 43.9562L56.5735 46.5454C56.82 47.0509 57.5776 46.6189 57.3319 46.1149L56.0927 43.5734C56.1635 43.5268 56.2318 43.4772 56.297 43.425C55.9078 43.3184 55.5178 43.215 55.1269 43.115Z" fill="#E8822E"/>
<path d="M60.4537 49.389L60.4015 48.839C59.1807 49.0864 57.8898 49.2893 56.5461 49.5175C53.1603 50.0064 49.4114 50.3653 45.4631 50.4436C41.5145 50.4895 37.7562 50.2485 34.3568 49.8666C32.6622 49.6333 31.0466 49.4411 29.5538 49.1414C28.8063 49.0005 28.0782 48.8916 27.3884 48.7395L25.4055 48.2947C24.3936 48.089 23.4794 47.8332 22.6438 47.607C22.6283 47.7348 22.613 47.8628 22.5977 47.9908C23.4145 48.2392 24.3094 48.5133 25.298 48.7375L27.2836 49.2258C27.9751 49.3917 28.7053 49.5136 29.4559 49.6668C30.9548 49.9912 32.5788 50.2051 34.2839 50.456C37.7045 50.8735 41.4929 51.1345 45.4733 51.0882C49.4531 51.0094 53.2314 50.6293 56.6373 50.1045C57.9675 49.8655 59.2455 49.6493 60.4537 49.389Z" fill="#55C9F5"/>
<path d="M52.2053 17.1016C52.342 17.0637 52.3254 16.4592 52.0729 15.5285C51.8226 14.6002 51.3083 13.3554 50.5042 12.1177C49.6976 10.8819 48.7671 9.90813 48.0192 9.30378C47.2701 8.69639 46.724 8.43695 46.634 8.54648C46.4367 8.78977 48.1019 10.3696 49.6042 12.7038C51.1316 15.0217 51.9029 17.1838 52.2053 17.1016ZM46.0304 8.20706C46.1335 8.10255 46.1419 7.91776 46.039 7.70783C45.938 7.49897 45.721 7.27106 45.423 7.11704C45.1247 6.96333 44.8131 6.91869 44.5845 6.95738C44.3537 6.99532 44.208 7.10927 44.1827 7.25384C44.1427 7.55092 44.5027 7.84509 44.9307 8.07147C45.3633 8.28917 45.8116 8.41196 46.0304 8.20706Z" fill="#FFF2FF"/>
<path d="M48.0709 25.7508C51.5127 22.3089 51.5126 16.7286 48.0707 13.2868C44.6288 9.84505 39.0484 9.84515 35.6067 13.287C32.1649 16.729 32.165 22.3093 35.6069 25.7511C39.0488 29.1928 44.6291 29.1928 48.0709 25.7508Z" fill="#55C9F5"/>
<path d="M48.1413 22.3646C49.7143 18.8836 48.1676 14.7865 44.6866 13.2134C41.2056 11.6404 37.1085 13.1871 35.5355 16.6681C33.9625 20.1491 35.5092 24.2461 38.9901 25.8192C42.4711 27.3922 46.5682 25.8455 48.1413 22.3646Z" fill="#24B1FF"/>
<g opacity="0.64">
<path d="M35.3126 21.7893L44.5751 13.1665C43.9006 12.8757 43.1689 12.6952 42.4024 12.633L34.9292 19.5902C34.9368 20.36 35.0721 21.0984 35.3126 21.7893ZM46.4315 14.3549L36.3597 23.7312C37.0013 24.5638 37.8237 25.2396 38.7649 25.7074L48.2372 16.8892C47.8345 15.9108 47.2105 15.0484 46.4315 14.3549Z" fill="#FFF2FF"/>
</g>
</g>
<defs>
<clipPath id="clip0_28_4540">
<rect width="78" height="78" fill="white" transform="translate(0 0.5)"/>
</clipPath>
</defs>
</svg>
