<svg width="78" height="78" viewBox="0 0 78 78" fill="none" xmlns="http://www.w3.org/2000/svg">
<g clip-path="url(#clip0_28_4639)">
<path d="M64.8343 20.9755L75.2528 60.7967C75.4692 61.6199 74.9767 62.46 74.1536 62.6765L29.3304 74.3927C28.5075 74.6092 27.6644 74.1174 27.4506 73.2935L26.9438 71.3554L17.0323 33.4843C16.8186 32.6605 17.3113 31.8204 18.1342 31.6039L60.8581 20.4369L61.1919 20.3492L62.9574 19.8877C63.7749 19.6728 64.6108 20.1604 64.8343 20.9755Z" fill="#00D5FE"/>
<g opacity="0.25">
<path d="M64.8343 20.9755L75.2528 60.7967C75.4693 61.6199 74.9768 62.46 74.1536 62.6765L29.3305 74.3927C28.5075 74.6092 27.6644 74.1174 27.4507 73.2935L26.9438 71.3554C27.6533 70.3281 28.5115 69.4401 29.5075 68.7549C35.45 64.6756 68.272 62.4005 67.6755 54.7192C67.1509 47.9776 60.284 29.427 60.5366 22.72C60.5659 21.95 60.6737 21.185 60.8583 20.4369L61.1921 20.3492L62.9576 19.8877C63.7749 19.6728 64.6108 20.1604 64.8343 20.9755Z" fill="#4217A6"/>
</g>
<path d="M66.7141 41.3073L65.7647 37.6749L61.1697 38.876L62.3708 43.471L66.0031 42.5216C66.1295 42.4885 66.2482 42.4309 66.3523 42.352C66.4565 42.2731 66.5441 42.1744 66.6101 42.0617C66.6761 41.9489 66.7193 41.8243 66.7371 41.6948C66.755 41.5654 66.7471 41.4337 66.7141 41.3073Z" fill="#FF8EDE"/>
<path d="M31.1973 36.8931L35.7924 35.6921L36.9934 40.2872L32.3982 41.4882L31.1973 36.8931Z" fill="#FF8EDE"/>
<path d="M49.5776 32.0887L54.1728 30.8878L55.3737 35.4829L50.7786 36.6839L49.5776 32.0887Z" fill="#FF8EDE"/>
<path d="M29.0043 47.284L25.372 48.2334C25.2456 48.2664 25.1269 48.3241 25.0228 48.403C24.9186 48.4819 24.831 48.5805 24.765 48.6933C24.699 48.8061 24.6558 48.9307 24.638 49.0602C24.6201 49.1896 24.628 49.3213 24.661 49.4477L25.6104 53.0801L30.2054 51.879L29.0043 47.284Z" fill="#FF8EDE"/>
<path d="M42.7896 43.6811L47.3847 42.4801L48.5856 47.0752L43.9905 48.2762L42.7896 43.6811Z" fill="#FF8EDE"/>
<path d="M36.002 55.2734L40.5971 54.0724L41.798 58.6675L37.2029 59.8685L36.002 55.2734Z" fill="#FF8EDE"/>
<path d="M54.3821 50.4688L58.9772 49.2678L60.1782 53.8629L55.583 55.0639L54.3821 50.4688Z" fill="#FF8EDE"/>
<path d="M30.1765 66.6135C30.0501 66.6466 29.9314 66.7042 29.8272 66.7831C29.723 66.862 29.6355 66.9606 29.5694 67.0734C29.5034 67.1862 29.4602 67.3109 29.4424 67.4403C29.4246 67.5698 29.4324 67.7015 29.4655 67.8279L30.1634 70.4975C30.1964 70.624 30.2541 70.7426 30.333 70.8468C30.4119 70.9509 30.5105 71.0385 30.6233 71.1046C30.7361 71.1706 30.8607 71.2137 30.9902 71.2316C31.1196 71.2494 31.2513 71.2416 31.3777 71.2085L35.0101 70.2591L33.809 65.6641L30.1765 66.6135ZM71.5185 59.6874L70.5689 56.0551L65.9739 57.2561L67.175 61.8511L70.8073 60.9016C70.9338 60.8686 71.0525 60.811 71.1566 60.7321C71.2608 60.6532 71.3484 60.5545 71.4144 60.4418C71.4805 60.329 71.5237 60.2044 71.5415 60.0749C71.5594 59.9455 71.5515 59.8138 71.5185 59.6874Z" fill="#FF8EDE"/>
<path d="M47.5942 62.0614L52.1894 60.8604L53.3903 65.4556L48.7952 66.6565L47.5942 62.0614Z" fill="#FF8EDE"/>
<path d="M26.6023 38.094L22.9699 39.0436C22.8435 39.0766 22.7248 39.1342 22.6207 39.2131C22.5165 39.292 22.4289 39.3907 22.3629 39.5035C22.2969 39.6162 22.2537 39.7409 22.2359 39.8704C22.218 39.9998 22.2259 40.1315 22.259 40.2579L22.9568 42.9276C22.9899 43.054 23.0475 43.1727 23.1264 43.2768C23.2053 43.381 23.304 43.4686 23.4168 43.5346C23.5295 43.6006 23.6542 43.6438 23.7836 43.6616C23.9131 43.6795 24.0448 43.6716 24.1712 43.6386L27.8035 42.689L26.6023 38.094ZM64.5636 33.0798L63.614 29.4475C63.581 29.321 63.5234 29.2024 63.4445 29.0982C63.3656 28.9941 63.2669 28.9065 63.1541 28.8404C63.0414 28.7744 62.9167 28.7313 62.7873 28.7134C62.6578 28.6956 62.5261 28.7034 62.3997 28.7365L58.7674 29.686L59.9685 34.281L64.5636 33.0798Z" fill="#3B6EFF"/>
<path d="M40.3875 34.4908L44.9826 33.2899L46.1835 37.885L41.5884 39.086L40.3875 34.4908Z" fill="#3B6EFF"/>
<path d="M26.8115 57.6752L27.7609 61.3076C27.794 61.434 27.8516 61.5527 27.9305 61.6568C28.0094 61.761 28.1081 61.8486 28.2208 61.9146C28.3336 61.9806 28.4583 62.0238 28.5877 62.0416C28.7172 62.0594 28.8488 62.0516 28.9753 62.0186L32.6076 61.069L31.4065 56.474L26.8115 57.6752Z" fill="#3B6EFF"/>
<path d="M33.5996 46.0834L38.1947 44.8824L39.3957 49.4775L34.8006 50.6785L33.5996 46.0834Z" fill="#3B6EFF"/>
<path d="M51.98 41.2787L56.5751 40.0777L57.7761 44.6728L53.1809 45.8738L51.98 41.2787Z" fill="#3B6EFF"/>
<path d="M68.4184 47.8276C68.3854 47.7011 68.3278 47.5824 68.2489 47.4783C68.17 47.3741 68.0713 47.2865 67.9586 47.2205C67.8458 47.1545 67.7211 47.1113 67.5917 47.0935C67.4622 47.0756 67.3305 47.0835 67.2041 47.1166L63.5718 48.0661L64.7729 52.6611L69.3678 51.46L68.4184 47.8276Z" fill="#3B6EFF"/>
<path d="M45.1919 52.8712L49.787 51.6702L50.988 56.2653L46.3929 57.4663L45.1919 52.8712Z" fill="#3B6EFF"/>
<path d="M38.4045 64.463L42.9997 63.262L44.2006 67.8572L39.6055 69.0581L38.4045 64.463Z" fill="#3B6EFF"/>
<path d="M56.7844 59.6591L61.3795 58.4582L62.5805 63.0533L57.9854 64.2542L56.7844 59.6591Z" fill="#3B6EFF"/>
<path d="M21.114 35.786C21.5826 35.0548 22.7366 34.5251 23.8775 34.7907C24.8147 35.0089 25.2654 35.9641 23.9514 36.8459C22.4147 37.8769 20.2907 37.0704 21.114 35.786ZM29.1739 33.6655C29.6425 32.9343 30.7965 32.4046 31.9374 32.6703C32.8746 32.8884 33.3253 33.8435 32.0113 34.7252C30.4746 35.7565 28.3508 34.9499 29.1739 33.6655Z" fill="#FC09B2"/>
<path d="M35.7922 35.6921L40.3874 34.4911L41.5883 39.0862L36.9932 40.2872L35.7922 35.6921Z" fill="#3B6EFF"/>
<path d="M54.1726 30.8874L58.7677 29.6864L59.9687 34.2815L55.3736 35.4825L54.1726 30.8874Z" fill="#3B6EFF"/>
<path d="M25.6106 53.0807L30.2057 51.8798L31.4067 56.4749L26.8116 57.6759L25.6106 53.0807Z" fill="#3B6EFF"/>
<path d="M38.1946 44.8821L42.7897 43.6811L43.9907 48.2762L39.3955 49.4772L38.1946 44.8821Z" fill="#3B6EFF"/>
<path d="M56.575 40.0771L61.1701 38.8761L62.371 43.4712L57.7759 44.6722L56.575 40.0771Z" fill="#3B6EFF"/>
<path d="M40.5972 54.0718L45.1923 52.8709L46.3933 57.466L41.7981 58.667L40.5972 54.0718Z" fill="#3B6EFF"/>
<path d="M58.9775 49.2672L63.5727 48.0662L64.7736 52.6613L60.1785 53.8623L58.9775 49.2672Z" fill="#3B6EFF"/>
<path d="M42.9993 63.2625L47.5944 62.0615L48.7954 66.6566L44.2002 67.8576L42.9993 63.2625Z" fill="#3B6EFF"/>
<path d="M61.3794 58.4579L65.9745 57.2569L67.1755 61.852L62.5804 63.053L61.3794 58.4579Z" fill="#3B6EFF"/>
<path d="M54.3075 28.3599C54.3169 28.4708 54.3677 28.5742 54.4499 28.6493C54.532 28.7244 54.6395 28.7658 54.7509 28.7651C54.8613 28.7651 54.9673 28.7235 55.0493 28.6484L55.9391 27.834L57.1143 28.1052C57.2034 28.1261 57.2969 28.1189 57.3817 28.0844C57.4665 28.0499 57.5385 27.9898 57.5876 27.9126C57.628 27.8503 57.6519 27.7788 57.6572 27.7047C57.6626 27.6306 57.6492 27.5564 57.6183 27.4889L57.1184 26.391L57.7395 25.3572C57.8229 25.2183 57.8252 25.051 57.7455 24.9101C57.7069 24.8418 57.6509 24.785 57.5832 24.7454C57.5156 24.7058 57.4386 24.6848 57.3602 24.6846C57.3501 24.6846 57.3191 24.6864 57.309 24.6876L56.111 24.824L55.3191 23.9133C55.2776 23.8654 55.2264 23.827 55.1688 23.8007C55.1112 23.7744 55.0486 23.7607 54.9853 23.7606C54.8827 23.7598 54.783 23.7949 54.7035 23.8597C54.6239 23.9245 54.5695 24.0151 54.5496 24.1157L54.3083 25.2978L53.1979 25.7691C53.1215 25.8013 53.0557 25.8543 53.0081 25.9222C52.9605 25.99 52.9329 26.0698 52.9285 26.1526C52.9236 26.2353 52.942 26.3177 52.9817 26.3904C53.0214 26.4632 53.0807 26.5233 53.1529 26.5639L54.2023 27.1584L54.3075 28.3599Z" fill="#3B6EFF"/>
<path d="M59.969 34.2815L64.5641 33.0805L65.7651 37.6757L61.17 38.8766L59.969 34.2815Z" fill="white"/>
<path d="M26.6023 38.0944L31.1974 36.8934L32.3984 41.4885L27.8033 42.6895L26.6023 38.0944Z" fill="white"/>
<path d="M44.9827 33.2897L49.5778 32.0887L50.7788 36.6838L46.1836 37.8848L44.9827 33.2897Z" fill="white"/>
<path d="M29.0046 47.2844L33.5998 46.0835L34.8007 50.6786L30.2056 51.8795L29.0046 47.2844Z" fill="white"/>
<path d="M47.3848 42.4799L51.9799 41.2789L53.1809 45.874L48.5857 47.075L47.3848 42.4799Z" fill="white"/>
<path d="M64.7734 52.6618L69.3686 51.4608L70.5695 56.056L65.9744 57.2569L64.7734 52.6618Z" fill="white"/>
<path d="M31.4067 56.4745L36.0019 55.2736L37.2028 59.8687L32.6077 61.0697L31.4067 56.4745Z" fill="white"/>
<path d="M49.7869 51.6701L54.382 50.4691L55.583 55.0643L50.9878 56.2652L49.7869 51.6701Z" fill="white"/>
<path d="M33.8091 65.6647L38.4042 64.4637L39.6052 69.0588L35.01 70.2598L33.8091 65.6647Z" fill="white"/>
<path d="M52.1892 60.8602L56.7843 59.6592L57.9853 64.2543L53.3902 65.4553L52.1892 60.8602Z" fill="white"/>
<path d="M60.6205 26.0883C60.6283 26.1855 60.6726 26.2762 60.7445 26.3421C60.8164 26.408 60.9105 26.4443 61.0081 26.4437C61.1051 26.4437 61.1986 26.4072 61.27 26.3415L61.8563 25.8046L62.6312 25.9835C62.7091 26.0017 62.7908 25.9953 62.865 25.9652C62.9392 25.935 63.0021 25.8826 63.0452 25.8151C63.0806 25.7604 63.1016 25.6977 63.1063 25.6328C63.111 25.5679 63.0994 25.5028 63.0723 25.4436L62.7428 24.7201L63.1523 24.0382C63.1896 23.976 63.2088 23.9047 63.2077 23.8322C63.2065 23.7598 63.1852 23.6891 63.146 23.6281C63.1067 23.5672 63.0513 23.5184 62.9858 23.4873C62.9203 23.4562 62.8474 23.4441 62.7754 23.4523L61.9863 23.5426L61.4639 22.9419C61.4275 22.9 61.3826 22.8663 61.332 22.8432C61.2815 22.8201 61.2266 22.8082 61.1711 22.8082C61.0815 22.8083 60.9946 22.8393 60.9251 22.896C60.8557 22.9526 60.8078 23.0315 60.7896 23.1193L60.6307 23.898L59.8987 24.209C59.8318 24.237 59.7742 24.2833 59.7324 24.3426C59.6906 24.4018 59.6664 24.4717 59.6626 24.5441C59.6582 24.6166 59.6742 24.6889 59.709 24.7527C59.7438 24.8165 59.7958 24.8693 59.8591 24.9049L60.5508 25.2967L60.6205 26.0883Z" fill="white"/>
<path opacity="0.75" d="M20.8394 40.0151C20.8187 39.9585 20.7776 39.9116 20.7242 39.8836C20.6708 39.8556 20.6089 39.8485 20.5505 39.8637C20.4922 39.8789 20.4416 39.9153 20.4086 39.9658C20.3756 40.0163 20.3627 40.0773 20.3722 40.1368C20.5541 41.2696 20.7861 42.3892 21.0358 43.5044C21.6615 46.3369 22.8089 50.636 23.8167 53.4006C23.9229 53.6927 24.3635 53.5783 24.3136 53.271C23.8374 50.3358 22.7355 46.0281 21.9055 43.2775C21.5786 42.1825 21.2342 41.0923 20.8394 40.0151Z" fill="white"/>
<path d="M75.5073 60.73L65.089 20.9087C65.0887 20.9077 65.0884 20.9067 65.0882 20.9057C64.8273 19.9538 63.8407 19.3831 62.8908 19.6333L18.0675 31.3494C17.1068 31.6022 16.5282 32.5895 16.7777 33.5511L27.1958 73.3598C27.2547 73.5891 27.3585 73.8044 27.5013 73.9932C27.6442 74.1821 27.8231 74.3406 28.0277 74.4597C28.2322 74.58 28.4584 74.6586 28.6935 74.6908C28.9285 74.723 29.1676 74.7082 29.3968 74.6474L74.2205 62.9312C74.4498 62.8717 74.665 62.7674 74.8537 62.6242C75.0424 62.481 75.2009 62.3018 75.3199 62.097C75.4402 61.8929 75.5186 61.667 75.5508 61.4323C75.583 61.1976 75.5682 60.9589 75.5073 60.73ZM74.866 61.8311C74.7815 61.9761 74.6693 62.103 74.5356 62.2044C74.4019 62.3058 74.2495 62.3797 74.0872 62.4219L29.2635 74.1381C29.1012 74.1813 28.9319 74.1919 28.7655 74.1691C28.599 74.1463 28.4388 74.0907 28.294 74.0054C28.1492 73.9212 28.0226 73.809 27.9215 73.6753C27.8205 73.5417 27.747 73.3893 27.7054 73.2271L17.2873 33.4183C17.1106 32.7373 17.5207 32.0377 18.2009 31.8587L63.0243 20.1426C63.1289 20.1149 63.2367 20.1009 63.345 20.1008C63.9056 20.1008 64.424 20.477 64.5802 21.0437L74.9982 60.8636C75.0413 61.0256 75.0517 61.1945 75.029 61.3606C75.0063 61.5267 74.9509 61.6866 74.866 61.8311Z" fill="#122344"/>
<path d="M70.8237 55.9885L69.6224 51.3935L68.6732 47.7608C68.6317 47.6008 68.5589 47.4506 68.4591 47.3189C68.3592 47.1872 68.2342 47.0766 68.0914 46.9935C67.949 46.9095 67.7913 46.8546 67.6276 46.8321C67.4638 46.8095 67.2972 46.8197 67.1374 46.862L63.5051 47.8114L58.9099 49.0126L54.3151 50.2137L49.7199 51.4149L45.1251 52.6162L40.53 53.8173L35.9351 55.0185L31.5947 56.1531L30.5266 52.0673L34.867 50.9328L39.4619 49.7315L44.057 48.5305L48.6519 47.3292L53.247 46.128L57.8422 44.9269L62.437 43.7257L66.0695 42.7763C66.7406 42.6008 67.1438 41.9119 66.9688 41.2408L66.0192 37.6083L64.818 33.0133L63.8684 29.3812C63.827 29.2211 63.7543 29.0709 63.6545 28.9391C63.5547 28.8073 63.4298 28.6966 63.2869 28.6134C63.1444 28.5295 62.9868 28.4748 62.823 28.4522C62.6592 28.4296 62.4926 28.4397 62.3328 28.4819L58.7006 29.4314L54.1055 30.6325L49.5106 31.8337L44.9155 33.0348L40.3203 34.2361L35.7255 35.4373L31.1304 36.6384L26.5355 37.8396L22.903 38.789C22.232 38.9645 21.8287 39.6534 22.0037 40.3245L22.7018 42.9941C22.7432 43.1542 22.8159 43.3044 22.9157 43.4362C23.0155 43.5679 23.1405 43.6786 23.2833 43.7618C23.4258 43.8456 23.5834 43.9004 23.7472 43.9229C23.911 43.9455 24.0776 43.9354 24.2374 43.8933L27.8699 42.9437L32.4647 41.7426L37.0599 40.5414L41.6547 39.3402L46.2499 38.1391L50.8447 36.9379L55.4398 35.7366L59.7803 34.6021L60.848 38.688L56.5079 39.8225L51.9128 41.0237L47.3179 42.225L42.7228 43.426L38.1277 44.6273L33.5328 45.8285L28.9377 47.0296L25.3055 47.9791C25.1454 48.0205 24.9952 48.0932 24.8634 48.193C24.7316 48.2928 24.621 48.4178 24.5378 48.5606C24.4539 48.703 24.399 48.8607 24.3764 49.0244C24.3539 49.1882 24.364 49.3548 24.4062 49.5146L25.3558 53.1469L26.5567 57.7419L27.5062 61.3744C27.6542 61.9393 28.1657 62.3144 28.7241 62.3144C28.8292 62.3144 28.9357 62.3013 29.0419 62.2734L32.6744 61.324L37.2692 60.1228L41.8643 58.9215L46.4595 57.7205L51.0543 56.5192L55.6495 55.3181L60.2443 54.1169L64.5847 52.9823L65.6528 57.0681L61.3124 58.2028L56.7173 59.404L52.1224 60.6051L47.5273 61.8063L42.9324 63.0075L38.3373 64.2086L33.7424 65.4099L30.11 66.3593C29.4389 66.5348 29.0356 67.2235 29.2107 67.8947L29.9087 70.5644C29.9501 70.7244 30.0228 70.8746 30.1226 71.0064C30.2224 71.1381 30.3474 71.2487 30.4902 71.3319C30.6327 71.4158 30.7903 71.4707 30.9541 71.4932C31.1179 71.5158 31.2845 71.5056 31.4443 71.4634L35.0765 70.514L39.6717 69.3127L44.2668 68.1117L48.8616 66.9104L53.4568 65.7092L58.0516 64.5081L62.6468 63.3069L67.2416 62.1058L70.8741 61.1563C71.1994 61.0713 71.4719 60.8648 71.6418 60.5748C71.8116 60.2847 71.8582 59.9459 71.7734 59.6208L70.8237 55.9885ZM67.2707 47.3711C67.3637 47.3466 67.4605 47.3408 67.5558 47.3539C67.651 47.367 67.7427 47.3989 67.8255 47.4476C67.9086 47.496 67.9812 47.5604 68.0393 47.637C68.0973 47.7136 68.1396 47.8009 68.1637 47.894L69.0466 51.2717L67.004 51.8057L64.9612 52.3397L64.4272 50.2967L63.8931 48.2538L67.2707 47.3711ZM60.366 53.5411L59.93 51.8734L59.298 49.4552L63.3837 48.3871L63.9178 50.43L64.4519 52.473L60.366 53.5411ZM41.9859 58.3455L41.452 56.3026L40.9178 54.2597L45.0035 53.1917L45.4395 54.8594L46.0716 57.2776L41.9859 58.3455ZM46.5811 57.1444L46.0469 55.1015L45.5128 53.0586L49.5982 51.9905L50.1323 54.0334L50.6663 56.0764L46.5811 57.1444ZM51.1761 55.9434L50.5356 53.4935L50.108 51.8575L54.1937 50.7894L55.047 54.0538L55.2618 54.8753L51.1761 55.9434ZM55.7712 54.7423L55.2371 52.6994L54.703 50.6564L58.7884 49.5885L59.062 50.6354L59.8564 53.6742L55.7712 54.7423ZM40.4084 54.3928L40.9424 56.4357L41.4765 58.4787L37.3908 59.5467L36.3228 55.4609L40.4084 54.3928ZM32.7959 60.748L32.2618 58.7051L31.7277 56.6621L35.8134 55.594L36.8812 59.6799L32.7959 60.748ZM29.3255 47.472L33.4112 46.4041L33.9454 48.447L34.4795 50.4899L30.3938 51.5578L29.603 48.5328L29.3255 47.472ZM42.6011 44.0017L43.1352 46.0447L43.6693 48.0876L39.5836 49.1555L39.0495 47.1126L38.5154 45.0697L42.6011 44.0017ZM38.0059 45.2028L38.54 47.2458L39.0742 49.2887L34.9888 50.3568L34.4546 48.3138L33.9205 46.2709L38.0059 45.2028ZM44.1787 47.9545L43.5189 45.4303L43.1107 43.8686L47.1964 42.8007L48.2642 46.8864L44.1787 47.9545ZM61.5152 41.2401L62.0493 43.283L57.9639 44.3511L57.4298 42.3081L56.8956 40.2652L60.981 39.1973L61.5152 41.2401ZM56.3864 40.3982L56.9205 42.4411L57.4546 44.4841L53.3689 45.552L52.6643 42.8566L52.3008 41.4661L56.3864 40.3982ZM65.9365 42.267L62.5589 43.15L62.2851 42.1031L61.4906 39.0643L63.5334 38.5302L65.5763 37.9962L66.4593 41.374C66.5081 41.5617 66.4805 41.7612 66.3825 41.9286C66.2845 42.096 66.1241 42.2177 65.9365 42.267ZM62.4659 28.991C62.5589 28.9664 62.6558 28.9605 62.751 28.9736C62.8463 28.9868 62.938 29.0187 63.0208 29.0675C63.1039 29.1159 63.1766 29.1802 63.2346 29.2569C63.2927 29.3335 63.3349 29.4209 63.359 29.514L64.242 32.8916L62.1993 33.4257L60.1567 33.9597L59.6227 31.9169L59.0886 29.874L62.4659 28.991ZM55.5616 35.1609L55.0275 33.118L54.4935 31.0751L58.5792 30.0071L59.1132 32.0501L59.6473 34.093L55.5616 35.1609ZM53.9839 31.2082L54.518 33.2512L55.052 35.2941L50.9663 36.3622L50.4323 34.3192L49.8983 32.2763L53.9839 31.2082ZM45.862 37.6964L41.7763 38.7643L41.2422 36.7214L40.7082 34.6785L44.7938 33.6104L45.3279 35.6533L45.862 37.6964ZM27.9915 42.3679L27.4573 40.3249L26.9232 38.282L31.0086 37.2139L31.5427 39.2568L32.0769 41.2998L27.9915 42.3679ZM32.5863 41.1668L32.0522 39.1238L31.5181 37.0809L35.6038 36.013L36.1379 38.0559L36.6719 40.0989L32.5863 41.1668ZM37.1814 39.9656L36.541 37.5159L36.1134 35.8798L40.1988 34.8118L41.0242 37.9689L41.267 38.8975L37.1814 39.9656ZM24.1043 43.3838C24.0113 43.4084 23.9144 43.4142 23.8192 43.4011C23.7239 43.3879 23.6322 43.356 23.5494 43.3072C23.4663 43.2589 23.3936 43.1945 23.3356 43.1179C23.2775 43.0413 23.2353 42.9539 23.2112 42.8608L22.5132 40.1912C22.4643 40.0034 22.4919 39.8039 22.59 39.6365C22.688 39.469 22.8484 39.3473 23.036 39.298L26.4136 38.4151L26.9478 40.4581L27.4819 42.501L24.1043 43.3838ZM46.3714 37.5632L45.6504 34.8051L45.3034 33.4774L49.3889 32.4095L49.9229 34.4524L50.4567 36.4953L46.3714 37.5632ZM62.6778 33.8447L64.3751 33.4011L65.4432 37.4868L63.4004 38.0209L61.3575 38.5548L60.2897 34.4691L62.6778 33.8447ZM51.7911 41.5994L52.0648 42.6463L52.8593 45.6853L48.7736 46.7534L48.2398 44.7105L47.7058 42.6675L51.7911 41.5994ZM24.992 48.8265C25.0404 48.7434 25.1048 48.6707 25.1815 48.6127C25.2581 48.5546 25.3455 48.5123 25.4386 48.4883L28.8159 47.6053L29.3501 49.6482L29.8842 51.6911L27.7383 52.2522L25.7988 52.7592L24.9158 49.3816C24.891 49.2887 24.885 49.1917 24.8981 49.0964C24.9112 49.0011 24.9431 48.9093 24.992 48.8265ZM27.9746 52.7341L30.0172 52.2001L31.0853 56.286L28.6107 56.9328L26.9996 57.3539L25.9318 53.2682L27.9746 52.7341ZM28.9087 61.764C28.5192 61.8653 28.1176 61.6313 28.0157 61.2411L27.1327 57.8632L29.1755 57.3292L31.2183 56.7953L32.0091 59.8202L32.2863 60.881L28.9087 61.764ZM66.7393 52.419L69.1796 51.7812L70.2477 55.8669L68.2049 56.4009L66.1623 56.9348L65.0942 52.8491L66.7393 52.419ZM53.5784 65.1333L53.3046 64.0864L52.5101 61.0475L56.5955 59.9796L57.1296 62.0225L57.6636 64.0654L53.5784 65.1333ZM39.7932 68.7367L39.2591 66.6938L38.7251 64.6509L42.8107 63.5829L43.0845 64.6299L43.8789 67.6688L39.7932 68.7367ZM44.3884 67.5357L43.8543 65.4927L43.3203 63.4498L47.4057 62.3817L47.9398 64.4246L48.4739 66.4676L44.3884 67.5357ZM48.9832 66.3346L48.4493 64.2916L47.9151 62.2487L52.0008 61.1806L52.4368 62.8483L53.0689 65.2663L48.9832 66.3346ZM58.1732 63.9323L57.5327 61.4826L57.1051 59.8466L61.1908 58.7785L61.8313 61.2282L62.2589 62.8642L58.1732 63.9323ZM62.7683 62.731L62.2342 60.6881L61.7003 58.6452L65.7858 57.5771L66.8536 61.6631L62.7683 62.731ZM38.2156 64.784L39.0064 67.8091L39.2836 68.8699L35.1979 69.938L34.664 67.895L34.13 65.8521L38.2156 64.784ZM31.3112 70.9539C31.2182 70.9784 31.1213 70.9843 31.0261 70.9712C30.9308 70.958 30.8391 70.9262 30.7562 70.8775C30.6731 70.8291 30.6004 70.7648 30.5424 70.6882C30.4843 70.6116 30.442 70.5242 30.418 70.4311L29.72 67.7614C29.6711 67.5737 29.6987 67.3742 29.7967 67.2067C29.8947 67.0393 30.0552 66.9176 30.2428 66.8682L33.6204 65.9854L34.1544 68.0283L34.6883 70.0713L31.3112 70.9539ZM71.1876 60.3088C71.1392 60.3919 71.0748 60.4645 70.9981 60.5226C70.9215 60.5806 70.834 60.6229 70.7409 60.647L67.3633 61.53L66.8294 59.487L66.2954 57.4441L68.7356 56.8062L70.3808 56.3762L71.2638 59.7538C71.2885 59.8467 71.2944 59.9436 71.2814 60.0389C71.2683 60.1342 71.2364 60.2259 71.1876 60.3088ZM25.4955 34.6801C25.7756 34.8531 26.0982 34.9449 26.4274 34.9455C26.5779 34.9455 26.7284 34.926 26.8745 34.8863C27.3312 34.7624 27.7247 34.448 27.9543 34.0237C28.1862 33.5955 28.2335 33.0865 28.0848 32.6276C28.0618 32.5631 28.0145 32.5101 27.9531 32.4799C27.8916 32.4496 27.8207 32.4445 27.7556 32.4657C27.6904 32.4868 27.636 32.5325 27.604 32.593C27.5719 32.6536 27.5648 32.7242 27.5839 32.79C27.6901 33.1172 27.6574 33.4664 27.4915 33.7729C27.3301 34.0712 27.0552 34.2918 26.7369 34.378C26.415 34.4649 26.0639 34.4117 25.772 34.2319C25.4722 34.047 25.2691 33.7577 25.1996 33.4174C25.1856 33.349 25.145 33.289 25.0868 33.2504C25.0286 33.2119 24.9575 33.198 24.8891 33.2118C24.8553 33.2187 24.8231 33.2322 24.7944 33.2515C24.7657 33.2708 24.7411 33.2956 24.7221 33.3244C24.703 33.3532 24.6898 33.3855 24.6832 33.4195C24.6766 33.4534 24.6768 33.4883 24.6838 33.5222C24.7808 33.9999 25.0768 34.4218 25.4955 34.6801ZM29.3115 32.0761C29.3673 32.0761 29.4229 32.0728 29.4783 32.0658C29.8368 32.0217 30.1497 31.8315 30.3839 31.5572L31.1227 31.9169C31.1855 31.9474 31.2578 31.9517 31.3238 31.929C31.3898 31.9062 31.444 31.8582 31.4747 31.7955C31.5051 31.7327 31.5094 31.6604 31.4866 31.5944C31.4638 31.5284 31.4157 31.4742 31.3529 31.4436L30.659 31.1058C30.6678 31.0847 30.6768 31.0638 30.6851 31.0422L31.4809 31.1065C31.5505 31.112 31.6194 31.0897 31.6726 31.0445C31.7258 30.9993 31.7589 30.9349 31.7646 30.8653C31.7701 30.7957 31.7478 30.7268 31.7025 30.6736C31.6573 30.6205 31.5928 30.5875 31.5233 30.5818L30.796 30.5231C30.8007 30.4541 30.8081 30.3859 30.8053 30.3152C30.799 30.17 30.6796 30.0591 30.5313 30.0631C30.4616 30.066 30.3958 30.0965 30.3485 30.1478C30.3012 30.1992 30.2763 30.2672 30.2791 30.337C30.3045 30.9509 29.9244 31.4808 29.4144 31.5434C28.9896 31.5958 28.5481 31.3199 28.3199 30.8565C28.289 30.7938 28.2346 30.746 28.1685 30.7236C28.1023 30.7011 28.03 30.7059 27.9674 30.7367C27.9048 30.7676 27.857 30.8221 27.8345 30.8882C27.8121 30.9543 27.8168 31.0266 27.8477 31.0892C28.1466 31.696 28.72 32.0761 29.3115 32.0761ZM22.6733 33.8215C22.85 33.8215 23.0266 33.7886 23.1942 33.719C23.7979 33.4693 24.1751 32.8051 24.1332 32.0665C24.125 31.9213 24.0019 31.8136 23.8556 31.8187C23.8211 31.8206 23.7874 31.8293 23.7562 31.8443C23.7251 31.8593 23.6972 31.8803 23.6742 31.9061C23.6512 31.9319 23.6335 31.9619 23.6221 31.9946C23.6107 32.0272 23.6058 32.0617 23.6078 32.0962C23.6366 32.6035 23.3838 33.0708 22.9929 33.2326C22.5178 33.4302 21.9262 33.1549 21.6463 32.6081C21.6312 32.5763 21.6099 32.5478 21.5836 32.5244C21.5573 32.5009 21.5265 32.483 21.4932 32.4717C21.4598 32.4603 21.4245 32.4558 21.3893 32.4584C21.3542 32.461 21.3199 32.4706 21.2886 32.4866C21.2572 32.5027 21.2294 32.5249 21.2067 32.5519C21.1841 32.5789 21.1671 32.6102 21.1568 32.6438C21.1465 32.6775 21.143 32.713 21.1466 32.748C21.1503 32.7831 21.1609 32.817 21.1779 32.8479C21.2099 32.9105 21.2469 32.969 21.2847 33.0264L20.6838 33.433C20.6552 33.4524 20.6307 33.4773 20.6116 33.5061C20.5926 33.535 20.5794 33.5674 20.5729 33.6013C20.5663 33.6353 20.5665 33.6702 20.5735 33.7041C20.5804 33.7379 20.594 33.7701 20.6134 33.7988C20.6328 33.8274 20.6576 33.8519 20.6865 33.871C20.7153 33.89 20.7477 33.9032 20.7816 33.9097C20.8156 33.9163 20.8505 33.9161 20.8844 33.9091C20.9183 33.9022 20.9504 33.8886 20.9791 33.8692L21.6354 33.4251C21.6535 33.4405 21.6735 33.4526 21.692 33.467L21.256 34.0999C21.2356 34.1283 21.2211 34.1605 21.2133 34.1946C21.2055 34.2287 21.2045 34.264 21.2105 34.2985C21.2165 34.333 21.2294 34.3659 21.2482 34.3954C21.2671 34.4249 21.2917 34.4503 21.3205 34.4701C21.3493 34.49 21.3818 34.5039 21.416 34.5111C21.4503 34.5182 21.4856 34.5185 21.52 34.5118C21.5543 34.5052 21.587 34.4917 21.6161 34.4723C21.6452 34.4528 21.6702 34.4278 21.6895 34.3986L22.1543 33.7239C22.3232 33.7854 22.4979 33.8215 22.6733 33.8215ZM35.5419 34.0569C35.5597 34.1244 35.6036 34.182 35.6638 34.2172C35.7241 34.2524 35.7959 34.2622 35.8634 34.2446C35.8968 34.2358 35.9282 34.2205 35.9557 34.1996C35.9833 34.1787 36.0064 34.1525 36.0238 34.1227C36.0413 34.0928 36.0526 34.0598 36.0573 34.0255C36.062 33.9913 36.0599 33.9564 36.0511 33.923L34.7176 28.8539C34.6995 28.7866 34.6556 28.7292 34.5955 28.6941C34.5353 28.659 34.4638 28.649 34.3963 28.6662C34.3629 28.675 34.3315 28.6903 34.3039 28.7112C34.2764 28.7321 34.2533 28.7583 34.2358 28.7881C34.2184 28.818 34.207 28.851 34.2024 28.8853C34.1977 28.9195 34.1998 28.9544 34.2086 28.9878L35.5419 34.0569ZM36.2514 29.5673C36.2736 29.5673 36.2962 29.5644 36.3184 29.5586L50.2126 25.9035C50.2802 25.8857 50.3379 25.8419 50.3731 25.7816C50.4083 25.7214 50.4182 25.6496 50.4005 25.582C50.3827 25.5145 50.3389 25.4567 50.2787 25.4215C50.2184 25.3863 50.1466 25.3765 50.079 25.3942L36.1848 29.0494C36.1229 29.0655 36.0689 29.1037 36.0331 29.1568C35.9973 29.2098 35.982 29.2741 35.9902 29.3376C35.9984 29.4011 36.0294 29.4595 36.0775 29.5018C36.1255 29.544 36.1874 29.5674 36.2514 29.5673ZM36.4539 31.1069C36.4717 31.1743 36.5155 31.232 36.5757 31.2671C36.6359 31.3023 36.7077 31.3122 36.7751 31.2946L50.6694 27.6393C50.7369 27.6215 50.7946 27.5777 50.8298 27.5174C50.8651 27.4572 50.8749 27.3854 50.8572 27.3178C50.8395 27.2503 50.7957 27.1926 50.7354 27.1573C50.6751 27.1221 50.6033 27.1123 50.5357 27.13L36.6415 30.7853C36.6081 30.7941 36.5767 30.8093 36.5491 30.8302C36.5216 30.8512 36.4984 30.8773 36.481 30.9072C36.4635 30.937 36.4522 30.9701 36.4475 31.0043C36.4429 31.0386 36.445 31.0735 36.4539 31.1069ZM36.9104 32.8427C36.9282 32.9101 36.972 32.9678 37.0322 33.0029C37.0924 33.0381 37.1641 33.048 37.2316 33.0304L51.1258 29.3752C51.1592 29.3664 51.1906 29.3511 51.2181 29.3302C51.2457 29.3093 51.2688 29.2832 51.2862 29.2533C51.3037 29.2234 51.315 29.1904 51.3197 29.1562C51.3244 29.1219 51.3223 29.0871 51.3135 29.0536C51.2954 28.9863 51.2516 28.9289 51.1914 28.8937C51.1313 28.8586 51.0597 28.8486 50.9922 28.8659L37.098 32.5213C37.0645 32.53 37.0332 32.5453 37.0056 32.5662C36.9781 32.5871 36.955 32.6133 36.9376 32.6431C36.9201 32.673 36.9088 32.706 36.9041 32.7402C36.8995 32.7745 36.9016 32.8093 36.9104 32.8427ZM53.0231 26.7927L53.9522 27.3189L54.0454 28.3826C54.0601 28.5592 54.1409 28.7238 54.2716 28.8435C54.4024 28.9632 54.5735 29.0292 54.7508 29.0282C54.9272 29.0281 55.0973 28.9619 55.2272 28.8425L56.0148 28.1214L57.0553 28.3615C57.1973 28.3948 57.346 28.3832 57.4811 28.3282C57.6161 28.2732 57.7307 28.1777 57.8091 28.0547C57.8733 27.9553 57.9114 27.8414 57.9199 27.7234C57.9284 27.6054 57.907 27.4872 57.8577 27.3797L57.4154 26.4079L57.9652 25.4926C58.0296 25.3853 58.0643 25.2629 58.066 25.1378C58.0677 25.0128 58.0362 24.8895 57.9747 24.7805C57.9063 24.6598 57.804 24.5617 57.6804 24.4987C57.5567 24.4356 57.4173 24.4103 57.2794 24.4259L56.2185 24.5462L55.5178 23.7405C55.4517 23.6642 55.3699 23.6029 55.278 23.561C55.1861 23.519 55.0863 23.4972 54.9853 23.4972C54.8222 23.4975 54.6642 23.5539 54.5379 23.657C54.4116 23.7601 54.3245 23.9035 54.2915 24.0631L54.078 25.1094L53.0951 25.5267C52.9734 25.5779 52.8685 25.6623 52.7925 25.7702C52.7165 25.8782 52.6725 26.0054 52.6655 26.1373C52.6575 26.2691 52.6868 26.4005 52.7501 26.5164C52.8133 26.6323 52.9079 26.7281 53.0231 26.7927ZM53.3009 26.0112L54.4511 25.5228C54.5058 25.4996 54.5456 25.4508 54.5575 25.3927L54.8072 24.1683C54.8257 24.0769 54.9047 24.0235 54.9851 24.0235C55.0338 24.0235 55.0834 24.0432 55.1205 24.0858L55.9404 25.0289C55.9597 25.051 55.984 25.0681 56.0113 25.0787C56.0386 25.0893 56.0681 25.0931 56.0972 25.0898L57.3388 24.949C57.3461 24.9481 57.3533 24.9478 57.3603 24.9478C57.4972 24.9478 57.5874 25.0994 57.514 25.2216L56.8705 26.2927C56.8554 26.3178 56.8467 26.3462 56.845 26.3755C56.8434 26.4047 56.8488 26.4339 56.8609 26.4606L57.3786 27.598C57.4345 27.7209 57.3414 27.8536 57.2154 27.8536C57.2017 27.8536 57.1878 27.8521 57.1735 27.8487L55.956 27.5678C55.9275 27.5613 55.8978 27.5617 55.8694 27.5692C55.8411 27.5767 55.815 27.5909 55.7934 27.6106L54.8718 28.4543C54.8469 28.4771 54.8162 28.4925 54.783 28.4987C54.7499 28.505 54.7157 28.5018 54.6842 28.4896C54.6528 28.4773 54.6254 28.4566 54.6052 28.4296C54.585 28.4026 54.5727 28.3704 54.5698 28.3368L54.4607 27.092C54.4582 27.0629 54.4486 27.0347 54.4328 27.0101C54.4169 26.9855 54.3953 26.9651 54.3698 26.9507L53.2825 26.3347C53.1523 26.2609 53.1631 26.0697 53.3009 26.0112ZM59.7294 25.134L60.3008 25.4577L60.3581 26.1119C60.3716 26.2747 60.4461 26.4264 60.5666 26.5367C60.6871 26.647 60.8448 26.7078 61.0082 26.7069C61.1709 26.7069 61.3278 26.6458 61.4477 26.5357L61.932 26.0924L62.5718 26.24C62.7027 26.2706 62.8398 26.2599 62.9643 26.2092C63.0888 26.1586 63.1945 26.0705 63.2668 25.9572C63.3872 25.7702 63.4039 25.5375 63.3118 25.3348L63.0397 24.737L63.3779 24.1741C63.4372 24.0751 63.4692 23.9623 63.4707 23.847C63.4722 23.7317 63.4432 23.618 63.3866 23.5176C63.3235 23.4063 63.2292 23.316 63.1152 23.2579C63.0013 23.1998 62.8727 23.1765 62.7456 23.1908L62.0932 23.2649L61.6622 22.7693C61.6011 22.6989 61.5257 22.6425 61.4409 22.6038C61.3562 22.5651 61.2642 22.5451 61.171 22.545C61.0208 22.5454 60.8752 22.5974 60.7588 22.6924C60.6424 22.7874 60.5622 22.9195 60.5316 23.0667L60.4003 23.7102L59.7958 23.9669C59.6836 24.014 59.5869 24.0918 59.5169 24.1914C59.4468 24.2909 59.4063 24.4082 59.3999 24.5298C59.3925 24.6513 59.4195 24.7724 59.4778 24.8792C59.5361 24.9861 59.6233 25.0744 59.7294 25.134ZM60.0016 24.4513L60.8002 24.1122C60.8189 24.1042 60.8354 24.0919 60.8483 24.0761C60.8611 24.0604 60.87 24.0418 60.8741 24.0219L61.0475 23.1718C61.052 23.1487 61.0629 23.1274 61.079 23.1103C61.095 23.0932 61.1156 23.081 61.1383 23.075C61.161 23.069 61.185 23.0696 61.2074 23.0766C61.2298 23.0836 61.2498 23.0968 61.265 23.1147L61.8343 23.7693C61.8476 23.7846 61.8645 23.7965 61.8835 23.8039C61.9024 23.8113 61.9229 23.8139 61.9431 23.8116L62.8051 23.7138C62.8283 23.7112 62.8518 23.7152 62.8729 23.7252C62.8941 23.7352 62.912 23.751 62.9246 23.7707C62.9373 23.7903 62.9442 23.8131 62.9446 23.8365C62.945 23.8599 62.9388 23.883 62.9268 23.903L62.4801 24.6466C62.4696 24.6641 62.4635 24.6838 62.4624 24.7041C62.4612 24.7244 62.465 24.7447 62.4734 24.7632L62.8328 25.5528C62.8424 25.5741 62.8459 25.5976 62.8429 25.6208C62.8398 25.644 62.8304 25.6658 62.8156 25.6839C62.8008 25.702 62.7813 25.7156 62.7592 25.7232C62.7371 25.7308 62.7133 25.7321 62.6905 25.7269L61.8451 25.5319C61.8253 25.5273 61.8047 25.5276 61.785 25.5328C61.7653 25.5379 61.7472 25.5478 61.7323 25.5616L61.0923 26.1474C61.075 26.1632 61.0537 26.1739 61.0307 26.1782C61.0077 26.1825 60.9839 26.1803 60.9621 26.1718C60.9403 26.1634 60.9213 26.1489 60.9073 26.1302C60.8933 26.1115 60.8848 26.0892 60.8828 26.0659L60.8071 25.2016C60.8053 25.1814 60.7986 25.1619 60.7876 25.1448C60.7766 25.1277 60.7617 25.1135 60.744 25.1035L59.9891 24.6759C59.9687 24.6644 59.9519 24.6475 59.9406 24.6269C59.9294 24.6064 59.9241 24.5831 59.9254 24.5597C59.9267 24.5363 59.9345 24.5138 59.948 24.4946C59.9615 24.4754 59.98 24.4604 60.0016 24.4513Z" fill="#122344"/>
<path d="M44.6089 16.9978C42.3295 14.4515 40.9849 11.9122 40.2328 10.1363C40.3635 10.0203 40.4832 9.89236 40.5903 9.75427C40.8162 9.46345 40.9822 9.13073 41.0786 8.77535C41.175 8.41998 41.2 8.04901 41.152 7.68392C40.9957 6.46364 40.0785 5.49855 38.871 5.28267C38.5885 5.2306 38.2996 5.22294 38.0147 5.25998C37.6493 5.30582 37.2966 5.42371 36.977 5.60682C36.6575 5.78992 36.3775 6.0346 36.1532 6.32669C35.9272 6.61748 35.7612 6.95021 35.6646 7.30561C35.5681 7.66102 35.543 8.03203 35.5909 8.39719C35.7035 9.27317 36.2067 10.028 36.9714 10.4675C37.0203 10.4959 37.0723 10.5171 37.1225 10.5423C36.8427 12.4506 36.1814 15.2444 34.6208 18.279C34.4439 18.6237 34.7484 18.9487 35.0909 19.107C35.43 19.2635 35.7794 19.3966 36.1367 19.5052C38.9257 20.3687 42.0859 19.7853 44.3628 17.9176C44.6544 17.678 44.8669 17.2868 44.6089 16.9978Z" fill="#3B6EFF"/>
<path d="M35.3891 17.7095C36.7987 18.0729 38.2247 18.2075 39.6238 18.0177C41.0244 17.8419 42.3675 17.3483 43.6361 16.6402C43.6833 16.6132 43.7387 16.6045 43.792 16.6158C43.8452 16.627 43.8924 16.6575 43.9246 16.7013C43.9568 16.7451 43.9717 16.7993 43.9666 16.8534C43.9615 16.9075 43.9366 16.9579 43.8967 16.9949C43.3381 17.5203 42.6786 17.9399 41.9726 18.258C41.2671 18.5803 40.5072 18.7857 39.7356 18.8878C38.9631 18.9834 38.1764 18.9702 37.413 18.8366C36.6502 18.7052 35.9078 18.4621 35.2364 18.0942C35.1919 18.0697 35.1579 18.0298 35.1407 17.982C35.1235 17.9342 35.1244 17.8818 35.1431 17.8345C35.1619 17.7873 35.1972 17.7486 35.2425 17.7255C35.2878 17.7025 35.3399 17.6968 35.3891 17.7095Z" fill="#4217A6"/>
<path opacity="0.5" d="M36.6601 16.6715C36.4724 16.8183 36.2138 16.6057 36.3236 16.3927C37.1723 14.7469 37.3426 13.2372 37.7319 11.667L37.7343 11.6574C37.741 11.6305 37.7529 11.6052 37.7693 11.583C37.7858 11.5607 37.8064 11.5419 37.8301 11.5276C37.8538 11.5133 37.8801 11.5039 37.9075 11.4998C37.9349 11.4957 37.9628 11.497 37.9896 11.5037C38.4983 11.6301 38.395 15.3133 36.6601 16.6715Z" fill="white"/>
<path d="M44.6089 16.9978C42.2176 14.327 40.8523 11.6593 40.1238 9.87797C40.4127 9.60358 40.6327 9.26491 40.7661 8.88947C40.8995 8.51403 40.9424 8.11242 40.8913 7.71728C40.7469 6.59146 39.8858 5.73148 38.8235 5.5415C39.0166 6.21623 39.2411 6.88441 39.2297 7.59479C39.2067 9.03338 38.2664 9.81566 37.1037 10.2398C37.5843 10.5191 38.1437 10.6316 38.6948 10.56C38.8738 10.537 39.0452 10.4962 39.209 10.4387C39.0246 11.1552 39.0338 11.9319 39.0932 12.6776C39.1747 13.7131 39.3376 14.761 39.1491 15.7827C38.879 17.2394 37.8819 18.513 36.603 19.2607C36.4514 19.349 36.2959 19.4306 36.137 19.505C38.9259 20.3685 42.0861 19.7852 44.3631 17.9175C44.6545 17.678 44.867 17.2867 44.6089 16.9978Z" fill="#122344"/>
<path d="M39.3251 8.68255C39.1359 8.52731 39.2448 8.28006 39.4572 8.17189C39.7864 8.00432 40.1392 8.05611 40.2999 8.19002C40.7312 8.54895 39.7841 9.05914 39.3251 8.68255ZM37.6112 8.90238C37.755 8.70449 37.5873 8.49273 37.3545 8.4417C36.9936 8.36248 36.6653 8.50187 36.5436 8.67189C36.217 9.128 37.2622 9.38272 37.6112 8.90238Z" fill="#FC09B2"/>
<path d="M44.8061 16.823C42.6075 14.3663 41.2836 11.8927 40.5463 10.2002C41.1898 9.54998 41.5383 8.62495 41.4143 7.64964C41.3331 7.00251 41.0469 6.39834 40.5976 5.92555C40.1484 5.45275 39.5596 5.13613 38.9174 5.02202C38.737 4.99115 38.5542 4.97545 38.3711 4.9751C38.2438 4.9751 38.1097 4.9818 37.9823 4.99856C36.3032 5.21306 35.1134 6.75478 35.3313 8.43056C35.4519 9.3824 35.9982 10.2035 36.8294 10.6895C36.5378 12.5731 35.8742 15.2644 34.3861 18.1601C34.3417 18.2452 34.3151 18.3384 34.3082 18.4341C34.3013 18.5299 34.3141 18.626 34.3459 18.7165C34.433 18.9712 34.6643 19.1991 34.9793 19.3466C35.3346 19.5075 35.6966 19.6482 36.0585 19.7555C36.928 20.0246 37.833 20.1613 38.7431 20.161C39.7883 20.1605 40.826 19.9849 41.8132 19.6415C42.7952 19.2963 43.7202 18.7869 44.5313 18.1199C44.7994 17.8987 44.967 17.6172 44.9871 17.3491C45.0007 17.1548 44.9403 16.9705 44.8061 16.823ZM35.8507 8.36353C35.6731 6.97263 36.6585 5.69903 38.0494 5.5214C38.1561 5.50803 38.2636 5.50131 38.3711 5.50129C38.5253 5.50129 38.6761 5.5147 38.8236 5.54151C39.886 5.73255 40.7474 6.59055 40.8915 7.71668C40.9368 8.06302 40.9095 8.41499 40.8114 8.75023C40.7133 9.08546 40.5466 9.39662 40.3217 9.66393C40.2015 9.81044 40.0642 9.94208 39.9128 10.0561C39.571 10.3208 39.1554 10.4985 38.6962 10.5588C38.5856 10.5756 38.4784 10.5823 38.3678 10.5823C38.0293 10.5823 37.7042 10.5152 37.4059 10.3879C37.3015 10.3469 37.2007 10.2976 37.1042 10.2404C37.0372 10.2035 36.9735 10.16 36.9098 10.1164C36.6215 9.91358 36.3784 9.65303 36.1961 9.35127C36.0137 9.04952 35.8961 8.71315 35.8507 8.36353ZM44.1961 17.7145C42.0076 19.511 38.9476 20.1009 36.2127 19.2529C35.8669 19.1476 35.5288 19.0189 35.2005 18.8675C35.0229 18.787 34.8821 18.6597 34.8419 18.5457C34.8252 18.4955 34.8285 18.4485 34.8553 18.3983C36.3334 15.526 37.0137 12.8446 37.3254 10.9208C37.6589 11.0449 38.0119 11.1085 38.3678 11.1085C38.4985 11.1085 38.6325 11.0984 38.7633 11.0816C39.2536 11.0203 39.7211 10.8383 40.124 10.5521C40.8915 12.2782 42.2288 14.735 44.414 17.1714C44.4509 17.215 44.4643 17.2586 44.4609 17.3088C44.4509 17.4297 44.347 17.5905 44.1961 17.7145Z" fill="#122344"/>
<path d="M37.4192 7.71668C37.4192 7.70327 37.4192 7.68987 37.4158 7.67981C37.3924 7.48207 37.2147 7.35136 37.0103 7.37817C36.8092 7.40834 36.6785 7.58262 36.7019 7.78371C36.7187 7.95129 36.8796 8.09205 37.0606 8.09205C37.0773 8.09205 37.0941 8.09205 37.1108 8.0887C37.2985 8.06189 37.4259 7.91107 37.4192 7.71668ZM39.5943 7.7703C39.6211 7.76695 39.648 7.76025 39.6714 7.75355C40.0803 7.61613 39.9429 6.99274 39.5139 7.05977C39.2759 7.09329 39.1854 7.30109 39.1988 7.46196C39.1988 7.47202 39.2022 7.47872 39.2056 7.48877C39.2357 7.65635 39.4268 7.80047 39.5943 7.7703ZM38.1532 8.69869C38.2269 8.72885 38.304 8.74226 38.3811 8.74226C38.5218 8.74226 38.6626 8.68863 38.7799 8.58809C38.9307 8.45737 39.0279 8.26298 39.0581 8.03508C39.0815 7.8742 39.0715 7.69657 39.0246 7.51223V7.50553C39.0082 7.43818 38.966 7.38 38.907 7.34361C38.848 7.30721 38.777 7.29555 38.7095 7.31114C38.65 7.32546 38.5974 7.36007 38.5607 7.40901C38.524 7.45795 38.5055 7.51816 38.5084 7.57927C38.5084 7.59602 38.5118 7.60943 38.5151 7.62619C38.5654 7.83734 38.5453 8.00491 38.495 8.10881C38.4828 8.13985 38.4633 8.16745 38.438 8.18925C38.3945 8.22612 38.3643 8.21606 38.3509 8.20936C38.3178 8.19431 38.2898 8.16983 38.2705 8.13898C38.2068 8.06189 38.1398 7.91107 38.1163 7.6597C38.1163 7.64965 38.1129 7.63959 38.1096 7.62954C38.0828 7.50218 37.9621 7.40834 37.8281 7.42174C37.7615 7.42798 37.6999 7.45971 37.6562 7.51031C37.6124 7.5609 37.59 7.62644 37.5935 7.69322V7.70998C37.6102 7.89766 37.6504 8.06524 37.7108 8.20936C37.8079 8.45067 37.9588 8.6216 38.1532 8.69869Z" fill="#122344"/>
<path d="M58.654 16.0372C56.7167 13.221 55.706 10.5306 55.1861 8.67341C55.9245 8.16793 56.4105 7.31938 56.4105 6.359C56.4105 5.12868 55.6233 4.05481 54.4533 3.68735C54.1798 3.59979 53.8942 3.55538 53.607 3.55573C52.0612 3.55573 50.8034 4.81332 50.8034 6.359C50.8034 7.24229 51.207 8.05505 51.9096 8.58825C51.9546 8.62268 52.0042 8.64782 52.0508 8.6792C51.5307 10.5364 50.5192 13.2247 48.5843 16.0372C48.365 16.3567 48.6257 16.7178 48.9452 16.9183C49.2616 17.1167 49.5913 17.2931 49.9319 17.4464C52.5885 18.6577 55.7971 18.4811 58.2931 16.9183C58.6126 16.7178 58.8732 16.3567 58.654 16.0372Z" fill="#3B6EFF"/>
<path d="M49.4183 15.5701C50.7702 16.1099 52.1674 16.4249 53.5794 16.4144C54.9911 16.4182 56.3859 16.0994 57.7343 15.5586C57.7845 15.5382 57.8404 15.5369 57.8915 15.555C57.9426 15.573 57.9853 15.6092 58.0115 15.6565C58.0378 15.7039 58.0458 15.7593 58.034 15.8122C58.0222 15.865 57.9915 15.9118 57.9476 15.9435C57.3268 16.3936 56.6192 16.7261 55.8783 16.9516C55.1375 17.1816 54.3576 17.2887 53.5793 17.2916C52.8008 17.2883 52.0222 17.1749 51.2819 16.9453C50.542 16.7184 49.8367 16.3826 49.2175 15.9323C49.1766 15.9022 49.148 15.8583 49.1372 15.8087C49.1263 15.7591 49.1339 15.7072 49.1585 15.6628C49.1831 15.6184 49.2231 15.5845 49.2709 15.5674C49.3188 15.5504 49.3712 15.5513 49.4183 15.5701Z" fill="#55C9F5"/>
<g opacity="0.5">
<path d="M58.6539 16.0372C56.6218 13.0839 55.6071 10.2643 55.111 8.40465C55.4325 8.16926 55.6939 7.86133 55.8739 7.50589C56.0539 7.15046 56.1475 6.75755 56.1471 6.35913C56.1471 5.22401 55.4025 4.26151 54.3729 3.93793C54.4785 4.6317 54.6162 5.32288 54.5146 6.0261C54.3088 7.45006 53.2767 8.10636 52.0693 8.37905C52.5105 8.71719 53.051 8.90004 53.6068 8.89915C53.7834 8.89933 53.9595 8.88095 54.1322 8.84431C53.8581 9.53153 53.7686 10.303 53.7325 11.0502C53.6816 12.0877 53.7098 13.1479 53.3929 14.1373C52.9397 15.5477 51.7886 16.6842 50.4249 17.2631C50.2633 17.3314 50.0987 17.3925 49.9316 17.4462C52.5882 18.6575 55.7969 18.481 58.2929 16.9181C58.6125 16.7177 58.8732 16.3567 58.6539 16.0372Z" fill="#55C9F5"/>
</g>
<path opacity="0.75" d="M52.9213 9.929C53.098 12.7894 50.8729 15.2429 50.5048 14.6242C50.4226 14.4859 50.533 14.3377 50.5211 14.3712C52.2065 11.9355 52.2077 9.51981 52.7874 9.74558C52.8663 9.77635 52.9163 9.84963 52.9213 9.929Z" fill="white"/>
<path d="M54.5833 7.05173C54.4095 6.86754 54.5539 6.62806 54.7863 6.54503C55.1463 6.4163 55.5017 6.51609 55.6491 6.67452C56.0443 7.09971 55.005 7.49886 54.5833 7.05173ZM52.6306 7.05173C52.8044 6.86754 52.66 6.62806 52.4277 6.54503C52.0677 6.4163 51.7123 6.51609 51.5648 6.67452C51.1696 7.09971 52.2091 7.49886 52.6306 7.05173Z" fill="#FC09B2"/>
<path d="M53.6069 5.80661C53.2439 5.80432 52.8743 5.95194 52.8743 6.23591C52.8756 6.61555 53.2387 6.89008 53.6069 6.89709C53.9753 6.89023 54.3381 6.61555 54.3395 6.23591C54.3395 5.95194 53.9699 5.80417 53.6069 5.80661Z" fill="white"/>
<path d="M58.8694 15.8879C56.9992 13.1698 56.0038 10.5489 55.491 8.77577C56.2116 8.21271 56.6741 7.33795 56.6741 6.3593C56.6741 5.01197 55.8128 3.83892 54.5325 3.43673C54.2336 3.34027 53.9214 3.29163 53.6074 3.29262C51.9149 3.29262 50.5408 4.66676 50.5408 6.3593C50.5408 7.3212 50.9798 8.20936 51.7406 8.79253C51.2111 10.6191 50.2123 13.2033 48.3656 15.8879C48.255 16.0522 48.2148 16.2432 48.255 16.4342C48.3086 16.699 48.5097 16.9571 48.8046 17.1414C49.1316 17.3453 49.472 17.5267 49.8235 17.6844C51.0234 18.234 52.3238 18.5022 53.6175 18.5022C54.4621 18.5022 55.3067 18.3882 56.1178 18.1603C56.9342 17.9324 57.714 17.5893 58.4337 17.1414C58.7286 16.9571 58.9297 16.699 58.9833 16.4342C59.0236 16.2432 58.9833 16.0522 58.8694 15.8879ZM51.0668 6.3593C51.0668 4.95499 52.203 3.81881 53.6073 3.81881C53.8754 3.81881 54.1301 3.85903 54.3714 3.93947C54.8869 4.10064 55.3373 4.4224 55.6569 4.85776C55.9765 5.29311 56.1485 5.81924 56.1478 6.3593C56.1485 6.70888 56.0764 7.05479 55.9362 7.37503C55.796 7.69526 55.5907 7.98282 55.3333 8.21941C55.1963 8.35013 55.0431 8.46276 54.8775 8.55457C54.5055 8.77577 54.0698 8.89978 53.6073 8.89978C53.1481 8.89978 52.7158 8.77913 52.3471 8.56463C52.1852 8.4713 52.0335 8.36121 51.8946 8.23617C51.6337 7.99814 51.4252 7.70827 51.2827 7.38508C51.1401 7.0619 51.0666 6.71252 51.0668 6.3593ZM58.152 16.6957C55.7523 18.1972 52.6454 18.3949 50.0411 17.2051C49.716 17.061 49.3942 16.8867 49.0859 16.6957C48.9183 16.5918 48.7943 16.4477 48.7708 16.3303C48.7608 16.2767 48.7675 16.2332 48.801 16.1862C50.6309 13.5251 51.6465 10.9511 52.1995 9.08427C52.6343 9.30989 53.1172 9.42717 53.6071 9.42613C54.1199 9.42613 54.6025 9.29877 55.0282 9.07421C55.5644 10.8841 56.58 13.4882 58.4367 16.1864C58.4669 16.2333 58.4769 16.2769 58.4669 16.3305C58.4437 16.4477 58.3196 16.5918 58.152 16.6957Z" fill="#122344"/>
<path d="M52.3069 6.20178C52.4678 6.18837 52.5918 6.07442 52.6253 5.9169C52.6294 5.89139 52.6316 5.86563 52.632 5.83981C52.632 5.63872 52.4745 5.4879 52.27 5.49125C52.0656 5.49125 51.9148 5.64877 51.9114 5.84987C51.9081 6.0342 52.0757 6.20848 52.2767 6.20513C52.2868 6.20513 52.2969 6.20513 52.3069 6.20178ZM54.9312 6.20513H54.9345C55.4373 6.19173 55.4071 5.47784 54.9479 5.4879C54.7066 5.4946 54.5893 5.68899 54.586 5.84987C54.586 5.87333 54.586 5.89679 54.5927 5.9169C54.6228 6.07107 54.777 6.20848 54.9312 6.20513Z" fill="#122344"/>
<path d="M13.0161 20.5227L15.4699 27.9619C15.5131 28.092 15.5257 28.2303 15.5066 28.3661C15.4876 28.5018 15.4375 28.6313 15.3602 28.7445L11.5704 34.3071C11.4766 34.4436 11.347 34.5515 11.1957 34.6189C11.0444 34.6862 10.8774 34.7104 10.7133 34.6887L3.37213 33.6968C3.20617 33.6744 3.04986 33.6058 2.92102 33.4988C2.79218 33.3919 2.696 33.2508 2.64347 33.0918L0.308038 26.0115C0.290595 25.9608 0.279043 25.9083 0.273608 25.855C0.239499 25.6231 0.298539 25.3871 0.437835 25.1986L4.76196 19.3716C4.85741 19.2437 4.98537 19.1436 5.13255 19.0818C5.27973 19.02 5.44077 18.9988 5.59894 19.0203L12.2868 19.9159C12.4529 19.9388 12.6093 20.0078 12.7382 20.1151C12.8671 20.2223 12.9634 20.3635 13.0161 20.5227Z" fill="white"/>
<path d="M15.1136 26.8815L15.47 27.962C15.5132 28.092 15.5257 28.2303 15.5067 28.3661C15.4877 28.5018 15.4376 28.6313 15.3603 28.7445L11.5704 34.3071C11.4767 34.4436 11.347 34.5515 11.1958 34.6189C11.0445 34.6862 10.8775 34.7104 10.7133 34.6887L3.3722 33.6968C3.20625 33.6744 3.04993 33.6058 2.92109 33.4988C2.79225 33.3919 2.69608 33.2508 2.64354 33.0918L0.308111 26.0115C0.290668 25.9608 0.279116 25.9083 0.273682 25.855C0.374225 25.8642 0.473387 25.8849 0.569229 25.9166C1.25645 26.148 1.73496 26.7839 2.02883 27.4463C2.32453 28.1079 2.48175 28.8261 2.78202 29.4884C3.41775 30.8812 4.71206 31.9555 6.19848 32.3213C7.6849 32.6871 9.33189 32.3394 10.5407 31.401C11.637 30.551 12.3346 29.3014 13.2584 28.2677C13.7674 27.6976 14.4124 27.1751 15.1136 26.8815Z" fill="#122344"/>
<path d="M15.7199 27.8795L13.2661 20.4403C13.127 20.0183 12.7661 19.7174 12.322 19.6548L5.63487 18.7593C5.42996 18.7313 5.22128 18.7587 5.0306 18.8388C4.83991 18.9189 4.67422 19.0487 4.5508 19.2147L0.225758 25.0429C0.04584 25.288 -0.0312459 25.5985 0.0115627 25.8779C0.0175041 25.9457 0.0331955 26.0185 0.0583322 26.0936L2.39361 33.1739C2.5327 33.5961 2.89391 33.8962 3.33723 33.9574L10.679 34.9494C10.8915 34.9782 11.1079 34.9473 11.3039 34.86C11.4998 34.7727 11.6675 34.6325 11.7882 34.4552L15.5771 28.8937C15.7793 28.6003 15.8326 28.2209 15.7199 27.8795ZM15.1426 28.5962L11.3534 34.1582C11.2874 34.2548 11.1959 34.331 11.0891 34.3786C10.9823 34.4262 10.8643 34.4431 10.7484 34.4276L3.40822 33.4358C3.29091 33.4204 3.18035 33.3722 3.08925 33.2967C2.99815 33.2212 2.93023 33.1215 2.8933 33.0091L0.557867 25.9282C0.545523 25.8917 0.537445 25.8539 0.533797 25.8156C0.510558 25.653 0.551959 25.4878 0.649121 25.3554L4.97264 19.5291C5.04003 19.4387 5.13044 19.3679 5.23446 19.3243C5.33847 19.2807 5.45228 19.2657 5.56403 19.281L12.2499 20.1763C12.3676 20.1921 12.4783 20.2407 12.5696 20.3165C12.6608 20.3924 12.7289 20.4924 12.7659 20.6051L15.2197 28.0444C15.2503 28.1361 15.2592 28.2336 15.2458 28.3293C15.2325 28.425 15.1971 28.5164 15.1426 28.5962Z" fill="#122344"/>
<path d="M7.57184 26.9394C7.63865 26.9391 7.70283 26.9134 7.75139 26.8675C7.79994 26.8216 7.82923 26.759 7.83332 26.6923C7.83741 26.6256 7.81599 26.5598 7.7734 26.5084C7.73082 26.4569 7.67025 26.4235 7.60398 26.415L1.11886 25.6095C1.08451 25.6049 1.04959 25.6073 1.01615 25.6164C0.982716 25.6255 0.951417 25.6411 0.924076 25.6624C0.896735 25.6837 0.873896 25.7102 0.856886 25.7404C0.839876 25.7706 0.829035 25.8039 0.824991 25.8383C0.816421 25.9075 0.835711 25.9774 0.87862 26.0324C0.92153 26.0875 0.984545 26.1232 1.05381 26.1318L7.53893 26.9374C7.55021 26.9388 7.56102 26.9394 7.57184 26.9394ZM12.6254 20.4788C12.5963 20.4602 12.5638 20.4474 12.5298 20.4413C12.4958 20.4352 12.4609 20.4359 12.4271 20.4433C12.3934 20.4507 12.3614 20.4647 12.333 20.4845C12.3047 20.5042 12.2805 20.5294 12.2619 20.5585L8.85396 25.8768C8.82838 25.9165 8.81398 25.9624 8.81228 26.0096C8.81058 26.0569 8.82164 26.1037 8.84429 26.1451C8.86695 26.1866 8.90036 26.2212 8.94102 26.2452C8.98168 26.2693 9.02807 26.282 9.07532 26.2819C9.16215 26.2819 9.24701 26.2392 9.29728 26.1606L12.7052 20.8423C12.7238 20.8132 12.7366 20.7807 12.7426 20.7467C12.7487 20.7127 12.748 20.6778 12.7406 20.644C12.7332 20.6103 12.7192 20.5783 12.6994 20.55C12.6797 20.5216 12.6545 20.4974 12.6254 20.4788ZM8.83736 27.0653C8.8155 26.999 8.76819 26.944 8.70585 26.9126C8.64352 26.8812 8.57125 26.8758 8.50494 26.8977C8.47213 26.9085 8.44176 26.9256 8.41558 26.9482C8.38941 26.9708 8.36794 26.9983 8.3524 27.0291C8.33687 27.06 8.32757 27.0936 8.32504 27.1281C8.32251 27.1625 8.3268 27.1971 8.33767 27.2299L10.593 34.0677C10.6149 34.134 10.6622 34.1888 10.7245 34.2202C10.7868 34.2517 10.8591 34.2571 10.9254 34.2353C10.9582 34.2245 10.9886 34.2073 11.0148 34.1848C11.0409 34.1622 11.0624 34.1347 11.078 34.1039C11.0935 34.073 11.1028 34.0394 11.1054 34.0049C11.1079 33.9705 11.1037 33.9359 11.0928 33.903L8.83736 27.0653ZM6.05236 21.2881C6.54824 21.1245 6.8706 20.7508 6.77249 20.4532C6.67438 20.1557 6.19282 20.0471 5.69694 20.2107C5.20107 20.3743 4.87871 20.748 4.97682 21.0455C5.07492 21.3431 5.55648 21.4517 6.05236 21.2881ZM6.35248 25.2163C6.45059 25.5138 6.93215 25.6224 7.42803 25.4588C7.9239 25.2952 8.24626 24.9215 8.14815 24.6239C8.05005 24.3264 7.56849 24.2178 7.07261 24.3814C6.57688 24.545 6.25437 24.9187 6.35248 25.2163ZM5.66465 23.131C5.76276 23.4285 6.24432 23.5371 6.74004 23.3735C7.23592 23.21 7.55828 22.8362 7.46017 22.5387C7.36206 22.2411 6.8805 22.1325 6.38462 22.2961C5.88905 22.4596 5.56654 22.8334 5.66465 23.131ZM10.3168 22.1938C10.8126 22.0301 11.135 21.6564 11.0369 21.3589C10.9388 21.0614 10.4572 20.9528 9.96135 21.1164C9.46547 21.28 9.14311 21.6537 9.24122 21.9512C9.33948 22.2488 9.82089 22.3572 10.3168 22.1938ZM3.16362 24.5531C3.6595 24.3895 3.98186 24.0158 3.88375 23.7183C3.78564 23.4207 3.30408 23.3121 2.8082 23.4757C2.31232 23.6393 1.98996 24.013 2.08807 24.3106C2.18633 24.6081 2.66774 24.7167 3.16362 24.5531ZM7.31651 28.5015C6.90564 28.1795 6.4157 28.1183 6.22253 28.3649C6.02936 28.6114 6.20577 29.0724 6.6168 29.3944C7.02767 29.7165 7.5176 29.7777 7.71078 29.5311C7.90395 29.2846 7.72753 28.8236 7.31651 28.5015ZM4.60753 31.9582C4.19651 31.6362 3.70673 31.5749 3.51355 31.8216C3.32023 32.0681 3.4968 32.5291 3.90782 32.8511C4.31869 33.1732 4.80863 33.2344 5.0018 32.9878C5.19497 32.7413 5.01856 32.2803 4.60753 31.9582ZM8.92633 32.553C8.51546 32.2309 8.02552 32.1697 7.83235 32.4163C7.63902 32.663 7.81559 33.1238 8.22646 33.4459C8.63748 33.7679 9.12727 33.8292 9.32044 33.5825C9.51376 33.336 9.3372 32.875 8.92633 32.553ZM2.99787 27.9068C2.587 27.5847 2.09706 27.5235 1.90389 27.7701C1.71072 28.0168 1.88713 28.4776 2.29816 28.7998C2.70903 29.1219 3.19896 29.1831 3.39214 28.9365C3.58531 28.6898 3.40874 28.2289 2.99787 27.9068ZM12.4037 26.7526C12.0922 26.7194 11.795 27.1135 11.7397 27.6327C11.6845 28.1519 11.8923 28.5997 12.2037 28.6327C12.5152 28.6658 12.8125 28.2718 12.8678 27.7526C12.9231 27.2334 12.7153 26.7857 12.4037 26.7526ZM12.0198 30.3632C11.7083 30.33 11.4111 30.7241 11.3559 31.2433C11.3006 31.7625 11.5084 32.2102 11.8199 32.2433C12.1315 32.2763 12.4287 31.8824 12.4839 31.3632C12.5392 30.8441 12.3314 30.3964 12.0198 30.3632ZM12.7598 23.4047C12.4482 23.3717 12.151 23.7656 12.0957 24.2848C12.0405 24.804 12.2483 25.2518 12.5597 25.2848C12.8713 25.3179 13.1685 24.9239 13.2238 24.4047C13.2789 23.8857 13.0711 23.4378 12.7598 23.4047ZM21.8917 18.9298C21.7581 18.9761 21.626 19.0281 21.4907 19.0885C21.3503 19.1516 21.2119 19.2208 21.0898 19.3106L21.0927 19.3163C21.3359 20.0323 21.8672 21.1549 22.1054 21.8589C21.9066 21.6663 21.3635 20.8802 21.2698 20.8589C21.2665 20.8673 21.2688 20.8734 21.2704 20.8935C21.3407 21.2853 21.415 21.6542 21.4726 22.0512C20.9991 21.4525 20.6266 20.3221 20.2514 19.6581C20.1081 19.7156 19.9441 19.7748 19.7858 19.846C19.6582 19.9034 19.535 19.9703 19.4175 20.0463L19.4198 20.0523C20.0515 21.3979 20.8768 22.6567 21.6645 23.9111L21.6708 23.9084C21.7645 23.8807 21.837 23.8551 21.9016 23.826C22.0136 23.776 22.0844 23.73 22.1763 23.6675C22.2099 23.4127 21.9787 22.755 22.0564 22.5507L22.0622 22.5481C22.3003 22.7021 22.6402 23.2693 22.8566 23.3909L22.9269 23.3593L23.1382 23.2646C23.2146 23.2305 23.2873 23.2047 23.3324 23.1633C22.8338 21.7512 22.3917 20.3416 21.901 18.9327L21.8917 18.9298ZM23.5064 18.2688L23.3624 18.3247C23.0043 18.4703 22.8416 18.5128 22.6959 18.5626C22.6411 18.5837 22.4846 18.6237 22.4452 18.646L22.4491 18.658C22.8262 20.058 23.6063 21.4467 24.053 22.9369C24.2021 22.8237 25.0429 22.6427 25.124 22.4594C24.5173 21.1277 24.0484 19.667 23.5155 18.2928L23.5064 18.2688ZM27.7949 20.906C27.7207 20.6799 27.6561 20.4639 27.5778 20.2256C27.4624 19.8774 27.3453 19.5229 27.2271 19.1825L26.5776 17.2146C26.453 17.2284 26.3148 17.2606 26.1617 17.311C26.0098 17.3613 25.8665 17.4219 25.734 17.4929C25.7944 17.6966 25.8447 17.8696 25.9012 18.0407C25.9978 18.3341 26.1051 18.5971 26.212 18.921C26.2583 19.0616 26.2982 19.2448 26.28 19.2712C26.2617 19.2771 25.5169 18.5198 25.43 18.4197C25.1701 18.1259 25.101 18.1012 24.8862 17.8401C24.8741 17.8034 24.4623 17.9118 24.3589 17.9461C24.2606 17.9784 24.1647 18.0168 24.0915 18.0613C24.22 18.5949 24.3913 19.1551 24.5764 19.7174C24.8283 20.4814 25.0665 21.1415 25.3229 21.9177L25.4634 22.3455C25.6531 22.283 25.8666 22.253 26.0626 22.1887C26.1546 22.1584 26.2379 22.1241 26.3212 22.0694C26.2687 21.931 26.2103 21.7536 26.1482 21.5641C25.9226 20.8798 25.6547 20.0056 25.6793 19.9977C25.6969 19.9916 25.758 20.0733 25.8193 20.1548L25.9404 20.3179C26.3013 20.775 26.7697 21.2506 27.2387 21.7672C27.4032 21.7128 27.6459 21.6666 27.811 21.6123C27.9515 21.5659 27.9864 21.5274 28.0024 21.5152L27.9618 21.3929C27.9079 21.228 27.8496 21.0711 27.7949 20.906ZM27.9381 16.8472C27.6902 16.8427 27.3908 16.9921 27.1789 17.071L27.1607 17.0762C27.4052 18.2235 27.7719 19.2837 28.0557 20.3804L28.0619 20.3786C28.3019 20.3055 28.6428 20.211 28.8535 20.126C28.5104 19.0792 28.2135 17.9127 27.9381 16.8472ZM28.9521 20.459C28.7104 20.5259 28.3751 20.5452 28.1998 20.681L28.2009 20.6871C28.2648 20.9165 28.3276 21.4331 28.3831 21.4177L28.8469 21.2826L28.8594 21.2791C28.9519 21.2533 28.9972 21.2475 29.0965 21.2201L29.1399 21.2079C29.073 20.9665 29.0096 20.6901 28.9521 20.459ZM19.1391 12.2986L19.1369 12.2928C19.0878 12.308 19.002 12.3392 18.9083 12.3813C18.7033 12.4735 18.4394 12.6065 18.3115 12.6991C18.3131 13.0792 18.4405 13.833 18.4085 14.1857C18.1355 13.9556 17.6111 13.4157 17.3793 13.1039C17.2731 13.1025 17.1765 13.1387 17.0822 13.1809C16.9126 13.2573 16.7515 13.3717 16.5933 13.4428C17.0498 14.0345 17.7642 14.5246 18.2423 15.1348L18.2475 15.1465C18.2805 15.9566 18.3125 16.7958 18.3919 17.5217L18.4033 17.5163C18.4525 17.5013 18.4999 17.4801 18.5467 17.4589C18.7277 17.3773 18.926 17.2673 19.0899 17.1935C19.1385 17.1704 19.1885 17.1504 19.2395 17.1335C19.0889 15.544 19.3351 13.8959 19.1391 12.2986ZM20.4266 15.418C20.5214 15.6503 20.6346 15.8758 20.8241 16.0308C21.0891 16.2949 21.4357 16.2459 21.7779 16.1506C22.0189 16.0796 22.2435 15.981 22.4404 15.8304C22.6619 15.6707 22.8557 15.4734 22.9208 15.2284C22.9762 14.9391 22.931 14.6192 22.842 14.3296L22.7843 14.1244C22.6569 13.698 22.4845 13.3162 22.3467 12.8799C22.2771 12.6791 22.2017 12.4806 22.1086 12.2891C22.0424 12.1695 21.9705 12.0524 21.871 11.9528C21.7677 11.8305 21.635 11.7364 21.4854 11.6794C20.8874 11.5003 20.1362 11.7713 19.7056 12.2306C19.6655 12.2791 19.6328 12.3332 19.6085 12.3912C19.4685 12.7675 19.5485 13.1776 19.68 13.5406C19.8777 14.1884 20.165 14.8016 20.4266 15.418ZM20.5185 12.7961C20.6087 12.6519 20.7686 12.5294 20.956 12.5339C21.1764 12.5533 21.3599 12.7108 21.4627 12.9265C21.5209 13.0626 21.6146 13.2541 21.6169 13.2603L21.7837 13.6648L21.894 13.9535C21.9002 13.9715 21.9449 14.106 22.0008 14.2708C22.103 14.631 22.1624 14.6081 22.0882 14.8637C21.9461 15.2339 21.4273 15.3895 21.1498 15.1302C20.9709 14.8951 20.8631 14.5921 20.7139 14.3254C20.5677 13.9955 20.4443 13.6503 20.3934 13.3185C20.378 13.1317 20.4214 12.9567 20.5185 12.7961ZM23.3259 14.4748C23.5858 15.223 24.5265 15.2681 25.2017 14.9902C25.7763 14.7562 26.0007 14.2314 25.9047 13.6689C25.7026 12.5742 25.3827 11.4947 25.0153 10.4563C24.7829 10.3988 24.3328 10.6222 24.1106 10.7095C24.3738 11.6715 24.7012 12.7085 24.9553 13.707C24.989 14.107 24.4447 14.3316 24.207 13.9666C23.8237 12.9847 23.5004 11.9804 23.2389 10.9593L23.2372 10.9532C22.9698 10.9599 22.6118 11.1085 22.3592 11.1846L22.353 11.1865L22.3611 11.1907C22.7073 12.2692 22.9986 13.3907 23.3259 14.4748Z" fill="#122344"/>
<path d="M77.9038 24.7515L76.8322 23.8377C76.7985 23.809 76.7723 23.7725 76.7558 23.7314C76.7394 23.6903 76.7332 23.6458 76.7377 23.6017L76.8829 22.2011C76.9062 21.9759 76.6613 21.8218 76.4684 21.9403L75.2682 22.677C75.2305 22.7002 75.1877 22.7138 75.1435 22.7168C75.0993 22.7197 75.0551 22.7119 75.0146 22.6939L73.7273 22.1229C73.5204 22.0311 73.298 22.2165 73.351 22.4366L73.6808 23.8056C73.6912 23.8486 73.691 23.8935 73.6801 23.9364C73.6693 23.9794 73.6481 24.019 73.6185 24.0519L72.6778 25.0997C72.5265 25.2682 72.6341 25.537 72.8598 25.5545L74.2637 25.6639C74.3078 25.6673 74.3505 25.6814 74.388 25.705C74.4254 25.7286 74.4566 25.761 74.4788 25.7993L75.1846 27.0179C75.2981 27.2138 75.5869 27.1945 75.6733 26.9853L76.2111 25.684C76.228 25.6431 76.2546 25.6069 76.2887 25.5785C76.3227 25.5502 76.3631 25.5305 76.4064 25.5213L77.7834 25.2265C78.0051 25.179 78.0761 24.8983 77.9038 24.7515ZM76.5851 37.6966C76.5635 37.6643 76.5502 37.6272 76.5461 37.5886C76.5421 37.55 76.5475 37.511 76.5619 37.4749L77.0194 36.3285C77.093 36.1442 76.9233 35.9556 76.7322 36.0094L75.5441 36.3436C75.5068 36.3541 75.4674 36.3554 75.4295 36.3473C75.3915 36.3392 75.3561 36.322 75.3263 36.2971L74.3775 35.5079C74.225 35.381 73.9931 35.4841 73.9852 35.6823L73.9358 36.9155C73.9343 36.9543 73.9233 36.9921 73.9039 37.0257C73.8845 37.0593 73.8572 37.0877 73.8243 37.1084L72.7805 37.767C72.6126 37.8728 72.6391 38.1251 72.8251 38.194L73.9827 38.6219C74.0566 38.6493 74.1124 38.7112 74.1317 38.7875L74.4355 39.9839C74.4843 40.1763 74.7324 40.229 74.8554 40.0733L75.6201 39.1045C75.6442 39.0741 75.6753 39.0499 75.7107 39.0342C75.7462 39.0184 75.785 39.0115 75.8237 39.0141L77.0554 39.0948C77.2534 39.1077 77.3802 38.8881 77.2702 38.7231L76.5851 37.6966ZM68.2565 13.0122L67.1827 13.1145C67.149 13.1178 67.1149 13.1128 67.0836 13.0999C67.0522 13.087 67.0244 13.0667 67.0027 13.0407L66.3097 12.2142C66.1981 12.0814 65.9829 12.1339 65.9452 12.3032L65.7108 13.3559C65.7034 13.389 65.6881 13.4198 65.6662 13.4457C65.6443 13.4715 65.6164 13.4917 65.585 13.5044L64.5848 13.9081C64.4241 13.973 64.4075 14.1941 64.5568 14.2821L65.4856 14.8304C65.5449 14.8653 65.5831 14.9273 65.588 14.996L65.663 16.072C65.675 16.2449 65.88 16.329 66.0101 16.2143L66.8186 15.5004C66.844 15.478 66.8745 15.462 66.9075 15.454C66.9404 15.4459 66.9748 15.446 67.0077 15.4542L68.0541 15.7155C68.2223 15.7576 68.3657 15.5885 68.2967 15.4294L67.8675 14.4399C67.854 14.4088 67.8483 14.3749 67.8508 14.3411C67.8534 14.3073 67.8641 14.2746 67.8821 14.2459L68.4539 13.3313C68.5456 13.1843 68.4291 12.9957 68.2565 13.0122ZM15.2294 43.9111L13.8254 43.8018C13.7813 43.7983 13.7386 43.7842 13.7011 43.7606C13.6637 43.737 13.6325 43.7046 13.6103 43.6663L12.9045 42.4477C12.791 42.252 12.5023 42.2712 12.4158 42.4803L11.878 43.7818C11.8611 43.8227 11.8344 43.8589 11.8004 43.8872C11.7664 43.9156 11.726 43.9352 11.6827 43.9445L10.3057 44.2393C10.0843 44.2867 10.0133 44.5673 10.1856 44.7141L11.2572 45.6279C11.3256 45.6862 11.3609 45.7745 11.3516 45.8639L11.2065 47.2645C11.1832 47.4897 11.4281 47.6439 11.621 47.5255L12.8212 46.7888C12.8589 46.7656 12.9017 46.7519 12.9459 46.749C12.9901 46.7461 13.0343 46.7539 13.0748 46.7719L14.3621 47.3428C14.569 47.4347 14.7914 47.2493 14.7384 47.0292L14.4086 45.66C14.3982 45.617 14.3985 45.5721 14.4093 45.5292C14.4202 45.4863 14.4413 45.4466 14.4709 45.4137L15.4116 44.3659C15.5626 44.1975 15.455 43.9287 15.2294 43.9111ZM20.602 66.8143L19.4443 66.3864C19.4079 66.3729 19.3753 66.3508 19.3494 66.322C19.3234 66.2931 19.3049 66.2584 19.2953 66.2208L18.9915 65.0245C18.9428 64.8322 18.6946 64.7793 18.5717 64.935L17.8069 65.9038C17.7829 65.9343 17.7518 65.9584 17.7163 65.9742C17.6809 65.9899 17.6421 65.9968 17.6034 65.9943L16.3718 65.9135C16.1738 65.9006 16.0469 66.1203 16.157 66.2853L16.842 67.3121C16.8857 67.3776 16.8944 67.4604 16.8651 67.5336L16.4076 68.6799C16.334 68.8641 16.5038 69.0529 16.6948 68.9991L17.8829 68.6649C17.9203 68.6544 17.9596 68.6531 17.9976 68.6612C18.0355 68.6693 18.071 68.6865 18.1008 68.7113L19.0497 69.5006C19.2022 69.6275 19.4341 69.5244 19.442 69.3262L19.4914 68.093C19.4929 68.0542 19.5039 68.0164 19.5233 67.9828C19.5427 67.9492 19.57 67.9208 19.6029 67.9001L20.6467 67.2415C20.8143 67.1355 20.788 66.8832 20.602 66.8143ZM11.5466 57.3664C11.5175 57.3492 11.4929 57.3251 11.475 57.2963C11.4572 57.2674 11.4467 57.2347 11.4443 57.2008L11.3693 56.1248C11.3573 55.9519 11.1521 55.8678 11.0221 55.9826L10.2136 56.6964C10.1882 56.7189 10.1577 56.7348 10.1248 56.7429C10.0919 56.7509 10.0575 56.7508 10.0246 56.7426L8.97813 56.4813C8.80994 56.4393 8.66659 56.6084 8.7356 56.7676L9.16475 57.7571C9.19217 57.8203 9.18669 57.8928 9.15013 57.9511L8.57838 58.8657C8.48652 59.0127 8.60306 59.2013 8.77566 59.1848L9.84938 59.0824C9.91794 59.0759 9.98527 59.1035 10.0296 59.1562L10.7226 59.9826C10.834 60.1155 11.0494 60.0629 11.087 59.8937L11.3215 58.841C11.3364 58.7738 11.3835 58.7182 11.4473 58.6924L12.4475 58.2887C12.6082 58.2238 12.6248 58.0028 12.4755 57.9147L11.5466 57.3664Z" fill="#55C9F5"/>
</g>
<defs>
<clipPath id="clip0_28_4639">
<rect width="78" height="78" fill="white"/>
</clipPath>
</defs>
</svg>
